<svg xmlns="http://www.w3.org/2000/svg" viewBox="0 0 28.43 28.38"><defs><style>.cls-1{fill:#90fd00;}.cls-1,.cls-2{fill-rule:evenodd;}.cls-2{fill:#91fd00;}</style></defs><g id="Layer_2" data-name="Layer 2"><g id="Layer_1-2" data-name="Layer 1"><path class="cls-1" d="M28.42,8.66A8.53,8.53,0,0,0,20.16.07C16.25,0,12.32,0,8.41.07A8.61,8.61,0,0,0,.07,8.38q-.13,5.88,0,11.76a8.52,8.52,0,0,0,8.49,8.23H20.19a8.45,8.45,0,0,0,8.23-8.2c0-2,0-3.92,0-5.87Zm-2,11a6.58,6.58,0,0,1-6.59,6.68q-5.52.07-11,0a6.56,6.56,0,0,1-6.56-6.58c0-1.84,0-3.68,0-5.52s0-3.6,0-5.4a6.54,6.54,0,0,1,6.6-6.65q5.52-.08,11,0a6.5,6.5,0,0,1,6.56,6.68Q26.43,14.26,26.38,19.66Z"/><path class="cls-2" d="M21.77,8.06C20.9,6.64,19.34,6.69,18,6.17c-.83-.34-1.14.19-1.48.74a.24.24,0,0,1-.2.09c-1.56-.59-3.49,1-4.85-.82-.06-.08-.21-.1-.32-.12A6.85,6.85,0,0,0,6.73,8.21a14.66,14.66,0,0,0-2.29,6.38c-.39,4.82-.85,4.18,3.48,6.31.14.07.31.11.44.19,1.09.66,1.5-.15,1.86-.91.43-.94-.55-.7-.91-1-.14-.11-.35-.17-.22-.59a13,13,0,0,0,10.27-.06l0,.31a2.59,2.59,0,0,1-.31.35c-.37.29-1.22.24-.65,1.13.43.68.73,1.27,1.73.78a27,27,0,0,0,3.49-1.84,1.2,1.2,0,0,0,.64-1.05A17.26,17.26,0,0,0,21.77,8.06ZM10.92,16.54a2,2,0,0,1-1.78-2.18,1.92,1.92,0,0,1,1.91-1.9,1.9,1.9,0,0,1,1.69,2.09A1.93,1.93,0,0,1,10.92,16.54Zm6.73,0a2,2,0,0,1-1.81-2,1.93,1.93,0,0,1,1.71-2.08,1.91,1.91,0,0,1,1.89,1.92A2,2,0,0,1,17.65,16.54Z"/></g></g></svg>