<svg xmlns="http://www.w3.org/2000/svg" viewBox="0 0 28.52 28.34"><defs><style>.cls-1{fill:#90fd00;fill-rule:evenodd;}</style></defs><g id="Layer_2" data-name="Layer 2"><g id="Layer_1-2" data-name="Layer 1"><path class="cls-1" d="M28.49,8.72A8.65,8.65,0,0,0,19.89.05C16.13,0,12.37,0,8.61.05A8.57,8.57,0,0,0,.13,8C0,12.15,0,16.36.13,20.55a8.39,8.39,0,0,0,8.38,7.79H19.9a8.43,8.43,0,0,0,8.58-8.46C28.53,16.16,28.52,12.44,28.49,8.72ZM26.32,20.34a6.38,6.38,0,0,1-6.48,6q-5.52.06-11,0a6.51,6.51,0,0,1-6.58-6.54q-.08-5.52,0-11A6.51,6.51,0,0,1,8.88,2.17c1.8,0,3.6,0,5.4,0s3.68,0,5.52,0a6.38,6.38,0,0,1,6.52,5.94A97.86,97.86,0,0,1,26.32,20.34Z"/><path class="cls-1" d="M14.94,11.75c0-2.2,0-4.39,0-6.59,0-.72.19-1.06.94-1a1,1,0,0,0,.24,0c2,0,2,0,2.67,1.77.61,1.6,1.37,2.14,3.35,2.07,1.13,0,1.53.21,1.47,1.42-.1,2.16,0,2.16-2.23,2A5.47,5.47,0,0,1,19.17,11c-.7-.35-.8-.07-.79.57,0,2.31,0,4.63,0,7,0,3.86-2.9,6.49-6.94,6.43a6.42,6.42,0,0,1-6-6.51A6.56,6.56,0,0,1,12.09,12c.7,0,1.07.15,1,.92a2.41,2.41,0,0,0,0,.6c.13,1.21,0,2-1.61,2.07a2.75,2.75,0,0,0-2.53,3.19,3,3,0,0,0,6-.17c.06-2.27,0-4.55,0-6.83Z"/></g></g></svg>