<svg xmlns="http://www.w3.org/2000/svg" viewBox="0 0 112.37 25.8"><defs><style>.cls-1{fill:#ff00e7;}</style></defs><g id="Layer_2" data-name="Layer 2"><g id="Layer_1-2" data-name="Layer 1"><path class="cls-1" d="M12.45,1.88c.74.45,1.22,1.75,1.45,3.9s0,3.44-.54,3.86-1.07.58-1.38.37-.43-.11-.38.31.35.83,1,1.12a2,2,0,0,1,1.16,1.36,14.69,14.69,0,0,1,0,3.43,9.75,9.75,0,0,1-1.34,4.38,10.54,10.54,0,0,1-5.11,4.52c-1.12.46-1.84.5-2.16.13a1.15,1.15,0,0,0-1.08-.47,1.3,1.3,0,0,0-.75.34.7.7,0,0,1-.6.22c-.3,0-.46-.09-.48-.26s-.22-.24-.56-.21a1.14,1.14,0,0,0-.82.34c-.17.2-.39.21-.66,0s-.24-.78,0-2a14.63,14.63,0,0,1,.64-2.48,14.34,14.34,0,0,0,.53-2.24c.21-1.07.33-1.91.39-2.54s.09-1.85.28-3.75a10,10,0,0,1,.91-3.89,2.57,2.57,0,0,0,.51-1.51,3,3,0,0,1,0-1.09A11,11,0,0,0,3.31,4,3.46,3.46,0,0,1,4,1.62c.54-.74,2-1,4.32-.77A12.48,12.48,0,0,1,12.45,1.88ZM9,13.36q-.72.68-.84.51a1.91,1.91,0,0,0-1.32-.68Q6,13.27,5.5,15.11a29.44,29.44,0,0,0-.67,3.37c-.22,1.47,0,2.27.62,2.39a3.55,3.55,0,0,0,2.34-.41,3.39,3.39,0,0,0,1.9-1.81c.29-.77.25-2.29-.12-4.57C9.38,13.43,9.19,13.19,9,13.36ZM6.55,4.9c-.28.4-.26,1.52.06,3.37a1.56,1.56,0,0,0,2-.14A7.91,7.91,0,0,0,9.93,4.7C7.9,4.49,6.78,4.55,6.55,4.9Z"/><path class="cls-1" d="M28.46,2.48c.37,1.51.13,2.11-.72,1.79-.4-.18-.75,0-1,.61-.19.35-.64.34-1.36,0,.08.06-.28.33-1.08.79-.34.21-.63.12-.86-.26a1.51,1.51,0,0,0-1.14-.7c-.55-.06-.79.79-.69,2.54A9.2,9.2,0,0,0,22,10.34c.53,1.14,1.18,1.48,1.95,1.05a2.43,2.43,0,0,0,.9-.66,1.36,1.36,0,0,1,.62-.48c.24-.09.4.41.5,1.49a17.46,17.46,0,0,1,.1,2.4c-.06.52-.33.68-.84.46A1.51,1.51,0,0,0,24,14.49a1.29,1.29,0,0,1-1.47-.31.78.78,0,0,0-1.16.22,6.9,6.9,0,0,0-.56,3.28c0,1.77.16,2.74.64,2.88a6.63,6.63,0,0,0,1.28.28c.37.05.76-.31,1.15-1.07.59-1.07,1.56-1.26,2.92-.56.62.32.69,1.05.24,2.18s-.77,2-1,2.58c-.27.76-.86,1-1.8.83s-1.49-.16-1.51.22-.31.32-.93.26a1.23,1.23,0,0,1-1.15-.7q-.36-.82-1,.42t-1.14-.42c-.16-.58-.4-.7-.74-.37a3.44,3.44,0,0,1-.86.68,1.72,1.72,0,0,1-1.07.13q-.72-.09-.48-1.53c.15-1,.38-2.48.66-4.57a16.38,16.38,0,0,1,1.1-4.56c.39-1,.51-3.13.33-6.51a40.75,40.75,0,0,1-.06-6.12c.19-1.07,1.14-1.39,2.84-1a15.22,15.22,0,0,0,3.39.61,1.94,1.94,0,0,0,1.22-.12l1.1-1c.56-.53,1.16-.22,1.8.92A3.61,3.61,0,0,1,28.46,2.48Z"/><path class="cls-1" d="M37.86.88a5.59,5.59,0,0,0,1,0c.54,0,.91.45,1.12,1.52a3,3,0,0,0,.36,1.06,4.23,4.23,0,0,1,.44,1,4.43,4.43,0,0,1-.36,2.16,8.11,8.11,0,0,0-.52,2.32,12.67,12.67,0,0,0,.6,3.36c.45,1.71.78,2.19,1,1.43s.39-1.79.62-3.18a13.49,13.49,0,0,1,.7-2.9,4.63,4.63,0,0,0,.23-2.23,8.77,8.77,0,0,1,.28-2.9,9.76,9.76,0,0,1,.42-1.46s.3-.06.78-.14A23.92,23.92,0,0,1,47.09.76c1.26,0,1.89.16,1.92.57a1.52,1.52,0,0,1-.14.84c-.09.1,0,.34.14.72s0,1.11-.6,2.18a19,19,0,0,0-1.08,2.34c-.22.51-.27.77-.18.78s.14.37.14,1.08a3.51,3.51,0,0,1-.3,1.65,5.7,5.7,0,0,0-.5,1.35,5.38,5.38,0,0,0-.18,1.28,6.07,6.07,0,0,1-.18,1.34c-.16.66-.27,1.08-.32,1.26s-.21.83-.48,2a24.7,24.7,0,0,0-.6,3.69c-.11,1.27-.16,2-.16,2.24,0,.58-.29.66-.71.23-.3-.25-.75-.23-1.36.07-.38.21-.6.16-.68-.13s-.2-.44-.36-.44a2.91,2.91,0,0,0-1.12.8c-.24.26-.49,0-.74-.78a7.86,7.86,0,0,1-.38-2.45c0-.83,0-1.27-.14-1.32a1,1,0,0,0-.58,0c-.32,0-.4-.54-.26-1.68A13.67,13.67,0,0,0,38.42,16c0-.38-.14-.51-.34-.41s-.3,0-.3-.42-.16-1.41-.34-3.1a18.85,18.85,0,0,1-.17-3.17c0-1-.25-1.1-.8-.34a4.37,4.37,0,0,0-.66,2.47,16,16,0,0,1-.3,2.77,32,32,0,0,1-1.28,4.33,6.58,6.58,0,0,0-.4,2c0,.62-.12,1.49-.28,2.6a3.91,3.91,0,0,1-.6,2,.75.75,0,0,1-.84.12q-.39-.12-.75.42c-.25.38-.4.49-.46.34a1.23,1.23,0,0,0-.54-.46,1.53,1.53,0,0,0-1.41.19c-.39.31-.43-.23-.09-1.61a12.94,12.94,0,0,1,.73-2.45,6.75,6.75,0,0,0,.48-2.2c.17-1.25.27-2.24.32-3s.15-1.47.3-2.3A2.92,2.92,0,0,1,31.6,12a2.36,2.36,0,0,0,.53-1.9,4.56,4.56,0,0,0-.34-1.86c-.24-.43,0-1,.84-1.79a3.41,3.41,0,0,0,.86-2,6,6,0,0,0,.1-1.94C33.32,1.41,34,.77,35.51.65a6.53,6.53,0,0,1,1.87.07A2.24,2.24,0,0,1,37.86.88Z"/><path class="cls-1" d="M62.7,2.89c.38,1.48.13,2.06-.72,1.74-.4-.16-.75,0-1,.6-.19.34-.64.33-1.36,0,.08.06-.28.31-1.08.77a.58.58,0,0,1-.86-.26A1.49,1.49,0,0,0,56.5,5c-.55-.06-.79.77-.69,2.47a8.76,8.76,0,0,0,.46,3.07q.79,1.66,1.95,1a2.31,2.31,0,0,0,.9-.64,1.39,1.39,0,0,1,.62-.47c.24-.08.41.4.5,1.45a18.47,18.47,0,0,1,.1,2.35c-.05.51-.33.65-.84.44a1.54,1.54,0,0,0-1.24-.1,1.33,1.33,0,0,1-1.47-.3.78.78,0,0,0-1.16.21,6.58,6.58,0,0,0-.56,3.2c-.06,1.73.16,2.66.64,2.81A7.37,7.37,0,0,0,57,20.8c.37.05.76-.3,1.15-1,.59-1.05,1.56-1.23,2.92-.55.62.31.69,1,.24,2.13s-.77,1.94-1,2.51c-.27.74-.86,1-1.8.81s-1.49-.16-1.51.21-.31.32-.92.26A1.25,1.25,0,0,1,55,24.45c-.24-.54-.58-.41-1,.4s-.82.68-1.14-.4c-.16-.57-.4-.69-.74-.37a3.08,3.08,0,0,1-.86.66,1.64,1.64,0,0,1-1.07.13c-.49-.05-.64-.55-.49-1.49S50,21,50.3,18.93a15.76,15.76,0,0,1,1.09-4.45q.6-1.41.35-6.35a38,38,0,0,1-.07-6c.19-1,1.13-1.36,2.84-.93a15.58,15.58,0,0,0,3.4.59,1.92,1.92,0,0,0,1.21-.12c.18-.14.54-.47,1.1-1s1.16-.21,1.8.9A3.63,3.63,0,0,1,62.7,2.89Z"/><path class="cls-1" d="M64.52,23.17a1.2,1.2,0,0,1-.32-1.45,8.67,8.67,0,0,0,.2-3.22,13.56,13.56,0,0,1,.32-4.17,1.81,1.81,0,0,1,.34-.87c.15-.14.22-.57.22-1.26s0-1.16,0-1.71a5.18,5.18,0,0,1,.34-1.83,6.69,6.69,0,0,0,.14-2.45,10.67,10.67,0,0,0-.42-2.33,3,3,0,0,1,.22-2.19A1.89,1.89,0,0,1,67.16.39,5.81,5.81,0,0,1,68.6.45l1.4.3A3.57,3.57,0,0,0,71.78.69C72.34.51,73,.34,73.71.18a3.82,3.82,0,0,1,2.55.37A2.18,2.18,0,0,1,77.82,2c.38.57.16,1.38-.63,2.46a1.61,1.61,0,0,0-1.33,0c-.58.34-1,.41-1.27.19-.54-.15-.85-.18-1-.08-.43.43-.69.63-.8.61a.62.62,0,0,1-.3-.1A1,1,0,0,0,72.15,5c-.79-.09-1-.06-.72.07-.1,0-.22-.14-.35-.36l0,0c-.42,0-.68.56-.77,1.68a15.29,15.29,0,0,0,0,2.77c.8-.29,1.19-.44,1.16-.44q1.15-.36,1.92,1A4.37,4.37,0,0,1,74,11.84c-.11.66-.36,1-.76.92-.11,0-.21-.08-.32-.24h-.24a2.54,2.54,0,0,0-.8.22,1.26,1.26,0,0,1-.8.14,2.17,2.17,0,0,1-.32-.28c-.16.1-.41,0-.76-.4-.21,0-.33.16-.35.48-.06.59-.14,1.43-.24,2.53a12.27,12.27,0,0,0,0,2.85,19,19,0,0,1,0,3.34A8.45,8.45,0,0,1,69,24.09c-.11.21-.18.3-.22.26s-.13,0-.26.18c-.3.46-.56.5-.8.12a.22.22,0,0,1-.32,0,1.24,1.24,0,0,0-.16.24c-.27.32-.49.3-.68-.08-.32.16-.51,0-.56-.32,0,0-.37-.27-1-.81A1.09,1.09,0,0,1,64.52,23.17Z"/><path class="cls-1" d="M83.25,1.37c1.19.3,1.84.7,1.93,1.21a39.21,39.21,0,0,1,.14,4.65,8.31,8.31,0,0,1-.1,1.23,7.07,7.07,0,0,0-.09,1c0,.22,0,.34-.15.34s-.2.12-.34.38a5.33,5.33,0,0,0-.32,1.91c0,1-.07,1.68-.07,2.06s0,.55-.15.51-.21.09-.34.4a8.67,8.67,0,0,0-.26,2.63,12.59,12.59,0,0,0,.11,2.55,4.8,4.8,0,0,1-.6,1c-.19.31-.26.49-.21.55s0,.17-.27.32a3.25,3.25,0,0,0-.84,1.07,2.58,2.58,0,0,1-1.12.86,1.72,1.72,0,0,1-.94.27,1,1,0,0,0-.7.23,1.32,1.32,0,0,0-.42.41c0,.11-.19.19-.46.27s-.61-.07-.72-.65a3.25,3.25,0,0,1,0-.87,7.86,7.86,0,0,0,.2-1.66c.05-.88.11-1.53.16-1.93a4,4,0,0,1,.6-1.65,6.87,6.87,0,0,0,.76-1.8,1.69,1.69,0,0,0,.06-.92,3.12,3.12,0,0,1-.1-.93,15.76,15.76,0,0,1,.68-3.31q.72-2.67.84-3c.4-.79.42-1.33.08-1.63-.16-.08-.22-.88-.18-2.42a10.16,10.16,0,0,1,.42-3.18c.18-.53.32-.73.4-.59A5.41,5.41,0,0,0,83.25,1.37Z"/><path class="cls-1" d="M99.51,1.59a2,2,0,0,1,.22,1.54,4.43,4.43,0,0,1-.42,1.32,1.16,1.16,0,0,0-.22.83,2.85,2.85,0,0,1-.06,1q-.12.6-.48.36a1.75,1.75,0,0,0-.8-.28A2.54,2.54,0,0,0,96,7.11a1.29,1.29,0,0,0-.3,1.19c.06.56.1.94.1,1.16,0-.08-.18.15-.52.71a5.53,5.53,0,0,0-.3,2c0,1-.06,1.75-.06,2.14s0,.61-.14.56-.21.07-.34.36A9.33,9.33,0,0,0,94.2,18a13.76,13.76,0,0,0,.08,2.66c0,.14-.16.48-.56,1-.22.31-.29.51-.22.59s0,.18-.26.28a3.8,3.8,0,0,0-.88,1.07,2.16,2.16,0,0,1-1.08.84,2,2,0,0,1-1,.18.89.89,0,0,0-.67.18,1.51,1.51,0,0,0-.43.43c0,.11-.19.19-.45.24-.46.11-.72-.14-.8-.75a2.22,2.22,0,0,1,0-.92,9,9,0,0,0,.24-1.71c.08-.92.13-1.6.16-2A3.77,3.77,0,0,1,89,18.42a6.7,6.7,0,0,0,.77-1.85,2,2,0,0,0,.07-1,3.09,3.09,0,0,1-.1-1,16.58,16.58,0,0,1,.67-3.44c.48-1.84.76-2.85.84-3,.35-.87.36-1.44,0-1.71s-.79-.16-1.52.24a1.45,1.45,0,0,1-1.11.12c-.32,0-.45-.36-.38-.91a11.1,11.1,0,0,0,.1-1.31,7.44,7.44,0,0,1,.32-2.19,2,2,0,0,1,2-1.51A17.87,17.87,0,0,1,94,.79,22.55,22.55,0,0,0,97.83.63,3.08,3.08,0,0,1,99.51,1.59Z"/><path class="cls-1" d="M112.33,3.49a.81.81,0,0,1-.35.94c-.43.33-.66.57-.68.72a6.21,6.21,0,0,1-.4,1.17,2.09,2.09,0,0,1-.68,1c-.3.15-.52.12-.66-.1a.81.81,0,0,0-.58-.36.6.6,0,0,0-.48.15c-.08.11-.25.16-.52.16a2.64,2.64,0,0,0-1.43.53,1.09,1.09,0,0,0-.32,1.23c.13.54.26,1,.39,1.42a14.75,14.75,0,0,0,1.88,3.25,7.07,7.07,0,0,1,.86,2.91c.14,1.27.22,2.11.22,2.54a6,6,0,0,1-.78,2.23,10,10,0,0,1-1.34,2.16q-.55.64-.6.51c0-.09-.31,0-.84.21s-.76.38-.7.45,0,.19-.37.35a2.82,2.82,0,0,1-1.38.22l-1.34-.07a1.27,1.27,0,0,1-.78-.23,1.21,1.21,0,0,0-.74-.23q-.48,0-.42.42a.69.69,0,0,1-.18.64c-.18.15-.37.12-.55-.09a1,1,0,0,1-.17-.89,2.63,2.63,0,0,1,.17-.72c0-.1,0-.38-.29-.83a2.31,2.31,0,0,1-.18-1.55q.18-.89.3-1.44c.06-.33,0-.46-.18-.4s-.28-.1-.34-.47c-.18-.94.63-1.75,2.44-2.43q1-.33,1.14.06c.06.27.14.53.22.78a1.57,1.57,0,0,1-.14.92,1,1,0,0,0,.1,1c.16.38.5.38,1,0a3.69,3.69,0,0,0,1.06-1c.26-.48.08-1.07-.56-1.78-.11-.07-.13-.49-.08-1.25a1.77,1.77,0,0,0-.52-1.05,1.18,1.18,0,0,0-.62-.38c-.23-.06-.38-.26-.46-.61a10.14,10.14,0,0,1-.2-1.49,3.4,3.4,0,0,0-.36-1.5,4.73,4.73,0,0,1-.12-2.27,13.86,13.86,0,0,1,.84-2.86,29,29,0,0,1,1.12-2.78c.16-.38.61-.61,1.36-.68A3.8,3.8,0,0,0,107,1.37,2.4,2.4,0,0,1,108.62,1c.64.09,1.23.15,1.76.18s1.08.6,1.64,1.74A5.45,5.45,0,0,1,112.33,3.49Z"/></g></g></svg>