<svg xmlns="http://www.w3.org/2000/svg" viewBox="0 0 54.21 10.68"><defs><style>.cls-1{fill:#ff00e7;}</style></defs><g id="Layer_2" data-name="Layer 2"><g id="Layer_1-2" data-name="Layer 1"><path class="cls-1" d="M4.94,1.11c.29.17.48.66.57,1.45S5.53,3.84,5.3,4s-.42.21-.55.13-.17,0-.15.12.14.31.38.41a.75.75,0,0,1,.46.51,4.57,4.57,0,0,1,0,1.27,3.46,3.46,0,0,1-.53,1.63,4.14,4.14,0,0,1-2,1.68c-.44.17-.73.18-.85.05a.48.48,0,0,0-.43-.18.52.52,0,0,0-.3.13.3.3,0,0,1-.24.08c-.12,0-.18,0-.19-.1S.79,9.64.66,9.65a.5.5,0,0,0-.33.13.19.19,0,0,1-.26,0C0,9.75,0,9.51.07,9.05a6.11,6.11,0,0,1,.25-.92A4.55,4.55,0,0,0,.54,7.3a9.13,9.13,0,0,0,.15-.94c0-.22,0-.69.11-1.4a3.61,3.61,0,0,1,.36-1.44A.85.85,0,0,0,1.36,3a1.13,1.13,0,0,1,0-.41,4.76,4.76,0,0,0,0-.65A1.19,1.19,0,0,1,1.58,1C1.79.74,2.36.65,3.29.73A5.39,5.39,0,0,1,4.94,1.11ZM3.57,5.38c-.19.16-.3.23-.33.19a.78.78,0,0,0-.52-.26c-.22,0-.4.26-.54.71a10.28,10.28,0,0,0-.26,1.26c-.09.55,0,.84.24.88A1.4,1.4,0,0,0,3.09,8a1.23,1.23,0,0,0,.75-.67,3.71,3.71,0,0,0,0-1.7C3.72,5.4,3.65,5.31,3.57,5.38Zm-.8-3a1.48,1.48,0,0,0,0,.81.34.34,0,0,0,.46,0,1.82,1.82,0,0,0,.3-.83C3.08,2.31,2.82,2.33,2.77,2.41Z"/><path class="cls-1" d="M11.57,1.67c.15.55,0,.76-.28.65-.16-.07-.3,0-.42.22s-.25.12-.53,0c0,0-.12.12-.43.29a.23.23,0,0,1-.34-.1.63.63,0,0,0-.45-.25c-.23,0-.32.28-.28.92A3.43,3.43,0,0,0,9,4.52c.21.41.47.54.78.38a.82.82,0,0,0,.35-.24.53.53,0,0,1,.25-.17c.09,0,.16.15.2.54a8,8,0,0,1,0,.87c0,.19-.14.24-.34.16a.72.72,0,0,0-.49,0,.53.53,0,0,1-.58-.11A.33.33,0,0,0,8.77,6a2.39,2.39,0,0,0-.23,1.19c0,.65.07,1,.26,1.05a4.13,4.13,0,0,0,.51.1c.14,0,.3-.11.46-.39s.61-.46,1.15-.2c.25.11.28.38.1.79s-.31.72-.38.93-.35.38-.72.3-.59,0-.6.08S9.2,10,9,9.94a.49.49,0,0,1-.46-.25c-.1-.21-.23-.15-.41.15s-.32.25-.45-.15c-.06-.22-.16-.26-.29-.14A1.79,1.79,0,0,1,7,9.8a.71.71,0,0,1-.43,0c-.19,0-.25-.2-.19-.55s.15-.9.26-1.66A5.58,5.58,0,0,1,7.09,6a6.28,6.28,0,0,0,.13-2.36,13.18,13.18,0,0,1,0-2.22c.07-.39.45-.51,1.12-.35a6.52,6.52,0,0,0,1.35.22c.25,0,.41,0,.48-.05l.44-.36c.22-.19.46-.08.71.33A1.25,1.25,0,0,1,11.57,1.67Z"/><path class="cls-1" d="M15,.18l.4,0c.21,0,.36.19.44.64a1.34,1.34,0,0,0,.14.44,1.59,1.59,0,0,1,.18.43,2,2,0,0,1-.14.9,3.39,3.39,0,0,0-.21,1,5.47,5.47,0,0,0,.24,1.4c.18.71.31.91.39.59s.16-.74.25-1.32A5.58,5.58,0,0,1,17,3a2.12,2.12,0,0,0,.09-.93A3.85,3.85,0,0,1,17.19.86a3.39,3.39,0,0,1,.17-.61l.31-.06a8.44,8.44,0,0,1,1-.06c.5,0,.75.07.76.24a.78.78,0,0,1-.05.35s0,.14.05.3,0,.46-.23.91a6.64,6.64,0,0,0-.43,1c-.09.21-.11.32-.07.33s.05.15.05.45a1.52,1.52,0,0,1-.12.69,2.77,2.77,0,0,0-.2.56,2.64,2.64,0,0,0-.07.53A1.93,1.93,0,0,1,18.3,6c-.06.28-.1.45-.12.53s-.09.35-.19.82a9.69,9.69,0,0,0-.24,1.54c0,.53-.07.84-.07.93,0,.25-.11.28-.28.1s-.3-.1-.54,0-.24.07-.27-.05-.08-.19-.14-.19-.23.12-.45.34-.19,0-.29-.33a3.4,3.4,0,0,1-.15-1,1.5,1.5,0,0,0-.05-.56.52.52,0,0,0-.23,0c-.13,0-.17-.22-.11-.7a6,6,0,0,0,.07-1c0-.16-.05-.22-.13-.17s-.12,0-.12-.18-.07-.59-.13-1.29a9.12,9.12,0,0,1-.08-1.32c0-.42-.09-.46-.31-.15a1.87,1.87,0,0,0-.26,1,8,8,0,0,1-.12,1.16,15,15,0,0,1-.51,1.81,2.77,2.77,0,0,0-.16.81c0,.26-.05.62-.11,1.09a1.65,1.65,0,0,1-.24.84.3.3,0,0,1-.33,0c-.11,0-.21,0-.3.17s-.16.21-.18.14A.54.54,0,0,0,12,10.3a.58.58,0,0,0-.55.08c-.16.13-.17-.09,0-.67a5.2,5.2,0,0,1,.29-1,2.8,2.8,0,0,0,.19-.92c.07-.52.11-.93.13-1.24a9.66,9.66,0,0,1,.12-1,1.26,1.26,0,0,1,.35-.75A1,1,0,0,0,12.75,4a2,2,0,0,0-.14-.78c-.09-.18,0-.43.34-.74a1.56,1.56,0,0,0,.34-.83,3.05,3.05,0,0,0,0-.81c-.11-.47.14-.73.76-.79a2.54,2.54,0,0,1,.74,0Z"/><path class="cls-1" d="M24.87,1.67c.15.55.06.76-.28.65-.16-.07-.3,0-.41.22s-.26.12-.54,0c0,0-.11.12-.43.29a.23.23,0,0,1-.34-.1.63.63,0,0,0-.45-.25c-.22,0-.32.28-.28.92a3.43,3.43,0,0,0,.18,1.14c.21.41.47.54.78.38a.87.87,0,0,0,.36-.24.51.51,0,0,1,.24-.17c.1,0,.16.15.2.54a6,6,0,0,1,0,.87c0,.19-.13.24-.33.16a.72.72,0,0,0-.49,0,.54.54,0,0,1-.59-.11.33.33,0,0,0-.46.08,2.32,2.32,0,0,0-.22,1.19c0,.65.06,1,.25,1.05a4.13,4.13,0,0,0,.51.1c.15,0,.3-.11.46-.39s.62-.46,1.15-.2c.25.11.28.38.1.79s-.31.72-.38.93-.34.38-.71.3-.6,0-.61.08-.12.12-.36.1a.5.5,0,0,1-.46-.25c-.09-.21-.23-.15-.4.15s-.33.25-.46-.15c-.06-.22-.16-.26-.29-.14a1.52,1.52,0,0,1-.34.25.7.7,0,0,1-.43,0c-.19,0-.25-.2-.19-.55s.15-.9.26-1.66A5.91,5.91,0,0,1,20.39,6a6.28,6.28,0,0,0,.13-2.36,14.48,14.48,0,0,1,0-2.22c.07-.39.45-.51,1.13-.35A6.33,6.33,0,0,0,23,1.27c.26,0,.42,0,.49-.05l.43-.36q.33-.28.72.33A1.38,1.38,0,0,1,24.87,1.67Z"/><path class="cls-1" d="M25.6,9.56A.48.48,0,0,1,25.47,9a3.39,3.39,0,0,0,.08-1.27,5.37,5.37,0,0,1,.13-1.65.65.65,0,0,1,.13-.34c.06-.06.09-.22.09-.5s0-.45,0-.67A2,2,0,0,1,26,3.84a2.7,2.7,0,0,0,0-1A4.88,4.88,0,0,0,25.92,2,1.15,1.15,0,0,1,26,1.09a.79.79,0,0,1,.64-.52,2.16,2.16,0,0,1,.57,0l.56.12a1.38,1.38,0,0,0,.7,0c.23-.07.49-.13.77-.2a1.55,1.55,0,0,1,1,.15.87.87,0,0,1,.62.58c.14.23.06.55-.26,1a.66.66,0,0,0-.52,0c-.23.14-.4.16-.51.08s-.34-.07-.38,0-.27.25-.32.24a.3.3,0,0,1-.11,0l-.15-.06c-.32,0-.42,0-.29,0,0,0-.09-.06-.14-.14l0,0c-.17,0-.27.23-.31.67a6.7,6.7,0,0,0,0,1.09l.46-.17c.31-.1.56,0,.77.39a1.7,1.7,0,0,1,.28.86c0,.26-.14.39-.3.36a.17.17,0,0,1-.13-.09h-.09a1,1,0,0,0-.32.09.6.6,0,0,1-.32,0l-.12-.11c-.07,0-.17,0-.3-.16s-.14.07-.15.19-.05.57-.09,1a5.31,5.31,0,0,0,0,1.13,7.85,7.85,0,0,1,0,1.31,3.08,3.08,0,0,1-.19,1.06c0,.09-.07.12-.08.11s-.05,0-.11.07-.22.19-.31,0c-.05,0-.09,0-.13,0a.29.29,0,0,0-.06.1c-.11.12-.2.11-.27,0-.13.07-.2,0-.22-.12a4.7,4.7,0,0,1-.42-.32A.44.44,0,0,1,25.6,9.56Z"/><path class="cls-1" d="M33,.38c.47.13.73.3.76.51a16.78,16.78,0,0,1,.06,1.95,3.25,3.25,0,0,1,0,.51,3.06,3.06,0,0,0,0,.42c0,.1,0,.15-.05.15s-.09.05-.14.16a2.56,2.56,0,0,0-.13.8c0,.41,0,.7,0,.86s0,.23-.05.21-.08,0-.14.17a3.56,3.56,0,0,0-.1,1.1,5.67,5.67,0,0,0,0,1.07,2.08,2.08,0,0,1-.24.43c-.07.13-.1.2-.08.23s0,.07-.11.13a1.46,1.46,0,0,0-.33.45,1,1,0,0,1-.45.36.63.63,0,0,1-.37.11.34.34,0,0,0-.27.1c-.1.07-.16.13-.17.17a.29.29,0,0,1-.18.11c-.15.07-.25,0-.29-.27a1.5,1.5,0,0,1,0-.36,3.76,3.76,0,0,0,.08-.7q0-.56.06-.81a1.7,1.7,0,0,1,.24-.69,2.89,2.89,0,0,0,.3-.75.77.77,0,0,0,0-.39,1.46,1.46,0,0,1,0-.39,6.84,6.84,0,0,1,.27-1.38c.19-.75.3-1.16.33-1.25.16-.32.17-.55,0-.68s-.09-.37-.07-1A4.45,4.45,0,0,1,32.09.37c.08-.22.13-.31.16-.25A1.93,1.93,0,0,0,33,.38Z"/><path class="cls-1" d="M39.25,1.33a1.14,1.14,0,0,1-.18.51c-.08.11-.18.27-.31.48a7.62,7.62,0,0,1-.44.66c-.09.06-.22-.1-.39-.46,0-.11-.13,0-.25.3a.82.82,0,0,0-.09.34.35.35,0,0,1-.15.3,1.72,1.72,0,0,0-.46.79c0,.13-.08.35-.14.67a3.74,3.74,0,0,1-.2.74,4.6,4.6,0,0,0-.2,1.12c0,.56,0,.88.08,1s.28,0,.53-.37c.09-.14.27-.16.54-.08.11.06.13.39,0,1s-.14,1-.17,1.19a.51.51,0,0,1-.26.38.93.93,0,0,0-.31.26.58.58,0,0,0-.11.26.31.31,0,0,1-.11.2c-.13.13-.24.1-.34-.09a3,3,0,0,0-.8-.4,1.08,1.08,0,0,1-.64-.88c0-.19-.1-.28-.13-.27s-.1,0-.17-.11a1,1,0,0,1,0-.61,6.92,6.92,0,0,0,0-1.17,7.09,7.09,0,0,1,.25-1.86,6.62,6.62,0,0,1,.44-1.42A11.64,11.64,0,0,0,36,2.41c.34-.78.57-1.3.68-1.57s.21-.38.34-.35a1.5,1.5,0,0,0,.61,0,1.21,1.21,0,0,0,.63-.23,1.27,1.27,0,0,1,.6-.26c.26,0,.4.27.45.89A1.41,1.41,0,0,1,39.25,1.33Z"/><path class="cls-1" d="M41.13.38c.48.13.73.3.77.51A16.78,16.78,0,0,1,42,2.84c0,.15,0,.32,0,.51a3.06,3.06,0,0,0,0,.42q0,.15-.06.15s-.08.05-.13.16a2.06,2.06,0,0,0-.13.8c0,.41,0,.7,0,.86s0,.23-.06.21-.08,0-.13.17a3.43,3.43,0,0,0-.11,1.1,6.82,6.82,0,0,0,0,1.07,2.33,2.33,0,0,1-.23.43c-.08.13-.1.2-.08.23s0,.07-.11.13a1.31,1.31,0,0,0-.34.45,1,1,0,0,1-.44.36.65.65,0,0,1-.37.11.36.36,0,0,0-.28.1.52.52,0,0,0-.17.17s-.07.08-.18.11-.24,0-.28-.27a1.47,1.47,0,0,1,0-.36,3.76,3.76,0,0,0,.08-.7q0-.56.06-.81a1.7,1.7,0,0,1,.24-.69,2.89,2.89,0,0,0,.3-.75,1,1,0,0,0,0-.39,1.13,1.13,0,0,1,0-.39,6.84,6.84,0,0,1,.27-1.38c.19-.75.3-1.16.33-1.25.16-.32.17-.55,0-.68S40,2.34,40,1.7A4.37,4.37,0,0,1,40.2.37c.07-.22.12-.31.15-.25A2.1,2.1,0,0,0,41.13.38Z"/><path class="cls-1" d="M48,.11a1.23,1.23,0,0,1,.55.84q.18.63.27,1a1.27,1.27,0,0,1-.13.81,3.81,3.81,0,0,0-.33,1.09,8.17,8.17,0,0,0-.13,1.46,6.32,6.32,0,0,1-.09,1.22,4.42,4.42,0,0,0-.18.77,2.31,2.31,0,0,1-.41.88,1.62,1.62,0,0,0-.34.62c0,.07-.07.25-.27.53s-.38.4-.51.34a1.78,1.78,0,0,0-.59-.08,1.07,1.07,0,0,0-.9.63c-.11.16-.24.16-.39,0A2.25,2.25,0,0,0,44,9.8c-.22-.13-.31-.09-.26.11a.28.28,0,0,1-.2.39c-.19.07-.32-.05-.4-.35a7.48,7.48,0,0,0-.32-1,4.89,4.89,0,0,1,0-2.86,5.87,5.87,0,0,0,.12-2,9.46,9.46,0,0,1,0-1.71,1.35,1.35,0,0,1,.43-.82c.24-.22.48-.47.71-.72a1.8,1.8,0,0,1,.49-.43,6,6,0,0,1,.75-.14c.41-.06.94-.13,1.6-.19A1.86,1.86,0,0,1,48,.11Zm-2.14,2c-.5-.34-.76-.3-.78.13a7.24,7.24,0,0,1-.25,1.25,6.84,6.84,0,0,0-.3,2.14c0,.44,0,.84,0,1.18s.1.51.32.51a2.84,2.84,0,0,1,.82.17c.33.11.53,0,.59-.36a3.82,3.82,0,0,1,.32-1A8.21,8.21,0,0,0,47,5c.13-.44.21-.77.26-1a2.4,2.4,0,0,0,0-.88c-.1-.47-.3-.72-.62-.73A1.35,1.35,0,0,1,45.82,2.11Z"/><path class="cls-1" d="M54.2,1.27a.36.36,0,0,1-.15.4q-.25.2-.27.3a3,3,0,0,1-.15.49,1,1,0,0,1-.27.41c-.12.07-.21,0-.27,0a.28.28,0,0,0-.23-.15.25.25,0,0,0-.19.06s-.1.07-.2.07A1,1,0,0,0,51.9,3a.48.48,0,0,0-.13.51c0,.23.11.43.16.6a6,6,0,0,0,.74,1.36A3.11,3.11,0,0,1,53,6.72c0,.53.08.88.08,1.06a2.52,2.52,0,0,1-.31.94,4,4,0,0,1-.53.9c-.15.18-.22.25-.24.22s-.12,0-.33.08-.3.16-.28.19,0,.08-.15.15a1.07,1.07,0,0,1-.54.09l-.53,0a.45.45,0,0,1-.31-.1.49.49,0,0,0-.3-.09c-.12,0-.18.06-.16.17a.33.33,0,0,1-.07.27c-.08.07-.15,0-.22,0a.41.41,0,0,1-.07-.37.8.8,0,0,1,.07-.3s0-.16-.12-.35a1.08,1.08,0,0,1-.07-.65q.08-.36.12-.6c0-.14,0-.19-.07-.17s-.11,0-.13-.2c-.08-.39.24-.72,1-1,.28-.09.43-.09.45,0s.06.22.09.33a.78.78,0,0,1,0,.39.43.43,0,0,0,0,.42c.06.16.19.16.4,0a1.63,1.63,0,0,0,.42-.42c.1-.21,0-.45-.22-.75-.05,0-.06-.21,0-.52a.75.75,0,0,0-.21-.45.47.47,0,0,0-.25-.15c-.09,0-.15-.11-.18-.26a4,4,0,0,1-.08-.62,1.63,1.63,0,0,0-.14-.63,2.15,2.15,0,0,1-.05-1,5.49,5.49,0,0,1,.34-1.2A11.82,11.82,0,0,1,50.79.94c.06-.16.24-.26.54-.29a1.4,1.4,0,0,0,.73-.27.93.93,0,0,1,.66-.13,6.62,6.62,0,0,0,.7.07c.21,0,.43.25.65.73Z"/></g></g></svg>