<svg xmlns="http://www.w3.org/2000/svg" viewBox="0 0 45.17 10.54"><defs><style>.cls-1{fill:#ff00e7;}</style></defs><g id="Layer_2" data-name="Layer 2"><g id="Layer_1-2" data-name="Layer 1"><path class="cls-1" d="M4.94,1c.29.17.48.65.57,1.45s0,1.28-.21,1.43-.42.22-.55.14-.17,0-.15.12.14.3.38.41a.73.73,0,0,1,.46.51,4.57,4.57,0,0,1,0,1.27A3.46,3.46,0,0,1,4.92,8a4.14,4.14,0,0,1-2,1.68c-.44.17-.73.18-.85,0a.5.5,0,0,0-.43-.17c-.16,0-.26.07-.3.13a.3.3,0,0,1-.24.08c-.12,0-.18,0-.19-.1S.79,9.57.66,9.58a.46.46,0,0,0-.33.13.18.18,0,0,1-.26,0C0,9.68,0,9.43.07,9a6.11,6.11,0,0,1,.25-.92,4.81,4.81,0,0,0,.22-.83,9.13,9.13,0,0,0,.15-.94c0-.23,0-.69.11-1.4a3.56,3.56,0,0,1,.36-1.44.85.85,0,0,0,.2-.56,1.13,1.13,0,0,1,0-.41,4.76,4.76,0,0,0,0-.65A1.19,1.19,0,0,1,1.58,1C1.79.67,2.36.58,3.29.66A5.39,5.39,0,0,1,4.94,1ZM3.57,5.3c-.19.17-.3.24-.33.19a.77.77,0,0,0-.52-.25c-.22,0-.4.26-.54.71A10.46,10.46,0,0,0,1.92,7.2c-.09.55,0,.85.24.89a1.4,1.4,0,0,0,.93-.15,1.26,1.26,0,0,0,.75-.67,3.72,3.72,0,0,0,0-1.7C3.72,5.33,3.65,5.24,3.57,5.3Zm-.8-3c-.07.09-.06.36,0,.81a.36.36,0,0,0,.46,0,1.82,1.82,0,0,0,.3-.83C3.08,2.24,2.82,2.26,2.77,2.34Z"/><path class="cls-1" d="M11.57,1.59c.15.55,0,.77-.28.65-.16-.06-.3,0-.42.23s-.25.12-.53,0c0,0-.12.12-.43.29a.23.23,0,0,1-.34-.1.6.6,0,0,0-.45-.25c-.23,0-.32.28-.28.92A3.43,3.43,0,0,0,9,4.45c.21.41.47.54.78.38a.92.92,0,0,0,.35-.24.53.53,0,0,1,.25-.17c.09,0,.16.14.2.53a8.23,8.23,0,0,1,0,.88c0,.19-.14.24-.34.16a.66.66,0,0,0-.49,0,.53.53,0,0,1-.58-.11.33.33,0,0,0-.46.08,2.39,2.39,0,0,0-.23,1.19c0,.64.07,1,.26,1a4.13,4.13,0,0,0,.51.1c.14,0,.3-.11.46-.39s.61-.46,1.15-.21c.25.12.28.38.1.8s-.31.72-.38.93-.35.38-.72.3-.59-.06-.6.08-.12.12-.36.1-.4-.11-.46-.26-.23-.15-.41.15-.32.26-.45-.15c-.06-.21-.16-.25-.29-.13A1.35,1.35,0,0,1,7,9.72a.7.7,0,0,1-.43,0c-.19,0-.25-.2-.19-.55s.15-.9.26-1.66a5.49,5.49,0,0,1,.44-1.65,6.31,6.31,0,0,0,.13-2.37,13.08,13.08,0,0,1,0-2.21C7.27.93,7.65.82,8.32,1a7.26,7.26,0,0,0,1.35.22.84.84,0,0,0,.48-.05l.44-.36c.22-.19.46-.08.71.33A1.21,1.21,0,0,1,11.57,1.59Z"/><path class="cls-1" d="M15,.11l.4,0c.21,0,.36.19.44.63a1.41,1.41,0,0,0,.14.45,1.51,1.51,0,0,1,.18.42A2.08,2.08,0,0,1,16,2.5a3.33,3.33,0,0,0-.21,1,5.53,5.53,0,0,0,.24,1.4c.18.71.31.91.39.59s.16-.75.25-1.32A5.58,5.58,0,0,1,17,2.93,2.13,2.13,0,0,0,17.08,2,3.85,3.85,0,0,1,17.19.79a3.39,3.39,0,0,1,.17-.61l.31-.06a8.44,8.44,0,0,1,1-.06c.5,0,.75.07.76.24s0,.3-.05.34,0,.15.05.31,0,.46-.23.91a6.64,6.64,0,0,0-.43,1c-.09.21-.11.32-.07.33s.05.15.05.45a1.58,1.58,0,0,1-.12.69,2.77,2.77,0,0,0-.2.56,2.64,2.64,0,0,0-.07.53A1.93,1.93,0,0,1,18.3,6c-.06.28-.1.45-.12.53A8.38,8.38,0,0,0,18,7.3a9.69,9.69,0,0,0-.24,1.54c0,.53-.07.84-.07.93,0,.25-.11.28-.28.1s-.3-.1-.54,0-.24.07-.27-.06-.08-.18-.14-.18-.23.12-.45.33-.19,0-.29-.32a3.4,3.4,0,0,1-.15-1,1.46,1.46,0,0,0-.05-.56.52.52,0,0,0-.23,0c-.13,0-.17-.23-.11-.7a6.12,6.12,0,0,0,.07-1c0-.16-.05-.22-.13-.18s-.12,0-.12-.17-.07-.59-.13-1.29a9.18,9.18,0,0,1-.08-1.32c0-.42-.09-.46-.31-.15a1.85,1.85,0,0,0-.26,1,8,8,0,0,1-.12,1.16,15,15,0,0,1-.51,1.81,2.7,2.7,0,0,0-.16.81c0,.26-.05.62-.11,1.09a1.65,1.65,0,0,1-.24.84.28.28,0,0,1-.33,0q-.16,0-.3.18c-.1.16-.16.21-.18.14a.54.54,0,0,0-.22-.19.55.55,0,0,0-.55.08c-.16.13-.17-.1,0-.67a5.2,5.2,0,0,1,.29-1,2.87,2.87,0,0,0,.19-.92c.07-.52.11-.93.13-1.24a9,9,0,0,1,.12-1,1.26,1.26,0,0,1,.35-.75A1,1,0,0,0,12.75,4a2,2,0,0,0-.14-.78c-.09-.18,0-.43.34-.75a1.49,1.49,0,0,0,.34-.82,3.05,3.05,0,0,0,0-.81c-.11-.47.14-.74.76-.79a2.54,2.54,0,0,1,.74,0A.65.65,0,0,1,15,.11Z"/><path class="cls-1" d="M24.87,1.59c.15.55.06.77-.28.65-.16-.06-.3,0-.41.23s-.26.12-.54,0c0,0-.11.12-.43.29a.23.23,0,0,1-.34-.1.6.6,0,0,0-.45-.25c-.22,0-.32.28-.28.92a3.43,3.43,0,0,0,.18,1.14c.21.41.47.54.78.38a1,1,0,0,0,.36-.24.51.51,0,0,1,.24-.17c.1,0,.16.14.2.53a6.2,6.2,0,0,1,0,.88c0,.19-.13.24-.33.16a.67.67,0,0,0-.49,0,.54.54,0,0,1-.59-.11.33.33,0,0,0-.46.08,2.32,2.32,0,0,0-.22,1.19c0,.64.06,1,.25,1a4.13,4.13,0,0,0,.51.1c.15,0,.3-.11.46-.39s.62-.46,1.16-.21c.24.12.27.38.09.8s-.31.72-.38.93-.34.38-.71.3-.59-.06-.61.08-.12.12-.36.1a.49.49,0,0,1-.46-.26c-.09-.2-.23-.15-.4.15s-.33.26-.46-.15c-.06-.21-.16-.25-.29-.13a1.19,1.19,0,0,1-.34.24.69.69,0,0,1-.43,0c-.19,0-.25-.2-.19-.55s.15-.9.26-1.66a5.81,5.81,0,0,1,.44-1.65,6.31,6.31,0,0,0,.13-2.37,14.36,14.36,0,0,1,0-2.21c.07-.4.45-.51,1.13-.35A7,7,0,0,0,23,1.2a.86.86,0,0,0,.49-.05l.43-.36q.33-.29.72.33A1.33,1.33,0,0,1,24.87,1.59Z"/><path class="cls-1" d="M25.6,9.49a.48.48,0,0,1-.13-.57,3.39,3.39,0,0,0,.08-1.27A5.37,5.37,0,0,1,25.68,6a.65.65,0,0,1,.13-.34c.06-.06.09-.22.09-.5s0-.46,0-.67A2,2,0,0,1,26,3.77a2.7,2.7,0,0,0,0-1,4.18,4.18,0,0,0-.16-.92A1.15,1.15,0,0,1,26,1,.76.76,0,0,1,26.65.5a2.23,2.23,0,0,1,.57,0l.55.11a1.32,1.32,0,0,0,.71,0c.22-.07.48-.13.76-.2a1.55,1.55,0,0,1,1,.15.87.87,0,0,1,.62.58c.14.22.06.55-.26,1a.59.59,0,0,0-.52,0c-.23.14-.4.16-.51.08s-.34-.08-.38,0-.27.24-.31.23a.19.19,0,0,1-.12,0l-.15,0c-.32,0-.42,0-.29,0,0,0-.09-.06-.14-.14l0,0c-.17,0-.27.22-.31.67a6.7,6.7,0,0,0,0,1.09l.46-.17c.31-.1.56,0,.77.38a1.76,1.76,0,0,1,.28.87q-.06.39-.3.36a.17.17,0,0,1-.13-.09h-.09a1.2,1.2,0,0,0-.32.08.54.54,0,0,1-.32.06l-.12-.11c-.07,0-.17,0-.3-.16s-.14.06-.15.19-.05.57-.09,1a5.21,5.21,0,0,0,0,1.12,8,8,0,0,1,0,1.32,3.08,3.08,0,0,1-.19,1.06c0,.09-.07.12-.08.1s-.05,0-.11.08-.22.19-.31,0c-.05,0-.09,0-.13,0l-.06.09q-.16.2-.27,0c-.13.07-.2,0-.22-.12a4.7,4.7,0,0,1-.42-.32A.44.44,0,0,1,25.6,9.49Z"/><path class="cls-1" d="M33,.31c.47.13.73.3.77.51s.05.86.05,2a3.25,3.25,0,0,1,0,.51,3.06,3.06,0,0,0,0,.42c0,.1,0,.15-.05.15s-.09,0-.14.15a2.7,2.7,0,0,0-.13.8q0,.63,0,.87c0,.16,0,.23-.05.21s-.08,0-.14.17a3.93,3.93,0,0,0-.1,1.1,5.74,5.74,0,0,0,0,1.07,2.41,2.41,0,0,1-.24.43c-.07.12-.1.2-.08.23s0,.07-.11.13a1.34,1.34,0,0,0-.33.45,1.16,1.16,0,0,1-.44.36.77.77,0,0,1-.38.11.34.34,0,0,0-.27.1c-.1.07-.16.13-.17.17a.29.29,0,0,1-.18.11c-.15.06-.25,0-.29-.27a1.48,1.48,0,0,1,0-.36,3.76,3.76,0,0,0,.08-.7q0-.56.06-.81a1.65,1.65,0,0,1,.24-.69,2.89,2.89,0,0,0,.3-.75.77.77,0,0,0,0-.39,1.52,1.52,0,0,1,0-.39,6.72,6.72,0,0,1,.27-1.38c.19-.75.3-1.16.34-1.25.15-.33.16-.55,0-.68s-.09-.37-.07-1A4.45,4.45,0,0,1,32.09.3c.08-.23.13-.31.16-.25A1.93,1.93,0,0,0,33,.31Z"/><path class="cls-1" d="M39.11.88a.85.85,0,0,1,.08.62A1.6,1.6,0,0,1,39,2a.48.48,0,0,0-.09.34,1.06,1.06,0,0,1,0,.39c0,.16-.1.21-.19.14a.72.72,0,0,0-.32-.11,1,1,0,0,0-.68.3.52.52,0,0,0-.12.48,3.79,3.79,0,0,1,0,.46s-.07.06-.21.28a2.48,2.48,0,0,0-.12.8c0,.41,0,.69,0,.85s0,.25,0,.23-.09,0-.14.14A3.75,3.75,0,0,0,37,7.43a6,6,0,0,0,0,1.06s-.06.19-.22.41-.11.21-.09.24,0,.07-.1.11a1.42,1.42,0,0,0-.35.43.88.88,0,0,1-.43.33.76.76,0,0,1-.38.07.42.42,0,0,0-.27.07c-.09.08-.15.13-.16.18s-.08.07-.18.09-.29-.06-.32-.3a.87.87,0,0,1,0-.36,3,3,0,0,0,.1-.69c0-.36,0-.63.06-.8A1.5,1.5,0,0,1,35,7.59a3.14,3.14,0,0,0,.31-.73.77.77,0,0,0,0-.39,1.17,1.17,0,0,1,0-.39,6.55,6.55,0,0,1,.27-1.37c.19-.74.3-1.14.33-1.21.14-.35.15-.58,0-.68s-.32-.07-.6.09a.65.65,0,0,1-.45,0c-.12,0-.17-.14-.15-.37a3.88,3.88,0,0,0,0-.52,2.82,2.82,0,0,1,.13-.87.77.77,0,0,1,.78-.6,5.77,5.77,0,0,1,1.29,0A9,9,0,0,0,38.44.5,1.27,1.27,0,0,1,39.11.88Z"/><path class="cls-1" d="M45.16,1.2a.34.34,0,0,1-.15.39c-.16.14-.26.24-.27.31a3,3,0,0,1-.15.49,1,1,0,0,1-.27.41c-.12.06-.21.05-.26,0a.32.32,0,0,0-.23-.15c-.1,0-.16,0-.19.06a.25.25,0,0,1-.21.07,1,1,0,0,0-.57.22.47.47,0,0,0-.13.51c.05.23.11.43.16.6a6.16,6.16,0,0,0,.75,1.36A3.31,3.31,0,0,1,44,6.65c.05.53.08.88.08,1.06a2.58,2.58,0,0,1-.31.94,4,4,0,0,1-.53.9c-.15.18-.22.25-.23.21s-.13,0-.34.09-.3.16-.27.19,0,.08-.15.14a1,1,0,0,1-.55.1l-.53,0a.45.45,0,0,1-.31-.1.48.48,0,0,0-.29-.09c-.13,0-.19.06-.17.17a.33.33,0,0,1-.07.27c-.08.06-.15.05-.22,0a.41.41,0,0,1-.07-.37.8.8,0,0,1,.07-.3s0-.16-.12-.35a1.08,1.08,0,0,1-.07-.65q.08-.36.12-.6C40,8.05,40,8,40,8s-.11,0-.13-.2c-.08-.39.24-.73,1-1,.28-.1.43-.09.45,0l.09.33a.81.81,0,0,1,0,.39.43.43,0,0,0,0,.42c.06.15.19.16.4,0a1.37,1.37,0,0,0,.42-.42c.1-.2,0-.45-.22-.74,0,0,0-.21,0-.52a.75.75,0,0,0-.21-.45.49.49,0,0,0-.25-.16c-.09,0-.15-.1-.18-.25a4.32,4.32,0,0,1-.08-.63A1.53,1.53,0,0,0,41,4.18,2.17,2.17,0,0,1,41,3.23,5.49,5.49,0,0,1,41.31,2,10.83,10.83,0,0,1,41.75.87c.06-.16.24-.26.54-.29A1.4,1.4,0,0,0,43,.31a.88.88,0,0,1,.66-.13c.26,0,.49.06.7.07S44.81.5,45,1Z"/></g></g></svg>