<svg xmlns="http://www.w3.org/2000/svg" viewBox="0 0 134.16 26.16"><defs><style>.cls-1{fill:#ff00e7;}</style></defs><g id="Layer_2" data-name="Layer 2"><g id="Layer_1-2" data-name="Layer 1"><path class="cls-1" d="M13,1.51c.77.46,1.28,1.78,1.51,4s0,3.48-.56,3.92-1.11.58-1.44.37-.45-.11-.39.32.36.84,1,1.12a2,2,0,0,1,1.21,1.39,15.11,15.11,0,0,1,0,3.48,9.68,9.68,0,0,1-1.4,4.44,10.89,10.89,0,0,1-5.32,4.58c-1.16.46-1.91.51-2.24.13a1.27,1.27,0,0,0-1.12-.48,1.41,1.41,0,0,0-.79.35.74.74,0,0,1-.63.22c-.3,0-.47-.09-.49-.26s-.23-.25-.59-.22a1.26,1.26,0,0,0-.85.35.48.48,0,0,1-.68,0c-.25-.11-.25-.79,0-2a14.4,14.4,0,0,1,.66-2.51,13.82,13.82,0,0,0,.56-2.27c.21-1.09.34-1.94.4-2.58S1.9,14,2.1,12a9.86,9.86,0,0,1,.95-3.94,2.46,2.46,0,0,0,.52-1.54,3.34,3.34,0,0,1,0-1.1,10.84,10.84,0,0,0-.1-1.77,3.38,3.38,0,0,1,.69-2.43C4.69.5,6.19.24,8.62.47A13.37,13.37,0,0,1,13,1.51ZM9.37,13.15c-.5.46-.79.63-.87.52A2,2,0,0,0,7.13,13c-.58,0-1.06.7-1.42,1.94A30.34,30.34,0,0,0,5,18.34c-.24,1.5,0,2.31.64,2.43a3.75,3.75,0,0,0,2.43-.42,3.47,3.47,0,0,0,2-1.84c.3-.77.26-2.32-.13-4.62C9.76,13.22,9.57,13,9.37,13.15ZM7.3,4.29C7.07,4.72,7.08,6,7.36,8A1.06,1.06,0,0,0,9,7.87a10.55,10.55,0,0,0,1.09-3.81C8.43,3.82,7.49,3.89,7.3,4.29Z"/><path class="cls-1" d="M42.59,4.07A8.56,8.56,0,0,0,42.5,7c.09.62.19,1.16.3,1.6a6.14,6.14,0,0,1,0,1.93,8,8,0,0,1-.27,1.68,6.65,6.65,0,0,0,.1,2.24c.11,1.25.17,2.62.17,4.13a15,15,0,0,1-.17,2.89c-.17.43-.34.67-.52.72s-.43.33-.76.81-.46.74-.3.68,0,.09-.62.43a7.78,7.78,0,0,1-.93.51,5.6,5.6,0,0,1-.61-.17c-.39-.09-.61-.23-.68-.45s-.26-.32-.56-.32-.54-.23-.69-.7a1.67,1.67,0,0,1,0-1.25,1.92,1.92,0,0,0,.08-1.66c-.22-.37-.61-.34-1.16.1a5.07,5.07,0,0,0-1.16,1.21,5.39,5.39,0,0,0-.6,1.84,2,2,0,0,1-1,1.57c-.56.26-.88.36-1,.32a1.82,1.82,0,0,0-.75.06c-.44.09-.62.22-.55.39s0,.27-.28.29c-.44.09-.66-.45-.66-1.61,0-.43,0-1,0-1.75a3.47,3.47,0,0,1,.64-2.08,5.59,5.59,0,0,0,.93-2.19q.27-1.31.36-2.07a3.34,3.34,0,0,1,1-2.21,3.57,3.57,0,0,0,.78-1.71c.14-.7.26-1.36.34-2s.22-.92.41-1,.4-.26.63-.66.25-.64.16-.81,0-.38.38-.64a3.24,3.24,0,0,0,.64-1.91,9.9,9.9,0,0,1,.77-2.86A2.48,2.48,0,0,1,39.1,1,19.74,19.74,0,0,1,41.72.75c.63,0,1,.81,1,2.43A5.6,5.6,0,0,1,42.59,4.07ZM38.81,7.94l-2.16,6.74a4.9,4.9,0,0,0,1.59.15,1.27,1.27,0,0,0,1-.53Z"/><path class="cls-1" d="M51.08,1.34c1.24.3,1.92.71,2,1.21a38.82,38.82,0,0,1,.15,4.68,8.44,8.44,0,0,1-.1,1.24,8.07,8.07,0,0,0-.11,1c0,.23,0,.35-.14.35s-.22.12-.36.38a5.38,5.38,0,0,0-.33,1.92c-.05,1-.08,1.69-.08,2.07s0,.55-.15.51-.21.1-.35.4a7.78,7.78,0,0,0-.27,2.65,14.07,14.07,0,0,0,.1,2.56,5.14,5.14,0,0,1-.62,1c-.19.3-.26.49-.21.55s0,.17-.29.32a3.24,3.24,0,0,0-.87,1.07,2.65,2.65,0,0,1-1.17.87,1.9,1.9,0,0,1-1,.27,1,1,0,0,0-.73.23,1.19,1.19,0,0,0-.43.42c0,.1-.2.19-.48.26s-.64-.06-.75-.64a3.29,3.29,0,0,1,0-.88,8.48,8.48,0,0,0,.21-1.67c0-.89.11-1.54.17-1.94A3.89,3.89,0,0,1,46,18.54a6.79,6.79,0,0,0,.79-1.8,1.73,1.73,0,0,0,.06-.93,2.81,2.81,0,0,1-.1-.93,15,15,0,0,1,.7-3.33c.5-1.79.8-2.78.87-3,.42-.78.45-1.33.09-1.63-.16-.08-.23-.89-.19-2.44a10.08,10.08,0,0,1,.44-3.19c.19-.53.33-.73.41-.59A6,6,0,0,0,51.08,1.34Z"/><path class="cls-1" d="M63.56.73a4,4,0,0,0,1,0q.84-.07,1.17,1.53a3,3,0,0,0,.37,1.07,4.18,4.18,0,0,1,.46,1,4.31,4.31,0,0,1-.38,2.17,7.75,7.75,0,0,0-.54,2.33,12.48,12.48,0,0,0,.63,3.38c.47,1.71.81,2.19,1,1.43s.41-1.8.64-3.19a13.34,13.34,0,0,1,.73-2.92A4.48,4.48,0,0,0,69,5.29a8,8,0,0,1,.29-2.92A9.31,9.31,0,0,1,69.69.9L70.5.77A21.21,21.21,0,0,1,73.17.62c1.29,0,2,.16,2,.57A1.41,1.41,0,0,1,75,2q-.15.15.15.72c.16.39,0,1.12-.63,2.2a19.4,19.4,0,0,0-1.12,2.34c-.22.51-.28.77-.18.79s.14.37.14,1.08a3.45,3.45,0,0,1-.31,1.66,5.6,5.6,0,0,0-.52,1.36,5,5,0,0,0-.19,1.28,5.16,5.16,0,0,1-.18,1.35c-.17.66-.28,1.08-.34,1.26s-.22.84-.5,2a23.62,23.62,0,0,0-.62,3.7c-.11,1.27-.16,2-.16,2.25-.06.59-.31.67-.75.23-.31-.25-.78-.23-1.42.08-.38.2-.62.16-.7-.13s-.21-.44-.38-.44a2.85,2.85,0,0,0-1.16.8c-.25.25-.51,0-.77-.78A7.73,7.73,0,0,1,65,21.3c0-.84,0-1.29-.15-1.34a1.36,1.36,0,0,0-.6,0q-.5,0-.27-1.68A15.4,15.4,0,0,0,64.15,16c0-.38-.15-.51-.36-.42s-.31,0-.31-.42-.17-1.41-.35-3.1a20.13,20.13,0,0,1-.19-3.19c0-1-.25-1.11-.83-.34A4.31,4.31,0,0,0,61.42,11a16,16,0,0,1-.31,2.78,31.28,31.28,0,0,1-1.32,4.35,6.4,6.4,0,0,0-.42,2c0,.62-.13,1.49-.29,2.61a4,4,0,0,1-.62,2,.84.84,0,0,1-.88.11c-.27-.07-.54.07-.79.42s-.41.5-.48.35a1.14,1.14,0,0,0-.56-.46,1.58,1.58,0,0,0-1.45.19c-.42.31-.45-.24-.11-1.62A12.41,12.41,0,0,1,55,21.22a6.63,6.63,0,0,0,.5-2.21c.17-1.25.28-2.24.33-3a21.93,21.93,0,0,1,.32-2.31A2.88,2.88,0,0,1,57,11.91,2.27,2.27,0,0,0,57.6,10a4.58,4.58,0,0,0-.35-1.87c-.25-.43,0-1,.87-1.79a3.33,3.33,0,0,0,.89-2,5.85,5.85,0,0,0,.11-1.95c-.28-1.14.38-1.78,2-1.91a7,7,0,0,1,2,.08Z"/><path class="cls-1" d="M84.46,1.24c0,.08.09.1.25.08s.24.22.21.73a2.09,2.09,0,0,1-.54,1.31,5.05,5.05,0,0,0-.87,2Q83,6.89,82,11.37T80.64,16.9A6.31,6.31,0,0,0,80.51,19c.09.71.63,1,1.63.8a2.92,2.92,0,0,1,2.31.41c.56.42,1.11.29,1.64-.41a2.16,2.16,0,0,1,1.93-1c.78,0,1.26.32,1.43.89q.47,1.95-2.16,3.89a.91.91,0,0,1-1.08.14c-.33-.19-.54-.15-.62.14-.59,1-1.11,1-1.58.08-.09-.47-.34-.55-.77-.24s-.73.35-.89.12-.4.09-.92.58-1.18.49-1.54-.11-.69-.81-1-.55c-.56.47-1,.65-1.33.55a1.8,1.8,0,0,0-1.52.44,5,5,0,0,1-1.43.84c-.47.18-.5-.41-.07-1.77l.9-2.86A27.8,27.8,0,0,0,76.22,17a37.78,37.78,0,0,1,.72-4,12.4,12.4,0,0,0,.27-1.25A2.44,2.44,0,0,1,78,10.7a4.88,4.88,0,0,0,.77-2.78,12.31,12.31,0,0,0-.06-3.1c-.31-1.25.25-2.49,1.66-3.74A2.49,2.49,0,0,1,82.91.67,7.55,7.55,0,0,1,84.46,1.24Z"/><path class="cls-1" d="M105.44,2.51c.39,1.53.13,2.13-.75,1.81-.42-.18-.77,0-1.08.62-.2.35-.67.34-1.42-.05.09.06-.28.33-1.12.8a.59.59,0,0,1-.89-.27A1.58,1.58,0,0,0,99,4.72c-.58-.06-.83.79-.73,2.56a9.42,9.42,0,0,0,.48,3.18c.55,1.15,1.23,1.51,2,1.06a2.34,2.34,0,0,0,.94-.66,1.37,1.37,0,0,1,.64-.49c.25-.09.42.42.52,1.51a20.25,20.25,0,0,1,.11,2.43c-.06.53-.35.68-.88.46a1.6,1.6,0,0,0-1.28-.11,1.37,1.37,0,0,1-1.54-.31.82.82,0,0,0-1.21.22c-.33.42-.52,1.52-.58,3.32s.17,2.77.66,2.91a7.6,7.6,0,0,0,1.34.29c.38.05.79-.31,1.2-1.08.61-1.09,1.62-1.28,3-.58.63.33.71,1.07.25,2.21s-.81,2-1,2.61c-.28.77-.91,1.05-1.88.84s-1.54-.16-1.57.23c0,.23-.32.32-1,.26a1.27,1.27,0,0,1-1.2-.71c-.25-.56-.6-.42-1.06.42s-.85.7-1.19-.42c-.16-.59-.42-.71-.76-.37a3.9,3.9,0,0,1-.9.68,1.85,1.85,0,0,1-1.12.14c-.5-.06-.67-.58-.5-1.55s.39-2.51.69-4.62a16.47,16.47,0,0,1,1.14-4.62c.41-1,.53-3.17.35-6.59A38.88,38.88,0,0,1,94,1.75c.2-1.09,1.17-1.41,3-1a17,17,0,0,0,3.53.62,2.09,2.09,0,0,0,1.27-.13q.27-.22,1.14-1c.58-.53,1.21-.22,1.87.93A3.74,3.74,0,0,1,105.44,2.51Z"/><path class="cls-1" d="M120.19,3.28a.84.84,0,0,1-.36,1c-.44.34-.68.58-.7.74a6.27,6.27,0,0,1-.41,1.2,2.25,2.25,0,0,1-.69,1c-.3.15-.53.12-.68-.1a.81.81,0,0,0-.59-.37.61.61,0,0,0-.49.16.68.68,0,0,1-.53.15,2.85,2.85,0,0,0-1.47.55,1.12,1.12,0,0,0-.33,1.26c.14.55.27,1,.41,1.45a15,15,0,0,0,1.92,3.34,7.32,7.32,0,0,1,.88,3c.15,1.3.22,2.16.22,2.6a6.13,6.13,0,0,1-.79,2.29,10.59,10.59,0,0,1-1.37,2.21c-.38.44-.59.62-.62.52s-.31,0-.85.22-.79.39-.72.46-.06.2-.39.35a2.78,2.78,0,0,1-1.41.23l-1.37-.07a1.24,1.24,0,0,1-.79-.24,1.27,1.27,0,0,0-.76-.23c-.32,0-.47.14-.43.43a.71.71,0,0,1-.19.66c-.18.15-.37.12-.56-.1A1,1,0,0,1,107,25a2.86,2.86,0,0,1,.17-.74c0-.1,0-.39-.29-.85a2.3,2.3,0,0,1-.18-1.59l.3-1.48c.06-.33,0-.47-.18-.4s-.29-.1-.35-.49c-.19-.95.64-1.78,2.5-2.48.7-.23,1.09-.21,1.16.06s.14.54.22.8a1.54,1.54,0,0,1-.14.94,1,1,0,0,0,.11,1c.15.39.51.4,1,0a3.76,3.76,0,0,0,1.09-1c.27-.49.08-1.09-.57-1.82-.11-.08-.14-.5-.08-1.28a1.81,1.81,0,0,0-.54-1.09,1.24,1.24,0,0,0-.63-.38c-.23,0-.39-.26-.47-.62a10.34,10.34,0,0,1-.21-1.53,3.57,3.57,0,0,0-.36-1.54,4.7,4.7,0,0,1-.12-2.33,13,13,0,0,1,.86-2.92,28,28,0,0,1,1.14-2.85c.16-.39.63-.62,1.39-.7a3.76,3.76,0,0,0,1.87-.66,2.5,2.5,0,0,1,1.72-.33,18.05,18.05,0,0,0,1.8.17c.55,0,1.11.62,1.67,1.79Q120.07,3.06,120.19,3.28Z"/><path class="cls-1" d="M134.13,3.05a.85.85,0,0,1-.38,1c-.44.34-.67.58-.71.74A6.36,6.36,0,0,1,132.63,6a2.22,2.22,0,0,1-.71,1c-.3.15-.53.12-.68-.1a.83.83,0,0,0-.6-.38.63.63,0,0,0-.5.16.68.68,0,0,1-.54.16,2.87,2.87,0,0,0-1.5.55,1.15,1.15,0,0,0-.33,1.27c.14.57.27,1.06.41,1.47a15.25,15.25,0,0,0,2,3.37,7.41,7.41,0,0,1,.89,3c.15,1.31.23,2.19.23,2.63a6.15,6.15,0,0,1-.81,2.31,10.2,10.2,0,0,1-1.39,2.24c-.39.45-.6.62-.63.53s-.31,0-.87.21-.8.4-.73.47-.06.2-.39.36a2.91,2.91,0,0,1-1.44.23c-.59,0-1-.05-1.38-.08a1.37,1.37,0,0,1-.82-.23A1.2,1.2,0,0,0,122,25c-.34,0-.49.14-.44.43a.7.7,0,0,1-.19.66c-.19.16-.39.13-.58-.09a1,1,0,0,1-.16-.93,2.5,2.5,0,0,1,.16-.74c.06-.11,0-.39-.29-.86a2.36,2.36,0,0,1-.19-1.61c.13-.6.23-1.1.32-1.49s0-.48-.19-.41-.3-.1-.36-.49c-.19-1,.65-1.81,2.54-2.51.72-.24,1.11-.22,1.18.05s.15.55.23.81a1.54,1.54,0,0,1-.15,1,1.06,1.06,0,0,0,.11,1c.17.39.52.4,1.06,0a4,4,0,0,0,1.1-1c.28-.5.08-1.11-.58-1.84-.11-.08-.14-.51-.08-1.3a1.8,1.8,0,0,0-.55-1.1,1.31,1.31,0,0,0-.64-.39c-.24-.05-.39-.26-.48-.63a9.39,9.39,0,0,1-.2-1.54,3.72,3.72,0,0,0-.38-1.55,4.81,4.81,0,0,1-.12-2.35,13.67,13.67,0,0,1,.87-3,30.58,30.58,0,0,1,1.16-2.88c.17-.39.64-.63,1.41-.7a3.82,3.82,0,0,0,1.92-.67,2.48,2.48,0,0,1,1.74-.33c.67.09,1.28.15,1.83.17s1.12.63,1.7,1.81A5.6,5.6,0,0,1,134.13,3.05Z"/><path class="cls-1" d="M26.15.48A3.1,3.1,0,0,1,29,2.62c.14.46.21.75.24.84s.16.48.41,1.14a6.07,6.07,0,0,1,.17,2.76,20,20,0,0,1-.41,2.5,2.88,2.88,0,0,1-.4,1,2,2,0,0,0-.32.73c-.14.39-.2.57-.17.56a2.55,2.55,0,0,1-.28.43,2.47,2.47,0,0,0-.55,1.37.55.55,0,0,1-.64.53,8.25,8.25,0,0,0-1.11.05c-.41.08-.59.48-.52,1.18a18.31,18.31,0,0,0,.88,3.13,9.94,9.94,0,0,1,.74,3.12c-.07.39-.16.59-.24.6a1.81,1.81,0,0,0-.49.2c-.27.15-.35.31-.23.47a.62.62,0,0,1,0,.65,1.12,1.12,0,0,1-.93.8,2.23,2.23,0,0,0-1,.57c-.21.22-.56.24-1.07.07-.32-.07-.4-.32-.26-.77A3.32,3.32,0,0,0,23,23.27a16.86,16.86,0,0,0-.31-1.68c-.16-.73-.28-1.26-.38-1.58-.22-.83-.36-3.23-.59-3.1a15.21,15.21,0,0,0-1.35,4,11.92,11.92,0,0,1-.32,1.95c-.14.26.12.4-.24.48a2.32,2.32,0,0,0-.9.36c-.27.19-.4.33-.37.4s-.17.14-.59.18-.76.22-.76.41c0,.43-.33.64-1,.64-.28,0-.41-.64-.41-1.91a15.08,15.08,0,0,1,.1-1.76c.07-.59.13-1.13.21-1.6a16.6,16.6,0,0,1,.71-2.69,22.76,22.76,0,0,0,.76-2.63,1.27,1.27,0,0,0-.18-1c-.2-.25-.09-.7.32-1.34.94-1.46,1.17-2.55.69-3.25-.3-.38,0-1.08.82-2.07a2.08,2.08,0,0,0,.41-1.43c0-.56,0-1.09-.1-1.58a2,2,0,0,1,.22-1.29q.33-.56.81-1.32t3-.93A12.44,12.44,0,0,1,26.15.48ZM25.7,5.55a3.71,3.71,0,0,0-1.43-.4c-.75-.12-1.09,0-1,.5a21.83,21.83,0,0,1-.54,4c-.41,2.15-.53,3.16-.37,3l.82-.58a4.13,4.13,0,0,0,1.13-1.15,19.06,19.06,0,0,0,1-2.9C25.73,6.57,25.86,5.75,25.7,5.55Z"/></g></g></svg>