<svg xmlns="http://www.w3.org/2000/svg" viewBox="0 0 50.73 10.79"><defs><style>.cls-1{fill:#ff00e7;}</style></defs><g id="Layer_2" data-name="Layer 2"><g id="Layer_1-2" data-name="Layer 1"><path class="cls-1" d="M4.94,1.29c.29.17.48.65.57,1.45S5.53,4,5.3,4.17s-.42.22-.55.14-.17,0-.15.11.14.31.38.42a.72.72,0,0,1,.46.5,4.65,4.65,0,0,1,0,1.28,3.38,3.38,0,0,1-.53,1.62,4,4,0,0,1-2,1.68c-.44.17-.73.19-.85.05a.47.47,0,0,0-.43-.17.53.53,0,0,0-.3.12c0,.06-.12.08-.24.08s-.18,0-.19-.09S.79,9.82.66,9.83A.46.46,0,0,0,.33,10C.26,10,.18,10,.07,10S0,9.68.07,9.23a5.77,5.77,0,0,1,.25-.92,4.81,4.81,0,0,0,.22-.83,8.84,8.84,0,0,0,.15-1c0-.22,0-.68.11-1.39A3.56,3.56,0,0,1,1.16,3.7a.87.87,0,0,0,.2-.57,1.07,1.07,0,0,1,0-.4,4.69,4.69,0,0,0,0-.65,1.21,1.21,0,0,1,.26-.89C1.79.92,2.36.82,3.29.91A5.1,5.1,0,0,1,4.94,1.29ZM3.57,5.55c-.19.17-.3.23-.33.19a.77.77,0,0,0-.52-.25c-.22,0-.4.26-.54.71a10,10,0,0,0-.26,1.25c-.09.55,0,.85.24.89a1.54,1.54,0,0,0,.93-.15,1.26,1.26,0,0,0,.75-.67,3.72,3.72,0,0,0,0-1.7C3.72,5.58,3.65,5.49,3.57,5.55Zm-.8-3c-.07.09-.06.36,0,.81a.35.35,0,0,0,.46,0,1.77,1.77,0,0,0,.3-.82C3.08,2.49,2.82,2.5,2.77,2.59Z"/><path class="cls-1" d="M9.92,0A1.27,1.27,0,0,1,11,.89l.09.34s.07.19.16.45a2.7,2.7,0,0,1,.07,1.14,6.85,6.85,0,0,1-.16,1,1.61,1.61,0,0,1-.16.4.55.55,0,0,0-.13.28,1.69,1.69,0,0,1-.16.41,1.1,1.1,0,0,0-.22.56c0,.08-.23.16-.65.23-.16,0-.22.19-.19.48A6.94,6.94,0,0,0,10,7.48a4,4,0,0,1,.28,1.27.47.47,0,0,1-.27.33c-.09.07-.12.13-.08.19a.28.28,0,0,1,0,.26.43.43,0,0,1-.35.33.86.86,0,0,0-.38.24c-.07.08-.2.09-.39,0S8.61,10,8.66,9.8a1.61,1.61,0,0,0,.09-.51A7.36,7.36,0,0,0,8.48,8c-.08-.33-.17-.48-.25-.42s-.18.31-.25.76a5.93,5.93,0,0,1-.16.82.4.4,0,0,1-.29.21,1.11,1.11,0,0,0-.35.14c-.09.07-.14.13-.13.16s-.07.06-.22.08-.28.09-.28.17-.13.26-.38.26S6,9.89,6,9.37A12.75,12.75,0,0,1,6.12,8,7.39,7.39,0,0,1,6.4,6.9c.16-.55.26-.91.29-1.08a.53.53,0,0,0-.08-.4c-.07-.1,0-.28.13-.54.35-.6.43-1,.25-1.33-.1-.14,0-.43.32-.85a1,1,0,0,0,.15-.57c0-.23,0-.45,0-.65A1.91,1.91,0,0,1,7.82.42C7.93.22,8.31.09,9,0A6.9,6.9,0,0,1,9.92,0ZM9.54,2.11A.64.64,0,0,0,9.24,2C9.08,2,9,2,9,2.14A7.89,7.89,0,0,1,8.91,3.2,2.53,2.53,0,0,0,8.83,4a1.16,1.16,0,0,0,.41-.46,5.61,5.61,0,0,0,.22-.77A1.65,1.65,0,0,0,9.54,2.11Z"/><path class="cls-1" d="M16.24,2a3.21,3.21,0,0,0,0,1.1,5.27,5.27,0,0,0,.11.59,2.28,2.28,0,0,1,0,.72,2.48,2.48,0,0,1-.11.63,2.85,2.85,0,0,0,0,.83,14.52,14.52,0,0,1,.07,1.54,4.61,4.61,0,0,1-.07,1.07c-.06.16-.13.25-.19.27a1,1,0,0,0-.3.31c-.13.18-.17.27-.11.25s0,0-.24.16l-.35.19a1.05,1.05,0,0,1-.23-.07c-.15,0-.24-.08-.26-.16s-.1-.12-.22-.12-.2-.09-.26-.26a.63.63,0,0,1,0-.47.75.75,0,0,0,0-.62c-.08-.14-.23-.12-.44,0a1.89,1.89,0,0,0-.45.45,2.22,2.22,0,0,0-.23.68.7.7,0,0,1-.39.59q-.32.15-.36.12a.62.62,0,0,0-.29,0c-.16,0-.24.08-.21.15s0,.1-.1.11-.26-.17-.26-.61V8.81A1.23,1.23,0,0,1,11.66,8,2,2,0,0,0,12,7.22a7.23,7.23,0,0,0,.13-.77,1.24,1.24,0,0,1,.37-.82,1.24,1.24,0,0,0,.3-.63c0-.27.09-.51.13-.73s.08-.34.15-.36.16-.1.24-.25a.34.34,0,0,0,.07-.3c0-.06,0-.14.14-.23a1.2,1.2,0,0,0,.24-.72,3.7,3.7,0,0,1,.3-1.06A.92.92,0,0,1,14.91.8a7,7,0,0,1,1-.08c.24,0,.37.3.38.9A2.4,2.4,0,0,1,16.24,2ZM14.51,4.57,14,6a1.46,1.46,0,0,0,.39,0,.38.38,0,0,0,.26-.11Z"/><path class="cls-1" d="M19,.56c.48.13.73.29.77.51A16.68,16.68,0,0,1,19.87,3c0,.15,0,.32,0,.52a3.06,3.06,0,0,0,0,.42c0,.09,0,.14-.06.14s-.08.06-.13.16a2.11,2.11,0,0,0-.13.8c0,.42,0,.71,0,.86s0,.23-.06.22-.08,0-.13.17a3.51,3.51,0,0,0-.1,1.1,5,5,0,0,0,0,1.07,2.17,2.17,0,0,1-.24.42c-.08.13-.1.21-.08.23s0,.07-.11.14a1.25,1.25,0,0,0-.34.44,1,1,0,0,1-.44.37.74.74,0,0,1-.37.11.41.41,0,0,0-.28.09.65.65,0,0,0-.17.18s-.07.08-.18.11-.24,0-.28-.27a1.54,1.54,0,0,1,0-.37,3.48,3.48,0,0,0,.08-.69,7.84,7.84,0,0,1,.07-.81,1.76,1.76,0,0,1,.23-.69,2.89,2.89,0,0,0,.3-.75.81.81,0,0,0,0-.39,1.17,1.17,0,0,1,0-.39,6.88,6.88,0,0,1,.27-1.39c.19-.74.3-1.16.33-1.24.16-.33.17-.56,0-.68s-.08-.37-.07-1A4.47,4.47,0,0,1,18.11.54c.07-.22.12-.3.16-.24A2.12,2.12,0,0,0,19,.56Z"/><path class="cls-1" d="M23.49.35a1.52,1.52,0,0,0,.4,0c.21,0,.36.19.44.63a1.26,1.26,0,0,0,.14.44,1.59,1.59,0,0,1,.18.43,2.09,2.09,0,0,1-.14.91,3.34,3.34,0,0,0-.21,1,5.47,5.47,0,0,0,.24,1.4q.27,1.08.39.6c.08-.31.16-.75.25-1.32a5.87,5.87,0,0,1,.28-1.22,2.09,2.09,0,0,0,.09-.92A3.94,3.94,0,0,1,25.66,1a3.77,3.77,0,0,1,.17-.61l.31,0c.18,0,.52,0,1-.07s.75.07.76.24a.75.75,0,0,1-.05.35s0,.14.05.3,0,.46-.24.91a7.48,7.48,0,0,0-.42,1c-.09.21-.11.32-.07.32s.05.16.05.45a1.52,1.52,0,0,1-.12.69,2.88,2.88,0,0,0-.2.57,2.64,2.64,0,0,0-.07.53,2.37,2.37,0,0,1-.07.56,4.55,4.55,0,0,1-.13.52l-.19.83a10.84,10.84,0,0,0-.23,1.53c0,.53-.07.84-.07.94s-.11.27-.28.09-.3-.09-.54,0-.24.06-.27-.06-.08-.18-.14-.18-.23.12-.45.33-.19,0-.29-.32a3.52,3.52,0,0,1-.15-1c0-.34,0-.53-.06-.55a.44.44,0,0,0-.23,0c-.12,0-.16-.22-.1-.69a6.19,6.19,0,0,0,.07-1c0-.16-.05-.22-.13-.18s-.12,0-.12-.17-.07-.59-.14-1.29a10.35,10.35,0,0,1-.07-1.33c0-.41-.09-.46-.31-.14a1.82,1.82,0,0,0-.26,1,8.15,8.15,0,0,1-.12,1.16,14.94,14.94,0,0,1-.51,1.8,2.83,2.83,0,0,0-.16.82c0,.26-.05.62-.11,1.08a1.57,1.57,0,0,1-.24.84.28.28,0,0,1-.33,0q-.16,0-.3.18c-.1.15-.16.2-.18.14a.48.48,0,0,0-.22-.19.53.53,0,0,0-.55.08c-.16.12-.17-.1,0-.68a5.74,5.74,0,0,1,.29-1,3,3,0,0,0,.19-.92c.06-.51.11-.93.13-1.23a9,9,0,0,1,.12-1A1.15,1.15,0,0,1,21,5a1,1,0,0,0,.22-.8,1.89,1.89,0,0,0-.14-.77q-.13-.27.33-.75a1.46,1.46,0,0,0,.35-.82,3.05,3.05,0,0,0,0-.81c-.11-.48.14-.74.76-.79a2.57,2.57,0,0,1,.74,0Z"/><path class="cls-1" d="M31.77.84s0,.05.1,0,.09.09.08.3a.88.88,0,0,1-.21.53,2.32,2.32,0,0,0-.33.81c-.12.42-.31,1.23-.59,2.44s-.44,2-.5,2.25a2.55,2.55,0,0,0-.05.87c0,.29.24.4.62.32a1.06,1.06,0,0,1,.88.17c.21.17.42.12.62-.17A.83.83,0,0,1,33.13,8a.52.52,0,0,1,.55.37c.11.52-.16,1.05-.83,1.58a.34.34,0,0,1-.41.06c-.13-.08-.21-.07-.24.05q-.33.58-.6,0c0-.19-.13-.22-.29-.09s-.28.14-.34,0-.15,0-.35.24-.45.2-.59,0-.26-.33-.38-.23-.38.27-.51.23a.6.6,0,0,0-.57.18,2.29,2.29,0,0,1-.55.34q-.27.11,0-.72c.17-.56.28-.95.35-1.17a12.11,12.11,0,0,0,.29-1.59,13.92,13.92,0,0,1,.28-1.61c.05-.22.08-.39.1-.51a1,1,0,0,1,.29-.46,2.08,2.08,0,0,0,.3-1.13,6,6,0,0,0,0-1.26A1.59,1.59,0,0,1,30.21.78a.9.9,0,0,1,1-.17A3,3,0,0,1,31.77.84Z"/><path class="cls-1" d="M39.77,1.84c.15.55.06.77-.28.65-.16-.06-.3,0-.41.22s-.26.13-.54,0c0,0-.11.11-.43.28a.23.23,0,0,1-.34-.09.64.64,0,0,0-.45-.26c-.23,0-.32.29-.28.92a3.31,3.31,0,0,0,.18,1.14c.21.42.47.54.78.38a.84.84,0,0,0,.35-.23.53.53,0,0,1,.25-.18c.1,0,.16.15.2.54a8,8,0,0,1,0,.87c0,.19-.13.25-.33.17a.69.69,0,0,0-.5,0,.54.54,0,0,1-.58-.11.32.32,0,0,0-.46.08,2.29,2.29,0,0,0-.22,1.19c0,.64.06,1,.25,1a3,3,0,0,0,.51.11c.15,0,.3-.12.46-.39s.61-.46,1.15-.21c.25.12.28.38.1.79s-.31.73-.38.94-.35.37-.72.3-.59-.06-.6.08-.12.12-.36.09-.4-.1-.46-.25-.23-.15-.41.15-.32.25-.45-.15c-.06-.21-.16-.26-.29-.13a1.35,1.35,0,0,1-.34.24.78.78,0,0,1-.43,0c-.19,0-.25-.21-.19-.56s.15-.9.26-1.65a5.57,5.57,0,0,1,.44-1.66,6.25,6.25,0,0,0,.13-2.36,13.23,13.23,0,0,1,0-2.22c.07-.39.45-.5,1.12-.35a7.34,7.34,0,0,0,1.35.23.82.82,0,0,0,.48-.05L38.79,1c.22-.19.46-.08.71.34A1.14,1.14,0,0,1,39.77,1.84Z"/><path class="cls-1" d="M45.49,1.45a.36.36,0,0,1-.14.39q-.26.21-.27.3a3,3,0,0,1-.16.49,1,1,0,0,1-.27.42c-.12.06-.2.05-.26,0a.32.32,0,0,0-.23-.15c-.1,0-.16,0-.19.06s-.1.06-.21.06a1.1,1.1,0,0,0-.57.22.49.49,0,0,0-.13.52c.06.23.11.43.16.59A6.62,6.62,0,0,0,44,5.68a3.07,3.07,0,0,1,.34,1.22c.06.53.09.88.09,1.06a2.7,2.7,0,0,1-.31.93,4.74,4.74,0,0,1-.53.91q-.23.27-.24.21s-.12,0-.33.09-.31.16-.28.19,0,.08-.15.14a1,1,0,0,1-.55.1,5.28,5.28,0,0,1-.53,0,.5.5,0,0,1-.31-.09.48.48,0,0,0-.29-.1c-.13,0-.18.06-.17.18a.31.31,0,0,1-.07.27c-.07.06-.15.05-.22,0a.39.39,0,0,1-.06-.37,1.49,1.49,0,0,1,.06-.31s0-.15-.11-.34A1,1,0,0,1,40.24,9c0-.25.08-.45.12-.61s0-.19-.08-.16-.11,0-.13-.2c-.08-.39.25-.73,1-1,.27-.1.42-.09.45,0a3,3,0,0,0,.08.32.61.61,0,0,1,0,.39.42.42,0,0,0,0,.42c.06.16.2.16.4,0a1.37,1.37,0,0,0,.42-.42c.11-.2,0-.45-.22-.74,0,0-.05-.21,0-.53A.76.76,0,0,0,42,6.09a.41.41,0,0,0-.24-.16c-.09,0-.15-.11-.19-.25a4.69,4.69,0,0,1-.07-.63,1.6,1.6,0,0,0-.15-.63,2,2,0,0,1,0-.95,5.84,5.84,0,0,1,.33-1.19c.21-.61.36-1,.44-1.17s.24-.25.54-.28a1.36,1.36,0,0,0,.73-.27A.94.94,0,0,1,44,.42c.25,0,.48.06.69.08s.43.25.65.72C45.41,1.31,45.46,1.38,45.49,1.45Z"/><path class="cls-1" d="M50.71,1.45a.33.33,0,0,1-.14.39q-.26.21-.27.3a2.25,2.25,0,0,1-.16.49.84.84,0,0,1-.27.42c-.11.06-.2.05-.26,0a.3.3,0,0,0-.23-.15.24.24,0,0,0-.19.06A.25.25,0,0,1,49,3a1.07,1.07,0,0,0-.57.22.49.49,0,0,0-.13.52c.05.23.11.43.16.59a6,6,0,0,0,.74,1.37,2.92,2.92,0,0,1,.34,1.22c.06.53.09.88.09,1.06a2.49,2.49,0,0,1-.31.93,3.87,3.87,0,0,1-.53.91q-.22.27-.24.21s-.12,0-.33.09-.3.16-.28.19,0,.08-.15.14a1,1,0,0,1-.54.1c-.23,0-.41,0-.54,0a.49.49,0,0,1-.3-.09.49.49,0,0,0-.3-.1c-.12,0-.18.06-.16.18a.35.35,0,0,1-.07.27c-.08.06-.15.05-.23,0a.45.45,0,0,1-.06-.37,1.49,1.49,0,0,1,.06-.31s0-.15-.11-.34A1,1,0,0,1,45.46,9l.12-.61c0-.13,0-.19-.07-.16s-.11,0-.14-.2c-.07-.39.25-.73,1-1,.28-.1.43-.09.45,0l.09.32a.69.69,0,0,1-.06.39.48.48,0,0,0,0,.42c.07.16.2.16.41,0a1.65,1.65,0,0,0,.42-.42c.1-.2,0-.45-.22-.74,0,0-.06-.21,0-.53a.73.73,0,0,0-.2-.44A.47.47,0,0,0,47,5.93c-.09,0-.15-.11-.18-.25a4.32,4.32,0,0,1-.08-.63,1.63,1.63,0,0,0-.14-.63,2,2,0,0,1,0-.95,5.84,5.84,0,0,1,.33-1.19,10.57,10.57,0,0,1,.45-1.17c.06-.16.24-.25.54-.28a1.36,1.36,0,0,0,.72-.27,1,1,0,0,1,.67-.14c.25,0,.49.06.7.08s.43.25.65.72C50.64,1.31,50.68,1.38,50.71,1.45Z"/></g></g></svg>