<svg xmlns="http://www.w3.org/2000/svg" viewBox="0 0 44.35 10.91"><defs><style>.cls-1{fill:#ff00e7;}</style></defs><g id="Layer_2" data-name="Layer 2"><g id="Layer_1-2" data-name="Layer 1"><path class="cls-1" d="M.17,9.73A.47.47,0,0,1,0,9.16,3.32,3.32,0,0,0,.12,7.9,5.37,5.37,0,0,1,.25,6.25a.61.61,0,0,1,.13-.34.84.84,0,0,0,.09-.5c0-.23,0-.46,0-.68A2.07,2.07,0,0,1,.6,4a2.62,2.62,0,0,0,.05-1,4.18,4.18,0,0,0-.16-.92,1.18,1.18,0,0,1,.08-.87A.76.76,0,0,1,1.22.75a3,3,0,0,1,.57,0l.55.12a1.42,1.42,0,0,0,.71,0c.22-.07.48-.14.76-.2a1.55,1.55,0,0,1,1,.14.88.88,0,0,1,.62.59c.14.22.06.54-.26,1a.66.66,0,0,0-.52,0c-.23.14-.4.17-.51.08s-.34-.07-.38,0-.27.25-.31.24a.19.19,0,0,1-.12,0,.44.44,0,0,0-.15,0c-.32,0-.42,0-.29,0,0,0-.09-.06-.14-.15h0c-.17,0-.27.22-.31.66a5.71,5.71,0,0,0,0,1.1L2.9,4c.3-.09.55,0,.76.39a1.73,1.73,0,0,1,.28.86c0,.27-.14.39-.3.37s-.08,0-.13-.1H3.42a1,1,0,0,0-.32.09.54.54,0,0,1-.32.06l-.12-.11c-.07,0-.17,0-.3-.16s-.14.06-.15.19l-.09,1a5.21,5.21,0,0,0,0,1.12A8,8,0,0,1,2.13,9a3.08,3.08,0,0,1-.19,1.06c0,.08-.07.12-.08.1s-.05,0-.11.07-.22.2-.31.05c-.05,0-.09,0-.13,0l-.06.09q-.17.2-.27,0c-.13.06-.2,0-.22-.13A3.47,3.47,0,0,1,.34,10,.46.46,0,0,1,.17,9.73Z"/><path class="cls-1" d="M10.86,1.84c.15.55.05.77-.28.65-.16-.06-.3,0-.42.22s-.25.13-.53,0c0,0-.12.11-.43.28a.23.23,0,0,1-.34-.09.64.64,0,0,0-.46-.26c-.22,0-.31.29-.27.92a3.07,3.07,0,0,0,.18,1.14c.21.42.47.54.78.38a.92.92,0,0,0,.35-.23.49.49,0,0,1,.25-.18c.09,0,.16.15.2.54a8,8,0,0,1,0,.87c0,.19-.14.25-.34.17a.66.66,0,0,0-.49,0,.54.54,0,0,1-.58-.11.32.32,0,0,0-.46.08,2.36,2.36,0,0,0-.23,1.19c0,.64.07,1,.26,1a3,3,0,0,0,.51.11c.14,0,.3-.12.46-.39s.61-.46,1.15-.21c.24.12.28.38.1.79s-.31.73-.38.94-.35.37-.72.3-.59-.06-.6.08-.12.12-.36.09-.4-.1-.46-.25-.23-.15-.41.15-.32.25-.45-.15c-.06-.21-.16-.26-.29-.13A1.35,1.35,0,0,1,6.3,10a.78.78,0,0,1-.43,0c-.19,0-.25-.21-.19-.56s.15-.9.26-1.65a5.57,5.57,0,0,1,.44-1.66,6.25,6.25,0,0,0,.13-2.36,13.23,13.23,0,0,1,0-2.22c.07-.39.45-.5,1.12-.35A7.34,7.34,0,0,0,9,1.45a.84.84,0,0,0,.48-.05L9.88,1c.22-.19.46-.08.71.34A1.14,1.14,0,0,1,10.86,1.84Z"/><path class="cls-1" d="M15.52,2a2.94,2.94,0,0,0,0,1.1,5.06,5.06,0,0,0,.12.59,2.34,2.34,0,0,1,0,.72,3.33,3.33,0,0,1-.1.63,2.23,2.23,0,0,0,0,.83c0,.46.06,1,.06,1.54a5.61,5.61,0,0,1-.06,1.07c-.07.16-.13.25-.2.27a.87.87,0,0,0-.29.31c-.14.18-.18.27-.12.25s0,0-.23.16a3.53,3.53,0,0,1-.36.19l-.23-.07c-.15,0-.23-.08-.26-.16a.2.2,0,0,0-.21-.12c-.12,0-.21-.09-.27-.26a.68.68,0,0,1,0-.47.68.68,0,0,0,0-.62c-.08-.14-.23-.12-.44,0a1.82,1.82,0,0,0-.44.45,1.79,1.79,0,0,0-.23.68.72.72,0,0,1-.39.59c-.21.1-.33.14-.37.12s-.12,0-.28,0-.24.08-.21.15,0,.1-.11.11-.25-.17-.25-.61c0-.15,0-.37,0-.65A1.31,1.31,0,0,1,10.94,8a2,2,0,0,0,.35-.82,7.74,7.74,0,0,0,.14-.77,1.23,1.23,0,0,1,.36-.82,1.24,1.24,0,0,0,.3-.63c.06-.27.1-.51.13-.73s.08-.34.16-.36.15-.1.24-.25a.37.37,0,0,0,.06-.3c0-.06,0-.14.14-.23a1.19,1.19,0,0,0,.25-.72,3.4,3.4,0,0,1,.29-1.06A.94.94,0,0,1,14.18.8a7.14,7.14,0,0,1,1-.08c.25,0,.37.3.38.9A2,2,0,0,1,15.52,2ZM13.79,4.57,13.25,6a1.53,1.53,0,0,0,.4,0,.36.36,0,0,0,.25-.11Z"/><path class="cls-1" d="M20.92,1.13a.85.85,0,0,1,.08.62,2,2,0,0,1-.16.52.42.42,0,0,0-.09.33,1.39,1.39,0,0,1,0,.4c0,.16-.1.2-.2.14A.68.68,0,0,0,20.22,3a1,1,0,0,0-.68.3.52.52,0,0,0-.12.48c0,.22,0,.37,0,.46s-.07.06-.21.28a2.4,2.4,0,0,0-.12.79c0,.42,0,.7,0,.86s0,.24-.06.22-.08,0-.13.14a3.86,3.86,0,0,0-.11,1.11,6.09,6.09,0,0,0,0,1.07s-.06.19-.22.41-.12.2-.09.24,0,.06-.1.11a1.35,1.35,0,0,0-.35.42,1,1,0,0,1-.43.34.9.9,0,0,1-.38.07.37.37,0,0,0-.27.07.65.65,0,0,0-.17.17s-.07.08-.18.1-.28-.06-.31-.3a.78.78,0,0,1,0-.37,4.4,4.4,0,0,0,.1-.68q0-.56.06-.81a1.51,1.51,0,0,1,.25-.67,2.72,2.72,0,0,0,.3-.74.81.81,0,0,0,0-.39,1.06,1.06,0,0,1,0-.38A6.55,6.55,0,0,1,17.32,5c.19-.74.3-1.14.33-1.22.14-.34.14-.57,0-.68s-.32-.06-.61.1a.56.56,0,0,1-.44,0q-.2,0-.15-.36a4,4,0,0,0,0-.52,2.82,2.82,0,0,1,.13-.87.78.78,0,0,1,.77-.61,7.42,7.42,0,0,1,1.3,0A9.68,9.68,0,0,0,20.25.75,1.21,1.21,0,0,1,20.92,1.13Z"/><path class="cls-1" d="M23.61.65a.21.21,0,0,0,.12,0,1,1,0,0,1,.32.07c.15.06.18.15.09.26a1.34,1.34,0,0,0-.23.52,6.39,6.39,0,0,0-.16,1.18c-.05.55-.07,1-.07,1.21,0,.72-.1,1.16-.3,1.33A4.17,4.17,0,0,0,23,6.72a8.06,8.06,0,0,0-.19,1.68c0,.53.32.67.91.43a1.55,1.55,0,0,0,.68-.74c.19-.38.34-.7.43-.94a7.1,7.1,0,0,0,.33-1.25,3.44,3.44,0,0,0,.1-1.22,5.88,5.88,0,0,1,.2-1.83A5.25,5.25,0,0,1,26,1.05,1.28,1.28,0,0,1,27,.65q.39,0,.39.84A12.87,12.87,0,0,1,27.3,3a8.25,8.25,0,0,1-.24,1.25,13.4,13.4,0,0,0-.44,2.05,16.77,16.77,0,0,1-.54,2.32c-.16.43-.29.66-.38.7a3.32,3.32,0,0,0-.54.41,2.06,2.06,0,0,0-.38.42.62.62,0,0,1-.27.25.34.34,0,0,1-.26,0,.42.42,0,0,0-.31,0,.67.67,0,0,0-.29.31c-.09.16-.18.23-.27.2a.39.39,0,0,1-.2-.14q-.12-.12-.18-.12a.56.56,0,0,0-.28,0,.41.41,0,0,1-.26,0,.5.5,0,0,1-.39-.28c-.09-.15-.2-.16-.35,0s-.47.06-.65-.52A2.68,2.68,0,0,1,21,9a2.37,2.37,0,0,1,.12-.75,10.8,10.8,0,0,0,.32-1.34,4.61,4.61,0,0,1,.46-1.46,3.55,3.55,0,0,0,.32-1.14,6.54,6.54,0,0,0,.12-1.18,6.86,6.86,0,0,1,.08-1.2A2.09,2.09,0,0,1,22.8.83a.58.58,0,0,1,.49-.21Z"/><path class="cls-1" d="M31.21,0A1.26,1.26,0,0,1,32.3.89a2.77,2.77,0,0,0,.1.34s.06.19.15.45a2.7,2.7,0,0,1,.07,1.14,5.73,5.73,0,0,1-.16,1,1.28,1.28,0,0,1-.16.4.81.81,0,0,0-.13.28,1.82,1.82,0,0,1-.15.41,1,1,0,0,0-.23.56c0,.08-.22.16-.65.23-.16,0-.22.19-.19.48a6.48,6.48,0,0,0,.33,1.28,4.33,4.33,0,0,1,.28,1.27.53.53,0,0,1-.27.33c-.1.07-.13.13-.09.19s0,.14,0,.26a.46.46,0,0,1-.35.33.76.76,0,0,0-.38.24c-.08.08-.21.09-.4,0S29.89,10,30,9.8A1.92,1.92,0,0,0,30,9.29,7.36,7.36,0,0,0,29.76,8c-.08-.33-.16-.48-.25-.42s-.18.31-.24.76a5.36,5.36,0,0,1-.17.82.38.38,0,0,1-.29.21,1.05,1.05,0,0,0-.34.14c-.1.07-.15.13-.14.16s-.07.06-.21.08-.29.09-.29.17-.13.26-.38.26c-.1,0-.16-.26-.16-.78A12.75,12.75,0,0,1,27.4,8a9,9,0,0,1,.28-1.09c.16-.55.26-.91.29-1.08a.58.58,0,0,0-.07-.4q-.12-.15.12-.54c.35-.6.43-1,.26-1.33-.11-.14,0-.43.31-.85a.87.87,0,0,0,.15-.57,6.48,6.48,0,0,0,0-.65A1.91,1.91,0,0,1,29.1.42c.12-.2.5-.33,1.14-.38A7,7,0,0,1,31.21,0Zm-.38,2.11a.75.75,0,0,0-.3-.11c-.16,0-.24,0-.23.14a6.41,6.41,0,0,1-.11,1.06,3,3,0,0,0-.08.81,1.28,1.28,0,0,0,.42-.46,6.13,6.13,0,0,0,.21-.77A1.77,1.77,0,0,0,30.83,2.11Z"/><path class="cls-1" d="M38.62,1.84c.15.55.05.77-.29.65-.15-.06-.29,0-.41.22s-.25.13-.54,0c0,0-.11.11-.43.28a.23.23,0,0,1-.34-.09.64.64,0,0,0-.45-.26c-.22,0-.31.29-.27.92a2.86,2.86,0,0,0,.18,1.14c.21.42.47.54.77.38a1,1,0,0,0,.36-.23.49.49,0,0,1,.25-.18c.09,0,.16.15.19.54a6,6,0,0,1,0,.87c0,.19-.13.25-.33.17a.66.66,0,0,0-.49,0,.56.56,0,0,1-.59-.11.32.32,0,0,0-.46.08,2.4,2.4,0,0,0-.22,1.19c0,.64.07,1,.26,1a2.86,2.86,0,0,0,.5.11c.15,0,.3-.12.46-.39s.62-.46,1.16-.21c.24.12.27.38.09.79s-.3.73-.38.94-.34.37-.71.3-.59-.06-.6.08-.12.12-.37.09a.5.5,0,0,1-.46-.25c-.09-.2-.22-.15-.4.15s-.32.25-.45-.15c-.06-.21-.16-.26-.29-.13a1.55,1.55,0,0,1-.34.24.78.78,0,0,1-.43,0c-.19,0-.26-.21-.19-.56s.15-.9.26-1.65a5.62,5.62,0,0,1,.43-1.66,6.18,6.18,0,0,0,.14-2.36,13.76,13.76,0,0,1,0-2.22c.08-.39.45-.5,1.13-.35a7.34,7.34,0,0,0,1.35.23.84.84,0,0,0,.48-.05L37.64,1c.22-.19.46-.08.71.34A1.14,1.14,0,0,1,38.62,1.84Z"/><path class="cls-1" d="M44.34,1.45a.35.35,0,0,1-.15.39q-.25.21-.27.3a2.76,2.76,0,0,1-.15.49,1,1,0,0,1-.27.42c-.12.06-.21.05-.27,0A.28.28,0,0,0,43,2.86a.25.25,0,0,0-.19.06.25.25,0,0,1-.2.06A1.1,1.1,0,0,0,42,3.2a.49.49,0,0,0-.13.52c.05.23.11.43.16.59a6,6,0,0,0,.74,1.37,2.92,2.92,0,0,1,.34,1.22c.06.53.09.88.09,1.06a2.49,2.49,0,0,1-.31.93,3.87,3.87,0,0,1-.53.91q-.23.27-.24.21s-.12,0-.33.09-.3.16-.28.19,0,.08-.15.14a1,1,0,0,1-.54.1,5,5,0,0,1-.53,0A.5.5,0,0,1,40,10.4a.49.49,0,0,0-.3-.1c-.12,0-.18.06-.16.18a.35.35,0,0,1-.07.27c-.08.06-.15.05-.23,0a.45.45,0,0,1-.06-.37,1.49,1.49,0,0,1,.06-.31s0-.15-.11-.34A1,1,0,0,1,39.08,9l.12-.61c0-.13,0-.19-.07-.16s-.11,0-.14-.2c-.07-.39.25-.73,1-1,.28-.1.43-.09.45,0l.09.32a.69.69,0,0,1-.06.39.48.48,0,0,0,0,.42c.07.16.2.16.41,0a1.65,1.65,0,0,0,.42-.42c.1-.2,0-.45-.22-.74-.05,0-.06-.21,0-.53a.76.76,0,0,0-.21-.44.43.43,0,0,0-.25-.16c-.09,0-.15-.11-.18-.25a4.32,4.32,0,0,1-.08-.63,1.63,1.63,0,0,0-.14-.63,2.13,2.13,0,0,1-.05-.95,5.84,5.84,0,0,1,.33-1.19c.22-.61.36-1,.45-1.17s.24-.25.54-.28A1.4,1.4,0,0,0,42.2.56a.93.93,0,0,1,.66-.14c.25,0,.49.06.7.08s.43.25.65.72Z"/></g></g></svg>