<svg xmlns="http://www.w3.org/2000/svg" viewBox="0 0 34.89 12.62"><defs><style>.cls-1{fill:#ff00e7;}</style></defs><g id="Layer_2" data-name="Layer 2"><g id="Layer_1-2" data-name="Layer 1"><path class="cls-1" d="M2.35,2c.48.13.73.3.77.51a18,18,0,0,1,0,1.95,5.08,5.08,0,0,1,0,.51,3.06,3.06,0,0,0,0,.42c0,.1,0,.14-.06.14s-.08.06-.13.16a2.11,2.11,0,0,0-.13.8q0,.63,0,.87c0,.15,0,.23-.06.21s-.08,0-.13.17a3.38,3.38,0,0,0-.11,1.1,7,7,0,0,0,0,1.07,2.45,2.45,0,0,1-.23.42c-.08.13-.1.21-.08.23s0,.08-.11.14a1.25,1.25,0,0,0-.34.44,1,1,0,0,1-.44.37.74.74,0,0,1-.37.11.39.39,0,0,0-.28.09.63.63,0,0,0-.17.18S.4,11.94.29,12s-.24,0-.28-.27a1.16,1.16,0,0,1,0-.37,3.48,3.48,0,0,0,.08-.69q0-.56.06-.81A1.65,1.65,0,0,1,.4,9.14a2.89,2.89,0,0,0,.3-.75A1,1,0,0,0,.73,8a1.17,1.17,0,0,1,0-.39A6.88,6.88,0,0,1,1,6.22c.19-.74.3-1.16.33-1.24.16-.33.17-.55,0-.68s-.09-.37-.07-1A4.47,4.47,0,0,1,1.42,2q.1-.33.15-.24A2.22,2.22,0,0,0,2.35,2Z"/><path class="cls-1" d="M6.8,1.76a1.52,1.52,0,0,0,.4,0c.21,0,.35.19.44.63a1.41,1.41,0,0,0,.14.45A1.7,1.7,0,0,1,8,3.25a2,2,0,0,1-.15.91,3.62,3.62,0,0,0-.2,1,5.59,5.59,0,0,0,.24,1.41c.17.71.31.91.39.59s.16-.75.25-1.32a6.82,6.82,0,0,1,.27-1.22,1.93,1.93,0,0,0,.1-.92A3.66,3.66,0,0,1,9,2.44a3.77,3.77,0,0,1,.17-.61l.31-.05a8.28,8.28,0,0,1,1-.06c.5,0,.75.06.76.23a.61.61,0,0,1-.06.35s0,.14.06.3a1.41,1.41,0,0,1-.24.91,7.48,7.48,0,0,0-.42,1c-.09.21-.11.32-.08.32s.06.16.06.46a1.5,1.5,0,0,1-.12.68,2.53,2.53,0,0,0-.2.57,2.64,2.64,0,0,0-.07.53,2.37,2.37,0,0,1-.07.56c-.06.28-.11.45-.13.52L9.76,9a12.38,12.38,0,0,0-.24,1.54q-.06.78-.06.93c0,.24-.11.27-.28.09s-.3-.09-.54,0-.24.06-.27-.06-.08-.18-.14-.18a1.07,1.07,0,0,0-.45.33c-.09.11-.19,0-.29-.32a3.52,3.52,0,0,1-.15-1c0-.34,0-.53-.06-.55a.44.44,0,0,0-.23,0c-.12,0-.16-.22-.1-.69A6.19,6.19,0,0,0,7,8.09c0-.16,0-.22-.13-.18s-.12,0-.12-.17-.07-.59-.14-1.29a8.69,8.69,0,0,1-.07-1.33c0-.41-.09-.46-.32-.14A2,2,0,0,0,6,6a5.91,5.91,0,0,1-.12,1.16A13.06,13.06,0,0,1,5.36,9a2.83,2.83,0,0,0-.16.82c0,.26,0,.62-.11,1.09a1.76,1.76,0,0,1-.24.84.29.29,0,0,1-.33,0q-.16,0-.3.18c-.1.16-.16.2-.19.14a.4.4,0,0,0-.21-.19.55.55,0,0,0-.55.08c-.16.13-.18-.1,0-.67a5.68,5.68,0,0,1,.29-1,3,3,0,0,0,.19-.92c.06-.51.1-.93.13-1.23s.06-.62.11-1a1.23,1.23,0,0,1,.36-.75,1,1,0,0,0,.22-.8,2.13,2.13,0,0,0-.14-.77q-.13-.27.33-.75a1.39,1.39,0,0,0,.34-.82,2.37,2.37,0,0,0,0-.81c-.1-.47.15-.74.76-.79a2.62,2.62,0,0,1,.75,0Z"/><path class="cls-1" d="M16.65,2.64a2,2,0,0,0,0,.68.75.75,0,0,1-.15.58c0,.08-.17.13-.36.16s-.16,0-.25-.11a.4.4,0,0,0-.29-.13c-.07,0-.14.1-.21.22a.37.37,0,0,1-.2.21c-.11,0-.19,0-.26-.15s-.15-.18-.25-.13a.56.56,0,0,0-.2.34,2.41,2.41,0,0,1-.13.45,1,1,0,0,0-.08.35.46.46,0,0,1-.14.3,1.5,1.5,0,0,0-.43.79l-.15.67a6,6,0,0,1-.2.74,5,5,0,0,0-.21,1.11c-.07.56-.06.88,0,.95s.26,0,.66-.06a.33.33,0,0,1,.18,0,.21.21,0,0,0,.23-.05.41.41,0,0,0,.16-.21.62.62,0,0,1,.18-.25A.35.35,0,0,0,14.66,9a.54.54,0,0,1,.07-.13.25.25,0,0,1,.14,0,.21.21,0,0,0,.13,0,1.44,1.44,0,0,0,.4-.59c.14-.3.09-.49-.14-.55s-.24,0-.23.12a.18.18,0,0,1-.14.2c-.11,0-.17,0-.16,0s0-.07-.09-.07-.11,0-.1.08,0,.08-.09.09c-.23.07-.35.07-.35,0a1.32,1.32,0,0,1,0-.9,2.78,2.78,0,0,0,.25-.6.52.52,0,0,1,.37-.41.31.31,0,0,1,.36.18.42.42,0,0,0,.45.2,6.92,6.92,0,0,1,.76,0c.29,0,.45.27.47.72a5.65,5.65,0,0,1-.57,2,6.91,6.91,0,0,1-1,1.79,3.57,3.57,0,0,1-1,.62,2.94,2.94,0,0,0-.82.46.53.53,0,0,0-.11.25.37.37,0,0,1-.1.21c-.12.13-.21.1-.28-.08a3.43,3.43,0,0,0-.69-.41,1.06,1.06,0,0,1-.52-.89c0-.19-.06-.28-.09-.26s-.08,0-.15-.12a1.07,1.07,0,0,1,0-.59A6.43,6.43,0,0,0,11.53,9a8.64,8.64,0,0,1,.29-1.87,6.46,6.46,0,0,1,.43-1.41,14.79,14.79,0,0,0,.62-1.39c.32-.77.54-1.3.64-1.57s.2-.38.3-.34a1.34,1.34,0,0,0,.53,0,1.06,1.06,0,0,0,.58-.23A1.14,1.14,0,0,1,15.45,2a3.4,3.4,0,0,1,1.23.26A2,2,0,0,1,16.65,2.64Z"/><path class="cls-1" d="M21.16,2.25s0,0,.1,0,.09.09.08.3a.88.88,0,0,1-.21.53,2.14,2.14,0,0,0-.33.81c-.12.42-.31,1.23-.59,2.44s-.44,2-.5,2.25a2.55,2.55,0,0,0-.05.87c0,.29.24.4.62.32a1.09,1.09,0,0,1,.88.17c.21.17.42.12.62-.17a.83.83,0,0,1,.74-.41.5.5,0,0,1,.54.37c.12.52-.15,1.05-.82,1.58a.33.33,0,0,1-.41.06c-.13-.08-.21-.06-.24.05q-.33.58-.6,0c0-.19-.13-.22-.29-.09s-.28.14-.34,0-.15,0-.35.23-.45.2-.59,0-.26-.33-.38-.23-.38.27-.51.23a.63.63,0,0,0-.58.18,1.84,1.84,0,0,1-.54.34q-.27.11,0-.72c.17-.56.28-.94.34-1.17A10.06,10.06,0,0,0,18,8.68a13.92,13.92,0,0,1,.28-1.61c.05-.22.08-.39.1-.51a.93.93,0,0,1,.29-.45A2,2,0,0,0,19,5a5.47,5.47,0,0,0,0-1.26,1.61,1.61,0,0,1,.63-1.52.92.92,0,0,1,1-.17A3,3,0,0,1,21.16,2.25Z"/><path class="cls-1" d="M29.16,3.25c.15.55.05.77-.28.65-.16-.06-.3,0-.42.22s-.25.13-.53,0c0,0-.12.12-.43.28a.23.23,0,0,1-.34-.09.6.6,0,0,0-.46-.25c-.22,0-.31.28-.27.91a3.19,3.19,0,0,0,.18,1.15c.21.41.47.53.78.38a1.05,1.05,0,0,0,.35-.24A.56.56,0,0,1,28,6.07c.09,0,.16.15.2.54a8,8,0,0,1,0,.87c0,.19-.14.25-.34.17a.66.66,0,0,0-.49,0,.53.53,0,0,1-.58-.11.32.32,0,0,0-.46.08,2.36,2.36,0,0,0-.23,1.19c0,.64.07,1,.26,1a3,3,0,0,0,.51.11c.14,0,.3-.12.45-.39s.62-.46,1.16-.21c.24.12.28.38.1.79s-.31.73-.38.94-.35.37-.72.3-.59-.06-.6.08-.12.12-.36.09-.4-.1-.46-.25-.23-.15-.41.15-.32.25-.45-.15c-.06-.21-.16-.25-.29-.13a1.35,1.35,0,0,1-.34.24.7.7,0,0,1-.43,0c-.19,0-.25-.21-.19-.55s.15-.9.26-1.66a5.57,5.57,0,0,1,.44-1.66,6.25,6.25,0,0,0,.13-2.36,12.14,12.14,0,0,1,0-2.22c.07-.39.45-.5,1.12-.34a7.26,7.26,0,0,0,1.35.22.84.84,0,0,0,.48,0,5.58,5.58,0,0,0,.44-.37c.22-.19.46-.07.71.34A1.14,1.14,0,0,1,29.16,3.25Z"/><path class="cls-1" d="M34.88,2.86a.35.35,0,0,1-.14.39q-.26.21-.27.3a5.23,5.23,0,0,1-.16.5,1,1,0,0,1-.27.41c-.12.06-.21,0-.26,0a.32.32,0,0,0-.23-.15c-.1,0-.16,0-.19.06a.28.28,0,0,1-.21.06,1.11,1.11,0,0,0-.57.23.47.47,0,0,0-.13.51c.06.23.11.43.16.6a6.39,6.39,0,0,0,.75,1.36,3.07,3.07,0,0,1,.34,1.22,10.55,10.55,0,0,1,.08,1.06,2.62,2.62,0,0,1-.3.93,4.2,4.2,0,0,1-.54.91c-.14.18-.22.25-.23.21s-.12,0-.34.09-.3.16-.27.19,0,.08-.15.14a1,1,0,0,1-.55.1l-.53,0a.5.5,0,0,1-.31-.1.48.48,0,0,0-.29-.09c-.13,0-.19,0-.17.17a.3.3,0,0,1-.07.27c-.08.06-.15.05-.22,0a.41.41,0,0,1-.07-.37,1.07,1.07,0,0,1,.07-.3s0-.16-.11-.35a1,1,0,0,1-.08-.65l.12-.6c0-.14,0-.2-.07-.17s-.11,0-.13-.2c-.08-.39.25-.73,1-1,.28-.1.43-.09.46,0s.05.22.08.33A.66.66,0,0,1,31,9.2a.42.42,0,0,0,0,.42c.06.16.19.16.4,0a1.37,1.37,0,0,0,.42-.42c.11-.2,0-.45-.22-.74,0,0-.05-.21,0-.53a.76.76,0,0,0-.21-.44.47.47,0,0,0-.24-.16c-.09,0-.15-.1-.19-.25s-.05-.34-.08-.63a1.38,1.38,0,0,0-.14-.62,2.17,2.17,0,0,1,0-1A6.16,6.16,0,0,1,31,3.69c.21-.61.36-1,.44-1.17s.24-.25.54-.28A1.36,1.36,0,0,0,32.74,2a.93.93,0,0,1,.66-.14,6.84,6.84,0,0,0,.7.08c.21,0,.43.25.65.73A1.79,1.79,0,0,1,34.88,2.86Z"/><path class="cls-1" d="M28.74.3q.24.25.21.33a2.51,2.51,0,0,1-.29.41.3.3,0,0,1-.1.09l-.08.07a0,0,0,0,1,0,0h-.08s-.1.05-.17.12L28,1.48s0,0-.05,0,0,0-.08,0-.12.07-.21.19-.16.19-.16.22-.06,0-.16,0-.07,0-.06,0,0,0-.07,0a.54.54,0,0,0-.19,0,.6.6,0,0,1-.23-.06.49.49,0,0,1-.15-.09l-.12-.07s-.08,0-.09,0a.16.16,0,0,1-.09,0c-.07,0-.09-.07-.07-.13a.23.23,0,0,1,.07-.07.54.54,0,0,0,.14-.12l.15-.14a.33.33,0,0,1,.2-.06.74.74,0,0,0,.23-.06s.07-.05.07-.07a.21.21,0,0,1,0-.09.94.94,0,0,1,.32-.19l.32-.15C28,.56,28,.52,28,.45s0-.1.14-.22A.63.63,0,0,1,28.39,0c.06,0,.1,0,.1,0A2,2,0,0,0,28.74.3Z"/></g></g></svg>