<svg xmlns="http://www.w3.org/2000/svg" viewBox="0 0 32.04 10.38"><defs><style>.cls-1{fill:#ff00e7;}</style></defs><g id="Layer_2" data-name="Layer 2"><g id="Layer_1-2" data-name="Layer 1"><path class="cls-1" d="M5.21,1.43c.14.55,0,.77-.29.65-.16-.06-.3,0-.41.22s-.25.12-.54,0c0,0-.11.11-.43.28a.23.23,0,0,1-.34-.09.61.61,0,0,0-.45-.26c-.22,0-.32.29-.28.92a3.31,3.31,0,0,0,.18,1.14c.22.42.47.54.78.38a1,1,0,0,0,.36-.23A.51.51,0,0,1,4,4.25c.1,0,.16.15.2.54a6,6,0,0,1,0,.87c0,.19-.13.25-.33.17a.67.67,0,0,0-.49,0,.56.56,0,0,1-.59-.11.32.32,0,0,0-.46.08A2.29,2.29,0,0,0,2.18,7c0,.64.06,1,.25,1a2.85,2.85,0,0,0,.51.1c.15,0,.3-.11.46-.38S4,7.25,4.56,7.5c.24.12.27.38.09.79s-.31.73-.38.94-.34.37-.71.3S3,9.47,3,9.61s-.13.11-.37.09a.5.5,0,0,1-.46-.25c-.09-.2-.23-.15-.4.15s-.33.25-.45-.15c-.07-.21-.17-.26-.3-.14a1.07,1.07,0,0,1-.34.25.77.77,0,0,1-.43,0C0,9.59,0,9.4,0,9.05s.15-.9.27-1.65A5.62,5.62,0,0,1,.72,5.74,6.4,6.4,0,0,0,.86,3.38a13.73,13.73,0,0,1,0-2.22C.91.77,1.28.65,2,.81A6.33,6.33,0,0,0,3.3,1a.8.8,0,0,0,.49,0L4.22.62c.23-.19.46-.08.72.34A1.42,1.42,0,0,1,5.21,1.43Z"/><path class="cls-1" d="M10.29.72a.9.9,0,0,1,.09.62,2,2,0,0,1-.17.52.5.5,0,0,0-.09.33,1.11,1.11,0,0,1,0,.4c0,.16-.1.2-.19.14a.72.72,0,0,0-.32-.11,1,1,0,0,0-.68.3.51.51,0,0,0-.12.48,3.64,3.64,0,0,1,0,.46s-.07.06-.21.28a2.22,2.22,0,0,0-.11.79c0,.41,0,.7,0,.86s0,.24-.05.22-.09,0-.14.14a3.86,3.86,0,0,0-.11,1.11,5.88,5.88,0,0,0,0,1.06c0,.06-.06.19-.22.42s-.11.2-.09.23,0,.07-.1.11a1.77,1.77,0,0,0-.35.43,1,1,0,0,1-.81.41.33.33,0,0,0-.27.07.46.46,0,0,0-.16.17.25.25,0,0,1-.18.1c-.18,0-.29-.06-.32-.3a.93.93,0,0,1,0-.37,2.74,2.74,0,0,0,.1-.68q0-.56.06-.81a1.47,1.47,0,0,1,.25-.67,2.8,2.8,0,0,0,.31-.74.77.77,0,0,0,0-.39,1.06,1.06,0,0,1,0-.38,6.72,6.72,0,0,1,.27-1.38c.19-.73.3-1.13.33-1.21.14-.35.15-.57,0-.68s-.32-.06-.6.1a.59.59,0,0,1-.45,0q-.18,0-.15-.36a4,4,0,0,0,0-.52A3.29,3.29,0,0,1,6,1a.78.78,0,0,1,.78-.6,7.4,7.4,0,0,1,1.3,0A9.56,9.56,0,0,0,9.62.34,1.21,1.21,0,0,1,10.29.72Z"/><path class="cls-1" d="M15.28,1.54a2.94,2.94,0,0,0,0,1.1c0,.23.07.43.11.59a2,2,0,0,1,0,.72,3.33,3.33,0,0,1-.1.63,2.23,2.23,0,0,0,0,.83c0,.46.06,1,.06,1.54A5.68,5.68,0,0,1,15.31,8c-.07.16-.13.25-.2.27s-.17.12-.29.3-.18.28-.11.26,0,0-.24.16a3.53,3.53,0,0,1-.36.19l-.23-.07c-.15,0-.23-.08-.26-.16a.2.2,0,0,0-.21-.12c-.12,0-.21-.09-.27-.26a.68.68,0,0,1,0-.47.68.68,0,0,0,0-.62c-.08-.14-.23-.12-.44,0A1.66,1.66,0,0,0,12.3,8a1.79,1.79,0,0,0-.23.68.74.74,0,0,1-.39.59,1,1,0,0,1-.37.12s-.12,0-.28,0-.24.08-.22.14,0,.1-.1.12-.25-.17-.25-.61c0-.16,0-.37,0-.65a1.24,1.24,0,0,1,.25-.77,2,2,0,0,0,.35-.82A7.74,7.74,0,0,0,11.19,6a1.23,1.23,0,0,1,.36-.82,1.23,1.23,0,0,0,.3-.64c.06-.26.1-.5.13-.72s.08-.35.16-.36.15-.1.24-.25a.37.37,0,0,0,.06-.3c0-.06,0-.14.14-.24A1.13,1.13,0,0,0,12.83,2,3.4,3.4,0,0,1,13.12.94a1,1,0,0,1,.82-.56,8.67,8.67,0,0,1,1-.07c.25,0,.37.3.38.9A2,2,0,0,1,15.28,1.54ZM13.55,4.16,13,5.57a1.53,1.53,0,0,0,.4,0,.36.36,0,0,0,.25-.11Z"/><path class="cls-1" d="M19.68.13A1.2,1.2,0,0,1,20.77,1a3.22,3.22,0,0,0,.1.35s.06.2.15.46a2.77,2.77,0,0,1,.08,1.13,7,7,0,0,1-.17,1,.92.92,0,0,1-.16.38.87.87,0,0,0-.13.3,1.28,1.28,0,0,1-.16.39,1.12,1.12,0,0,0-.2.57c0,.1-.23.18-.67.24-.05,0-.12.08-.19.19a.47.47,0,0,1-.25.21c-.1,0-.17,0-.22-.14S18.83,6,18.74,6a.35.35,0,0,0-.13.17.54.54,0,0,1-.14.19.19.19,0,0,1-.18.06.14.14,0,0,0-.13,0,3.4,3.4,0,0,0-.33,1.39,10.52,10.52,0,0,1-.25,1.46,2.1,2.1,0,0,1-.6.82c-.09.08-.15.05-.16-.08s-.09-.18-.23-.15-.29.08-.29.15a1.59,1.59,0,0,1-.38,0c-.1,0-.16-.18-.16-.54a12.64,12.64,0,0,1,.11-1.36,2.1,2.1,0,0,1,.17-.6A2.41,2.41,0,0,0,16.22,7a.53.53,0,0,0-.08-.4c-.07-.1,0-.29.13-.55a3.45,3.45,0,0,0,.36-.89,1,1,0,0,0,0-.69c-.1-.15,0-.44.3-.86a1.89,1.89,0,0,0,.2-.94,8.51,8.51,0,0,0,0-1A2.13,2.13,0,0,1,17.58.53c.12-.19.5-.31,1.13-.37A5.56,5.56,0,0,1,19.68.13ZM19.3,2.24A1.82,1.82,0,0,0,19,2.07q-.3-.12-.27.06a10.81,10.81,0,0,1-.17,1.1,7.39,7.39,0,0,0-.15,1c0,.06.09,0,.27-.14A1.5,1.5,0,0,0,19,3.68a5.6,5.6,0,0,0,.2-.79A2.24,2.24,0,0,0,19.3,2.24Z"/><path class="cls-1" d="M26,1.54a2.94,2.94,0,0,0,0,1.1c0,.23.07.43.11.59a2,2,0,0,1,0,.72,3.33,3.33,0,0,1-.1.63,2.23,2.23,0,0,0,0,.83c0,.46.06,1,.06,1.54A5.68,5.68,0,0,1,26,8c-.07.16-.13.25-.2.27s-.17.12-.29.3-.18.28-.12.26,0,0-.23.16a3.53,3.53,0,0,1-.36.19l-.23-.07c-.15,0-.23-.08-.26-.16a.2.2,0,0,0-.21-.12c-.12,0-.21-.09-.27-.26a.68.68,0,0,1,0-.47.68.68,0,0,0,0-.62c-.08-.14-.23-.12-.44,0A1.66,1.66,0,0,0,23,8a1.79,1.79,0,0,0-.23.68.74.74,0,0,1-.39.59,1,1,0,0,1-.37.12s-.12,0-.28,0-.24.08-.22.14,0,.1-.1.12-.25-.17-.25-.61c0-.16,0-.37,0-.65a1.24,1.24,0,0,1,.25-.77,2.19,2.19,0,0,0,.35-.82A7.74,7.74,0,0,0,21.91,6a1.23,1.23,0,0,1,.36-.82,1.23,1.23,0,0,0,.3-.64c.05-.26.1-.5.13-.72s.08-.35.16-.36.15-.1.24-.25a.37.37,0,0,0,.06-.3c0-.06,0-.14.14-.24A1.13,1.13,0,0,0,23.55,2,3.4,3.4,0,0,1,23.84.94a1,1,0,0,1,.82-.56,8.67,8.67,0,0,1,1-.07c.25,0,.37.3.38.9A2,2,0,0,1,26,1.54ZM24.27,4.16l-.54,1.41a1.53,1.53,0,0,0,.4,0,.36.36,0,0,0,.25-.11Z"/><path class="cls-1" d="M32,1a.37.37,0,0,1-.14.4q-.26.21-.27.3a3,3,0,0,1-.16.49,1.08,1.08,0,0,1-.27.42c-.12.06-.21,0-.26,0a.36.36,0,0,0-.23-.16.23.23,0,0,0-.19.07s-.1.06-.21.06a1.1,1.1,0,0,0-.57.22.49.49,0,0,0-.13.52c.06.23.11.42.16.59a6.62,6.62,0,0,0,.75,1.37,3.07,3.07,0,0,1,.34,1.22,10.36,10.36,0,0,1,.08,1.06,2.62,2.62,0,0,1-.3.93,4.74,4.74,0,0,1-.53.91q-.23.27-.24.21s-.12,0-.34.09-.3.16-.27.19,0,.08-.15.14a1,1,0,0,1-.55.09l-.53,0a.5.5,0,0,1-.31-.09.43.43,0,0,0-.29-.1c-.13,0-.19.06-.17.18a.31.31,0,0,1-.07.27c-.08.06-.15.05-.22,0a.43.43,0,0,1-.07-.38,1.32,1.32,0,0,1,.07-.3s0-.15-.11-.35a1,1,0,0,1-.08-.64L26.89,8c0-.13,0-.19-.07-.16s-.11,0-.13-.2c-.08-.39.25-.73,1-1,.28-.09.43-.08.46,0a3,3,0,0,0,.08.32.68.68,0,0,1-.05.39.43.43,0,0,0,0,.42c.06.16.2.16.4,0A1.37,1.37,0,0,0,29,7.39c.11-.2,0-.45-.22-.75,0,0-.05-.2,0-.52a.73.73,0,0,0-.21-.44.41.41,0,0,0-.24-.16c-.09,0-.15-.11-.19-.25s-.05-.34-.08-.63A1.47,1.47,0,0,0,27.89,4a2.13,2.13,0,0,1-.05-.95,6,6,0,0,1,.34-1.19c.21-.61.36-1,.44-1.17s.24-.25.54-.28a1.45,1.45,0,0,0,.73-.27A.93.93,0,0,1,30.55,0a6.62,6.62,0,0,0,.7.07c.21,0,.43.26.65.73Z"/></g></g></svg>