<svg xmlns="http://www.w3.org/2000/svg" viewBox="0 0 78.73 25.5"><defs><style>.cls-1{fill:#ff00e7;}</style></defs><g id="Layer_2" data-name="Layer 2"><g id="Layer_1-2" data-name="Layer 1"><path class="cls-1" d="M12.79,2.68c.37,1.4.13,2-.7,1.66-.39-.16-.72,0-1,.57-.18.32-.62.31-1.33,0,.08,0-.27.29-1.05.73a.57.57,0,0,1-.83-.25A1.55,1.55,0,0,0,6.75,4.7c-.54,0-.77.73-.68,2.35A8.52,8.52,0,0,0,6.52,10c.52,1.06,1.16,1.38,1.91,1a2.36,2.36,0,0,0,.88-.6,1.2,1.2,0,0,1,.6-.45c.23-.08.39.38.49,1.38a16.23,16.23,0,0,1,.09,2.23c-.05.48-.32.63-.82.42a1.57,1.57,0,0,0-1.2-.1A1.31,1.31,0,0,1,7,13.54a.78.78,0,0,0-1.13.2,6.14,6.14,0,0,0-.55,3c0,1.65.16,2.54.62,2.67a7.49,7.49,0,0,0,1.25.27c.37,0,.74-.29,1.13-1,.57-1,1.52-1.17,2.85-.52.59.3.67,1,.23,2s-.75,1.85-.94,2.39c-.26.7-.84,1-1.75.77s-1.45-.15-1.48.2-.29.3-.89.24a1.19,1.19,0,0,1-1.13-.65c-.24-.51-.57-.38-1,.39s-.79.64-1.1-.39c-.16-.54-.4-.65-.73-.34a3.4,3.4,0,0,1-.83.63,1.82,1.82,0,0,1-1,.12c-.47-.05-.63-.53-.47-1.42s.37-2.3.64-4.23A14.77,14.77,0,0,1,1.77,13.7c.39-.89.5-2.91.33-6A35,35,0,0,1,2,2C2.23,1,3.15.69,4.81,1.1a16,16,0,0,0,3.31.56,1.87,1.87,0,0,0,1.19-.12c.16-.13.52-.44,1.07-.93s1.13-.2,1.75.85A3.25,3.25,0,0,1,12.79,2.68Z"/><path class="cls-1" d="M25.28,1.76a2,2,0,0,1,.21,1.52,4,4,0,0,1-.41,1.29,1.12,1.12,0,0,0-.21.82,2.76,2.76,0,0,1-.06,1c-.08.39-.23.5-.46.35a1.59,1.59,0,0,0-.78-.27,2.44,2.44,0,0,0-1.68.74,1.26,1.26,0,0,0-.29,1.16,10.24,10.24,0,0,1,.1,1.13c0-.07-.17.16-.51.7a5.66,5.66,0,0,0-.29,1.95q-.06,1.52-.06,2.1c0,.42-.05.6-.14.55s-.2.06-.33.35a9.48,9.48,0,0,0-.27,2.72,14.17,14.17,0,0,0,.08,2.61c0,.13-.16.47-.55,1-.21.31-.28.5-.21.58s0,.17-.25.27a3.49,3.49,0,0,0-.86,1.05,2.13,2.13,0,0,1-1,.82,1.91,1.91,0,0,1-.94.18.9.9,0,0,0-.66.17,1.37,1.37,0,0,0-.41.43c0,.1-.19.18-.45.23-.44.11-.7-.14-.78-.74a2.26,2.26,0,0,1,.05-.89,10.22,10.22,0,0,0,.23-1.68c.08-.9.13-1.57.15-2a3.89,3.89,0,0,1,.61-1.66,6.84,6.84,0,0,0,.76-1.81,2,2,0,0,0,.06-1,2.91,2.91,0,0,1-.1-1,15.42,15.42,0,0,1,.66-3.37c.47-1.81.74-2.8.82-3,.33-.86.35-1.42,0-1.68s-.78-.15-1.48.24a1.44,1.44,0,0,1-1.09.11c-.31-.05-.44-.35-.37-.89a12.49,12.49,0,0,0,.09-1.29,7.45,7.45,0,0,1,.32-2.14,1.9,1.9,0,0,1,1.9-1.48A17,17,0,0,1,19.87,1,24,24,0,0,0,23.65.83,3,3,0,0,1,25.28,1.76Z"/><path class="cls-1" d="M37.54,3.79a7.16,7.16,0,0,0-.08,2.68,14.69,14.69,0,0,0,.27,1.47,5.44,5.44,0,0,1,0,1.77,7,7,0,0,1-.25,1.53,6,6,0,0,0,.09,2c.11,1.14.16,2.4.16,3.78a12.78,12.78,0,0,1-.16,2.64c-.15.39-.31.61-.48.67s-.42.3-.73.74-.42.67-.27.62,0,.08-.58.39a8,8,0,0,1-.88.47,3.65,3.65,0,0,1-.56-.16c-.37-.08-.58-.21-.64-.41a.5.5,0,0,0-.53-.29c-.29,0-.5-.22-.64-.64a1.47,1.47,0,0,1,0-1.15,1.78,1.78,0,0,0,.08-1.52c-.21-.34-.58-.31-1.09.1a4.36,4.36,0,0,0-1.1,1.11,4.88,4.88,0,0,0-.56,1.67,1.78,1.78,0,0,1-.95,1.44c-.52.23-.82.33-.9.29a1.58,1.58,0,0,0-.7.06c-.42.08-.59.2-.53.35s0,.25-.25.27c-.41.08-.63-.41-.63-1.47,0-.39,0-.93,0-1.6a3.17,3.17,0,0,1,.61-1.91,4.88,4.88,0,0,0,.88-2q.25-1.2.33-1.89a3,3,0,0,1,.89-2,3.08,3.08,0,0,0,.74-1.55c.13-.65.24-1.25.31-1.8s.21-.83.39-.87.38-.24.59-.61.23-.58.15-.74,0-.35.36-.58a2.91,2.91,0,0,0,.6-1.75,8.83,8.83,0,0,1,.72-2.61,2.33,2.33,0,0,1,2-1.36,20.61,20.61,0,0,1,2.45-.2c.6,0,.92.74.94,2.22A5.62,5.62,0,0,1,37.54,3.79ZM34.05,6.36l-2.3,7.39a3.66,3.66,0,0,0,1,.08c.23,0,1.3.39,1.48.21Z"/><path class="cls-1" d="M48.35.32A3,3,0,0,1,51,2.46c.12.47.2.76.23.86s.15.48.39,1.13a6.56,6.56,0,0,1,.17,2.77,14,14,0,0,1-.41,2.53,2.62,2.62,0,0,1-.38.95,1.52,1.52,0,0,0-.31.72,4.83,4.83,0,0,1-.39,1,2.56,2.56,0,0,0-.51,1.4c0,.24-.57.43-1.64.59-.13,0-.29.18-.48.47a1.14,1.14,0,0,1-.61.5q-.35.12-.54-.33t-.51-.33a1,1,0,0,0-.33.43,1.54,1.54,0,0,1-.33.47.49.49,0,0,1-.45.13.4.4,0,0,0-.33,0c-.23.16-.5,1.3-.8,3.43a33.39,33.39,0,0,1-.6,3.58,5.45,5.45,0,0,1-1.48,2c-.24.18-.37.11-.39-.2s-.22-.44-.59-.39-.7.21-.7.39a3.85,3.85,0,0,1-.93,0q-.39,0-.39-1.32A27.58,27.58,0,0,1,39,20a4.92,4.92,0,0,1,.4-1.46,6.86,6.86,0,0,0,.45-1.38,1.32,1.32,0,0,0-.2-1c-.18-.26-.07-.71.32-1.36a9.27,9.27,0,0,0,.89-2.18A2.45,2.45,0,0,0,41,10.87c-.23-.36,0-1.06.74-2.1a4.47,4.47,0,0,0,.51-2.31,20.3,20.3,0,0,0,0-2.52,5,5,0,0,1,1-2.64Q43.65.6,46,.4A13.54,13.54,0,0,1,48.35.32Zm0,4.82A6.6,6.6,0,0,0,47,4.62c-.76-.25-1.11-.19-1,.17a24.23,24.23,0,0,1-.64,3.44,19.49,19.49,0,0,0-.58,3.14c0,.2.35.06,1-.42a5,5,0,0,0,1.4-1.31A14.6,14.6,0,0,0,48,7.17,6.18,6.18,0,0,0,48.35,5.14Z"/><path class="cls-1" d="M63.87,3.79a7.41,7.41,0,0,0-.07,2.68,10.57,10.57,0,0,0,.27,1.47,5.44,5.44,0,0,1,0,1.77,6.27,6.27,0,0,1-.26,1.53,6.42,6.42,0,0,0,.1,2c.1,1.14.16,2.4.16,3.78A13.58,13.58,0,0,1,64,19.71c-.15.39-.32.61-.49.67s-.4.3-.72.74-.42.67-.27.62,0,.08-.58.39a8,8,0,0,1-.88.47,3.65,3.65,0,0,1-.56-.16c-.37-.08-.58-.21-.64-.41s-.24-.29-.53-.29-.5-.22-.65-.64a1.56,1.56,0,0,1,0-1.15,1.79,1.79,0,0,0,.09-1.52c-.22-.34-.58-.31-1.1.1a4.4,4.4,0,0,0-1.08,1.11A4.65,4.65,0,0,0,56,21.31a1.76,1.76,0,0,1-1,1.44c-.52.23-.82.33-.9.29a1.58,1.58,0,0,0-.7.06c-.42.08-.59.2-.52.35s0,.25-.26.27c-.42.08-.62-.41-.62-1.47,0-.39,0-.93,0-1.6a3.16,3.16,0,0,1,.6-1.91,4.88,4.88,0,0,0,.88-2q.26-1.2.33-1.89a3,3,0,0,1,.9-2,3.08,3.08,0,0,0,.73-1.55c.13-.65.24-1.25.32-1.8s.2-.83.39-.87.37-.24.58-.61.23-.58.15-.74,0-.35.36-.58a2.91,2.91,0,0,0,.6-1.75,9.14,9.14,0,0,1,.72-2.61A2.32,2.32,0,0,1,60.6,1a20.44,20.44,0,0,1,2.46-.2Q63.94.75,64,3A4.77,4.77,0,0,1,63.87,3.79ZM60.31,7.06l-2,6.54a4.18,4.18,0,0,0,1.47.15,1.21,1.21,0,0,0,.95-.51Z"/><path class="cls-1" d="M78.7,2.54a.87.87,0,0,1-.35,1c-.41.34-.64.59-.66.75a7.56,7.56,0,0,1-.39,1.2,2.11,2.11,0,0,1-.67,1c-.28.16-.5.13-.64-.09A.73.73,0,0,0,75.43,6a.57.57,0,0,0-.47.15c-.08.11-.24.16-.5.16a2.53,2.53,0,0,0-1.4.54,1.17,1.17,0,0,0-.32,1.27c.13.56.26,1,.39,1.46A15.27,15.27,0,0,0,75,12.94a7.47,7.47,0,0,1,.84,3q.21,1.95.21,2.61a6.3,6.3,0,0,1-.76,2.29A10.05,10.05,0,0,1,74,23.06c-.37.45-.56.62-.58.53s-.3,0-.82.21-.75.39-.69.47,0,.19-.37.35a2.53,2.53,0,0,1-1.34.23l-1.3-.07a1.14,1.14,0,0,1-.76-.24,1.17,1.17,0,0,0-.72-.23c-.31,0-.45.14-.41.43a.76.76,0,0,1-.18.66c-.18.15-.36.12-.54-.1a1,1,0,0,1-.16-.91,2.89,2.89,0,0,1,.16-.74c.05-.11,0-.39-.27-.86a2.39,2.39,0,0,1-.18-1.6c.12-.59.21-1.09.29-1.48s0-.47-.17-.4-.28-.1-.33-.49c-.19-1,.61-1.79,2.37-2.49.68-.24,1-.22,1.11.05s.14.54.22.8a1.78,1.78,0,0,1-.14,1,1.09,1.09,0,0,0,.1,1c.15.39.48.4,1,0a3.8,3.8,0,0,0,1-1q.39-.75-.54-1.83c-.11-.08-.13-.51-.08-1.29A1.86,1.86,0,0,0,70.13,14a1.12,1.12,0,0,0-.6-.39c-.22-.05-.37-.26-.45-.62a9.84,9.84,0,0,1-.19-1.54,3.76,3.76,0,0,0-.36-1.54,5.19,5.19,0,0,1-.11-2.33,13.26,13.26,0,0,1,.82-2.94c.52-1.5.88-2.45,1.09-2.87s.59-.62,1.32-.7A3.3,3.3,0,0,0,73.44.36,2.29,2.29,0,0,1,75.08,0q.93.14,1.71.18c.52,0,1,.62,1.6,1.79C78.51,2.2,78.62,2.39,78.7,2.54Z"/></g></g></svg>