<svg xmlns="http://www.w3.org/2000/svg" viewBox="0 0 177.68 25.44"><defs><style>.cls-1{fill:#ff00e7;}</style></defs><g id="Layer_2" data-name="Layer 2"><g id="Layer_1-2" data-name="Layer 1"><path class="cls-1" d="M5.62.85c1.14.31,1.76.71,1.84,1.22A42,42,0,0,1,7.6,6.73,8.21,8.21,0,0,1,7.5,8a9.19,9.19,0,0,0-.09,1c0,.23,0,.34-.14.34s-.19.13-.32.38a5.61,5.61,0,0,0-.3,1.92c-.05,1-.07,1.68-.07,2.06s0,.55-.14.52-.2.09-.32.39a8.27,8.27,0,0,0-.25,2.64A15.74,15.74,0,0,0,6,19.78a4.55,4.55,0,0,1-.56,1c-.18.31-.24.49-.19.56s0,.16-.27.32a3,3,0,0,0-.79,1.06,2.5,2.5,0,0,1-1.07.87,1.62,1.62,0,0,1-.89.27.91.91,0,0,0-.66.22,1.3,1.3,0,0,0-.4.42c0,.1-.18.19-.43.27s-.59-.06-.69-.65a3.72,3.72,0,0,1,0-.87A9.14,9.14,0,0,0,.24,21.6c0-.88.1-1.53.15-1.93A4,4,0,0,1,1,18a7.25,7.25,0,0,0,.72-1.8,2,2,0,0,0,.06-.93,2.81,2.81,0,0,1-.1-.93A17.08,17.08,0,0,1,2.29,11c.45-1.79.72-2.78.79-3,.38-.79.41-1.33.08-1.63C3,6.35,3,5.54,3,4A10.78,10.78,0,0,1,3.39.81c.18-.53.3-.72.38-.58A5,5,0,0,0,5.62.85Z"/><path class="cls-1" d="M16.27.36a4,4,0,0,0,.95,0c.51,0,.86.46,1.06,1.52a3,3,0,0,0,.35,1.06,4.21,4.21,0,0,1,.41,1,4.5,4.5,0,0,1-.34,2.17,8.13,8.13,0,0,0-.49,2.31,13,13,0,0,0,.57,3.36c.43,1.71.74,2.18.94,1.42s.38-1.79.6-3.17A14.09,14.09,0,0,1,21,7.11a4.84,4.84,0,0,0,.23-2.22A8.75,8.75,0,0,1,21.47,2a8.71,8.71,0,0,1,.4-1.46s.28-.06.74-.13A18.75,18.75,0,0,1,25,.24c1.19,0,1.79.17,1.82.57a1.66,1.66,0,0,1-.13.84c-.09.1-.05.34.13.72s0,1.1-.57,2.18a21.64,21.64,0,0,0-1,2.33c-.2.51-.26.77-.17.78s.14.37.14,1.08a3.66,3.66,0,0,1-.29,1.65,6.22,6.22,0,0,0-.47,1.35A4.73,4.73,0,0,0,24.3,13a6.72,6.72,0,0,1-.17,1.35c-.15.65-.25,1.07-.31,1.25s-.2.83-.45,2a24.54,24.54,0,0,0-.57,3.68c-.1,1.27-.15,2-.15,2.24,0,.58-.28.66-.69.23-.27-.26-.71-.23-1.28.07-.36.2-.57.16-.65-.13s-.19-.44-.34-.44a2.69,2.69,0,0,0-1.06.8c-.23.25-.46,0-.71-.78a8.2,8.2,0,0,1-.35-2.45c0-.83-.05-1.27-.14-1.32a1,1,0,0,0-.55,0c-.3,0-.38-.53-.25-1.67a16.39,16.39,0,0,0,.18-2.27c0-.39-.14-.52-.33-.42s-.28,0-.28-.42-.16-1.41-.33-3.09a19.57,19.57,0,0,1-.16-3.17c0-1-.23-1.1-.76-.34a4.54,4.54,0,0,0-.63,2.46A17.23,17.23,0,0,1,14,13.29a33.69,33.69,0,0,1-1.22,4.33,7.14,7.14,0,0,0-.38,1.95c0,.62-.11,1.49-.26,2.6a4.11,4.11,0,0,1-.57,2,.71.71,0,0,1-.8.11q-.37-.11-.72.42c-.23.38-.37.5-.44.34a1.05,1.05,0,0,0-.51-.45,1.33,1.33,0,0,0-1.32.19c-.39.3-.42-.24-.1-1.61a13.12,13.12,0,0,1,.7-2.45,7,7,0,0,0,.46-2.2c.15-1.24.25-2.22.3-3s.15-1.47.28-2.29a3,3,0,0,1,.86-1.81,2.36,2.36,0,0,0,.51-1.89,4.83,4.83,0,0,0-.32-1.86c-.23-.43,0-1,.79-1.79a3.44,3.44,0,0,0,.82-2A6.14,6.14,0,0,0,12.21,2C12,.89,12.57.26,14,.13a5.84,5.84,0,0,1,1.78.08A2.58,2.58,0,0,1,16.27.36Z"/><path class="cls-1" d="M30,.32a9.34,9.34,0,0,1,1.87.15A4.13,4.13,0,0,1,33,2.7a7.15,7.15,0,0,1-.19,2A2.2,2.2,0,0,0,33,6.37,13.24,13.24,0,0,1,33.39,10c.07,1.88.13,3.44.21,4.66s.24,1.82.57,2c.2-.05.45-.65.76-1.8a7.66,7.66,0,0,0,.34-2.69,2.94,2.94,0,0,1,.15-1.64,8,8,0,0,0,.49-1.64,16.89,16.89,0,0,1,.44-1.68,16.26,16.26,0,0,0,.47-1.87,4.81,4.81,0,0,0,.1-1.85,12.06,12.06,0,0,1-.17-1.7C36.67,1,37.43.41,39,.14s2.38.27,2.38,1.62a14.55,14.55,0,0,1-1.32,4.18,28.68,28.68,0,0,0-1,3.31c-.48,1.77-1,3.67-1.52,5.68s-1,3.88-1.44,5.6-.68,2.74-.75,3a1.5,1.5,0,0,1-1,1,1,1,0,0,0-.31.31c-.09.16-.2.23-.3.2a.31.31,0,0,1-.26-.31c-.08.07-.33,0-.74-.14s-.67-.37-.74-.61c-.18.29-.37.4-.57.32l-.31-.63A3.5,3.5,0,0,1,30.77,22c0-.75-.06-1.58-.16-2.49-.13-1.07-.22-2.08-.25-3s-.1-1.9-.17-2.86-.3-2.53-.65-4.78-.63-3.73-.83-4.43A6,6,0,0,1,28.55.67C28.68.33,29.16.21,30,.32Z"/><path class="cls-1" d="M53.24,2.32c.35,1.42.12,2-.68,1.68q-.57-.24-1,.57c-.18.33-.61.32-1.29,0,.07.06-.27.3-1,.74A.54.54,0,0,1,48.44,5a1.46,1.46,0,0,0-1.08-.66c-.54,0-.75.74-.67,2.37a8.9,8.9,0,0,0,.44,3c.51,1.06,1.12,1.39,1.86,1a2.33,2.33,0,0,0,.85-.61,1.27,1.27,0,0,1,.59-.45c.23-.09.39.38.48,1.39A20.72,20.72,0,0,1,51,13.26c0,.49-.32.64-.8.43a1.46,1.46,0,0,0-1.17-.1,1.25,1.25,0,0,1-1.41-.29.74.74,0,0,0-1.1.21A6.44,6.44,0,0,0,46,16.58c-.05,1.67.15,2.57.61,2.7a6.93,6.93,0,0,0,1.21.27c.36,0,.73-.3,1.1-1,.56-1,1.48-1.18,2.77-.53.58.3.66,1,.23,2s-.73,1.87-.91,2.42q-.37,1.07-1.71.78c-.93-.22-1.42-.15-1.44.2s-.29.3-.87.25a1.17,1.17,0,0,1-1.1-.66c-.23-.52-.55-.39-1,.39s-.78.65-1.08-.39c-.15-.54-.38-.66-.7-.35a3.4,3.4,0,0,1-.81.64,1.62,1.62,0,0,1-1,.12c-.46-.05-.61-.53-.46-1.43s.37-2.33.63-4.28a15.3,15.3,0,0,1,1-4.28c.38-.91.49-2.94.33-6.11a35.71,35.71,0,0,1-.06-5.73C43,.62,43.84.31,45.46.72a15.24,15.24,0,0,0,3.23.58,1.89,1.89,0,0,0,1.15-.12c.17-.14.51-.46,1-.95s1.1-.2,1.71.86A3.59,3.59,0,0,1,53.24,2.32Z"/><path class="cls-1" d="M79.31,3.08A.85.85,0,0,1,79,4c-.4.33-.62.57-.64.72A6.6,6.6,0,0,1,78,5.92a2.15,2.15,0,0,1-.65,1c-.28.15-.48.12-.62-.09a.74.74,0,0,0-.55-.37.55.55,0,0,0-.46.16.61.61,0,0,1-.49.15,2.56,2.56,0,0,0-1.37.53,1.16,1.16,0,0,0-.3,1.23c.12.55.25,1,.38,1.42a14.84,14.84,0,0,0,1.78,3.27,7.29,7.29,0,0,1,.81,2.92c.14,1.26.22,2.11.22,2.54A6.34,6.34,0,0,1,76,20.91a11,11,0,0,1-1.27,2.16q-.54.64-.57.51c0-.09-.29,0-.8.21s-.73.38-.66.45-.06.19-.36.35a2.59,2.59,0,0,1-1.32.22l-1.27-.07a1.19,1.19,0,0,1-.74-.23,1.07,1.07,0,0,0-.7-.23c-.3,0-.43.14-.4.42a.71.71,0,0,1-.16.65c-.18.15-.36.12-.54-.1a1.06,1.06,0,0,1-.15-.89,2.92,2.92,0,0,1,.15-.72c.06-.1,0-.38-.26-.84a2.3,2.3,0,0,1-.17-1.55c.11-.58.21-1.06.28-1.44s0-.46-.17-.4-.27-.1-.32-.48c-.18-.93.59-1.74,2.32-2.42.65-.23,1-.21,1.08,0s.13.53.2.78a1.66,1.66,0,0,1-.13.93,1,1,0,0,0,.1,1c.15.37.47.38,1,0a3.65,3.65,0,0,0,1-1c.25-.48.07-1.07-.53-1.78-.11-.08-.13-.5-.08-1.26a1.77,1.77,0,0,0-.5-1.06,1.13,1.13,0,0,0-.58-.38c-.21-.05-.36-.25-.44-.6a10.9,10.9,0,0,1-.19-1.5,3.59,3.59,0,0,0-.34-1.5,5.11,5.11,0,0,1-.11-2.28,14.12,14.12,0,0,1,.8-2.86c.5-1.45.86-2.38,1.06-2.79s.58-.61,1.29-.68A3.31,3.31,0,0,0,74.19,1,2.21,2.21,0,0,1,75.78.63,15.93,15.93,0,0,0,77.46.8c.5,0,1,.61,1.55,1.75A4.45,4.45,0,0,1,79.31,3.08Z"/><path class="cls-1" d="M84.08,1c1.14.31,1.75.71,1.84,1.22a43.26,43.26,0,0,1,.13,4.66A9.89,9.89,0,0,1,86,8.07a7,7,0,0,0-.09,1c0,.23-.05.34-.14.34s-.19.13-.32.38a5.61,5.61,0,0,0-.3,1.92c0,1-.08,1.69-.08,2.07s0,.55-.13.51-.2.09-.33.4a8.6,8.6,0,0,0-.24,2.63,14.49,14.49,0,0,0,.09,2.56,5.07,5.07,0,0,1-.57,1c-.17.3-.24.48-.19.55s0,.17-.26.32a3.21,3.21,0,0,0-.8,1.06,2.39,2.39,0,0,1-1.06.87,1.64,1.64,0,0,1-.89.27.9.9,0,0,0-.67.23,1.31,1.31,0,0,0-.4.41c0,.11-.18.19-.43.27s-.58-.06-.68-.65a3.69,3.69,0,0,1,0-.87,8.8,8.8,0,0,0,.2-1.67c0-.88.1-1.53.15-1.93a4,4,0,0,1,.57-1.65,7.25,7.25,0,0,0,.72-1.8,1.8,1.8,0,0,0,0-.93,3.21,3.21,0,0,1-.09-.93,16,16,0,0,1,.64-3.32c.46-1.78.72-2.77.8-3,.38-.78.41-1.33.08-1.63-.16-.08-.21-.88-.17-2.43A10.73,10.73,0,0,1,81.84.92c.18-.53.31-.73.38-.59A5,5,0,0,0,84.08,1Z"/><path class="cls-1" d="M100.42,1.13a2.8,2.8,0,0,1,1.33,1.92c.28,1,.49,1.78.64,2.37a2.74,2.74,0,0,1-.32,1.87,8.9,8.9,0,0,0-.78,2.53,17.6,17.6,0,0,0-.3,3.37,13.43,13.43,0,0,1-.23,2.82,13.52,13.52,0,0,0-.43,1.8,5.39,5.39,0,0,1-1,2c-.58.8-.86,1.29-.82,1.45s-.18.56-.66,1.23-.89.92-1.21.78a4,4,0,0,0-1.41-.2,2.59,2.59,0,0,0-2.16,1.47c-.25.36-.56.36-.93,0a6,6,0,0,0-1.35-1c-.53-.29-.73-.21-.61.26a.67.67,0,0,1-.49.92c-.45.14-.77-.13-1-.83A18.93,18.93,0,0,0,88,21.59q-1-2.49.11-6.6a13.61,13.61,0,0,0,.29-4.73,20.73,20.73,0,0,1-.1-4,3,3,0,0,1,1-1.89c.59-.53,1.15-1.08,1.71-1.67a4.09,4.09,0,0,1,1.16-1A16.18,16.18,0,0,1,94,1.42c1-.15,2.26-.29,3.83-.44A4.31,4.31,0,0,1,100.42,1.13ZM95.3,5.75C94.11,5,93.49,5.06,93.44,6a15.62,15.62,0,0,1-.61,2.9,16.53,16.53,0,0,0-.72,5c.08,1,.11,1.94.1,2.73s.24,1.19.77,1.19a6.91,6.91,0,0,1,2,.38c.79.26,1.27,0,1.42-.82a9.21,9.21,0,0,1,.76-2.31,18.49,18.49,0,0,0,1-2.64c.3-1,.51-1.77.62-2.31a5.11,5.11,0,0,0,0-2C98.45,7,98,6.43,97.2,6.39A3.28,3.28,0,0,1,95.3,5.75Z"/><path class="cls-1" d="M109.93.46a4,4,0,0,0,.95,0c.51,0,.86.46,1.06,1.52A3.22,3.22,0,0,0,112.28,3a3.91,3.91,0,0,1,.42,1,4.6,4.6,0,0,1-.34,2.16,8.22,8.22,0,0,0-.5,2.31,12.77,12.77,0,0,0,.58,3.36c.42,1.71.74,2.18.94,1.42s.38-1.79.59-3.16a14.94,14.94,0,0,1,.66-2.91A4.84,4.84,0,0,0,114.86,5a8.79,8.79,0,0,1,.27-2.9,7.64,7.64,0,0,1,.4-1.46s.28-.06.74-.13A17.28,17.28,0,0,1,118.7.35c1.18,0,1.79.16,1.81.57a1.53,1.53,0,0,1-.13.83c-.09.1,0,.34.13.72s0,1.11-.57,2.18a21,21,0,0,0-1,2.34c-.2.5-.26.76-.17.77s.13.38.13,1.08a3.68,3.68,0,0,1-.28,1.65,6.21,6.21,0,0,0-.48,1.35,5.07,5.07,0,0,0-.16,1.27,6.21,6.21,0,0,1-.18,1.35c-.15.66-.25,1.07-.3,1.25s-.2.84-.46,2a24.54,24.54,0,0,0-.56,3.68c-.11,1.27-.16,2-.16,2.24,0,.58-.27.66-.68.23-.28-.25-.71-.23-1.29.07-.35.21-.57.16-.64-.13s-.19-.43-.35-.43-.55.29-1.06.79c-.22.25-.46,0-.7-.78a8.14,8.14,0,0,1-.36-2.44,3.12,3.12,0,0,0-.13-1.33,1.15,1.15,0,0,0-.55,0c-.31,0-.39-.53-.25-1.67a14.42,14.42,0,0,0,.17-2.27c0-.38-.13-.52-.32-.42s-.29,0-.29-.42-.15-1.41-.32-3.09a21.48,21.48,0,0,1-.17-3.17c0-1-.23-1.1-.76-.34a4.56,4.56,0,0,0-.62,2.47,17.35,17.35,0,0,1-.29,2.77,32.91,32.91,0,0,1-1.21,4.32,7.21,7.21,0,0,0-.38,2c0,.61-.11,1.48-.27,2.59a4,4,0,0,1-.56,2,.71.71,0,0,1-.8.12c-.26-.08-.5.06-.72.41s-.38.5-.44.34a1.05,1.05,0,0,0-.51-.45,1.34,1.34,0,0,0-1.33.19c-.38.3-.41-.23-.09-1.61a12.33,12.33,0,0,1,.7-2.45,7.44,7.44,0,0,0,.45-2.2c.15-1.24.25-2.22.31-3s.14-1.47.28-2.29a3,3,0,0,1,.85-1.8,2.44,2.44,0,0,0,.52-1.9,5,5,0,0,0-.32-1.86c-.23-.43,0-1,.79-1.78a3.5,3.5,0,0,0,.82-2,6.2,6.2,0,0,0,.09-1.94c-.25-1.14.35-1.77,1.82-1.9a5.91,5.91,0,0,1,1.79.08Z"/><path class="cls-1" d="M125.7,1c1.14.31,1.75.71,1.84,1.22a43.26,43.26,0,0,1,.13,4.66,9.89,9.89,0,0,1-.09,1.24,9.57,9.57,0,0,0-.1,1c0,.23,0,.34-.13.34s-.19.13-.32.38a5.53,5.53,0,0,0-.31,1.92c0,1-.07,1.69-.07,2.07s-.05.55-.13.51-.2.09-.32.4a8.33,8.33,0,0,0-.26,2.63,14,14,0,0,0,.1,2.56,5.07,5.07,0,0,1-.57,1c-.18.3-.23.48-.19.55s0,.17-.26.32a3.21,3.21,0,0,0-.8,1.06,2.39,2.39,0,0,1-1.06.87,1.67,1.67,0,0,1-.89.27.89.89,0,0,0-.67.23,1.14,1.14,0,0,0-.39.41c0,.11-.19.19-.44.27s-.58-.06-.68-.65a3.23,3.23,0,0,1,0-.87,8.28,8.28,0,0,0,.19-1.67c0-.88.1-1.53.16-1.93a4.09,4.09,0,0,1,.56-1.65,7.34,7.34,0,0,0,.73-1.8,1.92,1.92,0,0,0,0-.93,3.21,3.21,0,0,1-.09-.93,16,16,0,0,1,.64-3.32c.46-1.78.72-2.77.8-3,.38-.78.41-1.33.07-1.63-.15-.08-.21-.88-.16-2.43a10.4,10.4,0,0,1,.39-3.18c.18-.53.31-.73.38-.59A5,5,0,0,0,125.7,1Z"/><path class="cls-1" d="M141.07,3a.85.85,0,0,1-.34,1c-.4.33-.62.57-.64.72a6.6,6.6,0,0,1-.38,1.17,2.08,2.08,0,0,1-.65,1c-.27.15-.48.12-.62-.09a.7.7,0,0,0-.55-.36.56.56,0,0,0-.46.15c-.07.1-.24.15-.49.15a2.59,2.59,0,0,0-1.37.53,1.16,1.16,0,0,0-.3,1.23c.12.55.25,1,.38,1.42a14.61,14.61,0,0,0,1.78,3.27,7.28,7.28,0,0,1,.82,2.92c.14,1.26.21,2.11.21,2.54a6.34,6.34,0,0,1-.74,2.24A10.39,10.39,0,0,1,136.45,23q-.54.64-.57.51c0-.09-.29,0-.8.21s-.73.38-.66.46-.06.19-.36.34a2.55,2.55,0,0,1-1.31.22c-.55,0-1-.05-1.27-.07a1.13,1.13,0,0,1-.74-.23,1.11,1.11,0,0,0-.7-.23c-.31,0-.44.14-.4.42a.77.77,0,0,1-.17.65c-.18.15-.36.12-.53-.1a1,1,0,0,1-.16-.89,2.77,2.77,0,0,1,.16-.72q.08-.15-.27-.84a2.36,2.36,0,0,1-.17-1.55c.11-.58.21-1.06.28-1.44s0-.46-.17-.4-.27-.1-.32-.47c-.18-.94.6-1.75,2.31-2.43q1-.35,1.08.06l.21.77a1.58,1.58,0,0,1-.13.93,1.08,1.08,0,0,0,.1,1c.15.38.47.38,1,0a3.65,3.65,0,0,0,1-1c.25-.48.08-1.07-.53-1.78-.1-.08-.13-.49-.08-1.25a1.8,1.8,0,0,0-.49-1.07,1.2,1.2,0,0,0-.59-.38c-.22-.05-.36-.25-.43-.6a9.51,9.51,0,0,1-.19-1.5,3.73,3.73,0,0,0-.35-1.5,5.11,5.11,0,0,1-.11-2.28,13.45,13.45,0,0,1,.8-2.86c.5-1.45.86-2.38,1.06-2.79s.58-.6,1.29-.68A3.38,3.38,0,0,0,136,.89a2.19,2.19,0,0,1,1.59-.32,15.59,15.59,0,0,0,1.66.17c.51,0,1,.61,1.56,1.75C140.89,2.69,141,2.87,141.07,3Z"/><path class="cls-1" d="M152.77,1.64a2.15,2.15,0,0,1,.2,1.53,4.37,4.37,0,0,1-.4,1.29,1.15,1.15,0,0,0-.2.81,3.37,3.37,0,0,1-.06,1c-.08.39-.23.51-.46.35a1.69,1.69,0,0,0-.76-.27,2.34,2.34,0,0,0-1.63.74,1.35,1.35,0,0,0-.28,1.17q.09.82.09,1.14c0-.08-.17.15-.49.7A5.49,5.49,0,0,0,148.5,12c0,1-.06,1.72-.06,2.11s-.05.6-.13.55-.2.06-.33.35a9.29,9.29,0,0,0-.26,2.73,14.82,14.82,0,0,0,.07,2.62c0,.13-.15.47-.53,1-.2.31-.27.5-.21.58s0,.17-.24.27a3.6,3.6,0,0,0-.84,1.06,2.1,2.1,0,0,1-1,.82,2.06,2.06,0,0,1-.91.18.87.87,0,0,0-.65.17,1.42,1.42,0,0,0-.4.43c0,.1-.18.18-.43.23-.43.11-.69-.14-.76-.74a2.13,2.13,0,0,1,0-.9,9.84,9.84,0,0,0,.23-1.67c.07-.92.12-1.58.14-2a3.85,3.85,0,0,1,.6-1.66,6.74,6.74,0,0,0,.73-1.81,2,2,0,0,0,.06-1,3.37,3.37,0,0,1-.09-1,16.42,16.42,0,0,1,.64-3.37c.46-1.82.72-2.81.8-3,.33-.86.34-1.42,0-1.68s-.76-.16-1.45.23a1.31,1.31,0,0,1-1,.12c-.31,0-.43-.35-.37-.9a10.06,10.06,0,0,0,.09-1.29,7.74,7.74,0,0,1,.31-2.14A1.88,1.88,0,0,1,144.38.94a16.18,16.18,0,0,1,3.11-.08,21,21,0,0,0,3.68-.15A3,3,0,0,1,152.77,1.64Z"/><path class="cls-1" d="M162.91,3.92a7.72,7.72,0,0,0-.08,2.74,14.91,14.91,0,0,0,.27,1.5,6,6,0,0,1,0,1.81,7.48,7.48,0,0,1-.25,1.57,6.52,6.52,0,0,0,.09,2.09c.1,1.17.16,2.46.16,3.86A14.27,14.27,0,0,1,163,20.2c-.15.4-.31.62-.47.67s-.4.31-.71.76-.41.69-.26.64,0,.08-.57.39a6.74,6.74,0,0,1-.85.48,3.72,3.72,0,0,1-.55-.16c-.36-.08-.56-.22-.63-.41s-.23-.3-.51-.3-.49-.22-.63-.66a1.61,1.61,0,0,1,0-1.17,1.87,1.87,0,0,0,.08-1.56c-.2-.34-.56-.31-1.06.1a4.73,4.73,0,0,0-1.07,1.14,5.12,5.12,0,0,0-.54,1.71,1.79,1.79,0,0,1-.94,1.47q-.75.36-.87.3a1.5,1.5,0,0,0-.68.06c-.4.08-.58.2-.51.36s0,.25-.25.27c-.4.09-.61-.42-.61-1.51,0-.39,0-.94,0-1.63a3.34,3.34,0,0,1,.6-1.95,5.37,5.37,0,0,0,.85-2.05c.16-.81.27-1.45.32-1.93a3.2,3.2,0,0,1,.87-2.07,3.25,3.25,0,0,0,.72-1.59q.19-1,.3-1.83c.08-.56.21-.86.39-.89s.36-.25.56-.62.23-.6.16-.76,0-.36.34-.59a3,3,0,0,0,.58-1.8,9.57,9.57,0,0,1,.71-2.66,2.26,2.26,0,0,1,2-1.39,17.54,17.54,0,0,1,2.39-.2c.58,0,.89.75.91,2.26A6,6,0,0,1,162.91,3.92Zm-3.7,3-1.94,7.89a3.33,3.33,0,0,0,1.43.18,1.13,1.13,0,0,0,.91-.62Z"/><path class="cls-1" d="M177.65,3.08a.85.85,0,0,1-.35,1c-.4.33-.62.57-.64.72a6.6,6.6,0,0,1-.38,1.17,2.15,2.15,0,0,1-.64,1q-.42.22-.63-.09a.74.74,0,0,0-.55-.37.56.56,0,0,0-.46.16c-.07.1-.23.15-.49.15a2.59,2.59,0,0,0-1.37.53,1.16,1.16,0,0,0-.3,1.23c.13.55.26,1,.38,1.42A14.84,14.84,0,0,0,174,13.21a7.28,7.28,0,0,1,.82,2.92c.14,1.26.21,2.11.21,2.54a6.34,6.34,0,0,1-.74,2.24A10.5,10.5,0,0,1,173,23.07c-.35.43-.55.6-.57.51s-.29,0-.8.21-.73.38-.66.45-.06.19-.36.35a2.55,2.55,0,0,1-1.31.22l-1.27-.07a1.17,1.17,0,0,1-.74-.23,1.09,1.09,0,0,0-.7-.23c-.31,0-.44.14-.4.42a.74.74,0,0,1-.17.65c-.18.15-.36.12-.53-.1a1,1,0,0,1-.15-.89,2.92,2.92,0,0,1,.15-.72q.08-.15-.27-.84a2.43,2.43,0,0,1-.17-1.55c.11-.58.21-1.06.29-1.44s0-.46-.18-.4-.27-.1-.32-.48c-.18-.93.6-1.74,2.32-2.42.65-.23,1-.21,1.08,0s.13.53.21.78a1.67,1.67,0,0,1-.14.93,1.08,1.08,0,0,0,.1,1c.15.37.47.38,1,0a3.89,3.89,0,0,0,1-1c.25-.48.08-1.07-.53-1.78-.1-.08-.13-.5-.08-1.26a1.8,1.8,0,0,0-.49-1.06,1.16,1.16,0,0,0-.59-.38c-.21-.05-.36-.25-.43-.6a9.51,9.51,0,0,1-.19-1.5,3.76,3.76,0,0,0-.34-1.5,4.9,4.9,0,0,1-.12-2.28,14.12,14.12,0,0,1,.8-2.86c.5-1.45.86-2.38,1.06-2.79s.58-.61,1.29-.68A3.38,3.38,0,0,0,172.53,1a2.19,2.19,0,0,1,1.59-.32,15.76,15.76,0,0,0,1.67.17c.5,0,1,.61,1.55,1.75C177.47,2.75,177.57,2.93,177.65,3.08Z"/><path class="cls-1" d="M63.09.31A2.93,2.93,0,0,1,65.8,2.38c.13.46.2.73.22.82s.15.46.39,1.1A6,6,0,0,1,66.57,7a19.74,19.74,0,0,1-.38,2.42,3.52,3.52,0,0,1-.37.93,1.77,1.77,0,0,0-.31.71c-.13.37-.19.55-.16.54a2.49,2.49,0,0,1-.26.41,2.5,2.5,0,0,0-.52,1.33.52.52,0,0,1-.59.51,7.25,7.25,0,0,0-1,0c-.38.08-.55.46-.48,1.14a18.34,18.34,0,0,0,.82,3,9.58,9.58,0,0,1,.69,3c-.06.37-.14.56-.22.57a1.49,1.49,0,0,0-.45.2c-.26.14-.34.29-.23.45a.6.6,0,0,1,0,.63,1.07,1.07,0,0,1-.87.77,2.34,2.34,0,0,0-.94.56c-.19.2-.52.23-1,.06-.3-.06-.38-.31-.24-.74a3.54,3.54,0,0,0,.17-1.21c0-.37-.14-.91-.29-1.62s-.26-1.21-.35-1.52c-.22-.81-.34-3.13-.56-3a15.27,15.27,0,0,0-1.27,3.89,9.93,9.93,0,0,1-.3,1.88c-.13.25.12.39-.22.46a1.91,1.91,0,0,0-.84.36c-.26.18-.37.31-.35.38s-.16.13-.55.17-.71.22-.71.41c0,.41-.31.61-.93.61-.26,0-.39-.61-.39-1.85a14.08,14.08,0,0,1,.1-1.7c.06-.57.12-1.09.19-1.54a17.38,17.38,0,0,1,.67-2.61,24.89,24.89,0,0,0,.72-2.55,1.22,1.22,0,0,0-.18-.95c-.18-.25-.08-.68.3-1.3.88-1.42,1.1-2.47.65-3.15-.28-.37,0-1,.77-2A2.06,2.06,0,0,0,57,5.33q0-.81-.09-1.53a1.89,1.89,0,0,1,.21-1.24c.2-.37.45-.79.75-1.29S59.12.5,60.71.38A11.71,11.71,0,0,1,63.09.31Zm-.42,4.92a3.13,3.13,0,0,0-1.34-.4c-.71-.11-1,0-.94.49a22.37,22.37,0,0,1-.52,3.82c-.38,2.09-.49,3.07-.34,2.94s.37-.28.77-.56a3.93,3.93,0,0,0,1.06-1.12,19.89,19.89,0,0,0,.94-2.8C62.7,6.21,62.83,5.42,62.67,5.23Z"/></g></g></svg>