<svg xmlns="http://www.w3.org/2000/svg" viewBox="0 0 75.44 10.79"><defs><style>.cls-1{fill:#ff00e7;}</style></defs><g id="Layer_2" data-name="Layer 2"><g id="Layer_1-2" data-name="Layer 1"><path class="cls-1" d="M2.35.56c.48.13.73.29.77.51A17.86,17.86,0,0,1,3.17,3c0,.15,0,.32,0,.52A3.06,3.06,0,0,0,3.1,4c0,.09,0,.14-.06.14s-.08.06-.13.16a2.11,2.11,0,0,0-.13.8c0,.42,0,.71,0,.86s0,.23-.06.22-.08,0-.13.17a3.38,3.38,0,0,0-.11,1.1,7,7,0,0,0,0,1.07,2.45,2.45,0,0,1-.23.42c-.08.13-.1.21-.08.23s0,.07-.11.14a1.25,1.25,0,0,0-.34.44,1,1,0,0,1-.44.37.74.74,0,0,1-.37.11.39.39,0,0,0-.28.09.52.52,0,0,0-.17.18s-.07.08-.18.11-.24,0-.28-.27a1.16,1.16,0,0,1,0-.37A3.48,3.48,0,0,0,.1,9.23q0-.56.06-.81A1.65,1.65,0,0,1,.4,7.73,2.89,2.89,0,0,0,.7,7a1,1,0,0,0,0-.39,1.17,1.17,0,0,1,0-.39A6.88,6.88,0,0,1,1,4.81c.19-.74.3-1.16.33-1.24.16-.33.17-.56,0-.68s-.09-.37-.07-1A4.16,4.16,0,0,1,1.42.54q.1-.33.15-.24A2.22,2.22,0,0,0,2.35.56Z"/><path class="cls-1" d="M6.8.35a1.52,1.52,0,0,0,.4,0c.21,0,.35.19.44.63a1.26,1.26,0,0,0,.14.44A2,2,0,0,1,8,1.84a2,2,0,0,1-.15.91,3.62,3.62,0,0,0-.2,1,5.47,5.47,0,0,0,.24,1.4c.17.72.31.92.39.6S8.4,5,8.49,4.39a6.82,6.82,0,0,1,.27-1.22,1.93,1.93,0,0,0,.1-.92A3.66,3.66,0,0,1,9,1,3.77,3.77,0,0,1,9.14.42l.31,0a10.06,10.06,0,0,1,1-.07c.5,0,.75.07.76.24a.61.61,0,0,1-.06.35s0,.14.06.3,0,.46-.24.91a7.48,7.48,0,0,0-.42,1c-.09.21-.11.32-.08.32s.06.16.06.45a1.52,1.52,0,0,1-.12.69,2.36,2.36,0,0,0-.2.57,2.64,2.64,0,0,0-.07.53,2.37,2.37,0,0,1-.07.56c-.06.27-.11.45-.13.52l-.19.83a12.52,12.52,0,0,0-.24,1.53c0,.53-.06.84-.06.94s-.11.27-.28.09-.3-.09-.54,0-.24.06-.27-.06-.08-.18-.14-.18a1.07,1.07,0,0,0-.45.33c-.09.11-.19,0-.29-.32a3.52,3.52,0,0,1-.15-1c0-.34,0-.53-.06-.55a.44.44,0,0,0-.23,0c-.12,0-.16-.22-.1-.69a6.19,6.19,0,0,0,.07-1c0-.16,0-.22-.13-.18s-.12,0-.12-.17S6.7,5.74,6.63,5a8.69,8.69,0,0,1-.07-1.33c0-.41-.09-.46-.32-.14A2,2,0,0,0,6,4.6a6,6,0,0,1-.12,1.16,13.06,13.06,0,0,1-.5,1.8,2.83,2.83,0,0,0-.16.82c0,.26,0,.62-.11,1.08s-.14.76-.24.84a.29.29,0,0,1-.33,0q-.16,0-.3.18c-.1.15-.16.2-.19.14a.4.4,0,0,0-.21-.19.53.53,0,0,0-.55.08c-.16.12-.18-.1,0-.68a5.74,5.74,0,0,1,.29-1,3,3,0,0,0,.19-.92c.06-.51.1-.93.13-1.23s.06-.62.11-1A1.21,1.21,0,0,1,4.31,5a1,1,0,0,0,.22-.8,2.08,2.08,0,0,0-.14-.77q-.13-.27.33-.75a1.39,1.39,0,0,0,.34-.82,2.37,2.37,0,0,0,0-.81C5,.57,5.25.31,5.86.26a2.62,2.62,0,0,1,.75,0Z"/><path class="cls-1" d="M12.2.59A4.27,4.27,0,0,1,13,.65a1.61,1.61,0,0,1,.46.91,2.52,2.52,0,0,1-.07.81.9.9,0,0,0,.07.68,5,5,0,0,1,.19,1.48c0,.76.05,1.4.08,1.89s.1.74.24.83.19-.27.32-.73a3,3,0,0,0,.14-1.1,1.19,1.19,0,0,1,.06-.66,2.78,2.78,0,0,0,.21-.67,5.13,5.13,0,0,1,.18-.68,5.42,5.42,0,0,0,.2-.76,2,2,0,0,0,0-.75A4.73,4.73,0,0,1,15,1.21c0-.35.28-.58,1-.69s1,.11,1,.66a5.8,5.8,0,0,1-.56,1.69A13.3,13.3,0,0,0,16,4.22c-.2.72-.42,1.49-.64,2.31s-.42,1.57-.6,2.27L14.43,10a.61.61,0,0,1-.41.4.39.39,0,0,0-.13.13c0,.06-.08.09-.12.08s-.1-.06-.11-.13-.14,0-.31-.06a.45.45,0,0,1-.31-.24c-.08.12-.15.16-.24.13l-.13-.26a1.43,1.43,0,0,1-.15-.68,9.54,9.54,0,0,0-.07-1c0-.44-.08-.85-.1-1.23s0-.78-.07-1.17S12.16,5,12,4.05s-.27-1.51-.35-1.8A2.36,2.36,0,0,1,11.6.73C11.65.6,11.85.55,12.2.59Z"/><path class="cls-1" d="M22.24,1.84c.15.55.05.77-.28.65-.16-.06-.3,0-.42.22s-.25.13-.54,0c0,0-.11.11-.42.28a.23.23,0,0,1-.34-.09.64.64,0,0,0-.46-.26c-.22,0-.31.29-.27.92a2.86,2.86,0,0,0,.18,1.14c.21.42.47.54.78.38a.92.92,0,0,0,.35-.23.49.49,0,0,1,.25-.18c.09,0,.16.15.2.54a8,8,0,0,1,0,.87c0,.19-.14.25-.34.17a.66.66,0,0,0-.49,0,.54.54,0,0,1-.58-.11.32.32,0,0,0-.46.08,2.36,2.36,0,0,0-.23,1.19c0,.64.07,1,.26,1a3.07,3.07,0,0,0,.5.11c.15,0,.31-.12.46-.39s.62-.46,1.16-.21c.24.12.28.38.1.79s-.31.73-.38.94-.35.37-.72.3S20,9.88,20,10s-.12.12-.36.09-.4-.1-.46-.25-.23-.15-.41.15-.32.25-.45-.15c-.06-.21-.16-.26-.29-.13a1.35,1.35,0,0,1-.34.24.78.78,0,0,1-.43,0c-.19,0-.25-.21-.19-.56s.15-.9.26-1.65a5.57,5.57,0,0,1,.44-1.66,6.48,6.48,0,0,0,.13-2.36,12.14,12.14,0,0,1,0-2.22c.07-.39.45-.5,1.12-.35a7.34,7.34,0,0,0,1.35.23.84.84,0,0,0,.48-.05L21.26,1c.22-.19.46-.08.71.34A1.14,1.14,0,0,1,22.24,1.84Z"/><path class="cls-1" d="M26.34,0a1.26,1.26,0,0,1,1.09.89c.06.19.09.3.1.34s.06.19.16.45a2.88,2.88,0,0,1,.07,1.14,5.53,5.53,0,0,1-.17,1,1.07,1.07,0,0,1-.16.4.68.68,0,0,0-.12.28,2.27,2.27,0,0,1-.16.41,1,1,0,0,0-.22.56c0,.08-.23.16-.65.23-.16,0-.22.19-.19.48a6.94,6.94,0,0,0,.32,1.28,4,4,0,0,1,.28,1.27.47.47,0,0,1-.27.33c-.09.07-.12.13-.09.19s0,.14,0,.26a.43.43,0,0,1-.35.33.81.81,0,0,0-.38.24c-.07.08-.21.09-.4,0S25,10,25.08,9.8a1.61,1.61,0,0,0,.09-.51A7.36,7.36,0,0,0,24.9,8c-.09-.33-.17-.48-.25-.42s-.18.31-.25.76a4.31,4.31,0,0,1-.17.82.37.37,0,0,1-.28.21,1,1,0,0,0-.35.14c-.1.07-.14.13-.14.16s-.06.06-.21.08-.28.09-.28.17-.13.26-.38.26-.16-.26-.16-.78A10.6,10.6,0,0,1,22.54,8a8.35,8.35,0,0,1,.27-1.09q.26-.83.3-1.08a.58.58,0,0,0-.08-.4c-.08-.1,0-.28.13-.54.34-.6.43-1,.25-1.33-.11-.14,0-.43.32-.85a1,1,0,0,0,.15-.57c0-.23,0-.45,0-.65A2,2,0,0,1,24.23.42c.12-.2.5-.33,1.14-.38A7,7,0,0,1,26.34,0ZM26,2.11a.64.64,0,0,0-.3-.11c-.16,0-.23,0-.22.14a7.89,7.89,0,0,1-.11,1.06,2.53,2.53,0,0,0-.08.81,1.16,1.16,0,0,0,.41-.46,6.13,6.13,0,0,0,.21-.77A1.77,1.77,0,0,0,26,2.11Z"/><path class="cls-1" d="M33.72,1.45a.34.34,0,0,1-.14.39q-.26.21-.27.3a2.25,2.25,0,0,1-.16.49.84.84,0,0,1-.27.42c-.12.06-.2.05-.26,0a.3.3,0,0,0-.23-.15c-.1,0-.16,0-.19.06S32.1,3,32,3a1.1,1.1,0,0,0-.57.22.49.49,0,0,0-.12.52c.05.23.1.43.15.59a6.62,6.62,0,0,0,.75,1.37,3.07,3.07,0,0,1,.34,1.22c.06.53.09.88.09,1.06a2.7,2.7,0,0,1-.31.93,4.26,4.26,0,0,1-.53.91q-.22.27-.24.21s-.12,0-.33.09-.31.16-.28.19,0,.08-.15.14a1,1,0,0,1-.55.1c-.22,0-.4,0-.53,0a.5.5,0,0,1-.31-.09.46.46,0,0,0-.29-.1c-.13,0-.18.06-.17.18a.28.28,0,0,1-.07.27c-.07.06-.15.05-.22,0a.45.45,0,0,1-.06-.37,1.49,1.49,0,0,1,.06-.31s0-.15-.11-.34A1,1,0,0,1,28.47,9l.12-.61c0-.13,0-.19-.07-.16s-.12,0-.14-.2c-.07-.39.25-.73,1-1,.27-.1.42-.09.45,0a3,3,0,0,0,.09.32.69.69,0,0,1-.06.39.45.45,0,0,0,0,.42c.06.16.2.16.4,0a1.37,1.37,0,0,0,.42-.42c.11-.2,0-.45-.22-.74,0,0,0-.21,0-.53a.76.76,0,0,0-.21-.44A.41.41,0,0,0,30,5.93c-.09,0-.15-.11-.18-.25a4.32,4.32,0,0,1-.08-.63,1.44,1.44,0,0,0-.15-.63,2,2,0,0,1,0-.95,5.84,5.84,0,0,1,.33-1.19c.21-.61.36-1,.44-1.17s.25-.25.54-.28a1.36,1.36,0,0,0,.73-.27.94.94,0,0,1,.67-.14c.25,0,.48.06.69.08s.43.25.65.72A1.42,1.42,0,0,1,33.72,1.45Z"/><path class="cls-1" d="M35.71.56c.48.13.73.29.77.51A16.68,16.68,0,0,1,36.54,3c0,.15,0,.32,0,.52a3.06,3.06,0,0,0,0,.42c0,.09,0,.14-.06.14s-.08.06-.13.16a2.11,2.11,0,0,0-.13.8c0,.42,0,.71,0,.86s0,.23-.06.22-.08,0-.13.17a3.51,3.51,0,0,0-.1,1.1,5,5,0,0,0,0,1.07,2.17,2.17,0,0,1-.24.42c-.08.13-.1.21-.08.23s0,.07-.11.14a1.14,1.14,0,0,0-.33.44,1.12,1.12,0,0,1-.45.37.74.74,0,0,1-.37.11.41.41,0,0,0-.28.09c-.09.08-.15.13-.16.18s-.08.08-.19.11-.24,0-.28-.27a1.54,1.54,0,0,1,0-.37,2.82,2.82,0,0,0,.08-.69c0-.37,0-.64.07-.81a1.76,1.76,0,0,1,.23-.69A3.42,3.42,0,0,0,34.07,7a.77.77,0,0,0,0-.39,1.17,1.17,0,0,1,0-.39,6.88,6.88,0,0,1,.27-1.39c.19-.74.3-1.16.33-1.24.16-.33.17-.56,0-.68s-.08-.37-.07-1A4.47,4.47,0,0,1,34.78.54c.07-.22.13-.3.16-.24A2.12,2.12,0,0,0,35.71.56Z"/><path class="cls-1" d="M42.54.29a1.21,1.21,0,0,1,.55.83q.18.65.27,1a1.19,1.19,0,0,1-.13.81A4.27,4.27,0,0,0,42.9,4a8.3,8.3,0,0,0-.12,1.46,6.1,6.1,0,0,1-.1,1.22q-.12.43-.18.78a2.46,2.46,0,0,1-.4.87,1.64,1.64,0,0,0-.35.63c0,.07-.07.24-.27.53s-.37.4-.51.34a1.52,1.52,0,0,0-.59-.09,1.07,1.07,0,0,0-.9.64c-.11.15-.23.15-.39,0a2.27,2.27,0,0,0-.56-.44c-.22-.13-.31-.09-.25.11a.3.3,0,0,1-.21.4c-.19.06-.32-.06-.4-.36a9.1,9.1,0,0,0-.31-1,4.76,4.76,0,0,1,0-2.85,5.89,5.89,0,0,0,.12-2,9.57,9.57,0,0,1,0-1.72,1.37,1.37,0,0,1,.43-.81c.24-.23.48-.47.71-.72a1.76,1.76,0,0,1,.49-.43,6,6,0,0,1,.75-.14c.41-.07,1-.13,1.6-.19A1.69,1.69,0,0,1,42.54.29Zm-2.14,2q-.75-.51-.78.12a7.24,7.24,0,0,1-.25,1.25,7.55,7.55,0,0,0-.3,2.14c0,.45,0,.84,0,1.18s.1.52.32.52a2.49,2.49,0,0,1,.82.17c.33.11.53,0,.59-.36a4.32,4.32,0,0,1,.32-1,7.09,7.09,0,0,0,.41-1.14,9.45,9.45,0,0,0,.26-1,2.35,2.35,0,0,0,0-.87c-.09-.48-.3-.72-.62-.74A1.34,1.34,0,0,1,40.4,2.29Z"/><path class="cls-1" d="M46.51.35a1.52,1.52,0,0,0,.4,0c.21,0,.36.19.44.63a1.26,1.26,0,0,0,.14.44,1.59,1.59,0,0,1,.18.43,2.09,2.09,0,0,1-.14.91,3.34,3.34,0,0,0-.21,1,5.47,5.47,0,0,0,.24,1.4q.27,1.08.39.6c.08-.31.16-.75.25-1.32a5.87,5.87,0,0,1,.28-1.22,2.09,2.09,0,0,0,.09-.92A3.94,3.94,0,0,1,48.68,1a3.77,3.77,0,0,1,.17-.61l.31,0c.18,0,.52,0,1-.07s.75.07.76.24a.75.75,0,0,1,0,.35s0,.14,0,.3,0,.46-.23.91a6.62,6.62,0,0,0-.43,1c-.09.21-.11.32-.07.32s0,.16,0,.45a1.52,1.52,0,0,1-.12.69,2.88,2.88,0,0,0-.2.57,2.64,2.64,0,0,0-.07.53,1.93,1.93,0,0,1-.07.56c-.06.27-.1.45-.12.52s-.09.35-.19.83a9.57,9.57,0,0,0-.24,1.53c0,.53-.07.84-.07.94s-.11.27-.28.09-.3-.09-.54,0-.24.06-.27-.06-.08-.18-.14-.18-.23.12-.45.33-.19,0-.29-.32a3.52,3.52,0,0,1-.15-1,1.43,1.43,0,0,0,0-.55.48.48,0,0,0-.23,0c-.13,0-.17-.22-.11-.69a6.19,6.19,0,0,0,.07-1c0-.16,0-.22-.13-.18s-.12,0-.12-.17-.07-.59-.13-1.29a9.29,9.29,0,0,1-.08-1.33c0-.41-.09-.46-.31-.14a1.82,1.82,0,0,0-.26,1,8.15,8.15,0,0,1-.12,1.16,14.94,14.94,0,0,1-.51,1.8,2.83,2.83,0,0,0-.16.82c0,.26,0,.62-.11,1.08a1.57,1.57,0,0,1-.24.84.28.28,0,0,1-.33,0q-.16,0-.3.18c-.1.15-.16.2-.18.14a.48.48,0,0,0-.22-.19.53.53,0,0,0-.55.08c-.16.12-.17-.1,0-.68a5.74,5.74,0,0,1,.29-1,2.72,2.72,0,0,0,.19-.92c.07-.51.11-.93.13-1.23a9,9,0,0,1,.12-1A1.2,1.2,0,0,1,44,5a1,1,0,0,0,.22-.8,1.89,1.89,0,0,0-.14-.77c-.09-.18,0-.43.34-.75a1.53,1.53,0,0,0,.34-.82,3.05,3.05,0,0,0,0-.81c-.11-.48.14-.74.76-.79a2.54,2.54,0,0,1,.74,0Z"/><path class="cls-1" d="M53.1.56c.48.13.73.29.77.51A17.86,17.86,0,0,1,53.92,3a3.46,3.46,0,0,1,0,.52q0,.3,0,.42c0,.09,0,.14-.06.14s-.08.06-.14.16a2.42,2.42,0,0,0-.12.8c0,.42,0,.71,0,.86s0,.23-.06.22-.08,0-.13.17a3.38,3.38,0,0,0-.11,1.1,7,7,0,0,0,0,1.07,2.45,2.45,0,0,1-.23.42c-.08.13-.11.21-.08.23s0,.07-.12.14a1.39,1.39,0,0,0-.33.44,1,1,0,0,1-.44.37.74.74,0,0,1-.37.11.39.39,0,0,0-.28.09.52.52,0,0,0-.17.18s-.07.08-.18.11-.24,0-.29-.27a1.56,1.56,0,0,1,0-.37,3.48,3.48,0,0,0,.08-.69q0-.56.06-.81a1.65,1.65,0,0,1,.24-.69,2.89,2.89,0,0,0,.3-.75,1,1,0,0,0,0-.39,1.17,1.17,0,0,1,0-.39,6.88,6.88,0,0,1,.27-1.39c.19-.74.3-1.16.33-1.24.16-.33.17-.56,0-.68s-.09-.37-.07-1A4.56,4.56,0,0,1,52.16.54c.08-.22.13-.3.16-.24A2.22,2.22,0,0,0,53.1.56Z"/><path class="cls-1" d="M59.81,1.45a.33.33,0,0,1-.14.39q-.26.21-.27.3a2.25,2.25,0,0,1-.16.49.84.84,0,0,1-.27.42c-.11.06-.2.05-.26,0a.3.3,0,0,0-.23-.15.24.24,0,0,0-.19.06.25.25,0,0,1-.2.06,1.1,1.1,0,0,0-.57.22.49.49,0,0,0-.13.52,4.43,4.43,0,0,0,.16.59,6,6,0,0,0,.74,1.37,2.92,2.92,0,0,1,.34,1.22c.06.53.09.88.09,1.06a2.49,2.49,0,0,1-.31.93,3.87,3.87,0,0,1-.53.91q-.23.27-.24.21s-.12,0-.33.09-.3.16-.28.19,0,.08-.15.14a1,1,0,0,1-.54.1,5,5,0,0,1-.53,0,.5.5,0,0,1-.31-.09.49.49,0,0,0-.3-.1c-.12,0-.18.06-.16.18a.35.35,0,0,1-.07.27c-.08.06-.15.05-.23,0a.45.45,0,0,1-.06-.37,1.49,1.49,0,0,1,.06-.31s0-.15-.11-.34A1,1,0,0,1,54.56,9l.12-.61c0-.13,0-.19-.07-.16s-.12,0-.14-.2c-.07-.39.25-.73,1-1,.28-.1.43-.09.45,0L56,7.4a.69.69,0,0,1-.06.39.48.48,0,0,0,0,.42c.07.16.2.16.41,0a1.65,1.65,0,0,0,.42-.42c.1-.2,0-.45-.22-.74,0,0-.06-.21,0-.53a.73.73,0,0,0-.2-.44.47.47,0,0,0-.25-.16c-.09,0-.15-.11-.18-.25a4.32,4.32,0,0,1-.08-.63,1.63,1.63,0,0,0-.14-.63,2,2,0,0,1,0-.95A5.84,5.84,0,0,1,56,2.28a10.57,10.57,0,0,1,.45-1.17c.06-.16.24-.25.54-.28a1.43,1.43,0,0,0,.73-.27.93.93,0,0,1,.66-.14c.25,0,.49.06.7.08s.43.25.65.72C59.74,1.31,59.78,1.38,59.81,1.45Z"/><path class="cls-1" d="M64.41,1.13a.85.85,0,0,1,.08.62,1.69,1.69,0,0,1-.16.52.42.42,0,0,0-.09.33,1.39,1.39,0,0,1,0,.4c0,.16-.1.2-.19.14A.76.76,0,0,0,63.71,3a1,1,0,0,0-.68.3.52.52,0,0,0-.12.48c0,.22,0,.37,0,.46s-.07.06-.21.28a2.4,2.4,0,0,0-.12.79c0,.42,0,.7,0,.86s0,.24-.06.22-.08,0-.13.14a3.86,3.86,0,0,0-.11,1.11,6.09,6.09,0,0,0,0,1.07s-.06.19-.22.41-.12.2-.09.24,0,.06-.1.11a1.35,1.35,0,0,0-.35.42,1,1,0,0,1-.43.34.9.9,0,0,1-.38.07.37.37,0,0,0-.27.07.46.46,0,0,0-.16.17s-.08.08-.19.1-.28-.06-.31-.3a.78.78,0,0,1,0-.37,3.38,3.38,0,0,0,.1-.68q0-.56.06-.81a1.51,1.51,0,0,1,.25-.67,2.72,2.72,0,0,0,.3-.74.81.81,0,0,0,0-.39,1.06,1.06,0,0,1,0-.38A6.55,6.55,0,0,1,60.81,5c.19-.74.3-1.14.33-1.22.14-.34.14-.57,0-.68s-.32-.06-.61.1a.56.56,0,0,1-.44,0q-.2,0-.15-.36a4,4,0,0,0,0-.52,2.82,2.82,0,0,1,.13-.87A.78.78,0,0,1,60.9.84a7.42,7.42,0,0,1,1.3,0A9.68,9.68,0,0,0,63.74.75,1.21,1.21,0,0,1,64.41,1.13Z"/><path class="cls-1" d="M69.39,2a3.21,3.21,0,0,0,0,1.1,5.27,5.27,0,0,0,.11.59,2.28,2.28,0,0,1,0,.72,3.33,3.33,0,0,1-.1.63,2.37,2.37,0,0,0,0,.83,14.52,14.52,0,0,1,.07,1.54,4.61,4.61,0,0,1-.07,1.07c-.06.16-.12.25-.19.27a1,1,0,0,0-.3.31c-.13.18-.17.27-.11.25s0,0-.24.16l-.35.19L68,9.54c-.15,0-.24-.08-.26-.16s-.1-.12-.22-.12-.2-.09-.26-.26a.63.63,0,0,1,0-.47.68.68,0,0,0,0-.62c-.08-.14-.23-.12-.44,0a2.1,2.1,0,0,0-.45.45,2.22,2.22,0,0,0-.23.68.69.69,0,0,1-.38.59c-.22.1-.34.14-.37.12a.58.58,0,0,0-.28,0c-.17,0-.24.08-.22.15s0,.1-.1.11-.25-.17-.25-.61c0-.15,0-.37,0-.65A1.23,1.23,0,0,1,64.81,8a2,2,0,0,0,.36-.82,7.23,7.23,0,0,0,.13-.77,1.29,1.29,0,0,1,.37-.82A1.24,1.24,0,0,0,66,5c0-.27.1-.51.13-.73s.08-.34.16-.36.15-.1.23-.25a.34.34,0,0,0,.07-.3c0-.06,0-.14.14-.23a1.14,1.14,0,0,0,.24-.72,3.7,3.7,0,0,1,.3-1.06A.94.94,0,0,1,68.06.8a7,7,0,0,1,1-.08c.24,0,.37.3.38.9A2.4,2.4,0,0,1,69.39,2ZM67.67,4.57,67.13,6a1.48,1.48,0,0,0,.39,0,.38.38,0,0,0,.26-.11Z"/><path class="cls-1" d="M75.43,1.45a.35.35,0,0,1-.15.39q-.25.21-.27.3a2.76,2.76,0,0,1-.15.49,1,1,0,0,1-.27.42c-.12.06-.21.05-.27,0a.28.28,0,0,0-.22-.15.27.27,0,0,0-.2.06.25.25,0,0,1-.2.06,1.1,1.1,0,0,0-.57.22.49.49,0,0,0-.13.52c0,.23.11.43.16.59a6,6,0,0,0,.74,1.37,3.06,3.06,0,0,1,.35,1.22c0,.53.08.88.08,1.06a2.49,2.49,0,0,1-.31.93,3.87,3.87,0,0,1-.53.91c-.15.18-.22.25-.23.21s-.13,0-.34.09-.3.16-.28.19,0,.08-.15.14a1,1,0,0,1-.54.1,5,5,0,0,1-.53,0,.5.5,0,0,1-.31-.09.49.49,0,0,0-.3-.1c-.12,0-.18.06-.16.18a.35.35,0,0,1-.07.27c-.08.06-.15.05-.22,0a.42.42,0,0,1-.07-.37.94.94,0,0,1,.07-.31s0-.15-.12-.34A1.08,1.08,0,0,1,70.17,9l.12-.61c0-.13,0-.19-.07-.16s-.11,0-.13-.2c-.08-.39.24-.73,1-1,.28-.1.43-.09.45,0l.09.32a.78.78,0,0,1,0,.39.42.42,0,0,0,0,.42c.06.16.19.16.4,0a1.37,1.37,0,0,0,.42-.42c.1-.2,0-.45-.22-.74,0,0-.06-.21,0-.53a.76.76,0,0,0-.21-.44.43.43,0,0,0-.25-.16c-.09,0-.15-.11-.18-.25a4.32,4.32,0,0,1-.08-.63,1.63,1.63,0,0,0-.14-.63,2.13,2.13,0,0,1-.05-.95,5.46,5.46,0,0,1,.34-1.19A11.34,11.34,0,0,1,72,1.11c.06-.16.24-.25.54-.28a1.4,1.4,0,0,0,.73-.27A.93.93,0,0,1,74,.42c.26,0,.49.06.7.08s.43.25.65.72Z"/></g></g></svg>