<svg xmlns="http://www.w3.org/2000/svg" viewBox="0 0 123.49 26.37"><defs><style>.cls-1{fill:#ff00e7;}</style></defs><g id="Layer_2" data-name="Layer 2"><g id="Layer_1-2" data-name="Layer 1"><path class="cls-1" d="M5.93.7C7.13,1,7.77,1.43,7.86,2A41.33,41.33,0,0,1,8,6.77,9.09,9.09,0,0,1,7.9,8.05a9.57,9.57,0,0,0-.09,1c0,.23,0,.35-.14.35s-.21.13-.35.39a5.87,5.87,0,0,0-.31,2c-.06,1-.08,1.74-.08,2.14s0,.57-.14.53-.21.1-.34.41a8.56,8.56,0,0,0-.26,2.72,14.07,14.07,0,0,0,.1,2.65,5.42,5.42,0,0,1-.6,1c-.19.32-.26.51-.2.57s0,.18-.28.34a3.17,3.17,0,0,0-.84,1.09,2.6,2.6,0,0,1-1.12.91,1.72,1.72,0,0,1-.94.27.92.92,0,0,0-.7.24,1.23,1.23,0,0,0-.42.43c0,.1-.19.19-.46.27s-.61-.07-.72-.67a4,4,0,0,1,0-.9,7.76,7.76,0,0,0,.2-1.72c.06-.92.11-1.58.16-2A4.13,4.13,0,0,1,1,18.43a7.12,7.12,0,0,0,.76-1.86,2,2,0,0,0,.07-1,2.87,2.87,0,0,1-.11-1,16.14,16.14,0,0,1,.68-3.43c.48-1.84.76-2.86.84-3.07.4-.81.43-1.38.08-1.69-.16-.08-.22-.91-.18-2.51A10.86,10.86,0,0,1,3.57.66c.19-.55.32-.75.4-.61A5.21,5.21,0,0,0,5.93.7Z"/><path class="cls-1" d="M16.13.79a5.25,5.25,0,0,0,1,0c.52-.05.89.47,1.09,1.57a3.32,3.32,0,0,0,.35,1.09A4.32,4.32,0,0,1,19,4.47a4.79,4.79,0,0,1-.34,2.24,8.44,8.44,0,0,0-.51,2.39,13.72,13.72,0,0,0,.59,3.46c.44,1.77.76,2.26,1,1.47s.38-1.84.6-3.27a15.54,15.54,0,0,1,.68-3,4.84,4.84,0,0,0,.24-2.29,9.09,9.09,0,0,1,.27-3A9,9,0,0,1,21.87,1s.29-.06.76-.13A19.66,19.66,0,0,1,25.12.67c1.22,0,1.84.17,1.87.59a1.58,1.58,0,0,1-.14.86c-.1.11-.05.35.14.74S27,4,26.4,5.12a19.41,19.41,0,0,0-1,2.41c-.21.52-.26.79-.17.8s.13.39.13,1.12A4,4,0,0,1,25,11.16a6.2,6.2,0,0,0-.49,1.39,5.46,5.46,0,0,0-.17,1.31,6.58,6.58,0,0,1-.18,1.39c-.15.68-.26,1.11-.31,1.29s-.2.87-.47,2a26.16,26.16,0,0,0-.58,3.8c-.1,1.31-.15,2.08-.15,2.32-.06.6-.29.68-.71.23-.28-.26-.72-.23-1.32.08-.37.21-.58.16-.66-.14s-.2-.45-.35-.45a2.83,2.83,0,0,0-1.09.83q-.34.39-.72-.81a8.74,8.74,0,0,1-.37-2.53c0-.86,0-1.32-.14-1.37a1.14,1.14,0,0,0-.55,0c-.32,0-.41-.55-.26-1.72a15.4,15.4,0,0,0,.17-2.35c0-.4-.13-.54-.33-.43s-.29,0-.29-.44-.16-1.45-.33-3.19a22,22,0,0,1-.18-3.27c0-1-.23-1.14-.77-.36a4.74,4.74,0,0,0-.65,2.55,16.21,16.21,0,0,1-.29,2.86,34.22,34.22,0,0,1-1.24,4.47,7,7,0,0,0-.39,2c0,.64-.12,1.54-.27,2.68a4.18,4.18,0,0,1-.59,2.08.72.72,0,0,1-.82.12c-.26-.08-.5.07-.74.43s-.38.51-.44.35a1.22,1.22,0,0,0-.52-.47,1.37,1.37,0,0,0-1.37.2c-.38.31-.42-.24-.09-1.67a14,14,0,0,1,.71-2.53,7.21,7.21,0,0,0,.47-2.27c.15-1.28.26-2.3.32-3.06a20.07,20.07,0,0,1,.29-2.37A3.07,3.07,0,0,1,10,12.27a2.48,2.48,0,0,0,.53-2,5.08,5.08,0,0,0-.33-1.92C10,8,10.25,7.33,11,6.55a3.65,3.65,0,0,0,.84-2,7,7,0,0,0,.1-2c-.26-1.17.36-1.83,1.86-2a6.28,6.28,0,0,1,1.84.08A2.65,2.65,0,0,1,16.13.79Z"/><path class="cls-1" d="M30.76.78a10.28,10.28,0,0,1,2,.15,4.09,4.09,0,0,1,1.16,2.24,6.55,6.55,0,0,1-.2,2,2.16,2.16,0,0,0,.2,1.66,12.65,12.65,0,0,1,.46,3.67c.06,1.89.14,3.45.22,4.68s.25,1.83.59,2c.22,0,.49-.65.8-1.81a7.33,7.33,0,0,0,.36-2.7,2.84,2.84,0,0,1,.16-1.64A8.2,8.2,0,0,0,37,9.44a12.46,12.46,0,0,1,.45-1.69A14.1,14.1,0,0,0,38,5.87,4.67,4.67,0,0,0,38.05,4a13.66,13.66,0,0,1-.18-1.7c-.08-.87.72-1.43,2.4-1.71s2.52.27,2.52,1.63a14.07,14.07,0,0,1-1.4,4.19,30.75,30.75,0,0,0-1.08,3.33c-.51,1.78-1,3.68-1.6,5.71s-1.06,3.9-1.52,5.62-.72,2.74-.8,3.06a1.53,1.53,0,0,1-1,1,.78.78,0,0,0-.32.31c-.11.16-.22.22-.32.2a.32.32,0,0,1-.28-.32c-.08.08-.34,0-.78-.13a1.23,1.23,0,0,1-.78-.61c-.19.29-.39.39-.6.31L32,24.25a3.16,3.16,0,0,1-.38-1.68,23.86,23.86,0,0,0-.18-2.51c-.14-1.07-.22-2.08-.26-3S31,15.11,31,14.14s-.31-2.54-.68-4.8a41.77,41.77,0,0,0-.88-4.45,5.8,5.8,0,0,1-.16-3.76C29.37.79,29.88.67,30.76.78Z"/><path class="cls-1" d="M56.08,2.48q.57,2.28-.72,1.8c-.39-.18-.74,0-1,.61-.18.35-.63.34-1.36,0,.09.05-.27.32-1.07.78A.56.56,0,0,1,51,5.37a1.53,1.53,0,0,0-1.14-.7c-.56,0-.8.79-.7,2.54a9.64,9.64,0,0,0,.46,3.16c.54,1.13,1.18,1.48,2,1.05a2.41,2.41,0,0,0,.9-.66,1.34,1.34,0,0,1,.61-.48c.25-.09.41.41.51,1.49a19,19,0,0,1,.09,2.41q-.07.78-.84.45a1.52,1.52,0,0,0-1.23-.1,1.3,1.3,0,0,1-1.48-.31.77.77,0,0,0-1.16.22c-.32.41-.5,1.5-.56,3.28s.16,2.75.64,2.89a7.59,7.59,0,0,0,1.28.29c.37,0,.76-.32,1.16-1.07.58-1.08,1.56-1.28,2.91-.57q.93.48.24,2.19c-.45,1.13-.77,2-1,2.58-.26.76-.86,1-1.79.83s-1.49-.16-1.52.22-.31.32-.92.26a1.24,1.24,0,0,1-1.16-.7q-.36-.83-1,.42c-.44.83-.81.69-1.13-.42-.17-.58-.41-.71-.75-.37a3.63,3.63,0,0,1-.86.68,1.7,1.7,0,0,1-1.07.13c-.49-.06-.64-.57-.49-1.53s.38-2.49.67-4.58a17,17,0,0,1,1.09-4.58c.41-1,.52-3.13.35-6.52a38.1,38.1,0,0,1-.06-6.13c.18-1.08,1.13-1.4,2.83-1a15.85,15.85,0,0,0,3.4.62,1.92,1.92,0,0,0,1.22-.13c.17-.15.54-.49,1.09-1s1.16-.22,1.8.92A3.62,3.62,0,0,1,56.08,2.48Z"/><path class="cls-1" d="M70.5,3.33a.87.87,0,0,1-.36,1c-.43.33-.66.57-.68.73a7.79,7.79,0,0,1-.4,1.19,2.26,2.26,0,0,1-.68,1c-.29.15-.51.12-.66-.1a.79.79,0,0,0-.58-.37.6.6,0,0,0-.48.16.66.66,0,0,1-.52.15,2.77,2.77,0,0,0-1.44.54,1.16,1.16,0,0,0-.32,1.25c.14.56.27,1,.4,1.44a15,15,0,0,0,1.88,3.31,7.13,7.13,0,0,1,.86,3c.15,1.28.22,2.14.22,2.58A6.1,6.1,0,0,1,67,21.4a10.07,10.07,0,0,1-1.34,2.2c-.37.43-.57.61-.6.52s-.3,0-.84.21-.76.38-.69.46-.06.19-.38.34a2.7,2.7,0,0,1-1.38.23c-.58,0-1-.05-1.34-.07a1.27,1.27,0,0,1-.78-.23,1.15,1.15,0,0,0-.74-.23q-.48,0-.42.42a.68.68,0,0,1-.18.65c-.19.16-.37.12-.56-.09a1,1,0,0,1-.16-.91,3.61,3.61,0,0,1,.16-.73c0-.1,0-.38-.28-.84a2.34,2.34,0,0,1-.18-1.58l.3-1.46c.06-.33,0-.47-.18-.4s-.28-.1-.34-.48c-.18-.95.63-1.77,2.44-2.47q1-.35,1.14.06c.07.27.14.54.22.79a1.62,1.62,0,0,1-.14.94,1,1,0,0,0,.1,1c.16.39.5.39,1,0a3.77,3.77,0,0,0,1.07-1c.26-.49.07-1.09-.56-1.81-.11-.07-.14-.49-.08-1.26a1.83,1.83,0,0,0-.52-1.08,1.27,1.27,0,0,0-.62-.39c-.23-.05-.38-.25-.46-.61a9.23,9.23,0,0,1-.2-1.52,3.65,3.65,0,0,0-.36-1.52A4.73,4.73,0,0,1,60,8.26a12.92,12.92,0,0,1,.84-2.91,27.58,27.58,0,0,1,1.12-2.82c.16-.39.61-.62,1.36-.7a3.55,3.55,0,0,0,1.83-.65A2.38,2.38,0,0,1,66.78.86C67.42.94,68,1,68.54,1s1.08.61,1.64,1.77C70.31,3,70.42,3.18,70.5,3.33Z"/><path class="cls-1" d="M83.06,1.58a2.08,2.08,0,0,1,.22,1.56,4.43,4.43,0,0,1-.42,1.32,1.18,1.18,0,0,0-.22.84,2.92,2.92,0,0,1-.06,1q-.12.6-.48.36a1.75,1.75,0,0,0-.8-.28,2.51,2.51,0,0,0-1.72.76,1.36,1.36,0,0,0-.3,1.2,10.8,10.8,0,0,1,.1,1.16q0-.12-.51.72a5.31,5.31,0,0,0-.31,2q-.06,1.56-.06,2.16c0,.43,0,.62-.14.56s-.2.07-.33.36a9,9,0,0,0-.29,2.8,12.66,12.66,0,0,0,.09,2.68q0,.21-.57,1-.32.48-.21.6c.06.07,0,.17-.26.28a3.73,3.73,0,0,0-.89,1.08,2.21,2.21,0,0,1-1.08.84,1.94,1.94,0,0,1-.95.18.91.91,0,0,0-.68.18,1.23,1.23,0,0,0-.42.44c0,.1-.2.18-.46.24-.46.1-.72-.15-.8-.76a2.22,2.22,0,0,1,0-.92,9.32,9.32,0,0,0,.24-1.72c.08-.94.14-1.62.16-2a4,4,0,0,1,.62-1.71,7,7,0,0,0,.78-1.86,1.91,1.91,0,0,0,.06-1,3.05,3.05,0,0,1-.1-1A16.39,16.39,0,0,1,74,11.24c.47-1.85.76-2.87.83-3.06.35-.88.36-1.45.05-1.72s-.8-.16-1.52.24a1.47,1.47,0,0,1-1.12.12c-.32-.05-.45-.36-.38-.92A11.1,11.1,0,0,0,72,4.58a7.81,7.81,0,0,1,.32-2.2,2,2,0,0,1,2-1.52A18,18,0,0,1,77.51.78,22.55,22.55,0,0,0,81.38.62,3.12,3.12,0,0,1,83.06,1.58Z"/><path class="cls-1" d="M96.16.64a3,3,0,0,1,1.25,2c.27,1,.47,1.86.61,2.47a3.14,3.14,0,0,1-.3,2A9.74,9.74,0,0,0,97,9.71a20.18,20.18,0,0,0-.28,3.52,14.61,14.61,0,0,1-.22,2.94,17.07,17.07,0,0,0-.41,1.88,5.73,5.73,0,0,1-.91,2.1c-.54.84-.8,1.35-.76,1.51s-.18.59-.63,1.28-.83,1-1.14.82a3.3,3.3,0,0,0-1.32-.21,2.45,2.45,0,0,0-2,1.53c-.24.39-.53.38-.87,0A5.55,5.55,0,0,0,87.13,24q-.75-.45-.57.27a.72.72,0,0,1-.47,1c-.42.15-.72-.14-.89-.86A21.29,21.29,0,0,0,84.49,22c-.62-1.74-.58-4,.11-6.89a15.4,15.4,0,0,0,.26-4.93A25.39,25.39,0,0,1,84.77,6a3.35,3.35,0,0,1,1-2c.56-.55,1.09-1.13,1.62-1.74a4.31,4.31,0,0,1,1.08-1A14.42,14.42,0,0,1,90.13,1C91.05.8,92.26.64,93.74.49A3.75,3.75,0,0,1,96.16.64ZM91.34,5.46c-1.12-.81-1.7-.71-1.74.31a20.5,20.5,0,0,1-.58,3A18.52,18.52,0,0,0,88.35,14c.07,1.07.09,2,.08,2.84s.24,1.25.74,1.25a5.62,5.62,0,0,1,1.83.4c.75.27,1.2,0,1.34-.86a10.33,10.33,0,0,1,.72-2.41A19.32,19.32,0,0,0,94,12.42c.29-1,.49-1.84.59-2.41a5.8,5.8,0,0,0,0-2.1c-.21-1.15-.68-1.74-1.39-1.78A2.9,2.9,0,0,1,91.34,5.46Z"/><path class="cls-1" d="M123.46,2.77a.88.88,0,0,1-.33,1c-.4.34-.61.59-.63.74a6.85,6.85,0,0,1-.37,1.21,2.24,2.24,0,0,1-.62,1c-.27.16-.47.12-.6-.1a.74.74,0,0,0-.54-.37c-.22,0-.37,0-.44.16s-.23.15-.48.15a2.37,2.37,0,0,0-1.32.55,1.2,1.2,0,0,0-.29,1.26c.12.56.25,1.05.36,1.46a15.88,15.88,0,0,0,1.73,3.35,7.89,7.89,0,0,1,.79,3c.13,1.3.2,2.17.2,2.61a6.77,6.77,0,0,1-.71,2.29A11.08,11.08,0,0,1,119,23.27c-.35.44-.53.62-.56.52s-.28,0-.77.22-.7.39-.64.46-.06.2-.35.35a2.3,2.3,0,0,1-1.27.24c-.52,0-.93,0-1.23-.08a1.08,1.08,0,0,1-.71-.23,1,1,0,0,0-.68-.24c-.3,0-.43.14-.39.43a.77.77,0,0,1-.16.66c-.17.16-.35.13-.52-.1a1.1,1.1,0,0,1-.15-.91,3.17,3.17,0,0,1,.15-.74c0-.1,0-.39-.26-.86a2.54,2.54,0,0,1-.16-1.59c.11-.59.2-1.09.27-1.48s0-.47-.16-.4-.27-.1-.31-.49c-.17-1,.57-1.79,2.24-2.49.63-.23,1-.22,1,.06s.13.54.21.8a1.84,1.84,0,0,1-.13,1,1.14,1.14,0,0,0,.09,1c.15.39.46.39.94,0a3.72,3.72,0,0,0,1-1c.24-.5.07-1.1-.51-1.83-.1-.08-.13-.51-.08-1.28a1.9,1.9,0,0,0-.47-1.09,1.08,1.08,0,0,0-.58-.39c-.2,0-.34-.26-.42-.62a11.66,11.66,0,0,1-.18-1.54,4,4,0,0,0-.33-1.54,5.35,5.35,0,0,1-.11-2.33,14.56,14.56,0,0,1,.77-2.94c.49-1.49.83-2.44,1-2.86s.56-.62,1.25-.7A3.1,3.1,0,0,0,118.5.59,2,2,0,0,1,120,.26c.58.09,1.13.15,1.62.18s1,.62,1.5,1.79A5.22,5.22,0,0,1,123.46,2.77Z"/><path class="cls-1" d="M107.81.36A3.08,3.08,0,0,1,110.7,2.5c.14.46.22.75.24.84s.16.47.42,1.14a6,6,0,0,1,.16,2.76,18.6,18.6,0,0,1-.4,2.5,3.12,3.12,0,0,1-.4,1,2,2,0,0,0-.32.73,2.71,2.71,0,0,0-.18.56,2.12,2.12,0,0,1-.28.43,2.45,2.45,0,0,0-.54,1.37.55.55,0,0,1-.64.53,8.32,8.32,0,0,0-1.12,0c-.41.08-.58.48-.51,1.18a18.06,18.06,0,0,0,.88,3.13,10.24,10.24,0,0,1,.74,3.13c-.07.38-.16.58-.25.59a1.49,1.49,0,0,0-.48.2c-.27.15-.35.31-.23.47a.64.64,0,0,1,0,.65,1.15,1.15,0,0,1-.93.8,2.31,2.31,0,0,0-1,.57c-.2.22-.56.24-1.06.07-.32-.07-.41-.32-.26-.77a3.32,3.32,0,0,0,.19-1.24c0-.39-.15-.94-.31-1.68s-.29-1.26-.38-1.58c-.23-.83-.36-3.23-.59-3.1a15.15,15.15,0,0,0-1.36,4,9.94,9.94,0,0,1-.32,1.95c-.14.26.13.4-.24.48a2.13,2.13,0,0,0-.89.36c-.27.2-.4.33-.38.4s-.17.14-.58.18-.76.22-.76.41c0,.43-.34.64-1,.64-.27,0-.41-.64-.41-1.91a15.12,15.12,0,0,1,.11-1.76c.06-.59.13-1.13.2-1.6a18.28,18.28,0,0,1,.72-2.69,25.15,25.15,0,0,0,.76-2.63,1.27,1.27,0,0,0-.19-1c-.19-.25-.09-.7.33-1.34.94-1.46,1.16-2.55.69-3.25-.31-.38,0-1.07.82-2.07a2.13,2.13,0,0,0,.41-1.43c0-.56-.06-1.08-.1-1.58a1.93,1.93,0,0,1,.22-1.29q.33-.56.81-1.32c.32-.49,1.33-.8,3-.93A12.45,12.45,0,0,1,107.81.36Zm-.45,5.08A3.43,3.43,0,0,0,105.93,5c-.75-.12-1.08,0-1,.5a22.16,22.16,0,0,1-.55,4c-.41,2.15-.53,3.16-.37,3l.83-.58A4.24,4.24,0,0,0,106,10.79a19.92,19.92,0,0,0,1-2.9C107.4,6.45,107.53,5.63,107.36,5.44Z"/></g></g></svg>