<svg xmlns="http://www.w3.org/2000/svg" viewBox="0 0 26.38 10.96"><defs><style>.cls-1{fill:#ff00e7;}</style></defs><g id="Layer_2" data-name="Layer 2"><g id="Layer_1-2" data-name="Layer 1"><path class="cls-1" d="M3.9.6s0,0,.09,0,.09.09.08.3a.88.88,0,0,1-.21.53,2.3,2.3,0,0,0-.33.82C3.42,2.69,3.22,3.5,3,4.72S2.5,6.68,2.44,7a2.75,2.75,0,0,0,0,.86c0,.29.24.4.62.33a1.06,1.06,0,0,1,.88.16c.22.18.42.12.62-.16a.82.82,0,0,1,.74-.42.52.52,0,0,1,.55.37c.11.53-.16,1.05-.83,1.58a.33.33,0,0,1-.41.06c-.12-.08-.2-.06-.24.05-.22.39-.42.41-.6,0,0-.19-.13-.23-.29-.1s-.28.14-.34,0-.15,0-.35.24-.45.19-.59,0-.26-.33-.38-.22-.38.26-.5.22a.68.68,0,0,0-.58.18,2,2,0,0,1-.55.34c-.18.07-.19-.17,0-.72s.27-.94.34-1.16A12.79,12.79,0,0,0,.75,7C.87,6.17,1,5.64,1,5.41a4.77,4.77,0,0,0,.1-.5,1,1,0,0,1,.29-.46,2.12,2.12,0,0,0,.3-1.14,5.35,5.35,0,0,0,0-1.26A1.62,1.62,0,0,1,2.33.53a.9.9,0,0,1,1-.16A2.62,2.62,0,0,1,3.9.6Z"/><path class="cls-1" d="M10.8,1.71a3.15,3.15,0,0,0,0,1.09,5.27,5.27,0,0,0,.11.59,2.31,2.31,0,0,1,0,.72,3.06,3.06,0,0,1-.11.63,2.85,2.85,0,0,0,0,.83,14.64,14.64,0,0,1,.07,1.54,4.78,4.78,0,0,1-.07,1.08c-.06.16-.13.25-.2.27a.88.88,0,0,0-.29.3c-.14.19-.17.27-.11.25s0,0-.24.16a3,3,0,0,1-.35.19L9.41,9.3c-.15,0-.24-.09-.26-.17S9.05,9,8.93,9s-.2-.09-.26-.26a.59.59,0,0,1,0-.47.75.75,0,0,0,0-.62c-.09-.13-.23-.12-.44,0a1.9,1.9,0,0,0-.45.46,2,2,0,0,0-.23.68.72.72,0,0,1-.39.58q-.32.15-.36.12a.69.69,0,0,0-.29,0c-.16,0-.24.08-.21.14s0,.1-.1.11S6,9.65,6,9.22V8.57a1.24,1.24,0,0,1,.24-.78A2,2,0,0,0,6.58,7a7.67,7.67,0,0,0,.13-.77,1.22,1.22,0,0,1,.37-.83,1.33,1.33,0,0,0,.3-.63c0-.27.09-.51.13-.73s.08-.34.15-.36.16-.09.24-.24.1-.24.06-.3,0-.15.15-.24a1.16,1.16,0,0,0,.24-.71,3.77,3.77,0,0,1,.3-1.07A.94.94,0,0,1,9.47.55a8.92,8.92,0,0,1,1-.08c.24,0,.37.3.38.9A2.28,2.28,0,0,1,10.8,1.71ZM9.07,4.32,8.54,5.73a1.46,1.46,0,0,0,.39,0,.31.31,0,0,0,.25-.11Z"/><path class="cls-1" d="M14.57.11l.39,0c.22,0,.36.19.45.63a1.41,1.41,0,0,0,.14.45,2.5,2.5,0,0,1,.18.42,2,2,0,0,1-.15.91,3.6,3.6,0,0,0-.2,1,5.35,5.35,0,0,0,.23,1.4c.18.71.32.91.4.59s.16-.75.25-1.32a6.45,6.45,0,0,1,.27-1.21,2,2,0,0,0,.1-.93A3.58,3.58,0,0,1,16.74.79a2.59,2.59,0,0,1,.17-.61l.31-.06a8.13,8.13,0,0,1,1-.06c.5,0,.75.07.76.24s0,.3-.06.34,0,.15.06.31,0,.46-.24.91a10,10,0,0,0-.43,1c-.08.21-.1.32-.07.33s.06.15.06.45a1.58,1.58,0,0,1-.12.69,2.27,2.27,0,0,0-.2.56,2.07,2.07,0,0,0-.07.53,2.37,2.37,0,0,1-.07.56c-.06.28-.11.45-.13.53s-.08.34-.19.82a12.68,12.68,0,0,0-.24,1.54q-.06.79-.06.93c0,.25-.12.28-.28.1s-.3-.1-.54,0-.24.07-.27-.06-.08-.18-.15-.18a1.13,1.13,0,0,0-.44.33c-.09.11-.19,0-.29-.32a3.4,3.4,0,0,1-.15-1c0-.35,0-.54-.06-.56a.5.5,0,0,0-.23,0c-.12,0-.16-.23-.1-.7a6.12,6.12,0,0,0,.07-1c0-.16,0-.22-.13-.18s-.12,0-.12-.17-.07-.59-.14-1.29a8.57,8.57,0,0,1-.07-1.32c0-.42-.09-.46-.32-.15a2,2,0,0,0-.26,1,5.91,5.91,0,0,1-.12,1.16,13.15,13.15,0,0,1-.5,1.81,2.7,2.7,0,0,0-.16.81c0,.26-.05.62-.11,1.09a1.89,1.89,0,0,1-.24.84.29.29,0,0,1-.33,0q-.16,0-.3.18c-.1.16-.16.21-.19.14s-.09-.12-.21-.19a.57.57,0,0,0-.56.08c-.15.13-.17-.1,0-.67a4.53,4.53,0,0,1,.29-1,3.2,3.2,0,0,0,.19-.92c.06-.52.1-.93.13-1.24s.06-.62.11-1a1.26,1.26,0,0,1,.36-.75A1,1,0,0,0,12.29,4a2,2,0,0,0-.13-.78c-.1-.18,0-.43.33-.75a1.36,1.36,0,0,0,.34-.82,2.67,2.67,0,0,0,0-.81c-.1-.47.15-.74.76-.79a2.62,2.62,0,0,1,.75,0A.65.65,0,0,1,14.57.11Z"/><path class="cls-1" d="M24.42,1a2.3,2.3,0,0,0,0,.69.68.68,0,0,1-.14.57c-.05.08-.17.13-.36.16s-.16,0-.26-.11a.35.35,0,0,0-.28-.12.42.42,0,0,0-.21.21.37.37,0,0,1-.2.21c-.11,0-.2,0-.26-.15s-.15-.17-.25-.13a.52.52,0,0,0-.2.35,3.35,3.35,0,0,1-.13.44.8.8,0,0,0-.08.35.44.44,0,0,1-.14.3,1.54,1.54,0,0,0-.43.79c0,.13-.08.35-.15.68a6.24,6.24,0,0,1-.2.73,4.45,4.45,0,0,0-.21,1.11c-.07.56-.06.88,0,1S21.2,8,21.6,8a.29.29,0,0,1,.17,0A.22.22,0,0,0,22,7.93a.41.41,0,0,0,.16-.21.84.84,0,0,1,.17-.25.16.16,0,0,0,.08-.11.62.62,0,0,1,.08-.12.2.2,0,0,1,.14,0,.21.21,0,0,0,.13-.05,1.37,1.37,0,0,0,.4-.59c.14-.3.09-.49-.14-.55s-.24,0-.23.12,0,.18-.14.2-.17,0-.16,0,0-.07-.09-.07-.11,0-.1.08a.1.1,0,0,1-.09.1c-.23.06-.35.06-.35,0a1.23,1.23,0,0,1,0-.91,2.78,2.78,0,0,0,.25-.6.52.52,0,0,1,.37-.41.31.31,0,0,1,.36.18.42.42,0,0,0,.45.2,6.92,6.92,0,0,1,.76,0c.29,0,.45.27.47.72a5.65,5.65,0,0,1-.57,2,6.56,6.56,0,0,1-1,1.79A3.48,3.48,0,0,1,22,10a2.94,2.94,0,0,0-.82.46.58.58,0,0,0-.11.25.34.34,0,0,1-.1.21c-.12.13-.21.1-.28-.08a3.43,3.43,0,0,0-.69-.41,1.06,1.06,0,0,1-.52-.89c0-.19-.06-.27-.09-.26s-.08,0-.15-.12a1,1,0,0,1,0-.58,6.62,6.62,0,0,0,.08-1.18,8.73,8.73,0,0,1,.29-1.87A6.46,6.46,0,0,1,20,4.08a14,14,0,0,0,.62-1.38c.32-.78.54-1.31.64-1.58s.2-.38.3-.34a1.17,1.17,0,0,0,.53,0,1.06,1.06,0,0,0,.58-.23A1,1,0,0,1,23.22.3a3.12,3.12,0,0,1,1.23.25A2,2,0,0,1,24.42,1Z"/><path class="cls-1" d="M26.24,9.38a1.14,1.14,0,0,0,0,.44.36.36,0,0,1-.15.4c-.08.06-.13,0-.16,0s-.08-.1-.13-.07-.08.18-.09.43-.14.18-.38.19-.16-.05-.12-.17a.47.47,0,0,0-.06-.42.7.7,0,0,1,0-.66c.06-.11.33-.14.82-.08Zm0-2.44a.21.21,0,0,1-.3.09.54.54,0,0,0-.35,0q-.28.15-.36-.09a.7.7,0,0,1,.09-.6A1.77,1.77,0,0,0,25.41,6c0-.08.12-.13.27-.16s.39.16.7.55A1,1,0,0,1,26.19,6.94Z"/></g></g></svg>