<svg xmlns="http://www.w3.org/2000/svg" viewBox="0 0 42.95 11"><defs><style>.cls-1{fill:#ff00e7;}</style></defs><g id="Layer_2" data-name="Layer 2"><g id="Layer_1-2" data-name="Layer 1"><path class="cls-1" d="M3.91,0A1.27,1.27,0,0,1,5,.89l.09.34s.07.19.16.45a2.7,2.7,0,0,1,.07,1.14,5.73,5.73,0,0,1-.16,1,1.61,1.61,0,0,1-.16.4.55.55,0,0,0-.13.28,1.69,1.69,0,0,1-.16.41,1.1,1.1,0,0,0-.22.56c0,.08-.23.16-.65.23-.16,0-.22.19-.19.48A6.48,6.48,0,0,0,4,7.48a3.85,3.85,0,0,1,.27,1.27A.47.47,0,0,1,4,9.08c-.09.07-.12.13-.08.19a.28.28,0,0,1,0,.26.43.43,0,0,1-.35.33.86.86,0,0,0-.38.24c-.07.08-.2.09-.39,0S2.6,10,2.65,9.8a1.61,1.61,0,0,0,.09-.51A7.36,7.36,0,0,0,2.47,8c-.08-.33-.17-.48-.25-.42S2,7.86,2,8.31a5.93,5.93,0,0,1-.16.82.4.4,0,0,1-.29.21,1.11,1.11,0,0,0-.35.14c-.09.07-.14.13-.13.16S1,9.7.82,9.72s-.28.09-.28.17-.13.26-.38.26S0,9.89,0,9.37A12.75,12.75,0,0,1,.11,8,7.39,7.39,0,0,1,.39,6.9C.55,6.35.65,6,.68,5.82a.53.53,0,0,0-.08-.4c-.07-.1,0-.28.13-.54.35-.6.43-1,.25-1.33-.1-.14,0-.43.32-.85a.87.87,0,0,0,.15-.57c0-.23,0-.45,0-.65A1.91,1.91,0,0,1,1.81.42C1.92.22,2.3.09,3,0A6.9,6.9,0,0,1,3.91,0ZM3.53,2.11A.64.64,0,0,0,3.23,2C3.07,2,3,2,3,2.14A7.89,7.89,0,0,1,2.9,3.2,3,3,0,0,0,2.82,4a1.16,1.16,0,0,0,.41-.46,4.43,4.43,0,0,0,.22-.77C3.54,2.39,3.57,2.16,3.53,2.11Z"/><path class="cls-1" d="M11.33,1.84c.14.55.05.77-.29.65-.16-.06-.29,0-.41.22s-.25.13-.54,0c0,0-.11.11-.43.28a.23.23,0,0,1-.34-.09.64.64,0,0,0-.45-.26c-.22,0-.32.29-.28.92a3.31,3.31,0,0,0,.18,1.14c.22.42.47.54.78.38a1,1,0,0,0,.36-.23.51.51,0,0,1,.24-.18c.1,0,.16.15.2.54a6,6,0,0,1,0,.87c0,.19-.13.25-.33.17a.67.67,0,0,0-.49,0A.56.56,0,0,1,9,6.09a.32.32,0,0,0-.46.08A2.29,2.29,0,0,0,8.3,7.36c0,.64.06,1,.25,1a3,3,0,0,0,.51.11c.15,0,.3-.12.46-.39s.62-.46,1.16-.21c.24.12.27.38.09.79s-.31.73-.38.94-.34.37-.71.3-.59-.06-.6.08-.13.12-.37.09a.5.5,0,0,1-.46-.25c-.09-.2-.23-.15-.4.15s-.33.25-.45-.15c-.07-.21-.17-.26-.3-.13a1.19,1.19,0,0,1-.34.24.77.77,0,0,1-.43,0c-.19,0-.25-.21-.19-.56s.16-.9.27-1.65a5.62,5.62,0,0,1,.43-1.66A6.18,6.18,0,0,0,7,3.79,13.76,13.76,0,0,1,7,1.57c.08-.39.45-.5,1.13-.35a7.11,7.11,0,0,0,1.34.23.86.86,0,0,0,.49-.05c.07,0,.21-.18.43-.37s.46-.08.72.34A1.42,1.42,0,0,1,11.33,1.84Z"/><path class="cls-1" d="M14.43,1.91a2.77,2.77,0,0,0,0,1.05q.09.66.12,1.08a5.63,5.63,0,0,1-.22,1.39A4.25,4.25,0,0,0,14.19,7c.05.39.22-.07.51-1.37a19.37,19.37,0,0,1,.74-2.74c.2-.52.4-.74.6-.67a1.39,1.39,0,0,0,.69,0q.38,0,.45.51a7.64,7.64,0,0,0,.21,1.06A4.79,4.79,0,0,1,17.55,5c0,.41.14.57.4.45s.38-.4.45-.89.13-.92.19-1.3.11-.82.2-1.38A3.08,3.08,0,0,1,19.13.73.68.68,0,0,1,20,.46c.33.15.58.17.74,0a.92.92,0,0,1,.83-.09c.19.06.18.36,0,.9s-.36,1-.47,1.28a6.36,6.36,0,0,1-.4.86,8.52,8.52,0,0,0-.41.85c-.15.33-.23.43-.25.3s-.09-.06-.19.23a14.45,14.45,0,0,0-.56,2.45c-.24,1.34-.4,2.15-.46,2.43-.09.46-.24.64-.43.54s-.35,0-.39.35c0,.18-.12.22-.26.12a1.11,1.11,0,0,1-.31-.3c-.08-.1-.14-.07-.19.1s-.15.25-.27.25-.19-.08-.17-.24a.3.3,0,0,0-.12-.33c-.1-.06-.14-.29-.11-.67s.06-.69.08-.92c0-.5-.05-.75-.19-.72s-.23-.13-.21-.44a4.79,4.79,0,0,1,.07-.71c0-.14,0-.35,0-.61s-.05-.4-.18-.43-.22.06-.22.24a.58.58,0,0,1-.18.46,1.69,1.69,0,0,0-.45.77A8.12,8.12,0,0,1,15,8a3.29,3.29,0,0,0-.2.7,3.69,3.69,0,0,1-.4,1.24,1.32,1.32,0,0,1-.3.39.6.6,0,0,0-.19.34c-.11.45-.23.48-.35.09s-.27-.43-.5,0c-.16.28-.28.25-.37-.09a3.13,3.13,0,0,1,.06-1.09c.09-.55.14-1,.16-1.23a5,5,0,0,0,0-.77,3.57,3.57,0,0,1,0-.8c0-.25,0-.55.06-.91A5.5,5.5,0,0,0,13,5a3.35,3.35,0,0,0-.13-.44A1.32,1.32,0,0,1,12.8,4a.85.85,0,0,0-.51-.75A.64.64,0,0,1,12,2.76c0-.18,0-.42,0-.71a2.55,2.55,0,0,0-.14-.67c-.15-.46-.06-.75.25-.87.13,0,.21,0,.23,0s.12,0,.28,0A.86.86,0,0,0,12.85.4s.11,0,.29,0a2.83,2.83,0,0,1,.59.23C14.25,1.23,14.48,1.65,14.43,1.91Z"/><path class="cls-1" d="M25.23,2a3.21,3.21,0,0,0,0,1.1,5.27,5.27,0,0,0,.11.59,2.28,2.28,0,0,1,0,.72,3.06,3.06,0,0,1-.11.63,2.85,2.85,0,0,0,0,.83c0,.46.07,1,.07,1.54a5.3,5.3,0,0,1-.07,1.07c-.06.16-.13.25-.2.27a1.09,1.09,0,0,0-.29.31c-.14.18-.17.27-.11.25s0,0-.24.16l-.35.19a1.05,1.05,0,0,1-.23-.07c-.15,0-.24-.08-.27-.16s-.09-.12-.21-.12-.2-.09-.26-.26a.59.59,0,0,1,0-.47.75.75,0,0,0,0-.62c-.09-.14-.23-.12-.44,0a1.89,1.89,0,0,0-.45.45,2.22,2.22,0,0,0-.23.68.72.72,0,0,1-.39.59q-.31.15-.36.12a.62.62,0,0,0-.29,0q-.26,0-.21.15c0,.06,0,.1-.1.11s-.26-.17-.26-.61V8.81A1.23,1.23,0,0,1,20.65,8,2,2,0,0,0,21,7.22a7.23,7.23,0,0,0,.13-.77,1.19,1.19,0,0,1,.37-.82,1.43,1.43,0,0,0,.3-.63c.05-.27.09-.51.12-.73s.09-.34.16-.36.16-.1.24-.25.1-.23.06-.3,0-.14.15-.23a1.27,1.27,0,0,0,.24-.72,3.7,3.7,0,0,1,.3-1.06A.92.92,0,0,1,23.9.8a6.93,6.93,0,0,1,1-.08c.24,0,.37.3.38.9A2.4,2.4,0,0,1,25.23,2ZM23.5,4.57,23,6a1.55,1.55,0,0,0,.4,0,.34.34,0,0,0,.25-.11Z"/><path class="cls-1" d="M29.65,0a1.26,1.26,0,0,1,1.09.89c.05.19.09.3.1.34s.06.19.15.45a2.85,2.85,0,0,1,.08,1.14,6.55,6.55,0,0,1-.17,1,1.28,1.28,0,0,1-.16.4.81.81,0,0,0-.13.28,1.82,1.82,0,0,1-.15.41,1,1,0,0,0-.23.56c0,.08-.22.16-.65.23-.15,0-.22.19-.19.48a6.48,6.48,0,0,0,.33,1.28A4,4,0,0,1,30,8.75a.53.53,0,0,1-.27.33c-.1.07-.13.13-.09.19s0,.14,0,.26-.19.31-.35.33a.76.76,0,0,0-.38.24c-.08.08-.21.09-.4,0s-.16-.13-.1-.31a1.59,1.59,0,0,0,.08-.51A8.33,8.33,0,0,0,28.21,8c-.09-.33-.17-.48-.26-.42s-.18.31-.24.76a5.36,5.36,0,0,1-.17.82.38.38,0,0,1-.29.21,1.05,1.05,0,0,0-.34.14c-.1.07-.14.13-.14.16s-.06.06-.21.08-.29.09-.29.17-.12.26-.38.26c-.1,0-.16-.26-.16-.78A12.75,12.75,0,0,1,25.84,8c0-.18.12-.54.28-1.09s.26-.91.3-1.08a.58.58,0,0,0-.08-.4q-.12-.15.12-.54c.35-.6.44-1,.26-1.33-.11-.14,0-.43.31-.85a.87.87,0,0,0,.15-.57,4.45,4.45,0,0,0,0-.65,1.91,1.91,0,0,1,.4-1.06c.12-.2.5-.33,1.14-.38A7,7,0,0,1,29.65,0Zm-.38,2.11A.75.75,0,0,0,29,2c-.16,0-.24,0-.23.14a6.41,6.41,0,0,1-.11,1.06,3,3,0,0,0-.08.81A1.28,1.28,0,0,0,29,3.55a6.13,6.13,0,0,0,.21-.77A1.77,1.77,0,0,0,29.27,2.11Z"/><path class="cls-1" d="M33.62,1.07s.09,0,.37-.12a3.75,3.75,0,0,1,1-.2c.68,0,1.26.42,1.73,1.38A5.75,5.75,0,0,1,37,4.29a8.87,8.87,0,0,1-.22,2.32A3.27,3.27,0,0,1,36,8a3,3,0,0,0-.79,1.08c-.24.6-.49.85-.78.73s-.36.06-.52.35-.34.22-.57,0-.2-.17-.22-.12a1.09,1.09,0,0,1-.32.23c-.24.14-.42.19-.54.14a.67.67,0,0,1-.27-.13.53.53,0,0,0-.32-.09.67.67,0,0,0-.3.06.31.31,0,0,1-.25,0c-.11,0-.07-.3.09-.84s.3-.91.4-1.13.25-.82.54-1.8l.57-2a4.65,4.65,0,0,0,0-1.44,3.3,3.3,0,0,1,0-1.2,1.24,1.24,0,0,1,.52-.54C33.53,1.11,33.65,1,33.62,1.07Zm1.59,1.82a.35.35,0,0,0-.34.08c-.19.15-.33.18-.43.11s-.28,0-.38.35c0,.09-.1.49-.2,1.2A6.67,6.67,0,0,1,33.6,5.9c-.07.15-.21.48-.42,1s-.29.79-.22.82a2.14,2.14,0,0,0,.77-.13,1.63,1.63,0,0,0,.92-.49,4.49,4.49,0,0,0,.48-.75A4,4,0,0,0,35.6,5a4.9,4.9,0,0,0,0-1.57C35.57,2.92,35.43,2.74,35.21,2.89Z"/><path class="cls-1" d="M42.93,1.45a.33.33,0,0,1-.14.39q-.26.21-.27.3a2.25,2.25,0,0,1-.16.49.84.84,0,0,1-.27.42c-.11.06-.2.05-.26,0a.3.3,0,0,0-.23-.15.24.24,0,0,0-.19.06.25.25,0,0,1-.2.06,1.1,1.1,0,0,0-.57.22.49.49,0,0,0-.13.52c.05.23.11.43.16.59a6,6,0,0,0,.74,1.37,2.92,2.92,0,0,1,.34,1.22c.06.53.09.88.09,1.06a2.49,2.49,0,0,1-.31.93A3.87,3.87,0,0,1,41,9.8q-.22.27-.24.21s-.12,0-.33.09-.3.16-.28.19,0,.08-.15.14a1,1,0,0,1-.54.1c-.23,0-.41,0-.54,0a.49.49,0,0,1-.3-.09.49.49,0,0,0-.3-.1c-.12,0-.18.06-.16.18a.32.32,0,0,1-.08.27c-.07.06-.14.05-.22,0a.45.45,0,0,1-.06-.37,1.49,1.49,0,0,1,.06-.31s0-.15-.11-.34A1,1,0,0,1,37.68,9l.12-.61c0-.13,0-.19-.07-.16s-.11,0-.14-.2c-.07-.39.25-.73,1-1,.27-.1.43-.09.45,0l.09.32a.69.69,0,0,1-.06.39.48.48,0,0,0,0,.42c.07.16.2.16.41,0a1.65,1.65,0,0,0,.42-.42c.1-.2,0-.45-.22-.74,0,0-.06-.21,0-.53a.8.8,0,0,0-.2-.44.47.47,0,0,0-.25-.16c-.09,0-.15-.11-.18-.25a4.32,4.32,0,0,1-.08-.63,1.63,1.63,0,0,0-.14-.63,2,2,0,0,1,0-.95,5.84,5.84,0,0,1,.33-1.19c.22-.61.36-1,.45-1.17s.24-.25.54-.28A1.43,1.43,0,0,0,40.8.56a.93.93,0,0,1,.66-.14c.25,0,.49.06.7.08s.43.25.65.72C42.86,1.31,42.9,1.38,42.93,1.45Z"/></g></g></svg>