<svg xmlns="http://www.w3.org/2000/svg" viewBox="0 0 105.13 25.9"><defs><style>.cls-1{fill:#ff00e7;}</style></defs><g id="Layer_2" data-name="Layer 2"><g id="Layer_1-2" data-name="Layer 1"><path class="cls-1" d="M27.78,2.87c.38,1.47.14,2.05-.75,1.74-.42-.17-.78,0-1.08.59-.2.34-.67.33-1.41,0,.08.06-.29.31-1.12.76a.6.6,0,0,1-.9-.25A1.6,1.6,0,0,0,21.34,5c-.59-.06-.83.76-.73,2.46a8.18,8.18,0,0,0,.48,3.05c.55,1.11,1.23,1.45,2,1a2.32,2.32,0,0,0,.94-.63,1.32,1.32,0,0,1,.64-.47c.25-.09.42.4.52,1.44a16.62,16.62,0,0,1,.1,2.34c-.05.5-.34.65-.87.44a1.69,1.69,0,0,0-1.28-.11,1.42,1.42,0,0,1-1.54-.29.84.84,0,0,0-1.21.21c-.33.4-.52,1.46-.58,3.18s.17,2.66.66,2.8a9.68,9.68,0,0,0,1.33.28c.39,0,.8-.31,1.21-1,.61-1.05,1.62-1.23,3-.56.64.32.72,1,.25,2.13s-.8,1.93-1,2.5c-.27.73-.89,1-1.87.8s-1.55-.15-1.57.22c0,.22-.33.31-1,.25s-1-.28-1.2-.68-.61-.4-1.06.41-.86.67-1.19-.41c-.17-.56-.42-.68-.77-.36a3.29,3.29,0,0,1-.89.66,2,2,0,0,1-1.12.13c-.5-.06-.67-.55-.5-1.49s.4-2.41.69-4.43A15,15,0,0,1,16,14.41c.41-.94.53-3,.35-6.32a35.79,35.79,0,0,1-.06-5.94c.19-1,1.18-1.36,3-.93a18.3,18.3,0,0,0,3.53.59,2.09,2.09,0,0,0,1.27-.13c.18-.14.56-.46,1.14-1s1.2-.21,1.87.89A3.62,3.62,0,0,1,27.78,2.87Z"/><path class="cls-1" d="M35.88,3.75a7.43,7.43,0,0,0,0,2.56c.13,1.07.23,1.94.28,2.64a15.18,15.18,0,0,1-.51,3.37,10.25,10.25,0,0,0-.32,3.75q.2,1.42,1.2-3.31A50,50,0,0,1,38.27,6.1c.48-1.26.94-1.8,1.4-1.64a3.55,3.55,0,0,0,1.63.14c.59,0,1,.36,1.06,1.23a19,19,0,0,0,.51,2.58,13.17,13.17,0,0,1,.37,2.83c0,1,.34,1.38.93,1.1s.9-1,1.07-2.16S45.55,8,45.7,7s.25-2,.47-3.37A7.3,7.3,0,0,1,47,.9a1.52,1.52,0,0,1,2-.65c.77.35,1.35.39,1.75.11A2.13,2.13,0,0,1,52.69.13c.44.15.43.88,0,2.19s-.85,2.35-1.13,3.13a14.47,14.47,0,0,1-.93,2.07c-.32.6-.64,1.29-1,2.08s-.55,1-.59.72-.21-.14-.45.55a38.61,38.61,0,0,0-1.31,6q-.85,4.92-1.08,5.92c-.23,1.13-.56,1.56-1,1.3s-.83,0-.93.85c-.08.44-.28.54-.6.31a3.08,3.08,0,0,1-.75-.73c-.17-.26-.32-.18-.45.23s-.33.62-.63.62-.43-.2-.39-.58a.83.83,0,0,0-.28-.81c-.25-.15-.33-.7-.27-1.64s.14-1.67.19-2.21c0-1.23-.12-1.82-.44-1.77s-.55-.3-.51-1.06a12.76,12.76,0,0,1,.17-1.72,14.45,14.45,0,0,0,.11-1.48c0-.63-.12-1-.45-1.06s-.51.14-.5.58A1.52,1.52,0,0,1,39,14.69,3.84,3.84,0,0,0,38,16.57c-.19.67-.41,1.31-.65,1.93a8.14,8.14,0,0,0-.46,1.69,9.53,9.53,0,0,1-.94,3,3.21,3.21,0,0,1-.71.94,1.42,1.42,0,0,0-.44.83c-.28,1.1-.55,1.18-.83.23s-.64-1.05-1.19,0c-.37.67-.66.59-.86-.23A7.68,7.68,0,0,1,32,22.33c.21-1.35.34-2.34.4-3a12.06,12.06,0,0,0-.08-1.89,7.79,7.79,0,0,1,0-1.93c0-.61.07-1.35.13-2.21a11.7,11.7,0,0,0,0-2,5.28,5.28,0,0,0-.3-1.07A3.34,3.34,0,0,1,32,8.91,2.07,2.07,0,0,0,30.85,7.1a1.6,1.6,0,0,1-.64-1.27c0-.44,0-1-.11-1.74a6.29,6.29,0,0,0-.34-1.61c-.34-1.13-.15-1.84.6-2.12.3-.1.48-.09.54,0s.28.11.66,0a2.12,2.12,0,0,0,.61-.27s.27,0,.69,0a5.78,5.78,0,0,1,1.38.58C35.46,2.12,36,3.13,35.88,3.75Z"/><path class="cls-1" d="M62.19,4a8.32,8.32,0,0,0-.09,2.94c.09.62.18,1.15.29,1.59a6.15,6.15,0,0,1,0,1.94,8,8,0,0,1-.27,1.68,6.58,6.58,0,0,0,.1,2.23c.11,1.25.17,2.62.17,4.12a15.05,15.05,0,0,1-.17,2.9c-.17.42-.34.66-.52.72s-.43.33-.77.81-.45.73-.29.68,0,.08-.62.42a7.4,7.4,0,0,1-.94.51,3.83,3.83,0,0,1-.6-.17c-.39-.09-.61-.23-.69-.44s-.25-.32-.56-.32-.53-.24-.68-.71a1.68,1.68,0,0,1,0-1.25A2,2,0,0,0,56.7,20c-.22-.37-.61-.33-1.16.11a4.9,4.9,0,0,0-1.16,1.21,5.41,5.41,0,0,0-.6,1.83,1.94,1.94,0,0,1-1,1.57c-.55.26-.87.36-1,.32a1.82,1.82,0,0,0-.75.06c-.44.09-.63.22-.56.39s0,.27-.27.29c-.44.09-.66-.45-.66-1.61,0-.43,0-1,0-1.74a3.44,3.44,0,0,1,.64-2.09,5.33,5.33,0,0,0,.93-2.19,18.46,18.46,0,0,0,.36-2.06,3.33,3.33,0,0,1,1-2.21,3.45,3.45,0,0,0,.79-1.7c.14-.71.25-1.36.33-2s.23-.91.42-.95.4-.27.62-.66.25-.64.17-.81,0-.38.37-.64a3.13,3.13,0,0,0,.65-1.91,9.83,9.83,0,0,1,.77-2.85A2.49,2.49,0,0,1,58.7.88,21.27,21.27,0,0,1,61.32.67c.63,0,1,.81,1,2.42A5.6,5.6,0,0,1,62.19,4ZM58.45,8.32l-2.19,6.4a5.25,5.25,0,0,0,1.61.14,1.36,1.36,0,0,0,1-.5Z"/><path class="cls-1" d="M83.75,1.37c-.08.08.24,0,1-.29a9.46,9.46,0,0,1,2.7-.54q2.66-.17,4.53,3.61a15.09,15.09,0,0,1,.77,5.67,23.13,23.13,0,0,1-.56,6.09,8.55,8.55,0,0,1-2.29,3.7,8,8,0,0,0-2.08,2.83c-.61,1.58-1.29,2.21-2,1.91-.49-.14-.95.16-1.36.91s-.9.58-1.5-.08c-.33-.33-.53-.44-.58-.31a2.43,2.43,0,0,1-.84.6c-.63.39-1.1.51-1.41.37a1.73,1.73,0,0,1-.7-.33,1.32,1.32,0,0,0-.83-.25,1.6,1.6,0,0,0-.79.17.81.81,0,0,1-.67,0c-.27-.06-.19-.78.25-2.18s.79-2.39,1-3,.66-2.16,1.42-4.74S81,11.24,81.26,10.3a11.82,11.82,0,0,0,.1-3.78,8.67,8.67,0,0,1,.06-3.16A3.13,3.13,0,0,1,82.78,2,4.78,4.78,0,0,1,83.75,1.37Zm4.16,4.78a.89.89,0,0,0-.87.21c-.5.38-.88.48-1.13.29-.41-.25-.75,0-1,.91a31.33,31.33,0,0,0-.54,3.16A18.3,18.3,0,0,1,83.71,14c-.19.39-.57,1.26-1.12,2.62s-.75,2.08-.58,2.16a5.63,5.63,0,0,0,2-.35,4.26,4.26,0,0,0,2.41-1.27,16.05,16.05,0,0,0,1.27-2A11,11,0,0,0,89,11.67a13.24,13.24,0,0,0,.1-4.11Q88.78,5.57,87.91,6.15Z"/><path class="cls-1" d="M105.1,2.94a.89.89,0,0,1-.33,1c-.39.33-.6.58-.62.73a6.56,6.56,0,0,1-.37,1.2,2.24,2.24,0,0,1-.62,1c-.27.16-.47.12-.61-.1a.71.71,0,0,0-.53-.37.52.52,0,0,0-.44.16.6.6,0,0,1-.48.15,2.42,2.42,0,0,0-1.32.55,1.22,1.22,0,0,0-.3,1.26c.13.55.24,1,.37,1.45a15.15,15.15,0,0,0,1.73,3.33,8,8,0,0,1,.79,3c.13,1.29.2,2.15.2,2.59a6.56,6.56,0,0,1-.72,2.29,10.07,10.07,0,0,1-1.23,2.2c-.34.44-.52.62-.55.53s-.28,0-.77.21-.7.39-.64.47-.06.19-.35.34a2.39,2.39,0,0,1-1.27.24l-1.23-.08a1.08,1.08,0,0,1-.71-.23,1,1,0,0,0-.68-.24c-.3,0-.42.14-.39.43a.79.79,0,0,1-.16.66c-.18.15-.34.12-.52-.1a1.11,1.11,0,0,1-.15-.91,3.51,3.51,0,0,1,.15-.73c.05-.11,0-.39-.26-.86a2.59,2.59,0,0,1-.16-1.58L93.2,20c.06-.33,0-.47-.16-.4s-.26-.1-.31-.49c-.17-.95.57-1.78,2.24-2.47.64-.24,1-.22,1,.05s.13.54.21.8a2,2,0,0,1-.13.95,1.09,1.09,0,0,0,.09,1c.15.39.46.4.94,0a3.73,3.73,0,0,0,1-1c.24-.49.07-1.09-.52-1.81-.09-.08-.12-.51-.07-1.28A2,2,0,0,0,97,14.28a1.15,1.15,0,0,0-.58-.38c-.2-.05-.34-.26-.41-.62a9.67,9.67,0,0,1-.19-1.53,4,4,0,0,0-.33-1.53,5.33,5.33,0,0,1-.11-2.33A14.67,14.67,0,0,1,96.18,5c.49-1.48.83-2.43,1-2.84s.56-.62,1.24-.7a3.18,3.18,0,0,0,1.69-.66,2.07,2.07,0,0,1,1.55-.33c.58.09,1.12.15,1.61.18s1,.61,1.51,1.78A5,5,0,0,1,105.1,2.94Z"/><path class="cls-1" d="M10.34.37a3.11,3.11,0,0,1,2.89,2.14c.13.47.22.75.24.85s.16.47.41,1.13a6.07,6.07,0,0,1,.17,2.76,18.16,18.16,0,0,1-.41,2.51,3.2,3.2,0,0,1-.39,1,1.77,1.77,0,0,0-.33.73c-.14.38-.2.57-.17.56a2.55,2.55,0,0,1-.28.43,2.54,2.54,0,0,0-.55,1.37.54.54,0,0,1-.63.53,7,7,0,0,0-1.12.05c-.41.08-.58.48-.52,1.18a21,21,0,0,0,.88,3.13,9.94,9.94,0,0,1,.74,3.12q-.11.57-.24.6a1.49,1.49,0,0,0-.48.2c-.28.15-.36.3-.24.46a.63.63,0,0,1,0,.66,1.14,1.14,0,0,1-.92.8,2.31,2.31,0,0,0-1,.57c-.21.21-.56.24-1.07.07-.32-.07-.4-.33-.25-.77a3.37,3.37,0,0,0,.19-1.25c0-.38-.15-.94-.32-1.67s-.28-1.26-.37-1.58c-.23-.83-.37-3.23-.59-3.11a14.76,14.76,0,0,0-1.36,4,11.23,11.23,0,0,1-.32,1.95c-.14.25.12.4-.24.47a2.33,2.33,0,0,0-.9.37c-.27.19-.4.33-.37.4s-.17.13-.59.17-.76.23-.76.42c0,.43-.33.64-1,.64-.28,0-.41-.64-.41-1.92a14.91,14.91,0,0,1,.1-1.75c.07-.6.14-1.13.2-1.6A18.8,18.8,0,0,1,1,17.28c.43-1.35.68-2.24.76-2.64a1.28,1.28,0,0,0-.19-1c-.2-.25-.09-.7.32-1.34.94-1.47,1.17-2.55.69-3.26-.3-.38,0-1.07.82-2.07a2,2,0,0,0,.41-1.42c0-.56,0-1.09-.09-1.58A1.86,1.86,0,0,1,4,2.69c.21-.37.48-.81.8-1.33S6.1.57,7.8.44A13.34,13.34,0,0,1,10.34.37ZM9.89,5.45A3.6,3.6,0,0,0,8.46,5c-.75-.11-1.08.06-1,.51a23.17,23.17,0,0,1-.55,4c-.41,2.16-.53,3.17-.37,3L7.36,12A4,4,0,0,0,8.49,10.8a19.66,19.66,0,0,0,1-2.89Q10.13,5.75,9.89,5.45Z"/><path class="cls-1" d="M74.07.77A3.1,3.1,0,0,1,77,2.91c.15.47.22.76.25.85s.16.47.41,1.13a6.09,6.09,0,0,1,.17,2.76,18.16,18.16,0,0,1-.41,2.51,3.2,3.2,0,0,1-.39,1,1.84,1.84,0,0,0-.33.73c-.14.39-.2.57-.17.56a2.55,2.55,0,0,1-.28.43,2.47,2.47,0,0,0-.55,1.37.56.56,0,0,1-.64.53,6.83,6.83,0,0,0-1.11,0c-.41.08-.59.48-.52,1.18a19.4,19.4,0,0,0,.88,3.13A9.94,9.94,0,0,1,75,22.22q-.1.59-.24.6a1.44,1.44,0,0,0-.49.2c-.27.15-.35.31-.23.47a.62.62,0,0,1,0,.65,1.13,1.13,0,0,1-.93.8,2.37,2.37,0,0,0-1,.57c-.2.22-.56.24-1.06.07-.32-.07-.4-.32-.26-.77a3.32,3.32,0,0,0,.19-1.24,16.86,16.86,0,0,0-.31-1.68c-.16-.73-.28-1.26-.38-1.58-.22-.83-.36-3.23-.59-3.11a14.94,14.94,0,0,0-1.35,4,10.64,10.64,0,0,1-.33,2c-.13.26.13.4-.23.47a2.33,2.33,0,0,0-.9.37c-.27.19-.4.33-.38.4s-.17.14-.58.18-.76.22-.76.41c0,.43-.33.64-1,.64-.28,0-.41-.64-.41-1.92a15,15,0,0,1,.1-1.75c.06-.6.14-1.13.2-1.6a17.48,17.48,0,0,1,.73-2.69A26,26,0,0,0,65.51,15a1.29,1.29,0,0,0-.18-1c-.2-.25-.09-.7.32-1.34.94-1.46,1.17-2.55.69-3.25-.3-.39,0-1.08.82-2.08A2,2,0,0,0,67.57,6c0-.56-.06-1.09-.1-1.58a2,2,0,0,1,.22-1.29l.81-1.33c.32-.48,1.33-.79,3-.92A13.32,13.32,0,0,1,74.07.77Zm-.45,5.08a3.59,3.59,0,0,0-1.43-.4c-.76-.12-1.09,0-1,.5a22.27,22.27,0,0,1-.55,4c-.4,2.15-.53,3.16-.36,3s.4-.29.82-.58a4.27,4.27,0,0,0,1.13-1.15,20.77,20.77,0,0,0,1-2.9C73.65,6.87,73.78,6.05,73.62,5.85Z"/></g></g></svg>