<svg xmlns="http://www.w3.org/2000/svg" viewBox="0 0 66.67 10.86"><defs><style>.cls-1{fill:#ff00e7;}</style></defs><g id="Layer_2" data-name="Layer 2"><g id="Layer_1-2" data-name="Layer 1"><path class="cls-1" d="M3.92,0A1.27,1.27,0,0,1,5,.89l.09.34s.07.19.16.45a2.7,2.7,0,0,1,.07,1.14,5.73,5.73,0,0,1-.16,1,1.61,1.61,0,0,1-.16.4.66.66,0,0,0-.13.28,1.69,1.69,0,0,1-.16.41,1.1,1.1,0,0,0-.22.56c0,.08-.23.16-.65.23-.16,0-.22.19-.19.48A6.48,6.48,0,0,0,4,7.48a4.16,4.16,0,0,1,.27,1.27A.47.47,0,0,1,4,9.08c-.09.07-.12.13-.08.19a.28.28,0,0,1,0,.26.43.43,0,0,1-.35.33.86.86,0,0,0-.38.24c-.07.08-.2.09-.39,0S2.6,10,2.65,9.8a1.61,1.61,0,0,0,.09-.51A7.36,7.36,0,0,0,2.47,8c-.08-.33-.17-.48-.25-.42S2,7.86,2,8.31a5.93,5.93,0,0,1-.16.82.4.4,0,0,1-.29.21,1.11,1.11,0,0,0-.35.14c-.09.07-.14.13-.13.16S1,9.7.82,9.72s-.28.09-.28.17-.13.26-.38.26S0,9.89,0,9.37A12.75,12.75,0,0,1,.11,8,7.39,7.39,0,0,1,.39,6.9C.55,6.35.65,6,.68,5.82a.53.53,0,0,0-.08-.4c-.07-.1,0-.28.13-.54.35-.6.43-1,.25-1.33-.1-.14,0-.43.32-.85a.87.87,0,0,0,.15-.57,6.48,6.48,0,0,0,0-.65A1.91,1.91,0,0,1,1.81.42C1.92.22,2.3.09,3,0A7,7,0,0,1,3.92,0ZM3.53,2.11A.64.64,0,0,0,3.23,2C3.08,2,3,2,3,2.14A7.89,7.89,0,0,1,2.9,3.2,3,3,0,0,0,2.82,4a1.16,1.16,0,0,0,.41-.46,4.43,4.43,0,0,0,.22-.77C3.54,2.39,3.57,2.16,3.53,2.11Z"/><path class="cls-1" d="M11.33,1.84c.14.55.05.77-.29.65-.16-.06-.29,0-.41.22s-.25.13-.54,0c0,0-.11.11-.43.28a.23.23,0,0,1-.34-.09.64.64,0,0,0-.45-.26c-.22,0-.31.29-.28.92a3,3,0,0,0,.19,1.14c.21.42.47.54.77.38a1,1,0,0,0,.36-.23.51.51,0,0,1,.24-.18c.1,0,.16.15.2.54a6,6,0,0,1,0,.87c0,.19-.13.25-.33.17a.67.67,0,0,0-.49,0A.56.56,0,0,1,9,6.09a.32.32,0,0,0-.46.08A2.29,2.29,0,0,0,8.3,7.36c0,.64.06,1,.25,1a3,3,0,0,0,.51.11c.15,0,.3-.12.46-.39s.62-.46,1.16-.21c.24.12.27.38.09.79s-.31.73-.38.94-.34.37-.71.3-.59-.06-.6.08-.13.12-.37.09a.5.5,0,0,1-.46-.25c-.09-.2-.23-.15-.4.15s-.33.25-.45-.15c-.07-.21-.16-.26-.3-.13a1.19,1.19,0,0,1-.34.24.77.77,0,0,1-.43,0c-.19,0-.25-.21-.19-.56s.15-.9.27-1.65a5.62,5.62,0,0,1,.43-1.66A6.4,6.4,0,0,0,7,3.79,13.76,13.76,0,0,1,7,1.57c.08-.39.45-.5,1.13-.35a7.11,7.11,0,0,0,1.34.23.86.86,0,0,0,.49-.05c.07,0,.21-.18.43-.37s.46-.08.72.34A1.42,1.42,0,0,1,11.33,1.84Z"/><path class="cls-1" d="M16.55,1.51a1.25,1.25,0,0,1-.18.51,5.47,5.47,0,0,0-.31.47,6.39,6.39,0,0,1-.44.67c-.09,0-.21-.1-.38-.46-.06-.12-.14,0-.26.3a.67.67,0,0,0-.08.34.4.4,0,0,1-.15.29,1.65,1.65,0,0,0-.46.79c0,.13-.08.36-.15.68a4,4,0,0,1-.2.74A4.26,4.26,0,0,0,13.75,7c-.06.57,0,.89.08,1s.28,0,.52-.36c.09-.14.27-.17.54-.08.11,0,.13.39,0,1s-.15,1-.18,1.19a.53.53,0,0,1-.26.39.93.93,0,0,0-.31.26.55.55,0,0,0-.11.25.31.31,0,0,1-.11.21c-.13.13-.24.09-.33-.1a3.57,3.57,0,0,0-.81-.39,1.1,1.1,0,0,1-.64-.89c0-.19-.09-.28-.13-.27s-.09,0-.17-.11a1,1,0,0,1,0-.6,6.08,6.08,0,0,0,0-1.17,7.1,7.1,0,0,1,.25-1.87A5.72,5.72,0,0,1,12.61,4a14.78,14.78,0,0,0,.65-1.38c.35-.78.57-1.31.68-1.57s.22-.38.34-.35a2,2,0,0,0,.61,0,1.13,1.13,0,0,0,.63-.24,1.18,1.18,0,0,1,.6-.25c.26,0,.41.26.45.89A1.41,1.41,0,0,1,16.55,1.51Z"/><path class="cls-1" d="M21.78.29a1.24,1.24,0,0,1,.55.83q.18.65.27,1a1.25,1.25,0,0,1-.13.81A3.6,3.6,0,0,0,22.14,4,8.26,8.26,0,0,0,22,5.5a6.25,6.25,0,0,1-.09,1.22,4.74,4.74,0,0,0-.18.78,2.35,2.35,0,0,1-.41.87A1.7,1.7,0,0,0,21,9c0,.07-.07.24-.28.53s-.37.4-.5.34a1.52,1.52,0,0,0-.59-.09,1.06,1.06,0,0,0-.9.64c-.11.15-.24.15-.39,0a2.27,2.27,0,0,0-.56-.44c-.22-.13-.31-.09-.26.11a.29.29,0,0,1-.2.4c-.19.06-.32-.06-.4-.36a7.48,7.48,0,0,0-.32-1,4.86,4.86,0,0,1,.05-2.85,5.89,5.89,0,0,0,.12-2,9.57,9.57,0,0,1,0-1.72,1.32,1.32,0,0,1,.43-.81c.24-.23.48-.47.71-.72a1.62,1.62,0,0,1,.49-.43A6,6,0,0,1,19.1.42c.41-.07.94-.13,1.6-.19A1.71,1.71,0,0,1,21.78.29Zm-2.14,2q-.75-.51-.78.12a7.24,7.24,0,0,1-.25,1.25,6.87,6.87,0,0,0-.3,2.14c0,.45,0,.84,0,1.18s.1.52.32.52a2.54,2.54,0,0,1,.82.17c.33.11.53,0,.59-.36a3.89,3.89,0,0,1,.32-1,8.21,8.21,0,0,0,.41-1.14c.13-.43.21-.77.26-1a2.35,2.35,0,0,0,0-.87c-.1-.48-.3-.72-.62-.74A1.34,1.34,0,0,1,19.64,2.29Z"/><path class="cls-1" d="M26.64.65a3.13,3.13,0,0,1,.26,1A5.26,5.26,0,0,1,27,3.24a3.5,3.5,0,0,0,.1,1.39c.12.49.22.6.28.35s.22-.87.48-1.84.42-1.57.47-1.8A1.17,1.17,0,0,1,28.68.7.54.54,0,0,1,29.3.54a.52.52,0,0,0,.55,0A.73.73,0,0,1,30.38.4q.15,0,.33,1.32a.82.82,0,0,0,.16.41,1,1,0,0,1,.17.41A2.62,2.62,0,0,1,31,3a1.55,1.55,0,0,0,0,.6.73.73,0,0,0,.17.42.41.41,0,0,1,.14.28.8.8,0,0,1-.12.62A.52.52,0,0,0,31,5.3a9,9,0,0,0,.2,2.1c.18.95.28,1.59.31,1.92s0,.51-.17.55a.46.46,0,0,0-.3.34c-.07.21-.17.28-.31.21-.46-.22-.75-.23-.85,0s-.27.15-.45-.12a1.59,1.59,0,0,1-.17-1.11q.09-.72.12-1c0-.19,0-.51.05-1s0-1.6,0-3.47c-.25.51-.42.72-.51.65a.34.34,0,0,1-.14-.29c0-.11,0-.08-.11.11a1.77,1.77,0,0,0-.15.66l0,.75a2.71,2.71,0,0,1-.28,1.07,2.75,2.75,0,0,0-.24,1,5.19,5.19,0,0,1-.24,1.12c-.11.27-.22.42-.36.44A.61.61,0,0,0,27,9.4c-.35.38-.55.3-.61-.24a2,2,0,0,1,0-.7c0-.28,0-.56.07-.83a2.76,2.76,0,0,0-.07-.76,2.34,2.34,0,0,1-.08-.72c0-.62-.09-1-.32-1s-.18-.17-.12-.43a1.44,1.44,0,0,0,0-.6c-.08-.28-.27,0-.55.79a24.62,24.62,0,0,0-.66,2.56,16.91,16.91,0,0,1-.55,2.15q-.24.54-.6.3a.66.66,0,0,0-.56,0c-.24.1-.46.2-.65.3s-.18-.08,0-.5.28-.79.39-1.09A8.24,8.24,0,0,0,23,7.26a4.11,4.11,0,0,1,.64-1.87,2.85,2.85,0,0,0,.48-2.07,3.86,3.86,0,0,1,.13-1.41c.13-.55.23-1,.28-1.38S24.87.09,25.54.3,26.57.62,26.64.65Z"/><path class="cls-1" d="M35.78.54a1.23,1.23,0,0,1,1.09.87l.09.35.16.46a2.63,2.63,0,0,1,.07,1.13,5.88,5.88,0,0,1-.16,1,1.32,1.32,0,0,1-.16.39.71.71,0,0,0-.13.29,1.52,1.52,0,0,1-.16.4,1.06,1.06,0,0,0-.2.57c0,.09-.23.17-.67.23-.05,0-.12.08-.2.19a.42.42,0,0,1-.24.21c-.1,0-.17,0-.22-.13s-.12-.17-.21-.14a.35.35,0,0,0-.13.17.54.54,0,0,1-.14.19.17.17,0,0,1-.18.06.17.17,0,0,0-.14,0,3.78,3.78,0,0,0-.32,1.39,10.19,10.19,0,0,1-.25,1.46,2.13,2.13,0,0,1-.6.82c-.09.08-.15,0-.16-.07s-.09-.18-.23-.16-.29.08-.29.16H32c-.1,0-.16-.18-.16-.54A12.84,12.84,0,0,1,32,8.53a2,2,0,0,1,.17-.59,2.63,2.63,0,0,0,.18-.57A.5.5,0,0,0,32.24,7c-.07-.11,0-.29.13-.56a3.45,3.45,0,0,0,.36-.89,1,1,0,0,0,0-.69c-.1-.15,0-.44.3-.86a1.89,1.89,0,0,0,.2-.94,8.31,8.31,0,0,0,0-1A2.16,2.16,0,0,1,33.68.94c.12-.19.5-.31,1.13-.37A5.56,5.56,0,0,1,35.78.54ZM35.4,2.65a1.82,1.82,0,0,0-.35-.17q-.3-.12-.27.06a10.4,10.4,0,0,1-.17,1.1,7.39,7.39,0,0,0-.15,1c0,.06.09,0,.27-.14a1.3,1.3,0,0,0,.36-.42,4,4,0,0,0,.21-.79A2.76,2.76,0,0,0,35.4,2.65Z"/><path class="cls-1" d="M43.19,1.84c.15.55.05.77-.29.65-.16-.06-.29,0-.41.22s-.25.13-.54,0c0,0-.11.11-.43.28a.23.23,0,0,1-.34-.09.64.64,0,0,0-.45-.26c-.22,0-.31.29-.28.92a3,3,0,0,0,.19,1.14c.21.42.47.54.77.38a1,1,0,0,0,.36-.23A.49.49,0,0,1,42,4.66c.09,0,.16.15.19.54a6,6,0,0,1,0,.87c0,.19-.13.25-.33.17a.66.66,0,0,0-.49,0,.56.56,0,0,1-.59-.11.32.32,0,0,0-.46.08,2.4,2.4,0,0,0-.22,1.19c0,.64.06,1,.26,1a2.86,2.86,0,0,0,.5.11c.15,0,.3-.12.46-.39s.62-.46,1.16-.21c.24.12.27.38.09.79s-.3.73-.38.94-.34.37-.71.3-.59-.06-.6.08-.12.12-.37.09a.5.5,0,0,1-.46-.25c-.09-.2-.23-.15-.4.15s-.33.25-.45-.15c-.07-.21-.16-.26-.3-.13a1.19,1.19,0,0,1-.34.24.73.73,0,0,1-.42,0c-.19,0-.26-.21-.19-.56s.15-.9.26-1.65a5.62,5.62,0,0,1,.43-1.66,6.18,6.18,0,0,0,.14-2.36,13.76,13.76,0,0,1,0-2.22c.08-.39.45-.5,1.13-.35a7.34,7.34,0,0,0,1.35.23.84.84,0,0,0,.48-.05L42.21,1c.22-.19.46-.08.71.34A1.26,1.26,0,0,1,43.19,1.84Z"/><path class="cls-1" d="M46.64.35a1.45,1.45,0,0,0,.39,0c.22,0,.36.19.45.63a1.26,1.26,0,0,0,.14.44,2,2,0,0,1,.17.43,1.82,1.82,0,0,1-.14.91,3.62,3.62,0,0,0-.2,1,5.29,5.29,0,0,0,.23,1.4c.18.72.32.92.4.6s.16-.75.25-1.32a6.82,6.82,0,0,1,.27-1.22,1.93,1.93,0,0,0,.1-.92A3.66,3.66,0,0,1,48.81,1,2.81,2.81,0,0,1,49,.42l.31,0a9.81,9.81,0,0,1,1-.07c.5,0,.75.07.76.24A.61.61,0,0,1,51,.89s0,.14.06.3,0,.46-.24.91a9.93,9.93,0,0,0-.43,1c-.08.21-.1.32-.07.32s.06.16.06.45a1.52,1.52,0,0,1-.12.69,2.36,2.36,0,0,0-.2.57,2.07,2.07,0,0,0-.07.53,2.37,2.37,0,0,1-.07.56c-.06.27-.11.45-.13.52l-.19.83a12.52,12.52,0,0,0-.24,1.53c0,.53-.06.84-.06.94s-.12.27-.28.09-.3-.09-.54,0-.24.06-.27-.06-.08-.18-.15-.18a1.13,1.13,0,0,0-.44.33c-.09.11-.19,0-.29-.32a3.52,3.52,0,0,1-.15-1c0-.34,0-.53-.06-.55a.46.46,0,0,0-.23,0c-.12,0-.16-.22-.1-.69a6.19,6.19,0,0,0,.07-1c0-.16-.06-.22-.13-.18s-.12,0-.12-.17-.07-.59-.14-1.29a8.69,8.69,0,0,1-.07-1.33c0-.41-.09-.46-.32-.14a2,2,0,0,0-.26,1,6,6,0,0,1-.12,1.16,13.06,13.06,0,0,1-.5,1.8,2.83,2.83,0,0,0-.16.82c0,.26,0,.62-.11,1.08a1.79,1.79,0,0,1-.24.84.29.29,0,0,1-.33,0q-.16,0-.3.18c-.1.15-.16.2-.19.14a.4.4,0,0,0-.21-.19.55.55,0,0,0-.56.08c-.15.12-.17-.1,0-.68a4.94,4.94,0,0,1,.29-1,3,3,0,0,0,.19-.92c.06-.51.1-.93.12-1.23s.07-.62.12-1A1.21,1.21,0,0,1,44.15,5a1,1,0,0,0,.21-.8,1.93,1.93,0,0,0-.13-.77c-.1-.18,0-.43.33-.75a1.45,1.45,0,0,0,.34-.82,2.67,2.67,0,0,0,0-.81c-.1-.48.15-.74.76-.79a2.62,2.62,0,0,1,.75,0Z"/><path class="cls-1" d="M56.46,1.45a.36.36,0,0,1-.14.39q-.26.21-.27.3a3,3,0,0,1-.16.49,1,1,0,0,1-.27.42c-.12.06-.2.05-.26,0a.32.32,0,0,0-.23-.15c-.1,0-.16,0-.19.06s-.1.06-.21.06a1.1,1.1,0,0,0-.57.22.49.49,0,0,0-.13.52c.06.23.11.43.16.59a6.62,6.62,0,0,0,.75,1.37,3.07,3.07,0,0,1,.34,1.22c.06.53.09.88.09,1.06a2.7,2.7,0,0,1-.31.93,4.74,4.74,0,0,1-.53.91q-.22.27-.24.21s-.12,0-.33.09-.31.16-.28.19,0,.08-.15.14a1,1,0,0,1-.55.1,5.28,5.28,0,0,1-.53,0,.5.5,0,0,1-.31-.09.48.48,0,0,0-.29-.1c-.13,0-.18.06-.17.18a.31.31,0,0,1-.07.27c-.07.06-.15.05-.22,0a.39.39,0,0,1-.06-.37,1.49,1.49,0,0,1,.06-.31s0-.15-.11-.34A1,1,0,0,1,51.21,9c0-.25.08-.45.12-.61s0-.19-.08-.16-.11,0-.13-.2c-.08-.39.25-.73,1-1,.27-.1.42-.09.45,0a3,3,0,0,0,.08.32.61.61,0,0,1,0,.39.42.42,0,0,0,0,.42c.06.16.2.16.4,0a1.37,1.37,0,0,0,.42-.42c.11-.2,0-.45-.22-.74,0,0-.05-.21,0-.53A.76.76,0,0,0,53,6.09a.41.41,0,0,0-.24-.16c-.09,0-.15-.11-.19-.25a4.69,4.69,0,0,1-.07-.63,1.6,1.6,0,0,0-.15-.63,2,2,0,0,1,0-.95,5.84,5.84,0,0,1,.33-1.19c.21-.61.36-1,.44-1.17s.24-.25.54-.28a1.36,1.36,0,0,0,.73-.27A.94.94,0,0,1,55,.42c.25,0,.48.06.69.08s.43.25.65.72C56.38,1.31,56.43,1.38,56.46,1.45Z"/><path class="cls-1" d="M60.62,2a3.21,3.21,0,0,0,0,1.1,5.27,5.27,0,0,0,.11.59,2.28,2.28,0,0,1,0,.72,2.48,2.48,0,0,1-.11.63,2.85,2.85,0,0,0,0,.83,14.52,14.52,0,0,1,.07,1.54,4.61,4.61,0,0,1-.07,1.07c-.06.16-.13.25-.19.27a1,1,0,0,0-.3.31c-.13.18-.17.27-.11.25s0,0-.24.16l-.35.19a1.05,1.05,0,0,1-.23-.07c-.15,0-.24-.08-.26-.16s-.1-.12-.22-.12-.2-.09-.26-.26a.63.63,0,0,1,0-.47.75.75,0,0,0,0-.62c-.08-.14-.23-.12-.44,0a2.1,2.1,0,0,0-.45.45,2.22,2.22,0,0,0-.23.68.7.7,0,0,1-.39.59q-.32.15-.36.12a.58.58,0,0,0-.28,0c-.17,0-.25.08-.22.15s0,.1-.1.11-.26-.17-.26-.61V8.81A1.23,1.23,0,0,1,56,8a2,2,0,0,0,.36-.82,7.23,7.23,0,0,0,.13-.77,1.24,1.24,0,0,1,.37-.82A1.24,1.24,0,0,0,57.2,5c0-.27.09-.51.13-.73s.08-.34.15-.36.16-.1.24-.25a.34.34,0,0,0,.07-.3c0-.06,0-.14.14-.23a1.2,1.2,0,0,0,.24-.72,3.7,3.7,0,0,1,.3-1.06A.92.92,0,0,1,59.29.8a7,7,0,0,1,1-.08c.24,0,.37.3.38.9A2.4,2.4,0,0,1,60.62,2ZM58.89,4.57,58.36,6a1.46,1.46,0,0,0,.39,0A.38.38,0,0,0,59,5.9Z"/><path class="cls-1" d="M66.66,1.45a.35.35,0,0,1-.15.39q-.26.21-.27.3a2.25,2.25,0,0,1-.16.49.92.92,0,0,1-.26.42c-.12.06-.21.05-.27,0a.28.28,0,0,0-.23-.15.25.25,0,0,0-.19.06.25.25,0,0,1-.2.06,1.1,1.1,0,0,0-.57.22.49.49,0,0,0-.13.52c0,.23.11.43.16.59a6,6,0,0,0,.74,1.37,2.92,2.92,0,0,1,.34,1.22c.06.53.09.88.09,1.06a2.49,2.49,0,0,1-.31.93,3.87,3.87,0,0,1-.53.91c-.15.18-.22.25-.24.21s-.12,0-.33.09-.3.16-.28.19,0,.08-.15.14a1,1,0,0,1-.54.1,5,5,0,0,1-.53,0,.5.5,0,0,1-.31-.09.49.49,0,0,0-.3-.1c-.12,0-.18.06-.16.18a.35.35,0,0,1-.07.27c-.08.06-.15.05-.23,0a.45.45,0,0,1-.06-.37,1.49,1.49,0,0,1,.06-.31s0-.15-.11-.34A1,1,0,0,1,61.4,9l.12-.61c0-.13,0-.19-.07-.16s-.11,0-.13-.2c-.08-.39.24-.73,1-1,.28-.1.43-.09.45,0l.09.32a.69.69,0,0,1-.06.39.48.48,0,0,0,0,.42c.07.16.2.16.41,0a1.5,1.5,0,0,0,.42-.42c.1-.2,0-.45-.22-.74,0,0-.06-.21,0-.53a.76.76,0,0,0-.21-.44.47.47,0,0,0-.25-.16c-.09,0-.15-.11-.18-.25a4.32,4.32,0,0,1-.08-.63,1.63,1.63,0,0,0-.14-.63,2.13,2.13,0,0,1-.05-.95,5.84,5.84,0,0,1,.33-1.19c.22-.61.36-1,.45-1.17s.24-.25.54-.28a1.4,1.4,0,0,0,.73-.27.93.93,0,0,1,.66-.14c.26,0,.49.06.7.08s.43.25.65.72Z"/></g></g></svg>