<svg xmlns="http://www.w3.org/2000/svg" viewBox="0 0 103.76 24.95"><defs><style>.cls-1{fill:#ff00e7;}</style></defs><g id="Layer_2" data-name="Layer 2"><g id="Layer_1-2" data-name="Layer 1"><path class="cls-1" d="M3.55,2a1.17,1.17,0,0,1,.68-.48,5.33,5.33,0,0,0,.87-.3A2,2,0,0,0,5.84.52,1.13,1.13,0,0,1,6.64,0,4.92,4.92,0,0,1,8.38.87,3.32,3.32,0,0,0,9,1.2a1.85,1.85,0,0,1,.61.39c.39.1.37.44-.05,1a6.89,6.89,0,0,0-1,2.31c-.28,1-.53,2-.75,3.06a7.73,7.73,0,0,0-.15,2.68q.06.75,1.35.84A3.4,3.4,0,0,0,10.7,11q1.46-1,1.47-4.14a19.17,19.17,0,0,1,.43-4.66c.22-.75.63-1.09,1.26-1A5.56,5.56,0,0,1,16,1.77c.67.29.78.69.32,1.17a3.34,3.34,0,0,0-.67,2.27,16.79,16.79,0,0,1-.37,3.35c-.25,1.21-.55,2.63-.89,4.24a36.87,36.87,0,0,0-.74,4.48c-.13,1.36-.21,2.52-.25,3.48s-.08,1.54-.1,1.69a1.61,1.61,0,0,1-.33.61.64.64,0,0,1-.64.12.93.93,0,0,0-.84.27,3.44,3.44,0,0,1-1.77.85c-.58.07-.84-.09-.77-.49A8.58,8.58,0,0,0,9,22.6V21.21a5.18,5.18,0,0,1,.25-1.56c.17-.54.33-1.06.46-1.58a13.68,13.68,0,0,0,.3-2,7.5,7.5,0,0,0,.05-1.57.26.26,0,0,0-.1-.21,1.78,1.78,0,0,0-.19.3q-.09.3-.63.27a2.78,2.78,0,0,1-.76-.12,1.18,1.18,0,0,0-.22.69c0,.36-.26.52-.78.49s-.69-.32-.54-.85a.92.92,0,0,0-.52-1.23l0,0c-.24.14-.36.78-.37,1.92a10.28,10.28,0,0,1-.34,2.8,9.65,9.65,0,0,0-.38,2.65A14.1,14.1,0,0,1,5,23.72c-.19.72-.48.94-.85.66s-.66-.26-.86.06a.71.71,0,0,1-.87.25,2.53,2.53,0,0,1-.87-.4,3.19,3.19,0,0,1-.67.51c-.13,0-.22,0-.26,0s-.13,0-.26,0c-.56.16-.47-.48.26-1.92a7.21,7.21,0,0,0,.61-2.44q.17-1.53.36-2.64c.12-.74.24-1.69.35-2.84a31.38,31.38,0,0,1,.45-3.17c.2-1,.43-2.09.69-3.4a21.82,21.82,0,0,0,.47-3.27,4.58,4.58,0,0,0-.21-1.93A1.16,1.16,0,0,1,3.55,2Z"/><path class="cls-1" d="M23,1c1.21.3,1.85.7,1.94,1.19a41.58,41.58,0,0,1,.13,4.58,7.22,7.22,0,0,1-.12,1.19,8.28,8.28,0,0,0-.11,1c0,.2,0,.32-.13.34s-.19.15-.32.39a5.29,5.29,0,0,0-.3,1.87c-.06,1-.09,1.65-.09,2s0,.56-.12.53-.21.09-.36.35a8.49,8.49,0,0,0-.24,2.6,15.7,15.7,0,0,0,.08,2.51c0,.12-.16.46-.55,1-.19.3-.26.49-.21.56s0,.17-.27.29a2.83,2.83,0,0,0-.84,1.07,2.3,2.3,0,0,1-1.06.86,2.26,2.26,0,0,1-1,.24.94.94,0,0,0-.67.24,1.26,1.26,0,0,0-.41.39c0,.09-.17.18-.43.26-.47.1-.72-.1-.74-.61a2.27,2.27,0,0,1,0-.86c0-.22.11-.77.19-1.63s.14-1.5.17-1.88a3.66,3.66,0,0,1,.59-1.64A6.76,6.76,0,0,0,18.94,16a1.69,1.69,0,0,0,.06-.92,2.86,2.86,0,0,1-.09-.88,15.33,15.33,0,0,1,.65-3.29A25.17,25.17,0,0,1,20.42,8a4.45,4.45,0,0,0,.16-.85c0-.37,0-.62-.13-.74s-.2-.89-.15-2.4A11.36,11.36,0,0,1,20.71.9c.19-.53.32-.72.38-.58S21.79.68,23,1Z"/><path class="cls-1" d="M39.28,2.87c.13.32,0,.64-.35.95s-.63.56-.65.71a9.89,9.89,0,0,1-.38,1.15,1.83,1.83,0,0,1-.68,1c-.28.17-.49.14-.64-.08A.77.77,0,0,0,36,6.22q-.36,0-.48.12A.65.65,0,0,1,35,6.5,3,3,0,0,0,33.62,7a1,1,0,0,0-.31,1.2c.14.54.27,1,.4,1.42a13.56,13.56,0,0,0,1.84,3.26,7.33,7.33,0,0,1,.83,2.87c.15,1.25.23,2.09.23,2.52a6.07,6.07,0,0,1-.77,2.19,10.64,10.64,0,0,1-1.32,2.15c-.37.44-.56.61-.58.53s-.29,0-.81.19-.77.38-.71.47-.06.2-.39.33a3.49,3.49,0,0,1-1.31.15l-1.32,0a2,2,0,0,1-.77-.23,1.47,1.47,0,0,0-.72-.17c-.32,0-.46.13-.41.38a.67.67,0,0,1-.2.63c-.19.13-.38.09-.56-.12a.91.91,0,0,1-.15-.86,4.49,4.49,0,0,1,.16-.69c.05-.09,0-.37-.25-.82a2.36,2.36,0,0,1-.2-1.55c.11-.59.21-1.06.29-1.41s0-.49-.16-.43-.29-.09-.35-.46.15-.79.64-1.28a4.88,4.88,0,0,1,1.77-1.09c.66-.25,1-.23,1.1,0s.14.54.22.79a1.32,1.32,0,0,1-.13.89,1.12,1.12,0,0,0,.07,1c.2.35.53.34,1,0a3.93,3.93,0,0,0,1-1c.28-.51.1-1.08-.55-1.72-.1-.09-.14-.51-.09-1.26a1.77,1.77,0,0,0-.49-1.05,1.39,1.39,0,0,0-.62-.37.66.66,0,0,1-.44-.59c-.06-.31-.13-.8-.19-1.49a4.12,4.12,0,0,0-.36-1.49,4,4,0,0,1-.13-2.22,16.43,16.43,0,0,1,.84-2.87c.52-1.43.87-2.36,1.06-2.77s.63-.59,1.35-.68A4,4,0,0,0,34,.77,2.3,2.3,0,0,1,35.67.44a10.9,10.9,0,0,0,1.71.14c.52.05,1,.63,1.58,1.76A1.78,1.78,0,0,1,39.28,2.87Z"/><path class="cls-1" d="M51.8.76c.3.12.44.74.42,1.84a1.43,1.43,0,0,1-.68,1.1q-.48.33-.33.6a1.61,1.61,0,0,1,0,.9c-.09.43-.19.64-.31.64a2,2,0,0,0-.5.09,4.24,4.24,0,0,0-.93.4,1,1,0,0,1-.71.14.51.51,0,0,0-.52.14A1.43,1.43,0,0,0,48,7a1.49,1.49,0,0,1-.28.41,8.73,8.73,0,0,0-.49,2.68c-.17,1.6-.29,2.64-.35,3.11a2.86,2.86,0,0,1-.44,1.06,8.65,8.65,0,0,0-.56.81,1.47,1.47,0,0,0-.21,1c0,.34.1.69.14,1.06a3.78,3.78,0,0,1-.24,1.44,4.06,4.06,0,0,0-.24,1.38c0,.36-.09.57-.27.61s-.37.23-.57.58-.25.55-.17.63,0,.25-.21.53-.4.44-.5.38-.23,0-.4.17a2.66,2.66,0,0,0-.4.45.87.87,0,0,1-.44.26,3,3,0,0,0-.71.29,5.37,5.37,0,0,1-.93.38c-.52.14-.82-.27-.91-1.25a3,3,0,0,1,.65-2,.94.94,0,0,0-.06-.94,2.86,2.86,0,0,1-.33-1c0-.18.19-.62.71-1.32a4.35,4.35,0,0,0,.52-2,3.26,3.26,0,0,1,.51-1.56A20.24,20.24,0,0,0,43,10.51q.82-3.13,1-3.63a.92.92,0,0,0,0-.73q-.87.21-1.26.27a4.16,4.16,0,0,0-.87.55c-.51.37-.77.11-.77-.79a5.42,5.42,0,0,1,.21-1.38,7.41,7.41,0,0,0,.24-1.65,3.62,3.62,0,0,1,.84-1.93c.3-.43.6-.59.9-.49a2.91,2.91,0,0,0,1.22.06L49.68.46A14,14,0,0,1,51.8.76Z"/><path class="cls-1" d="M66.51.58A3,3,0,0,1,67.9,2.51c.3,1,.51,1.78.64,2.36a2.83,2.83,0,0,1-.32,1.91,9.26,9.26,0,0,0-.81,2.54,19,19,0,0,0-.29,3.39,10.36,10.36,0,0,1-.29,2.81,13.57,13.57,0,0,0-.4,1.83,5,5,0,0,1-1,2c-.61.83-.89,1.31-.86,1.45s-.19.54-.69,1.21-.94.93-1.27.79a3.82,3.82,0,0,0-1.43-.21,2.72,2.72,0,0,0-2.26,1.48c-.25.36-.58.35-1,0a7.17,7.17,0,0,0-1.36-1c-.55-.28-.78-.19-.66.27a.64.64,0,0,1-.5.88c-.49.14-.82-.14-1-.82a15.47,15.47,0,0,0-.78-2.24c-.71-1.63-.66-3.86.13-6.68a13.5,13.5,0,0,0,.26-4.74,17.16,17.16,0,0,1-.06-4,2.93,2.93,0,0,1,1.06-1.89c.6-.52,1.19-1.07,1.77-1.68a4.62,4.62,0,0,1,1.18-1A16.16,16.16,0,0,1,59.91.88Q61.43.67,63.84.43A4.77,4.77,0,0,1,66.51.58ZM61.2,5.23c-1.23-.84-1.85-.74-1.87.31a19,19,0,0,1-.68,2.9,17.1,17.1,0,0,0-.74,5c.09,1,.12,1.94.12,2.74s.25,1.19.81,1.19a6.92,6.92,0,0,1,2,.39c.82.27,1.31,0,1.49-.81a8.54,8.54,0,0,1,.77-2.3,19.54,19.54,0,0,0,1-2.66c.3-1,.51-1.79.64-2.35a4.76,4.76,0,0,0-.06-2c-.24-1.08-.75-1.65-1.53-1.68A3.28,3.28,0,0,1,61.2,5.23Z"/><path class="cls-1" d="M78.52.21a2.9,2.9,0,0,1,2.7,2c.13.44.21.71.23.8s.15.44.38,1.06A5.64,5.64,0,0,1,82,6.66,16.8,16.8,0,0,1,81.61,9a3.3,3.3,0,0,1-.37.9,1.87,1.87,0,0,0-.31.69,2,2,0,0,0-.16.52,2.49,2.49,0,0,1-.26.41A2.26,2.26,0,0,0,80,12.8a.52.52,0,0,1-.6.5,7.38,7.38,0,0,0-1.05,0q-.57.12-.48,1.11a18.73,18.73,0,0,0,.82,2.93,9.47,9.47,0,0,1,.7,2.93c-.06.36-.14.54-.23.55a1.6,1.6,0,0,0-.45.2c-.26.14-.34.28-.23.43a.58.58,0,0,1,0,.62,1.06,1.06,0,0,1-.87.74,2.18,2.18,0,0,0-.93.54c-.2.2-.53.22-1,.06q-.45-.09-.24-.72a3.05,3.05,0,0,0,.17-1.16c0-.36-.14-.89-.28-1.57s-.27-1.18-.36-1.48c-.21-.78-.34-3-.56-2.91a14.28,14.28,0,0,0-1.27,3.76,11,11,0,0,1-.29,1.83c-.14.23.11.37-.23.44a2.15,2.15,0,0,0-.84.35c-.25.17-.37.3-.35.37s-.16.13-.55.16-.71.21-.71.39q0,.6-.93.6c-.26,0-.39-.6-.39-1.79a13.28,13.28,0,0,1,.1-1.65c.06-.56.13-1.05.19-1.5a15.87,15.87,0,0,1,.68-2.52c.4-1.27.64-2.09.71-2.47a1.18,1.18,0,0,0-.18-.93c-.18-.24-.08-.65.31-1.25.88-1.38,1.09-2.4.64-3.05-.28-.36,0-1,.77-1.95a2,2,0,0,0,.39-1.33c0-.53-.06-1-.1-1.48a1.88,1.88,0,0,1,.21-1.21l.76-1.24c.3-.46,1.24-.75,2.83-.87A12.47,12.47,0,0,1,78.52.21ZM78.09,5a3.16,3.16,0,0,0-1.34-.38c-.71-.11-1,0-.94.47a20.75,20.75,0,0,1-.51,3.71c-.39,2-.5,3-.35,2.84s.37-.27.77-.54A3.81,3.81,0,0,0,76.78,10a18.82,18.82,0,0,0,.94-2.71C78.12,5.92,78.25,5.15,78.09,5Z"/><path class="cls-1" d="M87.94,1.19c1.2.28,1.85.66,1.94,1.11A39.58,39.58,0,0,1,90,6.61a7.67,7.67,0,0,1-.12,1.12,5.63,5.63,0,0,0-.11.92c0,.19,0,.29-.13.31s-.2.15-.32.38A4.58,4.58,0,0,0,89,11.09c0,.91-.08,1.55-.08,1.89s0,.53-.13.5-.2.08-.35.33a7.51,7.51,0,0,0-.24,2.44,13.89,13.89,0,0,0,.08,2.36c0,.11-.17.43-.55.95-.2.28-.26.46-.21.53s0,.15-.27.27a2.75,2.75,0,0,0-.84,1,2.25,2.25,0,0,1-1.06.8,2.46,2.46,0,0,1-1,.24,1,1,0,0,0-.68.22,1.21,1.21,0,0,0-.4.36c0,.09-.18.17-.43.25-.48.09-.72-.1-.75-.58a2,2,0,0,1,0-.8c0-.21.1-.72.19-1.54s.14-1.4.16-1.76a3.34,3.34,0,0,1,.6-1.54,6.14,6.14,0,0,0,.76-1.67,1.72,1.72,0,0,0,.06-.87,2.5,2.5,0,0,1-.1-.83,14.41,14.41,0,0,1,.66-3.08,21.72,21.72,0,0,1,.86-2.75A4.48,4.48,0,0,0,85.53,7c0-.36,0-.59-.13-.71s-.2-.82-.15-2.25a10,10,0,0,1,.41-2.94c.19-.5.32-.68.38-.55A5,5,0,0,0,87.94,1.19Z"/><path class="cls-1" d="M91.8,20.3a3,3,0,0,1-.2-1.83c.14-.23.5-.81,1.12-1.74s.88-1.53.82-1.79a1.7,1.7,0,0,0-.17-.41,3.15,3.15,0,0,1,.1-.59c.07-.37.15-.79.26-1.25a5.13,5.13,0,0,0,.16-1.11c0-.24.06-.39.17-.43s.2-.2.28-.5a5.24,5.24,0,0,1,.94-1.73,5.29,5.29,0,0,0,.55-1.34,8.36,8.36,0,0,0,.23-1.17,2.25,2.25,0,0,1,.44-1.09A2,2,0,0,1,97,4.74a1.27,1.27,0,0,0,.37-.48,11.52,11.52,0,0,0,.55-1.33,8,8,0,0,1,.21-1.07,1.59,1.59,0,0,1,.59-1,3.38,3.38,0,0,1,1.9-.31,8.16,8.16,0,0,1,.81.1,2,2,0,0,0,.51,0,2.67,2.67,0,0,1,1,.23,1.06,1.06,0,0,1,.72.79,1.23,1.23,0,0,1,0,.79,1.07,1.07,0,0,0-.06.67q.06.44.21.42c.1,0,.08.26,0,.82a2.51,2.51,0,0,0-.13,1.18,1.53,1.53,0,0,1,0,.74,2.11,2.11,0,0,1-.29.68,1,1,0,0,0-.13.66,2.15,2.15,0,0,0,.12.77,1.56,1.56,0,0,1-.08.9,12.5,12.5,0,0,0-.29,2.51c-.07,1.24-.1,2.11-.1,2.61a6.06,6.06,0,0,1-.15,1.24c-.07.31-.14.68-.21,1.12a5.16,5.16,0,0,0,0,1.36,8.13,8.13,0,0,1,.1,1.24,3.72,3.72,0,0,1-.35,2c-.2.24-.36.31-.5.18s-.32-.09-.53.1a.78.78,0,0,1-1.13,0A2,2,0,0,0,98.82,21c-.69,0-.88-.25-.58-.87a9.71,9.71,0,0,0,.32-1.38c.13-.7.1-1-.09-1a10.9,10.9,0,0,0-1.16.08c-.54.05-.87.19-1,.44a11.52,11.52,0,0,0-.51,2c-.22,1.08-.46,1.7-.71,1.86a1.14,1.14,0,0,1-.6.27c-.14,0-.3.1-.5.35s-.35.39-.34.44-.19.06-.6.06-.67.05-.67.15-.13.21-.39.31c-.47.19-.77.24-.9.16s-.16-.18-.09-.34A8.11,8.11,0,0,0,91.8,20.3Zm6.09-9.62A15.73,15.73,0,0,0,97.73,13c.66.27,1.13.29,1.41.07s.45-.81.52-1.75c0-.54.07-2.07.1-4.59A12.57,12.57,0,0,0,97.89,10.68Z"/></g></g></svg>