<svg xmlns="http://www.w3.org/2000/svg" viewBox="0 0 28.31 10.79"><defs><style>.cls-1{fill:#ff00e7;}</style></defs><g id="Layer_2" data-name="Layer 2"><g id="Layer_1-2" data-name="Layer 1"><path class="cls-1" d="M5.35,1.45a.34.34,0,0,1-.14.39q-.25.21-.27.3a3,3,0,0,1-.16.49.84.84,0,0,1-.27.42c-.12.06-.2.05-.26,0A.32.32,0,0,0,4,2.86c-.1,0-.16,0-.19.06S3.73,3,3.62,3a1.1,1.1,0,0,0-.57.22.49.49,0,0,0-.12.52c0,.23.1.43.15.59a6.62,6.62,0,0,0,.75,1.37A3.07,3.07,0,0,1,4.17,6.9c.06.53.09.88.09,1.06A2.7,2.7,0,0,1,4,8.89a4.26,4.26,0,0,1-.53.91q-.22.27-.24.21s-.12,0-.33.09-.31.16-.28.19,0,.08-.15.14a1,1,0,0,1-.55.1c-.22,0-.4,0-.53,0A.5.5,0,0,1,1,10.4a.46.46,0,0,0-.29-.1c-.13,0-.18.06-.17.18a.28.28,0,0,1-.07.27c-.07.06-.15.05-.22,0a.42.42,0,0,1-.06-.37A1.49,1.49,0,0,1,.28,10s0-.15-.11-.34A1,1,0,0,1,.1,9c0-.25.08-.45.12-.61s0-.19-.07-.16S0,8.23,0,8.07c-.07-.39.25-.73,1-1,.27-.1.42-.09.45,0a1.68,1.68,0,0,0,.09.32.69.69,0,0,1-.06.39.45.45,0,0,0,0,.42c.06.16.2.16.4,0a1.37,1.37,0,0,0,.42-.42c.11-.2,0-.45-.22-.74,0,0-.05-.21,0-.53a.76.76,0,0,0-.21-.44.41.41,0,0,0-.24-.16c-.09,0-.15-.11-.18-.25a3.25,3.25,0,0,1-.08-.63,1.44,1.44,0,0,0-.15-.63,2,2,0,0,1,0-.95A5.84,5.84,0,0,1,1.5,2.28c.21-.61.36-1,.44-1.17s.25-.25.54-.28A1.36,1.36,0,0,0,3.21.56.94.94,0,0,1,3.88.42c.25,0,.48.06.69.08s.43.25.65.72A1.42,1.42,0,0,1,5.35,1.45Z"/><path class="cls-1" d="M9.94,1.13a.8.8,0,0,1,.09.62,1.65,1.65,0,0,1-.17.52.45.45,0,0,0-.08.33,1.43,1.43,0,0,1,0,.4c0,.16-.09.2-.19.14A.68.68,0,0,0,9.24,3a1,1,0,0,0-.68.3.58.58,0,0,0-.12.48,3.64,3.64,0,0,1,0,.46s-.06.06-.2.28a2,2,0,0,0-.12.79c0,.42,0,.7,0,.86s0,.24-.06.22S8,6.45,8,6.56a3.39,3.39,0,0,0-.12,1.11,4.8,4.8,0,0,0,0,1.07s-.07.19-.23.41-.11.2-.08.24,0,.06-.11.11a1.35,1.35,0,0,0-.34.42,1,1,0,0,1-.43.34.92.92,0,0,1-.38.07A.35.35,0,0,0,6,10.4a.52.52,0,0,0-.17.17s-.08.08-.18.1-.29-.06-.32-.3a.94.94,0,0,1,0-.37,3.72,3.72,0,0,0,.09-.68c0-.37.06-.64.07-.81a1.59,1.59,0,0,1,.24-.67,2.5,2.5,0,0,0,.31-.74.77.77,0,0,0,0-.39,1.51,1.51,0,0,1,0-.38A5.66,5.66,0,0,1,6.34,5c.19-.74.31-1.14.34-1.22.13-.34.14-.57,0-.68s-.31-.06-.6.1a.57.57,0,0,1-.44,0q-.2,0-.15-.36c0-.22,0-.4,0-.52a3.15,3.15,0,0,1,.12-.87A.8.8,0,0,1,6.44.84a7.4,7.4,0,0,1,1.3,0A9.68,9.68,0,0,0,9.28.75,1.18,1.18,0,0,1,9.94,1.13Z"/><path class="cls-1" d="M16.1.29a1.21,1.21,0,0,1,.56.83q.16.65.27,1a1.26,1.26,0,0,1-.14.81A3.93,3.93,0,0,0,16.47,4a7.41,7.41,0,0,0-.13,1.46,5.43,5.43,0,0,1-.1,1.22q-.12.43-.18.78a2.46,2.46,0,0,1-.4.87c-.25.35-.36.56-.34.63s-.08.24-.28.53-.37.4-.51.34A1.46,1.46,0,0,0,14,9.78a1.09,1.09,0,0,0-.91.64c-.1.15-.23.15-.39,0a2.27,2.27,0,0,0-.56-.44c-.22-.13-.3-.09-.25.11a.3.3,0,0,1-.21.4q-.29.09-.39-.36a9.32,9.32,0,0,0-.32-1A4.77,4.77,0,0,1,11,6.28a6.14,6.14,0,0,0,.12-2,8.69,8.69,0,0,1,0-1.72,1.31,1.31,0,0,1,.42-.81q.38-.34.72-.72a1.63,1.63,0,0,1,.48-.43,6,6,0,0,1,.75-.14c.42-.07.95-.13,1.6-.19A1.69,1.69,0,0,1,16.1.29ZM14,2.29c-.49-.34-.75-.3-.77.12a7.6,7.6,0,0,1-.26,1.25,7.55,7.55,0,0,0-.3,2.14c0,.45,0,.84,0,1.18s.1.52.33.52a2.44,2.44,0,0,1,.81.17q.49.17.6-.36a3.87,3.87,0,0,1,.31-1,7.09,7.09,0,0,0,.41-1.14c.13-.43.22-.77.27-1a2.38,2.38,0,0,0,0-.87c-.09-.48-.3-.72-.62-.74A1.36,1.36,0,0,1,14,2.29Z"/><path class="cls-1" d="M20.72,0a1.27,1.27,0,0,1,1.1.89l.09.34s.07.19.16.45a2.7,2.7,0,0,1,.07,1.14,5.73,5.73,0,0,1-.16,1,1.61,1.61,0,0,1-.16.4.66.66,0,0,0-.13.28,1.69,1.69,0,0,1-.16.41,1.1,1.1,0,0,0-.22.56c0,.08-.23.16-.65.23-.16,0-.22.19-.19.48a6.48,6.48,0,0,0,.33,1.28,3.85,3.85,0,0,1,.27,1.27.47.47,0,0,1-.27.33c-.09.07-.12.13-.08.19a.28.28,0,0,1,0,.26.43.43,0,0,1-.35.33.86.86,0,0,0-.38.24c-.07.08-.2.09-.39,0s-.16-.13-.11-.31a1.61,1.61,0,0,0,.09-.51A7.36,7.36,0,0,0,19.28,8c-.08-.33-.17-.48-.25-.42s-.18.31-.25.76a5.93,5.93,0,0,1-.16.82.4.4,0,0,1-.29.21,1.11,1.11,0,0,0-.35.14c-.09.07-.14.13-.13.16s-.07.06-.22.08-.28.09-.28.17-.13.26-.38.26-.16-.26-.16-.78A12.75,12.75,0,0,1,16.92,8,7.39,7.39,0,0,1,17.2,6.9c.16-.55.26-.91.29-1.08a.53.53,0,0,0-.08-.4c-.07-.1,0-.28.13-.54.35-.6.43-1,.25-1.33-.1-.14,0-.43.32-.85a.87.87,0,0,0,.15-.57c0-.23,0-.45,0-.65a1.91,1.91,0,0,1,.4-1.06c.11-.2.49-.33,1.14-.38A6.9,6.9,0,0,1,20.72,0Zm-.38,2.11A.64.64,0,0,0,20,2c-.16,0-.23,0-.22.14a7.89,7.89,0,0,1-.11,1.06,3,3,0,0,0-.08.81A1.16,1.16,0,0,0,20,3.55a4.43,4.43,0,0,0,.22-.77C20.35,2.39,20.38,2.16,20.34,2.11Z"/><path class="cls-1" d="M23.81,10.19a1.52,1.52,0,0,1-.41.16c-.16,0-.24,0-.25,0s-.07-.08-.16-.06-.09-.07,0-.27.2-.46.38-1a4.88,4.88,0,0,0,.28-.86,1.53,1.53,0,0,1,.16-.54c.06-.19.13-.38.2-.56a.89.89,0,0,0,.09-.36,2,2,0,0,1,0-.47c.05-.25.08-.42.11-.52s.09-.32.11-.41a1.36,1.36,0,0,1,.1-.31V4.49l-.09-.31c-.06-.17-.1-.26-.13-.25s-.17-.34-.39-1.1-.35-1.26-.4-1.51a1,1,0,0,1,.06-.46c.06-.22.13-.35.21-.38s.25-.14.19-.14a2.59,2.59,0,0,1,.74-.07.89.89,0,0,0,.22,0h.18a.79.79,0,0,1,.2.24c.06.06,0,.12-.08.17s0,.5.43,1.35a2.27,2.27,0,0,0,.08.22c.1-.28.22-.61.39-1a6.29,6.29,0,0,1,.39-.81c.21-.33.38-.46.52-.38a1.63,1.63,0,0,1,.36,0h.37a1.71,1.71,0,0,1,.2.18.69.69,0,0,0,.26.17c.19.11.18.28,0,.53a7.6,7.6,0,0,0-.81,1.8c-.2.57-.35,1-.46,1.21a6.91,6.91,0,0,1-.52.9c-.09.38-.16.61-.19.7a4.73,4.73,0,0,1-.2.48,1.23,1.23,0,0,0-.13.42,1.78,1.78,0,0,0,0,.56,1.33,1.33,0,0,1,0,.53l-.27.87a5.68,5.68,0,0,0-.19.7,1.87,1.87,0,0,1-.13.4,1.9,1.9,0,0,1-.38.62q-.13.12-.15,0c0-.08,0-.12-.07-.12s-.1.07-.12.17a.35.35,0,0,1-.18.26L24,10.34Z"/></g></g></svg>