<svg xmlns="http://www.w3.org/2000/svg" viewBox="0 0 51.05 13.22"><defs><style>.cls-1{fill:#ff00e7;}</style></defs><g id="Layer_2" data-name="Layer 2"><g id="Layer_1-2" data-name="Layer 1"><path class="cls-1" d="M1.75,1A.53.53,0,0,1,2.08.78,4,4,0,0,0,2.51.62,1,1,0,0,0,2.87.28C3,.09,3.14,0,3.27,0a2.25,2.25,0,0,1,.85.46,2,2,0,0,0,.32.17.86.86,0,0,1,.3.21c.19.05.18.23,0,.54a3.87,3.87,0,0,0-.5,1.22Q4,3.38,3.86,4.22a4.22,4.22,0,0,0-.08,1.42c0,.27.24.41.66.45a1.71,1.71,0,0,0,.83-.29A2.68,2.68,0,0,0,6,3.6,10.48,10.48,0,0,1,6.2,1.14c.11-.4.31-.58.62-.54a2.56,2.56,0,0,1,1,.34c.33.15.39.36.16.62a1.83,1.83,0,0,0-.33,1.2,9.66,9.66,0,0,1-.18,1.77c-.12.65-.27,1.4-.44,2.25a19.59,19.59,0,0,0-.36,2.37c-.07.73-.11,1.34-.13,1.85s0,.81,0,.89a.8.8,0,0,1-.16.33c-.06.07-.16.09-.31.06a.44.44,0,0,0-.41.14,1.68,1.68,0,0,1-.88.46c-.28,0-.41-.05-.38-.27A3.52,3.52,0,0,0,4.44,12v-.73a2.76,2.76,0,0,1,.13-.83c.08-.28.16-.56.22-.84a8.24,8.24,0,0,0,.15-1A3.41,3.41,0,0,0,5,7.7a.15.15,0,0,0,0-.11.55.55,0,0,0-.1.16c0,.1-.13.15-.31.14a1.27,1.27,0,0,1-.37-.06A.64.64,0,0,0,4,8.19c0,.19-.13.28-.38.26S3.31,8.29,3.38,8a.51.51,0,0,0-.25-.65l0,0c-.12.07-.18.41-.18,1a6.05,6.05,0,0,1-.17,1.49,5.57,5.57,0,0,0-.19,1.4,8.07,8.07,0,0,1-.11,1.3c-.09.38-.23.49-.42.34s-.32-.13-.42,0a.35.35,0,0,1-.43.13,1.17,1.17,0,0,1-.42-.21,1.4,1.4,0,0,1-.34.27q-.09,0-.12,0a.14.14,0,0,0-.13,0c-.28.08-.23-.26.13-1a4.38,4.38,0,0,0,.3-1.29c.05-.54.11-1,.17-1.4S.9,8.54,1,7.92a15.28,15.28,0,0,1,.22-1.68c.09-.5.21-1.1.34-1.8a12.77,12.77,0,0,0,.23-1.73,2.53,2.53,0,0,0-.11-1A.65.65,0,0,1,1.75,1Z"/><path class="cls-1" d="M11.31.78c.6.16.91.36,1,.61s.06,1.05.06,2.38a3.89,3.89,0,0,1-.06.62c0,.24,0,.41,0,.51s0,.16-.07.17-.09.08-.15.21a2.52,2.52,0,0,0-.15,1c0,.51,0,.86,0,1s0,.29-.07.28-.1,0-.17.18a4.24,4.24,0,0,0-.12,1.35,8.43,8.43,0,0,0,0,1.3,1.39,1.39,0,0,1-.27.52c-.1.16-.13.25-.1.29s0,.09-.14.15a1.49,1.49,0,0,0-.41.56,1.19,1.19,0,0,1-.52.44,1,1,0,0,1-.48.13.47.47,0,0,0-.33.12.59.59,0,0,0-.2.2S9,12.9,8.83,13s-.36-.06-.37-.32a1.29,1.29,0,0,1,0-.44c0-.12,0-.4.09-.85s.07-.78.08-1A1.93,1.93,0,0,1,9,9.52a4.32,4.32,0,0,0,.37-.93,1,1,0,0,0,0-.48,1.47,1.47,0,0,1,0-.46A8.68,8.68,0,0,1,9.63,6a10.52,10.52,0,0,1,.42-1.51A3.63,3.63,0,0,0,10.13,4a.48.48,0,0,0-.07-.39c-.07,0-.1-.45-.07-1.24a6.19,6.19,0,0,1,.2-1.63c.09-.27.16-.37.19-.3S10.72.63,11.31.78Z"/><path class="cls-1" d="M19.33,1.85a.45.45,0,0,1-.18.5c-.2.16-.3.29-.31.36a5.36,5.36,0,0,1-.19.59.92.92,0,0,1-.34.5c-.13.09-.24.07-.31,0a.39.39,0,0,0-.27-.18q-.18,0-.24.06c0,.06-.13.08-.25.08a1.66,1.66,0,0,0-.7.27.56.56,0,0,0-.15.62c.07.28.13.52.2.73A6.73,6.73,0,0,0,17.49,7a3.75,3.75,0,0,1,.41,1.47A12.25,12.25,0,0,1,18,9.79a3,3,0,0,1-.38,1.13A5.29,5.29,0,0,1,17,12c-.18.22-.27.31-.28.27s-.14,0-.4.09-.38.2-.35.25,0,.1-.19.16a1.51,1.51,0,0,1-.65.08h-.65a1,1,0,0,1-.38-.12.63.63,0,0,0-.35-.09c-.15,0-.22.07-.2.2a.33.33,0,0,1-.1.32q-.13.11-.27-.06a.49.49,0,0,1-.08-.44c0-.19.06-.31.08-.36s0-.19-.12-.42a1.25,1.25,0,0,1-.1-.8c.06-.3.1-.54.14-.72s0-.25-.07-.22-.15-.05-.18-.24a.84.84,0,0,1,.32-.66A2.33,2.33,0,0,1,14,8.7c.33-.13.51-.12.54,0a4,4,0,0,0,.11.41.77.77,0,0,1-.06.46.54.54,0,0,0,0,.52c.09.18.26.18.5,0a1.74,1.74,0,0,0,.51-.51c.14-.27,0-.56-.27-.89-.05,0-.07-.26,0-.65a.91.91,0,0,0-.24-.54.79.79,0,0,0-.31-.19c-.11,0-.18-.13-.22-.3s-.06-.41-.09-.77a2.26,2.26,0,0,0-.17-.77,2.11,2.11,0,0,1-.07-1.14,8.29,8.29,0,0,1,.41-1.47c.26-.74.43-1.22.53-1.43s.3-.3.66-.35a2,2,0,0,0,.91-.31,1.05,1.05,0,0,1,.8-.17,5.27,5.27,0,0,0,.84.07q.39,0,.78.9A1.35,1.35,0,0,1,19.33,1.85Z"/><path class="cls-1" d="M25.49.54c.15.06.22.38.2,1a.75.75,0,0,1-.33.57c-.16.12-.21.22-.16.31a.94.94,0,0,1,0,.47q-.06.33-.15.33a1.08,1.08,0,0,0-.25.05,2.06,2.06,0,0,0-.46.2.4.4,0,0,1-.34.07.25.25,0,0,0-.26.08,1.3,1.3,0,0,0-.13.19.65.65,0,0,1-.14.22,5.2,5.2,0,0,0-.24,1.38c-.08.83-.14,1.37-.17,1.61a1.37,1.37,0,0,1-.21.55,3.82,3.82,0,0,0-.28.42.73.73,0,0,0-.1.51c0,.18.05.36.07.55a2.3,2.3,0,0,1-.12.75,2.13,2.13,0,0,0-.12.71c0,.19-.05.29-.13.32s-.19.12-.28.3-.13.28-.09.32,0,.13-.1.28-.2.22-.25.2-.11,0-.2.08a2,2,0,0,0-.19.23.37.37,0,0,1-.22.14,1.48,1.48,0,0,0-.35.15,2.6,2.6,0,0,1-.46.2c-.25.07-.4-.15-.44-.65a1.59,1.59,0,0,1,.32-1,.5.5,0,0,0,0-.48,1.67,1.67,0,0,1-.15-.5c0-.09.09-.32.35-.68a2.41,2.41,0,0,0,.25-1,1.76,1.76,0,0,1,.25-.81,10.79,10.79,0,0,0,.58-1.92c.27-1.09.44-1.71.5-1.88a.47.47,0,0,0,0-.38L21,3.47a1.61,1.61,0,0,0-.43.29c-.26.19-.38.05-.38-.42a2.83,2.83,0,0,1,.1-.71,4,4,0,0,0,.12-.86,1.94,1.94,0,0,1,.41-1c.15-.23.3-.31.45-.26a1.13,1.13,0,0,0,.6,0L24.44.38A6.51,6.51,0,0,1,25.49.54Z"/><path class="cls-1" d="M32.73.44a1.58,1.58,0,0,1,.68,1c.15.52.25.93.31,1.23a1.57,1.57,0,0,1-.15,1A5.26,5.26,0,0,0,33.17,5,10,10,0,0,0,33,6.8a5.61,5.61,0,0,1-.15,1.47,6.75,6.75,0,0,0-.19,1,2.65,2.65,0,0,1-.49,1.07,2.42,2.42,0,0,0-.42.76c0,.08-.09.29-.34.63s-.46.49-.62.42a1.7,1.7,0,0,0-.71-.11,1.33,1.33,0,0,0-1.11.77c-.12.19-.28.19-.47,0a4,4,0,0,0-.67-.53c-.27-.14-.38-.1-.32.15a.35.35,0,0,1-.25.46c-.24.07-.41-.07-.49-.43a8.75,8.75,0,0,0-.38-1.17,5.67,5.67,0,0,1,.06-3.51,7.64,7.64,0,0,0,.13-2.48,9.11,9.11,0,0,1,0-2.08,1.56,1.56,0,0,1,.52-1A10.35,10.35,0,0,0,28,1.3a2.48,2.48,0,0,1,.58-.52q.15,0,.93-.18L31.41.36A2.38,2.38,0,0,1,32.73.44ZM30.11,2.88c-.6-.44-.91-.39-.92.16a9.75,9.75,0,0,1-.33,1.52,9.08,9.08,0,0,0-.36,2.6c0,.54.06,1,.05,1.44s.13.62.4.62a3.14,3.14,0,0,1,1,.21c.4.14.64,0,.73-.43a4.78,4.78,0,0,1,.38-1.2,10.6,10.6,0,0,0,.5-1.4c.15-.53.26-.94.32-1.23a2.81,2.81,0,0,0,0-1.07c-.12-.57-.37-.86-.75-.88A1.55,1.55,0,0,1,30.11,2.88Z"/><path class="cls-1" d="M38.63.11A1.45,1.45,0,0,1,40,1.17c.07.24.1.37.12.42s.07.24.19.57a3.24,3.24,0,0,1,.07,1.37,8.68,8.68,0,0,1-.19,1.24,1.57,1.57,0,0,1-.18.48.89.89,0,0,0-.15.36,1.37,1.37,0,0,0-.08.28l-.12.21a1.25,1.25,0,0,0-.26.68.25.25,0,0,1-.29.26,4.41,4.41,0,0,0-.52,0c-.19,0-.27.24-.23.58a9.89,9.89,0,0,0,.4,1.56,5.23,5.23,0,0,1,.34,1.55c0,.19-.07.29-.11.29a.71.71,0,0,0-.22.11c-.13.07-.17.15-.11.23a.34.34,0,0,1,0,.32.54.54,0,0,1-.43.4,1.07,1.07,0,0,0-.46.28c-.09.11-.25.12-.49,0S37,12.27,37.1,12a1.7,1.7,0,0,0,.09-.61c0-.19-.07-.47-.14-.84s-.13-.62-.18-.78c-.1-.41-.21-.59-.31-.52s-.21.38-.29.92a4.49,4.49,0,0,1-.2,1,.49.49,0,0,1-.35.25.82.82,0,0,0-.41.18c-.13.09-.19.16-.18.2s-.08.06-.27.08-.35.11-.35.21-.15.32-.46.32c-.12,0-.19-.32-.19-1,0-.28,0-.57,0-.87s.06-.56.1-.79a8.82,8.82,0,0,1,.33-1.34,13.2,13.2,0,0,0,.35-1.31.65.65,0,0,0-.09-.49c-.09-.12,0-.35.15-.66.43-.73.54-1.27.32-1.62-.14-.19,0-.53.38-1a1.13,1.13,0,0,0,.19-.7c0-.28,0-.55,0-.79a1,1,0,0,1,.1-.64L36.07.6c.14-.24.61-.39,1.39-.46A6,6,0,0,1,38.63.11Zm-.46,2.55a.71.71,0,0,0-.37-.13c-.19,0-.28,0-.26.16A10,10,0,0,1,37.4,4c-.11.71-.14,1-.1,1l.22-.19a1.31,1.31,0,0,0,.29-.38,8.39,8.39,0,0,0,.26-.95C38.18,3,38.22,2.73,38.17,2.66Z"/><path class="cls-1" d="M43.27.78c.59.16.91.36.95.61a23.47,23.47,0,0,1,.07,2.38,3.89,3.89,0,0,1-.06.62,3.6,3.6,0,0,0-.06.51c0,.1,0,.16-.06.17s-.09.08-.16.21a3,3,0,0,0-.15,1c0,.51,0,.86,0,1s0,.29-.06.28-.1,0-.17.18a4.24,4.24,0,0,0-.12,1.35,7.21,7.21,0,0,0,0,1.3,1.39,1.39,0,0,1-.27.52c-.1.16-.13.25-.11.29s0,.09-.13.15a1.39,1.39,0,0,0-.41.56,1.17,1.17,0,0,1-.53.44,1,1,0,0,1-.47.13.45.45,0,0,0-.33.12c-.12.09-.19.15-.2.2s-.09.09-.22.14-.35-.06-.36-.32a1.08,1.08,0,0,1,0-.44c0-.12.05-.4.09-.85s.07-.78.08-1a2,2,0,0,1,.29-.84,3.48,3.48,0,0,0,.37-.93,1,1,0,0,0,0-.48,1.22,1.22,0,0,1-.05-.46A9.17,9.17,0,0,1,41.58,6,14.85,14.85,0,0,1,42,4.44,1.74,1.74,0,0,0,42.08,4,.53.53,0,0,0,42,3.61c-.07,0-.1-.45-.07-1.24a5.78,5.78,0,0,1,.2-1.63c.09-.27.16-.37.19-.3S42.68.63,43.27.78Z"/><path class="cls-1" d="M45.17,10.82a1.59,1.59,0,0,1-.1-.93L45.62,9c.3-.47.44-.78.4-.92a1.57,1.57,0,0,0-.07-.2s0-.12,0-.31.08-.4.13-.64a2.86,2.86,0,0,0,.08-.56c0-.13,0-.2.08-.22s.1-.11.14-.26A2.67,2.67,0,0,1,46.88,5a2.84,2.84,0,0,0,.27-.68,5.07,5.07,0,0,0,.12-.61,1.15,1.15,0,0,1,.21-.55.87.87,0,0,1,.23-.29.59.59,0,0,0,.18-.25A5.3,5.3,0,0,0,48.16,2a4.31,4.31,0,0,1,.11-.55.75.75,0,0,1,.29-.51A1.6,1.6,0,0,1,49.5.73l.39.05a1,1,0,0,0,.25,0,1.47,1.47,0,0,1,.47.11A.55.55,0,0,1,51,1.3a.62.62,0,0,1,0,.4.6.6,0,0,0,0,.34c0,.15.06.22.1.22s0,.13,0,.42a1.42,1.42,0,0,0-.06.6.81.81,0,0,1,0,.38,1.07,1.07,0,0,1-.15.35.51.51,0,0,0-.06.33,1.16,1.16,0,0,0,.06.4.87.87,0,0,1,0,.46,6.76,6.76,0,0,0-.15,1.28c0,.64,0,1.08,0,1.33a4.28,4.28,0,0,1-.07.64,4.46,4.46,0,0,0-.11.57,2.66,2.66,0,0,0,0,.69,5.27,5.27,0,0,1,0,.64,2,2,0,0,1-.17,1c-.1.12-.18.16-.25.09s-.16,0-.26,0a.39.39,0,0,1-.56,0,1,1,0,0,0-.57-.35c-.33,0-.43-.13-.28-.45a6.65,6.65,0,0,0,.16-.7c.06-.35,0-.53,0-.53a5.22,5.22,0,0,0-.57,0c-.27,0-.42.1-.48.23a6.77,6.77,0,0,0-.25,1c-.11.55-.22.86-.35.95s-.22.14-.29.13-.15.06-.25.19-.17.2-.16.22-.1,0-.3,0-.33,0-.33.08-.06.1-.19.16-.38.12-.44.08-.08-.09-.05-.18A4.49,4.49,0,0,0,45.17,10.82Zm3-4.31a3.24,3.24,0,0,0,0,.56.53.53,0,0,0,.43,0,.54.54,0,0,0,.16-.41c0-.13,0-.48,0-1.08A2.74,2.74,0,0,0,48.15,6.51Z"/></g></g></svg>