<svg xmlns="http://www.w3.org/2000/svg" viewBox="0 0 70.62 25.41"><defs><style>.cls-1{fill:#ff00e7;}</style></defs><g id="Layer_2" data-name="Layer 2"><g id="Layer_1-2" data-name="Layer 1"><path class="cls-1" d="M13.51,2.63a.81.81,0,0,1-.36,1c-.42.33-.65.57-.68.72a6.21,6.21,0,0,1-.4,1.17,2.09,2.09,0,0,1-.68,1q-.44.23-.66-.09A.75.75,0,0,0,10.15,6a.6.6,0,0,0-.48.15.67.67,0,0,1-.52.15,2.76,2.76,0,0,0-1.44.53,1.11,1.11,0,0,0-.32,1.23c.13.55.27,1,.4,1.42a14.13,14.13,0,0,0,1.88,3.27,7.08,7.08,0,0,1,.86,2.92c.15,1.26.22,2.11.22,2.54A6,6,0,0,1,10,20.45a10,10,0,0,1-1.34,2.17q-.56.64-.6.51t-.84.21c-.53.23-.77.38-.7.45s-.06.19-.38.34a2.7,2.7,0,0,1-1.38.23l-1.35-.07a1.29,1.29,0,0,1-.78-.23,1.17,1.17,0,0,0-.74-.23c-.32,0-.46.14-.41.42a.67.67,0,0,1-.19.64C1.08,25,.89,25,.7,24.8a1,1,0,0,1-.15-.89,2.92,2.92,0,0,1,.15-.72c.06-.1,0-.38-.27-.84A2.24,2.24,0,0,1,.24,20.8c.13-.58.23-1.06.31-1.45s0-.45-.18-.39-.29-.1-.34-.48c-.19-.93.62-1.74,2.44-2.42.69-.23,1.07-.21,1.14.05s.14.53.22.78a1.59,1.59,0,0,1-.14.93,1,1,0,0,0,.09,1c.17.38.51.39,1,0a3.62,3.62,0,0,0,1.05-1c.27-.48.09-1.08-.55-1.78-.11-.08-.14-.5-.08-1.25a1.81,1.81,0,0,0-.52-1.07,1.16,1.16,0,0,0-.62-.37c-.23-.06-.38-.26-.46-.61a9.07,9.07,0,0,1-.2-1.5,3.38,3.38,0,0,0-.37-1.5A4.78,4.78,0,0,1,3,7.49a13,13,0,0,1,.83-2.87A29.87,29.87,0,0,1,4.91,1.83c.16-.37.61-.6,1.36-.68A3.67,3.67,0,0,0,8.11.51,2.38,2.38,0,0,1,9.79.19c.64.08,1.23.14,1.76.17s1.08.6,1.64,1.74A3.72,3.72,0,0,1,13.51,2.63Z"/><path class="cls-1" d="M26.2,1.24a2,2,0,0,1,.22,1.55A4.25,4.25,0,0,1,26,4.1a1.12,1.12,0,0,0-.22.84,2.86,2.86,0,0,1-.06,1c-.08.4-.24.51-.48.36a1.64,1.64,0,0,0-.8-.28,2.5,2.5,0,0,0-1.72.75,1.31,1.31,0,0,0-.3,1.2,10.48,10.48,0,0,1,.1,1.15c0-.08-.17.16-.52.72a5.46,5.46,0,0,0-.3,2c0,1-.06,1.75-.06,2.15s-.05.61-.15.56-.19.06-.33.35a9.06,9.06,0,0,0-.28,2.79A13.76,13.76,0,0,0,21,20.32c0,.13-.16.48-.56,1-.21.32-.29.52-.22.6s0,.17-.26.28A3.8,3.8,0,0,0,19,23.3a2.25,2.25,0,0,1-1.08.84,2,2,0,0,1-1,.18.9.9,0,0,0-.68.18,1.21,1.21,0,0,0-.42.43c-.05.11-.2.19-.46.24-.46.11-.72-.14-.8-.75a1.92,1.92,0,0,1,0-.92,10,10,0,0,0,.24-1.71c.07-.92.13-1.6.15-2a3.88,3.88,0,0,1,.62-1.7,6.69,6.69,0,0,0,.79-1.84,2.18,2.18,0,0,0,.06-1,3,3,0,0,1-.1-1,16.08,16.08,0,0,1,.68-3.44C17.6,9,17.88,8,18,7.8c.34-.88.35-1.45,0-1.71s-.8-.16-1.52.24a1.52,1.52,0,0,1-1.12.11c-.32-.05-.45-.35-.38-.91a12.81,12.81,0,0,0,.09-1.31A7.46,7.46,0,0,1,15.4,2a2,2,0,0,1,2-1.51A18.1,18.1,0,0,1,20.64.44,22.66,22.66,0,0,0,24.52.28,3.08,3.08,0,0,1,26.2,1.24Z"/><path class="cls-1" d="M40.67.28a2.94,2.94,0,0,1,1.4,2c.29,1,.52,1.86.68,2.48a2.89,2.89,0,0,1-.34,2,9.23,9.23,0,0,0-.83,2.64,18.59,18.59,0,0,0-.31,3.54A14.52,14.52,0,0,1,41,15.86a14.82,14.82,0,0,0-.47,1.89,5.58,5.58,0,0,1-1,2.11c-.61.84-.89,1.35-.85,1.51s-.2.6-.71,1.29-.93,1-1.28.83a3.84,3.84,0,0,0-1.48-.22,2.74,2.74,0,0,0-2.28,1.54c-.27.38-.59.38-1,0a6,6,0,0,0-1.42-1.06c-.56-.3-.77-.21-.64.27a.7.7,0,0,1-.52,1c-.48.16-.82-.13-1-.86a21.72,21.72,0,0,0-.8-2.4q-1-2.61.12-6.91A13.87,13.87,0,0,0,28,9.84a21,21,0,0,1-.1-4.15,3.22,3.22,0,0,1,1.08-2c.61-.55,1.21-1.13,1.8-1.75A4.54,4.54,0,0,1,32,.93,16.48,16.48,0,0,1,33.9.58c1-.15,2.39-.3,4-.46A4.63,4.63,0,0,1,40.67.28ZM35.26,5.11c-1.25-.81-1.91-.71-2,.31a18,18,0,0,1-.64,3,17.14,17.14,0,0,0-.76,5.19c.08,1.07.11,2,.1,2.86s.26,1.25.82,1.25a7.05,7.05,0,0,1,2.06.4,1,1,0,0,0,1.51-.87,8.87,8.87,0,0,1,.8-2.41,18.67,18.67,0,0,0,1-2.77c.31-1,.53-1.85.66-2.42a5.3,5.3,0,0,0-.07-2.11c-.23-1.15-.76-1.75-1.55-1.78A3.51,3.51,0,0,1,35.26,5.11Z"/><path class="cls-1" d="M59.26,24.76a4.82,4.82,0,0,1-1,.38c-.4.11-.61.08-.64-.08s-.15-.2-.38-.15-.23-.17,0-.65a21.89,21.89,0,0,0,1-2.34,11.92,11.92,0,0,0,.7-2.1,4,4,0,0,1,.4-1.31c.16-.46.33-.91.5-1.35a2.05,2.05,0,0,0,.22-.89,4.28,4.28,0,0,1,.12-1.13,10.41,10.41,0,0,1,.28-1.26,10.12,10.12,0,0,0,.26-1,4.34,4.34,0,0,1,.26-.77V10.88c0-.08-.1-.33-.24-.76s-.23-.62-.32-.59a9.14,9.14,0,0,1-1-2.68q-.82-2.76-1-3.69a2.49,2.49,0,0,1,.16-1.11c.16-.54.33-.85.52-.93.48-.23.64-.35.48-.35A7.41,7.41,0,0,1,61.38.62a3.93,3.93,0,0,0,.56,0,3.1,3.1,0,0,1,.44,0c.08,0,.26.22.53.58.13.15.06.29-.23.4s.09,1.22,1.1,3.3c0,.1.1.28.2.54.24-.7.57-1.5,1-2.43a19,19,0,0,1,1-2c.54-.79,1-1.1,1.33-.92a3.39,3.39,0,0,1,.9,0l.94,0a4.11,4.11,0,0,1,.5.42,1.84,1.84,0,0,0,.66.43c.48.25.46.68,0,1.29a17.47,17.47,0,0,0-2,4.37C67.68,8.06,67.29,9,67,9.6a15.53,15.53,0,0,1-1.32,2.2c-.23.93-.4,1.49-.47,1.7a10.47,10.47,0,0,1-.53,1.17,3.69,3.69,0,0,0-.32,1,4.18,4.18,0,0,0-.08,1.36,3.14,3.14,0,0,1-.11,1.3c-.17.46-.39,1.16-.69,2.1S63.05,22,63,22.17a6.12,6.12,0,0,1-.32,1,4.76,4.76,0,0,1-1,1.5c-.24.21-.36.21-.38,0s-.07-.29-.18-.29-.26.16-.3.41a1,1,0,0,1-.45.63,3.7,3.7,0,0,1-.59-.31C59.48,24.9,59.29,24.78,59.26,24.76Z"/><path class="cls-1" d="M52.57.13a3.09,3.09,0,0,1,2.88,2.14c.14.47.22.75.24.85s.17.47.42,1.13A6.07,6.07,0,0,1,56.28,7a21.92,21.92,0,0,1-.41,2.51,3.25,3.25,0,0,1-.39,1,1.77,1.77,0,0,0-.33.74,2.5,2.5,0,0,0-.18.56s-.06.13-.27.43a2.34,2.34,0,0,0-.55,1.37.56.56,0,0,1-.64.53,8.33,8.33,0,0,0-1.12,0c-.41.09-.58.48-.51,1.18a18.06,18.06,0,0,0,.88,3.13,10,10,0,0,1,.74,3.13c-.07.38-.15.58-.24.59a1.53,1.53,0,0,0-.49.21c-.27.15-.35.3-.24.46a.61.61,0,0,1,0,.66,1.16,1.16,0,0,1-.93.8,2.31,2.31,0,0,0-1,.57c-.2.21-.56.23-1.06.06-.32-.06-.41-.32-.26-.76a3.37,3.37,0,0,0,.19-1.25c0-.38-.15-.94-.31-1.67s-.28-1.26-.38-1.58c-.23-.83-.36-3.24-.59-3.11a15.12,15.12,0,0,0-1.36,4,10.27,10.27,0,0,1-.32,2c-.13.25.13.4-.23.47a2.33,2.33,0,0,0-.9.37c-.28.19-.4.32-.38.4s-.17.13-.58.17-.76.23-.76.42c0,.43-.33.64-1,.64q-.42,0-.42-1.92a15,15,0,0,1,.11-1.75c.07-.6.14-1.13.2-1.6a18.29,18.29,0,0,1,.72-2.7A25.15,25.15,0,0,0,44,14.4a1.24,1.24,0,0,0-.19-1c-.19-.26-.08-.7.33-1.34.94-1.47,1.17-2.55.69-3.26-.3-.38,0-1.07.82-2.07a2,2,0,0,0,.41-1.42c0-.56-.06-1.09-.1-1.58a1.92,1.92,0,0,1,.22-1.29c.22-.38.49-.82.81-1.33s1.33-.8,3-.92A13.31,13.31,0,0,1,52.57.13Zm-.45,5.08a3.73,3.73,0,0,0-1.44-.41c-.75-.11-1.08.06-1,.51a22.68,22.68,0,0,1-.54,4c-.42,2.15-.54,3.17-.38,3s.4-.29.83-.58a4.14,4.14,0,0,0,1.12-1.16,19.66,19.66,0,0,0,1-2.89C52.15,6.23,52.28,5.41,52.12,5.21Z"/></g></g></svg>