<svg xmlns="http://www.w3.org/2000/svg" viewBox="0 0 77.51 28.6"><defs><style>.cls-1{fill:#ff00e7;}</style></defs><g id="Layer_2" data-name="Layer 2"><g id="Layer_1-2" data-name="Layer 1"><path class="cls-1" d="M11.91,2.77c.34,1.42.12,2-.65,1.68-.36-.16-.68,0-.94.57-.17.33-.58.32-1.24,0,.08.06-.25.3-1,.74-.31.19-.57.11-.78-.25a1.38,1.38,0,0,0-1-.65q-.76-.09-.63,2.37a8.89,8.89,0,0,0,.42,3c.48,1.06,1.07,1.39,1.77,1a2.17,2.17,0,0,0,.82-.62,1.28,1.28,0,0,1,.56-.45c.22-.08.36.39.45,1.4a16.55,16.55,0,0,1,.09,2.25c0,.49-.3.64-.76.43A1.34,1.34,0,0,0,7.89,14a1.15,1.15,0,0,1-1.34-.29A.7.7,0,0,0,5.49,14,6.75,6.75,0,0,0,5,17c0,1.67.14,2.57.57,2.71A7.21,7.21,0,0,0,6.73,20c.33,0,.69-.29,1-1,.54-1,1.42-1.19,2.66-.53q.83.45.21,2c-.41,1.07-.7,1.88-.87,2.42-.24.71-.78,1-1.63.78s-1.35-.15-1.37.21-.28.3-.84.24a1.1,1.1,0,0,1-1-.65q-.33-.78-.93.39c-.4.77-.74.65-1-.39-.15-.55-.37-.67-.67-.35a3.14,3.14,0,0,1-.78.63,1.52,1.52,0,0,1-1,.13c-.44-.06-.58-.54-.44-1.44s.35-2.33.6-4.28a16.33,16.33,0,0,1,1-4.28q.54-1.35.31-6.11A38.68,38.68,0,0,1,1.9,2.07q.25-1.51,2.58-.9a13.39,13.39,0,0,0,3.08.57,1.63,1.63,0,0,0,1.11-.12c.15-.14.49-.45,1-.94s1.06-.21,1.64.86A3.54,3.54,0,0,1,11.91,2.77Z"/><path class="cls-1" d="M25.5,1.49a2.77,2.77,0,0,1,1.27,1.88c.26,1,.47,1.73.62,2.31a4.67,4.67,0,0,1,0,1.86c-.13.67-.29,1.5-.45,2.52s-.39,2.11-.59,3.3-.36,2.12-.5,2.77a13.72,13.72,0,0,0-.42,1.79,5.26,5.26,0,0,1-.92,2,.58.58,0,0,0-.11.19,3.78,3.78,0,0,1,.5,1.35,4.21,4.21,0,0,0,.55,1.43c.24.39,1.37,1.07,3.37,2.06,1.4.67,1.71,1,.91,1-.34,0-.37.18-.07.54a2.7,2.7,0,0,0,1,.8c.37.14.36.28,0,.41a1.34,1.34,0,0,1-1,0c-.92-.46-1.11-.35-.58.32.25.34.08.53-.5.58-1.12-.67-1.68-1.11-1.71-1.3a11.45,11.45,0,0,0-.91-1.16,1.21,1.21,0,0,0-1.41-.39c-.56.14-1.16-.27-1.82-1.23-.21-.29-.29-.3-.23,0s0,.37-.34.27-.49-.46-.66-1.23c-.33.48-.63.72-.87.72a1.28,1.28,0,0,1-1.23-.68c-.24-.46-.5-.51-.8-.15-.65.75-1.27.94-1.85.58s-.78-.52-.83-.69-.29-.18-.73,0-.91-.4-1.45-1.63A13.32,13.32,0,0,1,13.1,18a13.92,13.92,0,0,1,.4-4.29,14.83,14.83,0,0,0,.36-4,20.76,20.76,0,0,1,.07-3.23,3,3,0,0,1,1-1.84c.56-.51,1.1-1,1.63-1.63s.92-1,1.16-1.28a3.2,3.2,0,0,1,1.78-.64A11.17,11.17,0,0,1,23,1.34,4,4,0,0,1,25.5,1.49ZM20.57,6c-1.14-.84-1.72-.74-1.74.29a17.51,17.51,0,0,1-.59,2.86,16.49,16.49,0,0,0-.68,4.88,30.74,30.74,0,0,1,0,3.81c-.1,1.53.1,2.3.61,2.3a4.2,4.2,0,0,0,2-.76,3,3,0,0,0,1.49-2,9.7,9.7,0,0,1,.73-2.25,17,17,0,0,0,.94-2.6c.29-1,.49-1.74.6-2.27a5.24,5.24,0,0,0-.06-2,6.39,6.39,0,0,1,0-.94c0-.51,0-.8-.05-.87s-.45-.07-.74.22-.51.35-.6.18a1.89,1.89,0,0,1-.4-.91.63.63,0,0,0-.44-.57c-.22,0-.41.07-.58.36S20.72,6.19,20.57,6Z"/><path class="cls-1" d="M33.11,1.09a.43.43,0,0,0,.29.06,2,2,0,0,1,.72.16c.34.14.4.34.2.59a3.35,3.35,0,0,0-.53,1.18,18.25,18.25,0,0,0-.36,2.71C33.34,7,33.29,8,33.29,8.54q0,2.46-.69,3c-.29.27-.61,1.39-1,3.37a18.73,18.73,0,0,0-.45,3.83c0,1.21.75,1.53,2.1,1A3.52,3.52,0,0,0,34.83,18a22.57,22.57,0,0,0,1-2.13,19.29,19.29,0,0,0,.74-2.85,7.69,7.69,0,0,0,.24-2.79,13.07,13.07,0,0,1,.45-4.17A12.64,12.64,0,0,1,38.47,2a2.94,2.94,0,0,1,2.47-.9c.6,0,.91.69.91,1.92a28,28,0,0,1-.29,3.43A16.85,16.85,0,0,1,41,9.3,30.73,30.73,0,0,0,40,14a33,33,0,0,1-1.24,5.32c-.36,1-.65,1.49-.85,1.59a8,8,0,0,0-1.25.94,4.48,4.48,0,0,0-.85.93,1.31,1.31,0,0,1-.64.58.7.7,0,0,1-.58,0,1.05,1.05,0,0,0-.72,0,1.57,1.57,0,0,0-.65.71c-.22.37-.43.52-.62.45a.84.84,0,0,1-.47-.31c-.17-.18-.3-.27-.4-.27a1.23,1.23,0,0,0-.65.11.82.82,0,0,1-.58.07,1.2,1.2,0,0,1-.91-.63c-.2-.35-.46-.37-.8-.05-.58.53-1.07.13-1.48-1.2a6.12,6.12,0,0,1-.15-2,5.26,5.26,0,0,1,.29-1.72,28.15,28.15,0,0,0,.72-3.05A11,11,0,0,1,29.23,12,8.11,8.11,0,0,0,30,9.46a14.68,14.68,0,0,0,.27-2.69A14.31,14.31,0,0,1,30.42,4a4.69,4.69,0,0,1,.84-2.53A1.33,1.33,0,0,1,32.38,1C32.77,1.07,33,1.09,33.11,1.09Z"/><path class="cls-1" d="M46.8,1.66c1.09.28,1.68.66,1.76,1.13a37.61,37.61,0,0,1,.13,4.34,8.62,8.62,0,0,1-.09,1.15,7.65,7.65,0,0,0-.09.93c0,.21,0,.32-.13.32s-.19.12-.31.35a5.21,5.21,0,0,0-.29,1.78c-.05.93-.07,1.57-.07,1.93s0,.51-.13.47-.19.09-.31.37A8,8,0,0,0,47,16.89a12.63,12.63,0,0,0,.09,2.38,4.67,4.67,0,0,1-.54.95c-.18.28-.23.45-.18.51s0,.16-.26.3a2.86,2.86,0,0,0-.76,1,2.36,2.36,0,0,1-1,.81,1.63,1.63,0,0,1-.85.25.9.9,0,0,0-.63.21,1.16,1.16,0,0,0-.38.39c0,.09-.18.18-.42.25s-.56-.06-.65-.6a3.27,3.27,0,0,1,0-.82A6.69,6.69,0,0,0,41.65,21c.06-.82.1-1.42.15-1.8a3.67,3.67,0,0,1,.54-1.53A6.54,6.54,0,0,0,43,16a1.68,1.68,0,0,0,.06-.86,2.74,2.74,0,0,1-.09-.87,14.52,14.52,0,0,1,.61-3.09c.44-1.65.69-2.58.76-2.76.37-.73.39-1.24.08-1.52-.15-.07-.2-.83-.16-2.26a9.44,9.44,0,0,1,.38-3c.16-.5.28-.68.36-.55A4.84,4.84,0,0,0,46.8,1.66Z"/><path class="cls-1" d="M58.54.91a2.84,2.84,0,0,1,2.53,2c.13.45.2.72.22.82s.15.46.37,1.08a6.58,6.58,0,0,1,.17,2.63,15.1,15.1,0,0,1-.39,2.42,2.53,2.53,0,0,1-.37.91,1.63,1.63,0,0,0-.29.69,4.4,4.4,0,0,1-.37.93,2.6,2.6,0,0,0-.48,1.33c0,.22-.54.41-1.53.56-.13,0-.28.17-.47.45a1.06,1.06,0,0,1-.56.48c-.22.07-.39,0-.52-.32s-.28-.39-.48-.31a.92.92,0,0,0-.31.41,1.21,1.21,0,0,1-.31.44.44.44,0,0,1-.42.13.35.35,0,0,0-.31,0q-.33.22-.75,3.27a32.42,32.42,0,0,1-.57,3.42,5.15,5.15,0,0,1-1.4,1.93c-.22.17-.34.11-.37-.19s-.2-.42-.54-.37-.67.2-.67.37a3.37,3.37,0,0,1-.88,0q-.36,0-.36-1.26a28.06,28.06,0,0,1,.25-3.2,4.87,4.87,0,0,1,.39-1.39,6.41,6.41,0,0,0,.42-1.32,1.29,1.29,0,0,0-.18-.93c-.17-.25-.07-.68.29-1.3a9.29,9.29,0,0,0,.85-2.08A2.35,2.35,0,0,0,51.57,11q-.33-.52.69-2a4.31,4.31,0,0,0,.48-2.21,18.22,18.22,0,0,0,0-2.39,5,5,0,0,1,1-2.53c.27-.45,1.13-.73,2.6-.86A12.76,12.76,0,0,1,58.54.91Zm.19,4.25a7.3,7.3,0,0,0-1.3-.47c-.76-.23-1.09-.17-1,.16A21.92,21.92,0,0,1,55.8,8a15.91,15.91,0,0,0-.57,2.87c0,.18.34.05,1-.38a4.74,4.74,0,0,0,1.37-1.2A13.57,13.57,0,0,0,58.38,7,4.87,4.87,0,0,0,58.73,5.16Z"/><path class="cls-1" d="M75.58.26a2.79,2.79,0,0,1,1.27,1.9c.26,1,.47,1.75.61,2.33a2.76,2.76,0,0,1-.31,1.84,9.19,9.19,0,0,0-.74,2.5,18,18,0,0,0-.29,3.32,13.24,13.24,0,0,1-.22,2.79,15.81,15.81,0,0,0-.42,1.77,5.37,5.37,0,0,1-.92,2c-.56.79-.82,1.27-.78,1.42s-.18.56-.64,1.21-.84.92-1.15.78a3.69,3.69,0,0,0-1.35-.2,2.48,2.48,0,0,0-2.06,1.45c-.24.36-.54.36-.89,0a5.5,5.5,0,0,0-1.29-1c-.51-.29-.7-.21-.58.25a.65.65,0,0,1-.47.9c-.43.15-.74-.12-.91-.81a19.93,19.93,0,0,0-.72-2.26c-.63-1.64-.6-3.81.11-6.51a13.5,13.5,0,0,0,.27-4.66A20.71,20.71,0,0,1,64,5.36a3,3,0,0,1,1-1.87c.56-.51,1.11-1.06,1.64-1.64a4.33,4.33,0,0,1,1.1-1A14.59,14.59,0,0,1,69.45.55c.94-.14,2.16-.29,3.66-.43A4,4,0,0,1,75.58.26Zm-4.9,4.55C69.55,4,69,4.14,68.9,5.1A16.12,16.12,0,0,1,68.32,8a17.11,17.11,0,0,0-.69,4.88,26.08,26.08,0,0,1,.09,2.69c0,.79.24,1.18.75,1.18a6,6,0,0,1,1.87.38c.76.25,1.21,0,1.36-.82A9,9,0,0,1,72.42,14a19.22,19.22,0,0,0,1-2.61c.29-1,.48-1.74.59-2.27a5.42,5.42,0,0,0,0-2c-.22-1.09-.69-1.65-1.42-1.68A3.07,3.07,0,0,1,70.68,4.81Z"/></g></g></svg>