<svg xmlns="http://www.w3.org/2000/svg" viewBox="0 0 24.82 10.49"><defs><style>.cls-1{fill:#ff00e7;}</style></defs><g id="Layer_2" data-name="Layer 2"><g id="Layer_1-2" data-name="Layer 1"><path class="cls-1" d="M4.59.94a.81.81,0,0,1,.09.62,1.63,1.63,0,0,1-.17.53.43.43,0,0,0-.08.33,1.36,1.36,0,0,1,0,.39c0,.16-.09.21-.19.15a.58.58,0,0,0-.31-.11,1,1,0,0,0-.69.3.52.52,0,0,0-.11.47c0,.22,0,.38,0,.46s-.06.07-.2.29a2.11,2.11,0,0,0-.12.79c0,.41,0,.7,0,.86s0,.24-.06.22-.08,0-.13.14a3.71,3.71,0,0,0-.12,1.11,4.69,4.69,0,0,0,0,1.06s-.07.19-.23.41-.11.21-.08.24,0,.07-.11.11a1.58,1.58,0,0,0-.34.43.87.87,0,0,1-.43.33.68.68,0,0,1-.38.07.36.36,0,0,0-.27.08.52.52,0,0,0-.17.17s-.07.07-.18.09S0,10.43,0,10.18a.89.89,0,0,1,0-.36,3.88,3.88,0,0,0,.09-.68c0-.37.06-.64.07-.81a1.55,1.55,0,0,1,.24-.67,2.5,2.5,0,0,0,.31-.74,1,1,0,0,0,0-.39,1.17,1.17,0,0,1,0-.39A6.67,6.67,0,0,1,1,4.77c.19-.73.3-1.14.33-1.21.14-.35.14-.58,0-.68S1,2.81.74,3A.57.57,0,0,1,.3,3Q.11,3,.15,2.66c0-.23,0-.4,0-.53a3.26,3.26,0,0,1,.12-.87.78.78,0,0,1,.78-.6,7.4,7.4,0,0,1,1.3,0A9,9,0,0,0,3.93.56,1.3,1.3,0,0,1,4.59.94Z"/><path class="cls-1" d="M10.67,1.66c.15.55.06.76-.28.65-.16-.07-.3,0-.41.22s-.26.12-.54,0c0,0-.11.12-.43.29a.23.23,0,0,1-.34-.1.63.63,0,0,0-.45-.25c-.23,0-.32.29-.28.92a3.43,3.43,0,0,0,.18,1.14c.21.41.47.54.78.38a.76.76,0,0,0,.35-.24.59.59,0,0,1,.25-.17c.1,0,.16.15.2.54a8,8,0,0,1,0,.87c0,.19-.13.24-.33.16a.68.68,0,0,0-.5,0,.55.55,0,0,1-.58-.12A.34.34,0,0,0,7.87,6a2.32,2.32,0,0,0-.22,1.19c0,.65.06,1,.25,1.05a2.85,2.85,0,0,0,.51.1c.15,0,.3-.11.46-.39s.61-.46,1.15-.2c.25.11.28.38.1.79s-.31.72-.38.93-.34.38-.72.31-.59-.06-.6.07-.12.12-.36.1a.49.49,0,0,1-.46-.25c-.1-.2-.23-.15-.41.15s-.32.25-.45-.15c-.06-.21-.16-.26-.29-.14a1.79,1.79,0,0,1-.34.25.71.71,0,0,1-.43,0c-.19,0-.25-.2-.19-.55s.15-.9.26-1.66A5.58,5.58,0,0,1,6.19,6a6.28,6.28,0,0,0,.13-2.36,13.18,13.18,0,0,1,0-2.22C6.37,1,6.75.88,7.42,1a6.52,6.52,0,0,0,1.35.22c.25,0,.42,0,.48-.05S9.47,1,9.69.85s.46-.08.71.33A1.25,1.25,0,0,1,10.67,1.66Z"/><path class="cls-1" d="M15.33,1.77a2.72,2.72,0,0,0,0,1.09,4.05,4.05,0,0,0,.11.6,2.34,2.34,0,0,1,0,.72,2.63,2.63,0,0,1-.1.62,2.56,2.56,0,0,0,0,.84q.06.69.06,1.53a5.82,5.82,0,0,1-.06,1.08c-.06.16-.13.25-.2.27s-.17.12-.29.3-.18.28-.11.25,0,0-.24.16a2.07,2.07,0,0,1-.36.19l-.23-.06c-.15,0-.23-.09-.26-.17s-.1-.12-.21-.12-.21-.08-.26-.26a.61.61,0,0,1,0-.46.72.72,0,0,0,0-.62c-.09-.14-.24-.13-.45,0a1.66,1.66,0,0,0-.44.45,1.9,1.9,0,0,0-.23.68.74.74,0,0,1-.39.59c-.21.09-.33.13-.36.11a.93.93,0,0,0-.29,0c-.17,0-.24.08-.21.14s0,.1-.11.11-.25-.17-.25-.6c0-.16,0-.37,0-.65a1.36,1.36,0,0,1,.25-.78A1.87,1.87,0,0,0,11.1,7a7.74,7.74,0,0,0,.14-.77,1.21,1.21,0,0,1,.36-.82,1.23,1.23,0,0,0,.3-.64c.06-.26.1-.51.13-.73s.09-.34.16-.35.15-.1.24-.25.09-.24.06-.3,0-.14.14-.24a1.13,1.13,0,0,0,.25-.71,3.6,3.6,0,0,1,.29-1.06A1,1,0,0,1,14,.61a8.77,8.77,0,0,1,1-.08c.25,0,.37.3.39.91A2.4,2.4,0,0,1,15.33,1.77ZM13.6,4.38l-.54,1.41a1.24,1.24,0,0,0,.4,0,.33.33,0,0,0,.25-.12Z"/><path class="cls-1" d="M20,.47a2.68,2.68,0,0,1,.26,1,4.64,4.64,0,0,1,.07,1.59,3.55,3.55,0,0,0,.1,1.4c.13.48.22.6.29.35s.22-.87.48-1.84.41-1.58.47-1.81A1.12,1.12,0,0,1,22,.52a.52.52,0,0,1,.62-.16.5.5,0,0,0,.54,0,.69.69,0,0,1,.53-.11c.11,0,.22.47.34,1.31a.82.82,0,0,0,.15.41,1,1,0,0,1,.18.41,4,4,0,0,1-.07.5,1.57,1.57,0,0,0,0,.6.68.68,0,0,0,.18.42.44.44,0,0,1,.14.28.77.77,0,0,1-.13.61.61.61,0,0,0-.17.35,8.38,8.38,0,0,0,.2,2.1c.17,1,.27,1.6.31,1.93s0,.51-.17.54a.47.47,0,0,0-.31.34c-.06.22-.16.28-.3.21-.47-.21-.75-.22-.86,0s-.26.15-.44-.12A1.62,1.62,0,0,1,22.56,9q.11-.71.12-1t.06-1c0-.44,0-1.6,0-3.47-.24.51-.41.73-.51.65a.35.35,0,0,1-.14-.28c0-.12,0-.08-.11.11a2,2,0,0,0-.14.66c0,.23,0,.49,0,.75a2.5,2.5,0,0,1-.29,1.06,3.48,3.48,0,0,0-.24,1,5.69,5.69,0,0,1-.23,1.11q-.16.42-.36.45a.53.53,0,0,0-.34.19c-.35.38-.56.3-.62-.24a2.79,2.79,0,0,1,0-.71c0-.28.06-.55.08-.83a2.81,2.81,0,0,0-.08-.76A2.58,2.58,0,0,1,19.68,6c0-.63-.08-1-.32-1s-.17-.18-.11-.43a1.41,1.41,0,0,0,0-.6c-.08-.29-.26,0-.55.79a25,25,0,0,0-.66,2.55,20,20,0,0,1-.54,2.16c-.16.36-.36.46-.61.3a.61.61,0,0,0-.55,0l-.65.29c-.17.1-.18-.07,0-.5s.27-.79.39-1.08a8.68,8.68,0,0,0,.22-1.38,4,4,0,0,1,.65-1.87,3,3,0,0,0,.48-2.08,3.56,3.56,0,0,1,.12-1.4c.14-.56.23-1,.29-1.39s.38-.43,1.05-.23S19.92.44,20,.47Z"/></g></g></svg>