<svg xmlns="http://www.w3.org/2000/svg" viewBox="0 0 28.44 28.38"><defs><style>.cls-1{fill:#91fd00;}.cls-1,.cls-2,.cls-3,.cls-4,.cls-5{fill-rule:evenodd;}.cls-2{fill:#91fd02;}.cls-3{fill:#92fd03;}.cls-4{fill:#92fd04;}.cls-5{fill:#a3fd2c;}</style></defs><g id="Layer_2" data-name="Layer 2"><g id="Layer_1-2" data-name="Layer 1"><path class="cls-1" d="M28.42,8.47A8.54,8.54,0,0,0,20.21.07c-4-.09-8-.09-12,0A8.51,8.51,0,0,0,.07,8.16c-.09,4-.09,8.08,0,12.11a8.52,8.52,0,0,0,8.38,8.1H14.2c2,0,3.92,0,5.88,0A8.56,8.56,0,0,0,28.42,20Q28.46,14.23,28.42,8.47Zm-2.1,11.14a6.46,6.46,0,0,1-6.68,6.65c-1.8,0-3.6,0-5.4,0s-3.6,0-5.4,0a6.52,6.52,0,0,1-6.71-6.53c-.08-3.68-.07-7.36,0-11a6.53,6.53,0,0,1,6.6-6.53q5.46-.08,10.92,0a6.48,6.48,0,0,1,6.68,6.79Q26.36,14.28,26.32,19.61Z"/><path class="cls-2" d="M22,22.62c-.36-1.11-1.31-.93-2.08-.8-.35.06-.5.2-.52-.19a21.19,21.19,0,0,1,0-2.39.82.82,0,0,1,.72-.72c.52-.06.39.36.37.66s0,.34.2.37a.35.35,0,0,0,.4-.35,3,3,0,0,0-.22-1.39c-.76-1.07-.58-2.3-.69-3.46a1.89,1.89,0,0,1,1.94-2c1.13,0,1.45.71,1.73,1.62.18.6-.31.78-.51,1.11s-.53,0-.77-.16c-.61-.37-.76-.06-.81.5a4.11,4.11,0,0,0,.77,2.47,2.73,2.73,0,0,1-.29,3.51C21.93,21.79,22.23,22.26,22,22.62Z"/><path class="cls-3" d="M10,23.25c0-2,0-3.86,0-5.72,0-.84,0-1.4,1.22-1.4a3.78,3.78,0,0,0,2.53-.94c.21-.19.45-.4.7-.07a.56.56,0,0,1,0,.77,3.56,3.56,0,0,1-1.86,1.18c-.91.14-.86.94-.67,1.5s.72.45,1.12.05c.15-.15.33-.28.49,0a.84.84,0,0,1,0,.8c-.16.46-.61.46-1,.58a1.42,1.42,0,0,0-.77,1.81c.24.39.53.24.8,0s.7-1,1.08-.54-.08,1.28-.51,1.67c-.77.7-1.88.61-2.85.83C9.81,23.84,10,23.36,10,23.25Z"/><path class="cls-2" d="M15.2,23.39c-.2-1.08-.91-2-.36-3.11.14-.26.32-.62.68-.61s0,.61.4.71c.76-.4.54-1,.2-1.5a5.56,5.56,0,0,1-.58-1.14c-.83-2.35,0-4,2.36-4.68.5-.14,1-.29,1.4.28s-.2.76-.47,1.11a2.17,2.17,0,0,1-1.19.86c-.75.21-.95.79-.51,1.51A7.39,7.39,0,0,1,18,19.05a2.52,2.52,0,0,1-1.67,3.14C15.69,22.4,15.19,22.57,15.2,23.39Z"/><path class="cls-3" d="M20.75,8a11.2,11.2,0,0,0-.38,3.12c.13.82-.55.94-1.26,1.15a23.85,23.85,0,0,0,.09-6.08c0-.45.18-.56.56-.56.68,0,1.42-.12,1.66.77a7.17,7.17,0,0,0,.7,2.11c.45-.78.1-1.61.39-2.39.83.35,1.62.55,1.14,1.82a7.92,7.92,0,0,0-.12,2.25c0,.31.33.83-.16.89s-1.15.21-1.46-.49C21.53,9.67,21.14,8.81,20.75,8Z"/><path class="cls-3" d="M5.11,19.23c0-.92,0-1.83,0-2.75,0-.65,0-.91.86-.56,1.06.44,1.25.88.93,2a13.61,13.61,0,0,0-.28,3.21A1.18,1.18,0,0,0,8.3,22.34c.4-.13.74-.37,1,.06a.63.63,0,0,1-.14,1c-.39.16-.69.91-1.27.35a2.3,2.3,0,0,0-1.46-.5c-1.49,0-1.43-.9-1.35-1.93,0-.68,0-1.36,0-2Z"/><path class="cls-4" d="M16.85,8.34c0-.72,0-1.43,0-2.15,0-.3,0-.78.36-.75s1-.08,1.21.53c.46,1.11-.22,5.56-1.06,6.47-.15.16-.26.45-.55.32s-.2-.41-.16-.62A16.13,16.13,0,0,0,16.85,8.34Z"/><path class="cls-5" d="M22,22.62c.05-.4-.17-.85.22-1.2C22.1,21.82,22.45,22.3,22,22.62Z"/><path class="cls-2" d="M8.72,8.57C9.05,7.05,8,6.14,6,5.53c-1-.29-1.18.11-1.09.91.28,2.38.7,4.75.09,7.13,0,.39-.06.84.27,1.13a1.94,1.94,0,0,0,3-.53,4,4,0,0,0,.58-2.88A6.33,6.33,0,0,1,8.72,8.57Zm-2-1.32c.29,0,.36.24.41.38,0,.39-.1.69-.41.7S6.4,8,6.38,7.79,6.39,7.27,6.69,7.25Zm.2,6.16C6,13.34,6.48,12.5,6.34,12c.15-.51-.27-1.37.55-1.36s.8.92.86,1.56S7.5,13.45,6.89,13.41Z"/><path class="cls-2" d="M12.57,7.19c-.18-.6-.45-1.2-1.34-1S9.9,6.68,9.88,7.65c-.06,1.94-.24,3.89-.34,5.83a4.05,4.05,0,0,0,.2,2.06A3,3,0,0,0,10.94,13c.54.59.36,1.26.66,2a2.17,2.17,0,0,0,.58-2.54,1.5,1.5,0,0,1,0-1.58A4.16,4.16,0,0,0,12.57,7.19ZM11.68,8.6c0,.42-.08.94-.62,1-.32,0-.2-.34-.23-.53.2-.43-.08-1.11.53-1.21C11.73,7.79,11.73,8.3,11.68,8.6Z"/><path class="cls-2" d="M15.79,6.58c0-.34.06-.84-.44-.82s-1,0-1.14.65a31.27,31.27,0,0,0-1,8.09c1.56-.48.41-2.26,1.57-2.89.36.32-.13,1,.52,1s.75-.44.72-1C15.89,9.91,15.86,8.24,15.79,6.58ZM14.61,10c-.08,0-.21.22-.28,0-.21-.61.12-1,.66-1.72C14.9,9.09,15.37,9.66,14.61,10Z"/></g></g></svg>