<svg xmlns="http://www.w3.org/2000/svg" viewBox="0 0 130.75 25.56"><defs><style>.cls-1{fill:#ff00e7;}</style></defs><g id="Layer_2" data-name="Layer 2"><g id="Layer_1-2" data-name="Layer 1"><path class="cls-1" d="M11.9,2.13c.72.43,1.18,1.65,1.4,3.66s0,3.23-.52,3.63-1,.54-1.31.34-.42-.1-.37.3.33.77.92,1a1.87,1.87,0,0,1,1.11,1.28,14,14,0,0,1,0,3.22,8.92,8.92,0,0,1-1.29,4.1A10.1,10.1,0,0,1,7,24c-1.08.42-1.76.46-2.07.12a1.11,1.11,0,0,0-1-.44,1.27,1.27,0,0,0-.73.32.69.69,0,0,1-.57.2c-.28,0-.44-.08-.46-.24s-.21-.23-.54-.2A1.08,1.08,0,0,0,.8,24a.45.45,0,0,1-.63,0q-.34-.16,0-1.89a14,14,0,0,1,.61-2.32,13,13,0,0,0,.52-2.1c.19-1,.31-1.79.36-2.38s.09-1.73.27-3.52a9.14,9.14,0,0,1,.88-3.64,2.29,2.29,0,0,0,.47-1.43,2.83,2.83,0,0,1,0-1,10.58,10.58,0,0,0-.1-1.65A3.16,3.16,0,0,1,3.8,1.89C4.31,1.2,5.69,1,7.93,1.17A12.11,12.11,0,0,1,11.9,2.13ZM8.62,12.9c-.46.43-.73.59-.8.48a1.87,1.87,0,0,0-1.27-.64c-.53,0-1,.65-1.3,1.8a30.36,30.36,0,0,0-.63,3.16c-.22,1.39,0,2.14.6,2.24a3.38,3.38,0,0,0,2.23-.38,3.22,3.22,0,0,0,1.82-1.7c.28-.72.24-2.14-.12-4.28C9,13,8.8,12.74,8.62,12.9ZM6.67,4.19c-.29.3-.18,1.43,0,3.16.57.42,1.69.56,2.09.06s1.34-1,.31-3.41C9.71,5.35,7.73,3.07,6.67,4.19Z"/><path class="cls-1" d="M27.91,3c.36,1.43.13,2-.69,1.69q-.57-.25-1,.57c-.18.33-.61.31-1.3,0,.07,0-.27.3-1,.74a.55.55,0,0,1-.83-.25A1.46,1.46,0,0,0,22,5.05c-.53-.06-.76.73-.67,2.37a8.52,8.52,0,0,0,.45,3c.5,1.07,1.13,1.39,1.87,1a2.22,2.22,0,0,0,.85-.61,1.29,1.29,0,0,1,.6-.45c.23-.09.39.38.48,1.39A16.69,16.69,0,0,1,25.65,14c0,.49-.31.63-.8.43a1.48,1.48,0,0,0-1.18-.1A1.26,1.26,0,0,1,22.25,14a.75.75,0,0,0-1.11.2,6.53,6.53,0,0,0-.53,3.08c-.05,1.67.15,2.57.61,2.71a6.82,6.82,0,0,0,1.22.27c.36,0,.73-.3,1.11-1,.56-1,1.49-1.19,2.79-.53.59.3.67,1,.23,2.05s-.74,1.87-.92,2.42c-.25.71-.83,1-1.72.78s-1.42-.15-1.45.21c0,.21-.29.3-.88.24a1.17,1.17,0,0,1-1.11-.66c-.23-.51-.55-.39-1,.4s-.78.64-1.09-.4c-.16-.54-.39-.66-.7-.34a3.6,3.6,0,0,1-.83.63,1.66,1.66,0,0,1-1,.13c-.46-.06-.61-.54-.46-1.44s.36-2.33.63-4.29a15.79,15.79,0,0,1,1.05-4.29q.57-1.35.33-6.11a35.84,35.84,0,0,1-.06-5.74c.18-1,1.08-1.32,2.71-.91A15.63,15.63,0,0,0,23.32,2a1.81,1.81,0,0,0,1.16-.13c.17-.13.52-.45,1.06-.94s1.11-.2,1.72.86A3.59,3.59,0,0,1,27.91,3Z"/><path class="cls-1" d="M36.45,1.14a4.53,4.53,0,0,0,.9,0q.74-.08,1,1.47a2.9,2.9,0,0,0,.33,1,4.38,4.38,0,0,1,.4,1,4.7,4.7,0,0,1-.33,2.09,8.23,8.23,0,0,0-.47,2.24,12.32,12.32,0,0,0,.55,3.25c.4,1.65.71,2.11.9,1.37s.36-1.73.56-3.06A14.39,14.39,0,0,1,41,7.67a4.86,4.86,0,0,0,.21-2.15,8.67,8.67,0,0,1,.26-2.8A9.14,9.14,0,0,1,41.8,1.3l.71-.12A15.94,15.94,0,0,1,44.83,1c1.13,0,1.71.16,1.74.55a1.47,1.47,0,0,1-.13.81c-.09.09,0,.33.13.7s0,1.06-.55,2.11a19,19,0,0,0-1,2.25c-.2.49-.26.74-.17.75s.13.37.13,1.05a3.69,3.69,0,0,1-.27,1.6,5.76,5.76,0,0,0-.46,1.3,5.25,5.25,0,0,0-.16,1.23,5.57,5.57,0,0,1-.17,1.3c-.14.64-.23,1-.28,1.21s-.2.81-.44,1.91a24.23,24.23,0,0,0-.54,3.56c-.1,1.23-.15,1.95-.15,2.17,0,.56-.26.63-.65.22-.27-.25-.68-.22-1.23.07-.34.2-.55.15-.62-.13s-.18-.42-.33-.42-.53.28-1,.77c-.22.25-.45,0-.67-.75a8,8,0,0,1-.34-2.37c0-.81,0-1.24-.14-1.28a.93.93,0,0,0-.52,0c-.29,0-.37-.51-.24-1.62a14.74,14.74,0,0,0,.17-2.2c0-.36-.13-.5-.31-.4s-.27,0-.27-.41-.16-1.36-.32-3a20.87,20.87,0,0,1-.16-3.06c0-1-.21-1.07-.72-.33a4.49,4.49,0,0,0-.6,2.38,16.37,16.37,0,0,1-.27,2.68,31.73,31.73,0,0,1-1.16,4.19,7.09,7.09,0,0,0-.37,1.89,25.11,25.11,0,0,1-.25,2.51,4.07,4.07,0,0,1-.54,2,.68.68,0,0,1-.76.11c-.25-.08-.48.06-.69.4s-.36.48-.42.33a1.08,1.08,0,0,0-.49-.44,1.28,1.28,0,0,0-1.27.18c-.37.3-.39-.22-.09-1.56a12.43,12.43,0,0,1,.67-2.36,7.49,7.49,0,0,0,.44-2.13c.14-1.2.24-2.15.28-2.86s.15-1.43.28-2.22a2.9,2.9,0,0,1,.81-1.75,2.28,2.28,0,0,0,.49-1.83,4.6,4.6,0,0,0-.31-1.8c-.21-.42,0-1,.77-1.73a3.46,3.46,0,0,0,.78-1.9,6.42,6.42,0,0,0,.09-1.87C32.33,1.65,32.91,1,34.31.92A5.74,5.74,0,0,1,36,1,3.23,3.23,0,0,1,36.45,1.14Z"/><path class="cls-1" d="M60,3.1c.36,1.41.13,2-.69,1.67q-.57-.24-1,.57c-.17.33-.61.32-1.3,0,.08.06-.27.3-1,.74a.54.54,0,0,1-.82-.25,1.48,1.48,0,0,0-1.09-.65c-.54-.06-.76.73-.67,2.37a8.85,8.85,0,0,0,.44,2.94c.51,1.06,1.13,1.38,1.87,1a2.38,2.38,0,0,0,.86-.61,1.42,1.42,0,0,1,.59-.46c.24-.08.39.39.48,1.4a16.76,16.76,0,0,1,.1,2.24c-.05.49-.32.63-.8.43a1.46,1.46,0,0,0-1.19-.1A1.25,1.25,0,0,1,54.34,14a.76.76,0,0,0-1.11.2,6.25,6.25,0,0,0-.53,3.07c-.06,1.66.14,2.55.6,2.69a6.91,6.91,0,0,0,1.23.27c.36,0,.72-.29,1.11-1,.56-1,1.49-1.19,2.79-.53.58.3.66,1,.23,2s-.74,1.86-.92,2.41c-.25.71-.83,1-1.72.77s-1.43-.15-1.45.21c0,.21-.3.3-.88.24a1.17,1.17,0,0,1-1.11-.65c-.23-.52-.56-.39-1,.39s-.78.64-1.09-.39c-.15-.54-.38-.66-.7-.35A3.15,3.15,0,0,1,49,24a1.71,1.71,0,0,1-1,.13c-.46-.06-.61-.53-.46-1.43s.37-2.32.63-4.27a15.42,15.42,0,0,1,1.05-4.26q.59-1.35.33-6.09a37,37,0,0,1-.06-5.72c.18-1,1.08-1.3,2.72-.89a16,16,0,0,0,3.25.57A1.82,1.82,0,0,0,56.57,2q.26-.19,1-.93c.54-.49,1.11-.21,1.72.85A3.43,3.43,0,0,1,60,3.1Z"/><path class="cls-1" d="M61.74,22.58a1.1,1.1,0,0,1-.3-1.36,8.24,8.24,0,0,0,.18-3,12.73,12.73,0,0,1,.31-4,1.79,1.79,0,0,1,.32-.82c.14-.13.22-.53.22-1.19s0-1.09,0-1.61a4.59,4.59,0,0,1,.32-1.73,6.18,6.18,0,0,0,.14-2.31,10.06,10.06,0,0,0-.41-2.2,2.85,2.85,0,0,1,.21-2.07,1.82,1.82,0,0,1,1.55-1.23,5.86,5.86,0,0,1,1.38.06L67,1.42a3.22,3.22,0,0,0,1.69-.06c.55-.16,1.17-.32,1.86-.47A3.7,3.7,0,0,1,73,1.23a2.09,2.09,0,0,1,1.49,1.4c.35.54.15,1.31-.61,2.32A1.52,1.52,0,0,0,72.6,5c-.57.33-1,.39-1.23.19-.51-.15-.81-.18-.92-.08-.41.41-.66.6-.76.57a.67.67,0,0,1-.29-.09A1.13,1.13,0,0,0,69,5.4c-.76-.07-1-.05-.69.08A.72.72,0,0,1,68,5.14l0,0q-.61,0-.75,1.59a14.29,14.29,0,0,0,0,2.62c.76-.28,1.13-.42,1.1-.42.74-.23,1.35.08,1.84.93a4.22,4.22,0,0,1,.69,2.07c-.11.63-.35.92-.73.87-.1,0-.21-.08-.31-.23h-.23a2.5,2.5,0,0,0-.76.21,1.19,1.19,0,0,1-.76.13,1.42,1.42,0,0,1-.31-.26c-.15.1-.4,0-.73-.38-.2,0-.32.15-.34.45,0,.56-.13,1.36-.23,2.39a12.11,12.11,0,0,0,0,2.7,16.86,16.86,0,0,1,0,3.15A7.51,7.51,0,0,1,66,23.46q-.15.3-.21.24s-.12,0-.25.17c-.28.43-.54.47-.76.12a.21.21,0,0,1-.31,0,.91.91,0,0,0-.15.23c-.26.3-.47.28-.65-.07-.31.15-.48.05-.54-.31a12.13,12.13,0,0,1-1-.76A1,1,0,0,1,61.74,22.58Z"/><path class="cls-1" d="M79.65.9c1.15.3,1.77.69,1.86,1.18a39.38,39.38,0,0,1,.14,4.51,9.36,9.36,0,0,1-.1,1.19,7.18,7.18,0,0,0-.1,1c0,.21,0,.32-.13.32s-.2.13-.33.37a5.25,5.25,0,0,0-.3,1.85c0,1-.08,1.64-.08,2s0,.53-.13.49-.2.09-.33.39a8.27,8.27,0,0,0-.25,2.55,13.09,13.09,0,0,0,.1,2.47,5.21,5.21,0,0,1-.58,1c-.17.3-.24.47-.19.54s0,.16-.26.31a3,3,0,0,0-.81,1,2.37,2.37,0,0,1-1.06.85,1.75,1.75,0,0,1-.91.25,1,1,0,0,0-.66.22,1.37,1.37,0,0,0-.41.41c0,.1-.18.18-.43.25S74.1,24,74,23.43a3,3,0,0,1,0-.84A8.62,8.62,0,0,0,74.23,21c0-.85.1-1.48.15-1.87A3.72,3.72,0,0,1,75,17.51a6.62,6.62,0,0,0,.73-1.75,1.84,1.84,0,0,0,.06-.9,2.57,2.57,0,0,1-.1-.9,15.46,15.46,0,0,1,.65-3.21q.69-2.58.81-2.88c.37-.75.4-1.28.07-1.57C77,6.22,77,5.44,77,4A10,10,0,0,1,77.4.87c.18-.52.3-.71.38-.57A5.16,5.16,0,0,0,79.65.9Z"/><path class="cls-1" d="M94.67,3.06a2.71,2.71,0,0,1-.45,1.16c-.19.25-.44.61-.74,1.09a12.4,12.4,0,0,1-1.07,1.53c-.2.12-.51-.23-.92-1-.13-.27-.33,0-.61.68a1.64,1.64,0,0,0-.21.79.84.84,0,0,1-.37.67,3.82,3.82,0,0,0-1.1,1.82c-.08.29-.19.8-.34,1.54a8.59,8.59,0,0,1-.5,1.69,10.38,10.38,0,0,0-.46,2.56c-.13,1.3-.06,2,.19,2.2s.68-.06,1.26-.83c.23-.32.66-.38,1.3-.19.28.12.32.9.12,2.33s-.35,2.34-.43,2.72a1.16,1.16,0,0,1-.62.89,2.08,2.08,0,0,0-.75.6,1.13,1.13,0,0,0-.27.59.73.73,0,0,1-.26.47c-.31.29-.58.22-.81-.22a7.13,7.13,0,0,0-1.95-.91,2.51,2.51,0,0,1-1.53-2c-.12-.44-.23-.65-.32-.62s-.23-.06-.4-.26-.18-.65-.06-1.38a13.88,13.88,0,0,0,.1-2.69A14.93,14.93,0,0,1,84.08,12a13.55,13.55,0,0,1,1.07-3.26,28.63,28.63,0,0,0,1.59-3.16c.82-1.79,1.37-3,1.62-3.6s.53-.87.82-.8a4.35,4.35,0,0,0,1.47,0A2.89,2.89,0,0,0,92.18.59,3,3,0,0,1,93.63,0c.61-.07,1,.6,1.07,2A3,3,0,0,1,94.67,3.06Z"/><path class="cls-1" d="M99.2.94c1.15.31,1.77.73,1.86,1.25s.13,2.11.13,4.79a8.8,8.8,0,0,1-.1,1.26,9.57,9.57,0,0,0-.09,1c0,.23,0,.35-.14.35s-.19.13-.32.38a5.6,5.6,0,0,0-.31,2c0,1-.08,1.73-.08,2.12s0,.57-.13.53-.2.1-.32.41a9,9,0,0,0-.25,2.71,13.72,13.72,0,0,0,.1,2.62A5.59,5.59,0,0,1,99,21.42c-.18.32-.24.51-.19.57s0,.18-.27.33a3.31,3.31,0,0,0-.8,1.09,2.48,2.48,0,0,1-1.07.9,1.77,1.77,0,0,1-.9.27.9.9,0,0,0-.67.23,1.3,1.3,0,0,0-.4.43c0,.1-.18.2-.44.27s-.58-.06-.68-.66a3.36,3.36,0,0,1,0-.89,8.88,8.88,0,0,0,.19-1.72c.06-.91.11-1.57.16-2a4.2,4.2,0,0,1,.57-1.7,7.57,7.57,0,0,0,.73-1.85,1.88,1.88,0,0,0,0-1,3.37,3.37,0,0,1-.09-1,16.38,16.38,0,0,1,.65-3.4c.46-1.83.72-2.85.8-3.06.38-.8.41-1.36.08-1.67-.16-.08-.21-.91-.17-2.5A11.75,11.75,0,0,1,96.94.9c.19-.54.31-.74.39-.6A4.89,4.89,0,0,0,99.2.94Z"/><path class="cls-1" d="M115.66.27A2.78,2.78,0,0,1,117,2.2c.28,1,.5,1.78.65,2.37a2.74,2.74,0,0,1-.32,1.87A8.65,8.65,0,0,0,116.54,9a17.78,17.78,0,0,0-.3,3.38,13.48,13.48,0,0,1-.23,2.83,14.57,14.57,0,0,0-.44,1.8,5.45,5.45,0,0,1-1,2c-.59.81-.86,1.3-.82,1.46s-.18.57-.66,1.23-.9.92-1.23.79a3.76,3.76,0,0,0-1.41-.2,2.59,2.59,0,0,0-2.18,1.47c-.25.36-.57.36-.94,0a5.67,5.67,0,0,0-1.35-1c-.54-.3-.75-.21-.62.25a.66.66,0,0,1-.49.92c-.47.15-.78-.12-1-.82a19.39,19.39,0,0,0-.77-2.3c-.66-1.67-.62-3.87.12-6.62a13.41,13.41,0,0,0,.29-4.74,20.84,20.84,0,0,1-.1-4,3.06,3.06,0,0,1,1-1.89c.59-.53,1.16-1.09,1.73-1.68a4,4,0,0,1,1.16-1A14.7,14.7,0,0,1,109.2.56c1-.15,2.29-.29,3.86-.44A4.3,4.3,0,0,1,115.66.27ZM110.5,4.9c-1.19-.79-1.82-.69-1.87.29A16.77,16.77,0,0,1,108,8.1a16.31,16.31,0,0,0-.73,5c.08,1,.11,1.94.1,2.74s.25,1.19.78,1.19a6.7,6.7,0,0,1,2,.39c.8.25,1.28,0,1.44-.83a9,9,0,0,1,.76-2.32,17.36,17.36,0,0,0,1-2.64c.31-1,.52-1.78.63-2.32a5.17,5.17,0,0,0,0-2c-.23-1.1-.73-1.67-1.49-1.71A3.37,3.37,0,0,1,110.5,4.9Z"/><path class="cls-1" d="M130.71,3a.8.8,0,0,1-.34.92c-.41.32-.63.55-.65.7a6.46,6.46,0,0,1-.38,1.14,2.22,2.22,0,0,1-.65,1,.45.45,0,0,1-.64-.09.72.72,0,0,0-.55-.35.6.6,0,0,0-.46.14c-.07.1-.24.15-.49.15a2.55,2.55,0,0,0-1.38.52,1.1,1.1,0,0,0-.31,1.19c.13.53.26,1,.38,1.38a14.22,14.22,0,0,0,1.8,3.17,7.15,7.15,0,0,1,.83,2.84c.13,1.23.2,2.05.2,2.47a5.74,5.74,0,0,1-.74,2.17,9.63,9.63,0,0,1-1.28,2.1c-.36.42-.55.59-.58.5s-.29,0-.8.2-.73.37-.66.45-.06.18-.37.33a2.68,2.68,0,0,1-1.32.22c-.55,0-1-.05-1.28-.08a1.16,1.16,0,0,1-.74-.22,1.18,1.18,0,0,0-.71-.22c-.31,0-.44.14-.4.41a.67.67,0,0,1-.17.62q-.27.23-.54-.09a.94.94,0,0,1-.15-.86,2.8,2.8,0,0,1,.15-.7c0-.1,0-.37-.27-.81a2.2,2.2,0,0,1-.17-1.51c.12-.57.21-1,.29-1.4s0-.45-.17-.39-.28-.09-.33-.46c-.18-.91.6-1.7,2.33-2.36.67-.22,1-.2,1.09,0s.14.51.22.76a1.66,1.66,0,0,1-.14.9,1,1,0,0,0,.1,1c.15.37.47.37,1,0a3.63,3.63,0,0,0,1-1c.26-.47.08-1-.53-1.73-.11-.07-.13-.48-.08-1.22a1.7,1.7,0,0,0-.5-1,1.14,1.14,0,0,0-.59-.37c-.22-.05-.36-.24-.44-.59a9.94,9.94,0,0,1-.19-1.45,3.62,3.62,0,0,0-.34-1.46,4.53,4.53,0,0,1-.11-2.21,12.18,12.18,0,0,1,.8-2.78,26,26,0,0,1,1.07-2.71c.15-.37.58-.59,1.3-.66a3.37,3.37,0,0,0,1.75-.63,2.3,2.3,0,0,1,1.61-.31c.61.09,1.17.14,1.68.17s1,.58,1.56,1.69A4.68,4.68,0,0,1,130.71,3Z"/></g></g></svg>