<svg xmlns="http://www.w3.org/2000/svg" viewBox="0 0 176.47 29.15"><defs><style>.cls-1{fill:#ff00e7;}</style></defs><g id="Layer_2" data-name="Layer 2"><g id="Layer_1-2" data-name="Layer 1"><path class="cls-1" d="M11.75,8a2.8,2.8,0,0,1-.45,1.14,11.14,11.14,0,0,0-.77,1.07,12.93,12.93,0,0,1-1.11,1.49c-.21.12-.53-.22-.95-1-.13-.26-.34,0-.63.67a1.49,1.49,0,0,0-.22.77.82.82,0,0,1-.37.66A3.71,3.71,0,0,0,6.1,14.54c-.08.28-.2.79-.36,1.52a8.18,8.18,0,0,1-.51,1.65,9.79,9.79,0,0,0-.47,2.51c-.13,1.27-.07,2,.19,2.16s.7-.06,1.31-.82c.23-.31.68-.37,1.34-.18q.44.18.12,2.28c-.21,1.4-.36,2.29-.43,2.67a1.18,1.18,0,0,1-.66.87,2.25,2.25,0,0,0-.77.59,1.12,1.12,0,0,0-.28.57.67.67,0,0,1-.27.46c-.32.29-.59.21-.83-.21a7.82,7.82,0,0,0-2-.89,2.49,2.49,0,0,1-1.58-2c-.13-.42-.24-.63-.33-.6s-.23-.06-.41-.25S0,24.23.08,23.52a12.07,12.07,0,0,0,.09-2.64A14.3,14.3,0,0,1,.81,16.7a13,13,0,0,1,1.1-3.19,26.24,26.24,0,0,0,1.64-3.1C4.41,8.65,5,7.48,5.23,6.88s.55-.85.85-.78a5.32,5.32,0,0,0,1.52,0,3.1,3.1,0,0,0,1.58-.53A3.11,3.11,0,0,1,10.69,5c.63-.07,1,.59,1.1,2A2.71,2.71,0,0,1,11.75,8Z"/><path class="cls-1" d="M21.2,8.41a7.76,7.76,0,0,0-.08,2.75c.08.59.17,1.08.27,1.5a5.75,5.75,0,0,1,0,1.81A7.73,7.73,0,0,1,21.18,16a6.21,6.21,0,0,0,.09,2.09c.11,1.17.15,2.46.15,3.86a13.65,13.65,0,0,1-.15,2.71c-.15.4-.31.63-.48.68a2.07,2.07,0,0,0-.7.76c-.34.48-.43.69-.28.64s0,.08-.57.39a6.4,6.4,0,0,1-.86.48,3.65,3.65,0,0,1-.56-.16q-.54-.12-.63-.42c-.06-.2-.23-.29-.52-.29s-.49-.22-.63-.66a1.64,1.64,0,0,1,0-1.18,1.85,1.85,0,0,0,.08-1.55c-.21-.34-.57-.31-1.08.1A4.72,4.72,0,0,0,14,24.62a5.47,5.47,0,0,0-.56,1.72,1.78,1.78,0,0,1-.93,1.47c-.52.24-.81.34-.88.3a1.54,1.54,0,0,0-.69.06c-.41.08-.58.2-.52.36s0,.25-.25.28c-.41.08-.62-.43-.62-1.52,0-.4,0-.94,0-1.63a3.33,3.33,0,0,1,.59-1.95A5.23,5.23,0,0,0,11,21.66c.17-.81.28-1.46.33-1.94a3.11,3.11,0,0,1,.88-2.06,3.34,3.34,0,0,0,.73-1.6q.2-1,.3-1.83t.39-.9c.18,0,.37-.24.57-.61s.23-.6.16-.76,0-.36.34-.6a3,3,0,0,0,.59-1.79A9.55,9.55,0,0,1,16,6.9a2.28,2.28,0,0,1,2-1.39,17.67,17.67,0,0,1,2.41-.2c.59,0,.9.75.92,2.27A5.7,5.7,0,0,1,21.2,8.41Zm-3.51,4.06-2,6a4.43,4.43,0,0,0,1.44.13,1.21,1.21,0,0,0,.93-.47Z"/><path class="cls-1" d="M47.15,8.57a7.91,7.91,0,0,0-.07,2.73,10.74,10.74,0,0,0,.27,1.48,5.69,5.69,0,0,1,0,1.8,7.47,7.47,0,0,1-.25,1.56,6.54,6.54,0,0,0,.1,2.07q.15,1.74.15,3.84a14.48,14.48,0,0,1-.15,2.69c-.15.39-.31.61-.48.67s-.4.3-.71.75-.42.69-.27.63,0,.08-.57.4a7.93,7.93,0,0,1-.86.47,3.65,3.65,0,0,1-.56-.16c-.36-.08-.57-.21-.63-.41s-.23-.3-.52-.3-.49-.22-.63-.65A1.62,1.62,0,0,1,42,25a1.82,1.82,0,0,0,.07-1.54c-.2-.34-.56-.31-1.07.1A4.36,4.36,0,0,0,40,24.66a5,5,0,0,0-.56,1.7,1.8,1.8,0,0,1-.93,1.46,2.19,2.19,0,0,1-.88.3,1.51,1.51,0,0,0-.7.05c-.4.08-.58.2-.51.36s0,.25-.25.28c-.41.08-.62-.42-.62-1.51,0-.39,0-.93,0-1.62a3.28,3.28,0,0,1,.6-1.93,5.18,5.18,0,0,0,.86-2c.17-.8.27-1.44.33-1.92a3.14,3.14,0,0,1,.88-2.05,3.23,3.23,0,0,0,.73-1.58c.12-.66.23-1.27.3-1.82s.2-.85.39-.89.37-.24.57-.61.23-.6.15-.75,0-.36.35-.6a2.9,2.9,0,0,0,.59-1.77,9.41,9.41,0,0,1,.71-2.65,2.32,2.32,0,0,1,2-1.39,19.4,19.4,0,0,1,2.42-.19c.58,0,.89.75.92,2.25A5,5,0,0,1,47.15,8.57Zm-3.52,4.95-2,5.05a5.3,5.3,0,0,0,1.44.11,1.26,1.26,0,0,0,.92-.39Z"/><path class="cls-1" d="M60.86,8.42a2.53,2.53,0,0,1-.44,1.11,10.06,10.06,0,0,0-.75,1A11.6,11.6,0,0,1,58.59,12c-.2.12-.51-.22-.91-1-.13-.26-.34,0-.62.66a1.42,1.42,0,0,0-.21.74.77.77,0,0,1-.36.64,3.52,3.52,0,0,0-1.11,1.74c-.08.27-.19.76-.35,1.47a8.06,8.06,0,0,1-.49,1.61,8.93,8.93,0,0,0-.47,2.44c-.12,1.24-.06,1.94.2,2.1s.67-.05,1.26-.8c.23-.29.67-.35,1.3-.17q.42.18.12,2.22c-.21,1.36-.35,2.23-.42,2.6a1.15,1.15,0,0,1-.64.85,2,2,0,0,0-.74.57,1,1,0,0,0-.27.55.65.65,0,0,1-.27.45c-.31.28-.57.21-.81-.2a7.21,7.21,0,0,0-1.95-.87,2.39,2.39,0,0,1-1.53-1.94c-.13-.42-.24-.61-.32-.59s-.23-.06-.41-.24-.17-.63-.06-1.32a12,12,0,0,0,.1-2.57,14,14,0,0,1,.61-4.07,12.45,12.45,0,0,1,1.08-3.1,27.55,27.55,0,0,0,1.58-3c.83-1.71,1.38-2.86,1.64-3.43s.52-.84.82-.77a5,5,0,0,0,1.47,0,3,3,0,0,0,1.54-.52,3,3,0,0,1,1.45-.55c.62-.07,1,.58,1.07,1.94A2.47,2.47,0,0,1,60.86,8.42Z"/><path class="cls-1" d="M73.33,6.27a2,2,0,0,1,.21,1.46A4,4,0,0,1,73.14,9a1.05,1.05,0,0,0-.21.79,2.83,2.83,0,0,1-.06.94c-.08.37-.23.49-.46.34a1.73,1.73,0,0,0-.77-.27,2.48,2.48,0,0,0-1.65.72,1.24,1.24,0,0,0-.28,1.12c.06.53.09.89.09,1.09,0-.07-.16.16-.49.68A5,5,0,0,0,69,16.26c0,1-.06,1.65-.06,2s0,.57-.13.52-.2.07-.33.34a8.88,8.88,0,0,0-.27,2.63,13.32,13.32,0,0,0,.08,2.52c0,.12-.15.45-.54,1-.2.29-.27.48-.21.56s0,.16-.24.26a3.33,3.33,0,0,0-.85,1,2.08,2.08,0,0,1-1,.79,1.87,1.87,0,0,1-.91.17.86.86,0,0,0-.65.17,1.37,1.37,0,0,0-.41.41c0,.1-.18.18-.44.23-.43.1-.69-.14-.77-.71a2.15,2.15,0,0,1,0-.87,9.43,9.43,0,0,0,.23-1.61q.11-1.32.15-1.92a3.67,3.67,0,0,1,.59-1.6A6.16,6.16,0,0,0,64,20.43a1.92,1.92,0,0,0,.06-.92,2.7,2.7,0,0,1-.1-.92,14.83,14.83,0,0,1,.65-3.25c.46-1.74.73-2.7.8-2.88.34-.82.35-1.36,0-1.61s-.77-.15-1.46.22a1.45,1.45,0,0,1-1.07.12c-.31,0-.43-.34-.37-.87a12,12,0,0,0,.1-1.24A7.18,7.18,0,0,1,63,7a1.88,1.88,0,0,1,1.88-1.43A17.21,17.21,0,0,1,68,5.52a23.93,23.93,0,0,0,3.72-.15A2.93,2.93,0,0,1,73.33,6.27Z"/><path class="cls-1" d="M86.39,7.41c.36,1.42.13,2-.69,1.67q-.57-.24-1,.57c-.18.33-.62.32-1.31,0,.08.06-.27.3-1,.74a.55.55,0,0,1-.83-.25,1.46,1.46,0,0,0-1.09-.65c-.53,0-.76.73-.67,2.37a8.71,8.71,0,0,0,.44,2.93c.52,1.06,1.14,1.39,1.88,1a2.19,2.19,0,0,0,.86-.61,1.32,1.32,0,0,1,.59-.45c.24-.08.4.38.49,1.39a16.37,16.37,0,0,1,.09,2.24c0,.49-.32.63-.8.43a1.47,1.47,0,0,0-1.19-.1,1.28,1.28,0,0,1-1.42-.29.76.76,0,0,0-1.11.2,6.44,6.44,0,0,0-.54,3.06c0,1.66.16,2.56.62,2.69a7,7,0,0,0,1.22.27c.36,0,.73-.29,1.12-1,.56-1,1.49-1.18,2.79-.53.59.3.66,1,.23,2s-.74,1.86-.92,2.41-.83,1-1.72.77S81,28.1,81,28.45s-.29.3-.88.25-1-.27-1.11-.65-.56-.39-1,.38-.78.65-1.09-.38c-.15-.55-.39-.66-.71-.35a3.39,3.39,0,0,1-.82.63,1.63,1.63,0,0,1-1,.12c-.46-.05-.61-.53-.46-1.42s.37-2.32.64-4.26a14.81,14.81,0,0,1,1-4.27c.38-.89.49-2.92.32-6.07a36.22,36.22,0,0,1-.05-5.71c.18-1,1.08-1.31,2.72-.9a14.84,14.84,0,0,0,3.25.57A1.78,1.78,0,0,0,83,6.27c.17-.13.52-.45,1.06-.94s1.11-.2,1.72.86A3.3,3.3,0,0,1,86.39,7.41Z"/><path class="cls-1" d="M97.79,5.3a2.9,2.9,0,0,1,2.71,2c.13.44.2.7.23.79s.15.44.38,1.06a5.64,5.64,0,0,1,.16,2.59,17.28,17.28,0,0,1-.38,2.35,2.64,2.64,0,0,1-.37.89,1.87,1.87,0,0,0-.31.69,2,2,0,0,0-.16.53,2,2,0,0,1-.26.4,2.29,2.29,0,0,0-.51,1.28.52.52,0,0,1-.6.5,7.18,7.18,0,0,0-1,0c-.39.08-.55.45-.49,1.11A16.77,16.77,0,0,0,98,22.47a9.64,9.64,0,0,1,.69,2.93c-.07.36-.15.55-.23.56a1.48,1.48,0,0,0-.45.19c-.26.14-.33.29-.22.43a.61.61,0,0,1,0,.62,1.06,1.06,0,0,1-.87.75,2.2,2.2,0,0,0-.93.53c-.19.2-.53.22-1,.06-.3-.06-.38-.3-.24-.71a3.15,3.15,0,0,0,.18-1.17c-.05-.36-.14-.88-.3-1.57s-.26-1.18-.35-1.48c-.21-.78-.34-3-.55-2.91a14.37,14.37,0,0,0-1.28,3.76,9.57,9.57,0,0,1-.3,1.83c-.12.24.12.38-.22.44a2,2,0,0,0-.83.35c-.26.18-.38.3-.36.37s-.16.13-.55.17-.71.21-.71.39c0,.39-.31.59-.93.59-.26,0-.39-.59-.39-1.79a13.28,13.28,0,0,1,.1-1.65c.06-.55.13-1.05.19-1.49a16.8,16.8,0,0,1,.68-2.53,21.84,21.84,0,0,0,.71-2.47,1.15,1.15,0,0,0-.18-.92q-.27-.36.3-1.26c.89-1.38,1.1-2.39.65-3-.28-.36,0-1,.77-1.95a1.92,1.92,0,0,0,.39-1.33c0-.53-.06-1-.1-1.48a1.88,1.88,0,0,1,.21-1.21l.76-1.24c.3-.46,1.24-.75,2.83-.87A12.38,12.38,0,0,1,97.79,5.3Zm-.42,4.76A3.16,3.16,0,0,0,96,9.68c-.7-.11-1,.05-.94.47a20.64,20.64,0,0,1-.51,3.71c-.38,2-.5,3-.35,2.84s.37-.27.77-.54a3.9,3.9,0,0,0,1.06-1.08A17.87,17.87,0,0,0,97,12.36C97.41,11,97.53,10.24,97.37,10.06Z"/><path class="cls-1" d="M106.33,5.87c1.15.29,1.77.67,1.86,1.15a38.15,38.15,0,0,1,.14,4.44,8.94,8.94,0,0,1-.1,1.17,9.09,9.09,0,0,0-.1,1c0,.22,0,.33-.13.33s-.2.12-.33.36a5,5,0,0,0-.3,1.82c-.05.95-.08,1.6-.08,2s0,.52-.13.48-.2.1-.33.38a8.08,8.08,0,0,0-.25,2.51,12.75,12.75,0,0,0,.1,2.44,4.52,4.52,0,0,1-.58,1c-.17.29-.24.47-.19.53s0,.16-.27.3a3,3,0,0,0-.8,1,2.48,2.48,0,0,1-1.07.82,1.78,1.78,0,0,1-.9.26,1,1,0,0,0-.68.22,1.31,1.31,0,0,0-.4.39c0,.1-.19.18-.44.25s-.59-.05-.69-.61a3.37,3.37,0,0,1,0-.83,7.51,7.51,0,0,0,.19-1.59c0-.84.11-1.45.15-1.84a3.76,3.76,0,0,1,.58-1.57,7,7,0,0,0,.73-1.71,1.8,1.8,0,0,0,.06-.89,2.47,2.47,0,0,1-.1-.88,14.78,14.78,0,0,1,.65-3.16c.46-1.7.73-2.64.81-2.84.38-.74.4-1.26.07-1.55-.15-.07-.21-.84-.17-2.31a9.72,9.72,0,0,1,.4-3c.18-.5.31-.69.39-.56A5.3,5.3,0,0,0,106.33,5.87Z"/><path class="cls-1" d="M120.64,7.54a.85.85,0,0,1-.29.91c-.35.31-.53.54-.55.69a8.38,8.38,0,0,1-.33,1.12,2.1,2.1,0,0,1-.55,1q-.36.21-.54-.09a.66.66,0,0,0-.48-.35.45.45,0,0,0-.39.15c-.06.09-.2.14-.42.14a2.08,2.08,0,0,0-1.18.51,1.19,1.19,0,0,0-.26,1.18c.11.52.22,1,.33,1.36a14,14,0,0,0,1.53,3.12,7.74,7.74,0,0,1,.7,2.8q.18,1.81.18,2.43a6.43,6.43,0,0,1-.63,2.14,9.14,9.14,0,0,1-1.1,2.07c-.3.42-.46.58-.48.49s-.25,0-.69.2-.63.37-.57.44,0,.18-.31.33a1.93,1.93,0,0,1-1.13.21c-.46,0-.83,0-1.09-.07a.88.88,0,0,1-.63-.22.93.93,0,0,0-.61-.22c-.26,0-.37.14-.34.4a.79.79,0,0,1-.14.62c-.16.14-.31.12-.46-.09a1.06,1.06,0,0,1-.13-.85,2.54,2.54,0,0,1,.13-.69c0-.1,0-.37-.23-.8a2.46,2.46,0,0,1-.15-1.49c.1-.56.18-1,.25-1.38s0-.44-.15-.38-.24-.09-.28-.45c-.15-.9.51-1.67,2-2.33q.85-.33.93.06c.05.25.12.5.18.74a1.79,1.79,0,0,1-.11.89,1.09,1.09,0,0,0,.08,1c.13.37.4.37.83,0a3.41,3.41,0,0,0,.86-1q.33-.69-.45-1.71c-.09-.07-.11-.47-.07-1.19a1.79,1.79,0,0,0-.42-1,.87.87,0,0,0-.51-.36c-.18-.05-.31-.25-.37-.59a10.08,10.08,0,0,1-.17-1.43,3.6,3.6,0,0,0-.29-1.43,5.44,5.44,0,0,1-.1-2.18,14.93,14.93,0,0,1,.69-2.74c.43-1.4.74-2.28.91-2.67s.5-.58,1.11-.66a2.68,2.68,0,0,0,1.5-.61,1.76,1.76,0,0,1,1.37-.31,13.76,13.76,0,0,0,1.44.16c.43,0,.88.58,1.33,1.67C120.49,7.23,120.58,7.4,120.64,7.54Z"/><path class="cls-1" d="M133.67,6.13a2,2,0,0,1,.21,1.49,4.22,4.22,0,0,1-.4,1.26,1.08,1.08,0,0,0-.21.8,2.63,2.63,0,0,1-.06,1c-.08.39-.23.5-.46.35a1.69,1.69,0,0,0-.77-.27,2.47,2.47,0,0,0-1.65.73,1.27,1.27,0,0,0-.28,1.15c.06.53.09.9.09,1.1,0-.07-.16.16-.49.69a5.18,5.18,0,0,0-.29,1.91c0,1-.06,1.68-.06,2.06s0,.59-.13.54-.2.06-.33.34a9.19,9.19,0,0,0-.27,2.67,13.81,13.81,0,0,0,.08,2.57c0,.12-.15.45-.53,1-.21.31-.28.5-.22.57s0,.17-.25.27a3.67,3.67,0,0,0-.84,1,2.1,2.1,0,0,1-1,.8,2,2,0,0,1-.92.18.83.83,0,0,0-.65.17,1.5,1.5,0,0,0-.41.42c0,.1-.18.18-.43.23-.44.1-.69-.14-.78-.73a2.4,2.4,0,0,1,0-.88,7.85,7.85,0,0,0,.23-1.64c.08-.89.13-1.54.16-1.95a3.77,3.77,0,0,1,.59-1.62,6.45,6.45,0,0,0,.75-1.78,2,2,0,0,0,.06-.94,2.73,2.73,0,0,1-.1-.93,16.25,16.25,0,0,1,.65-3.31c.46-1.76.73-2.74.81-2.92.33-.84.34-1.39,0-1.64s-.77-.16-1.46.23a1.39,1.39,0,0,1-1.07.11c-.31-.05-.43-.34-.37-.88A12.34,12.34,0,0,0,123,9a7.51,7.51,0,0,1,.3-2.1,1.9,1.9,0,0,1,1.88-1.45,16.35,16.35,0,0,1,3.14-.07,23.21,23.21,0,0,0,3.72-.16A3,3,0,0,1,133.67,6.13Z"/><path class="cls-1" d="M139.3,5.87c1.15.29,1.77.68,1.86,1.16a38,38,0,0,1,.14,4.43,9.22,9.22,0,0,1-.1,1.18,6.73,6.73,0,0,0-.1.95c0,.22,0,.33-.13.33s-.2.12-.33.36a5,5,0,0,0-.3,1.82c-.06.95-.08,1.61-.08,2s0,.52-.13.48-.2.09-.33.38a7.76,7.76,0,0,0-.25,2.51,12.68,12.68,0,0,0,.1,2.43,5,5,0,0,1-.58,1c-.18.29-.24.46-.19.52s0,.16-.27.31a2.87,2.87,0,0,0-.8,1,2.55,2.55,0,0,1-1.08.83,1.8,1.8,0,0,1-.89.25,1,1,0,0,0-.68.22,1.2,1.2,0,0,0-.4.39c0,.1-.18.18-.44.25s-.59-.06-.69-.61a3.37,3.37,0,0,1,0-.83,7.37,7.37,0,0,0,.19-1.58c0-.85.1-1.46.16-1.84a3.62,3.62,0,0,1,.57-1.57,7.25,7.25,0,0,0,.73-1.72,1.89,1.89,0,0,0,.06-.88,2.51,2.51,0,0,1-.1-.88,14.13,14.13,0,0,1,.65-3.16c.46-1.7.73-2.64.8-2.83.39-.75.41-1.27.08-1.55-.15-.07-.21-.84-.17-2.31a9.67,9.67,0,0,1,.4-3c.18-.51.31-.69.38-.56A5.28,5.28,0,0,0,139.3,5.87Z"/><path class="cls-1" d="M152.78,8.22a2.66,2.66,0,0,1-.39,1.1,10.77,10.77,0,0,0-.65,1,13.61,13.61,0,0,1-.94,1.45c-.18.12-.45-.22-.81-1-.11-.25-.3,0-.54.66a1.46,1.46,0,0,0-.18.74.84.84,0,0,1-.32.64,3.68,3.68,0,0,0-1,1.73q-.1.4-.3,1.47a9.43,9.43,0,0,1-.44,1.61,10.24,10.24,0,0,0-.4,2.43c-.12,1.24-.06,1.93.17,2.09s.59-.05,1.1-.79c.21-.3.59-.36,1.15-.17.25.11.28.85.1,2.21S149,25.65,149,26a1.13,1.13,0,0,1-.56.85,1.77,1.77,0,0,0-.65.57,1.07,1.07,0,0,0-.24.55.7.7,0,0,1-.23.45c-.27.28-.51.21-.71-.21a6.7,6.7,0,0,0-1.72-.86,2.36,2.36,0,0,1-1.34-1.94c-.11-.41-.21-.61-.28-.58s-.2-.06-.36-.24a2.21,2.21,0,0,1,0-1.32,13.55,13.55,0,0,0,.08-2.56,16.18,16.18,0,0,1,.54-4.06,14.25,14.25,0,0,1,.94-3.09,27.42,27.42,0,0,0,1.4-3c.73-1.71,1.21-2.85,1.43-3.42s.47-.83.73-.76a3.82,3.82,0,0,0,1.29,0,2.46,2.46,0,0,0,1.34-.52,2.43,2.43,0,0,1,1.28-.55c.54-.07.85.57.94,1.93A2.69,2.69,0,0,1,152.78,8.22Z"/><path class="cls-1" d="M163.44,8.52a7.37,7.37,0,0,0-.08,2.72,12.68,12.68,0,0,0,.27,1.47,5.63,5.63,0,0,1,0,1.79,7.33,7.33,0,0,1-.25,1.55,6.48,6.48,0,0,0,.1,2.06c.1,1.16.15,2.43.15,3.82a14.14,14.14,0,0,1-.15,2.67c-.15.39-.31.62-.48.67s-.4.3-.71.75-.42.68-.27.62,0,.08-.57.4a7,7,0,0,1-.86.47,3.65,3.65,0,0,1-.56-.16c-.36-.08-.56-.21-.63-.41a.47.47,0,0,0-.51-.3c-.29,0-.5-.21-.64-.65a1.56,1.56,0,0,1,0-1.15,1.86,1.86,0,0,0,.08-1.54c-.21-.34-.57-.31-1.08.1a4.51,4.51,0,0,0-1.07,1.12,5.25,5.25,0,0,0-.56,1.69,1.8,1.8,0,0,1-.93,1.46c-.52.23-.81.33-.89.29a1.54,1.54,0,0,0-.69.06c-.4.08-.58.2-.51.36s0,.24-.25.27c-.41.08-.61-.42-.61-1.49,0-.4,0-.93,0-1.62a3.18,3.18,0,0,1,.59-1.92,5.14,5.14,0,0,0,.86-2,16.57,16.57,0,0,0,.32-1.9,3.13,3.13,0,0,1,.89-2.05,3.19,3.19,0,0,0,.73-1.57c.12-.66.23-1.26.3-1.81s.21-.84.39-.88.37-.24.57-.61.23-.59.15-.75,0-.35.35-.59a2.9,2.9,0,0,0,.59-1.77A9.71,9.71,0,0,1,158.22,7a2.3,2.3,0,0,1,2-1.38,19.73,19.73,0,0,1,2.42-.2c.58,0,.89.75.92,2.25A5.79,5.79,0,0,1,163.44,8.52Zm-3.33,2.94-2.13,7a4.51,4.51,0,0,0,1.56.16,1.26,1.26,0,0,0,1-.55Z"/><path class="cls-1" d="M176.44,7.68a.86.86,0,0,1-.3.9,1.82,1.82,0,0,0-.56.69,5.75,5.75,0,0,1-.32,1.12,2,2,0,0,1-.56.94q-.36.22-.54-.09a.62.62,0,0,0-.47-.34.45.45,0,0,0-.39.14.49.49,0,0,1-.43.15,2.07,2.07,0,0,0-1.18.5,1.19,1.19,0,0,0-.26,1.18q.16.78.33,1.35a14.37,14.37,0,0,0,1.54,3.12,7.82,7.82,0,0,1,.7,2.78q.18,1.81.18,2.43a6.3,6.3,0,0,1-.64,2.13,9.77,9.77,0,0,1-1.09,2.06c-.31.41-.47.58-.49.49s-.25,0-.69.2-.63.36-.57.43,0,.18-.32.33a2,2,0,0,1-1.13.22c-.46,0-.83-.05-1.09-.08a1,1,0,0,1-.64-.21.85.85,0,0,0-.61-.22c-.26,0-.37.13-.34.4a.71.71,0,0,1-.14.61c-.16.15-.31.12-.46-.09a1.09,1.09,0,0,1-.14-.85,3.66,3.66,0,0,1,.14-.69c0-.09,0-.36-.23-.79a2.44,2.44,0,0,1-.15-1.48q.15-.84.24-1.38c0-.31,0-.44-.14-.38s-.23-.09-.28-.45c-.15-.89.52-1.67,2-2.32.56-.21.88-.2.93.06s.11.5.18.74a1.7,1.7,0,0,1-.12.89,1.1,1.1,0,0,0,.09.95c.13.37.41.37.83,0a3.47,3.47,0,0,0,.87-1c.22-.45.06-1-.46-1.7-.09-.07-.11-.47-.07-1.19a1.79,1.79,0,0,0-.42-1,1,1,0,0,0-.51-.37c-.18,0-.31-.24-.37-.57a10.5,10.5,0,0,1-.17-1.43,3.78,3.78,0,0,0-.29-1.43,5.19,5.19,0,0,1-.1-2.17,14.07,14.07,0,0,1,.69-2.73c.43-1.39.74-2.28.91-2.66s.5-.58,1.11-.65A2.72,2.72,0,0,0,172,5.65a1.72,1.72,0,0,1,1.37-.3c.53.08,1,.13,1.45.16s.88.58,1.33,1.66A5.3,5.3,0,0,1,176.44,7.68Z"/><path class="cls-1" d="M32.68,5.3a2.9,2.9,0,0,1,2.71,2c.13.44.2.7.22.79s.15.44.39,1.06a5.64,5.64,0,0,1,.16,2.59,18.61,18.61,0,0,1-.39,2.35,2.71,2.71,0,0,1-.36.89,1.87,1.87,0,0,0-.31.69c-.13.36-.19.54-.16.53a2,2,0,0,1-.26.4,2.29,2.29,0,0,0-.51,1.28.53.53,0,0,1-.6.5,7.38,7.38,0,0,0-1,0q-.59.12-.48,1.11a17.31,17.31,0,0,0,.82,2.93,9,9,0,0,1,.69,2.93c-.06.36-.14.55-.22.56a1.39,1.39,0,0,0-.45.19c-.26.14-.34.29-.23.43a.58.58,0,0,1,0,.62,1.07,1.07,0,0,1-.87.75,2.22,2.22,0,0,0-.94.53q-.28.3-1,.06c-.3-.06-.38-.3-.24-.71a3.13,3.13,0,0,0,.17-1.17c0-.36-.14-.88-.29-1.57s-.27-1.18-.35-1.48c-.22-.78-.34-3-.56-2.91a14.42,14.42,0,0,0-1.27,3.76,9.57,9.57,0,0,1-.3,1.83c-.13.24.12.38-.22.44a2.09,2.09,0,0,0-.84.35c-.26.18-.38.3-.35.37s-.16.13-.55.17-.71.21-.71.39c0,.39-.32.59-.93.59-.26,0-.39-.59-.39-1.79a13.28,13.28,0,0,1,.1-1.65c.06-.55.12-1.05.19-1.49A15.61,15.61,0,0,1,24,21.14a23.32,23.32,0,0,0,.7-2.47,1.11,1.11,0,0,0-.17-.92q-.27-.36.3-1.26c.88-1.38,1.1-2.39.65-3-.28-.36,0-1,.77-1.95a2,2,0,0,0,.39-1.33c0-.53-.06-1-.1-1.48a1.82,1.82,0,0,1,.21-1.21c.2-.35.45-.76.76-1.24s1.24-.75,2.83-.87A12.36,12.36,0,0,1,32.68,5.3Zm-.42,4.76a3.21,3.21,0,0,0-1.34-.38c-.7-.11-1,.05-.94.47a22.86,22.86,0,0,1-.51,3.71c-.39,2-.5,3-.35,2.84s.37-.27.77-.54A3.9,3.9,0,0,0,31,15.08a19.09,19.09,0,0,0,.94-2.72C32.29,11,32.42,10.24,32.26,10.06Z"/><path class="cls-1" d="M111,.74c.38.41.55.68.5.81a5.67,5.67,0,0,1-.69,1,1.33,1.33,0,0,1-.24.22.86.86,0,0,0-.19.17c0,.05-.07.06-.1,0a.27.27,0,0,0-.19,0,.86.86,0,0,0-.42.3c-.18.18-.3.32-.36.39s-.1.1-.13.07-.09,0-.19,0-.28.17-.52.46a1.9,1.9,0,0,0-.37.55,1,1,0,0,1-.38,0c-.12,0-.17,0-.16.06s0,0-.15,0a1.15,1.15,0,0,0-.48,0,1.38,1.38,0,0,1-.54-.15,1.52,1.52,0,0,1-.38-.22.75.75,0,0,0-.29-.16.65.65,0,0,0-.22,0s-.1,0-.21-.08a.25.25,0,0,1-.16-.34.64.64,0,0,1,.16-.17,1,1,0,0,0,.34-.28A4.87,4.87,0,0,1,106,3a.8.8,0,0,1,.47-.16,1.51,1.51,0,0,0,.57-.14c.11-.06.17-.12.17-.17a.44.44,0,0,1,.11-.22,2.53,2.53,0,0,1,.78-.48l.78-.36c.27,0,.36-.14.29-.31s.06-.24.32-.54a1.53,1.53,0,0,1,.66-.53q.23-.08.24,0A4.6,4.6,0,0,0,111,.74Z"/></g></g></svg>