<svg xmlns="http://www.w3.org/2000/svg" viewBox="0 0 74.3 12.63"><defs><style>.cls-1{fill:#ff00e7;}</style></defs><g id="Layer_2" data-name="Layer 2"><g id="Layer_1-2" data-name="Layer 1"><path class="cls-1" d="M4.71,3.29a1.25,1.25,0,0,1-.18.51,5.47,5.47,0,0,0-.31.47,6.39,6.39,0,0,1-.44.67c-.09,0-.21-.1-.38-.46,0-.12-.14,0-.26.3a.65.65,0,0,0-.08.34.4.4,0,0,1-.15.29,1.6,1.6,0,0,0-.46.79l-.15.68a3.61,3.61,0,0,1-.2.73,4.36,4.36,0,0,0-.19,1.12c0,.57,0,.89.08,1s.28,0,.52-.36c.1-.14.27-.17.54-.08s.13.39.05,1-.15,1-.18,1.19a.53.53,0,0,1-.26.39.91.91,0,0,0-.31.26.55.55,0,0,0-.11.25.33.33,0,0,1-.11.21c-.13.13-.24.09-.33-.1A3.11,3.11,0,0,0,1,12.07a1.08,1.08,0,0,1-.63-.89C.3,11,.26,10.9.22,10.91s-.09,0-.17-.11a1,1,0,0,1,0-.6A6.15,6.15,0,0,0,.07,9,7.09,7.09,0,0,1,.32,7.16,6,6,0,0,1,.77,5.74a14.2,14.2,0,0,0,.66-1.37L2.1,2.8c.1-.27.22-.38.34-.35a2,2,0,0,0,.61,0,1.13,1.13,0,0,0,.63-.24A1.18,1.18,0,0,1,4.29,2c.25,0,.4.26.44.88A1.47,1.47,0,0,1,4.71,3.29Z"/><path class="cls-1" d="M8.77,3.73a2.94,2.94,0,0,0,0,1.1,5.06,5.06,0,0,0,.12.59,2.34,2.34,0,0,1,0,.72,3.33,3.33,0,0,1-.1.63,2.23,2.23,0,0,0,0,.83c0,.46.06,1,.06,1.54a5.61,5.61,0,0,1-.06,1.07c-.07.16-.13.25-.2.27s-.17.12-.29.3-.18.28-.12.26,0,0-.23.16a3.53,3.53,0,0,1-.36.19l-.23-.07c-.15,0-.23-.08-.26-.16A.2.2,0,0,0,6.9,11c-.12,0-.21-.09-.27-.26a.68.68,0,0,1,0-.47.68.68,0,0,0,0-.62c-.08-.14-.23-.12-.44,0a1.66,1.66,0,0,0-.44.45,1.79,1.79,0,0,0-.23.68.72.72,0,0,1-.39.59,1,1,0,0,1-.37.12s-.12,0-.28,0-.24.08-.21.14,0,.11-.11.12S4,11.68,4,11.24c0-.16,0-.37,0-.65a1.31,1.31,0,0,1,.25-.77A2,2,0,0,0,4.54,9a7.74,7.74,0,0,0,.14-.77A1.23,1.23,0,0,1,5,7.41a1.23,1.23,0,0,0,.3-.64c.06-.26.1-.5.13-.72s.08-.34.16-.36.15-.1.24-.25a.37.37,0,0,0,.06-.3c0-.06,0-.14.14-.24a1.13,1.13,0,0,0,.25-.71,3.4,3.4,0,0,1,.29-1.06.94.94,0,0,1,.82-.55,7.14,7.14,0,0,1,1-.08c.25,0,.37.3.38.9A2,2,0,0,1,8.77,3.73ZM7,6.35,6.5,7.76a1.53,1.53,0,0,0,.4,0,.36.36,0,0,0,.25-.11Z"/><path class="cls-1" d="M13.18,1.78a1.27,1.27,0,0,1,1.1.89l.09.34s.06.19.16.45A2.88,2.88,0,0,1,14.6,4.6a5.53,5.53,0,0,1-.17,1,1.15,1.15,0,0,1-.15.39.65.65,0,0,0-.13.29,1.69,1.69,0,0,1-.16.41,1,1,0,0,0-.22.56c0,.08-.23.16-.65.23-.16,0-.22.19-.19.48a6.94,6.94,0,0,0,.32,1.28,4,4,0,0,1,.28,1.27.47.47,0,0,1-.27.33c-.09.07-.12.13-.09.19s0,.14,0,.26a.43.43,0,0,1-.35.33.86.86,0,0,0-.38.24c-.07.08-.2.09-.39,0s-.17-.13-.11-.31a1.61,1.61,0,0,0,.09-.51,7.36,7.36,0,0,0-.27-1.32c-.08-.33-.17-.48-.25-.42s-.18.31-.25.76a4.31,4.31,0,0,1-.17.82.39.39,0,0,1-.28.21,1.11,1.11,0,0,0-.35.14c-.09.07-.14.13-.13.16s-.07.06-.22.08-.28.09-.28.17-.13.25-.38.25-.16-.25-.16-.77a12.75,12.75,0,0,1,.11-1.38,7.39,7.39,0,0,1,.28-1.09c.16-.55.26-.91.29-1.08a.58.58,0,0,0-.08-.4c-.07-.1,0-.28.13-.54.35-.6.43-1,.25-1.33-.1-.14,0-.43.32-.85a1,1,0,0,0,.15-.57c0-.24,0-.45,0-.65a2,2,0,0,1,.39-1.07c.12-.2.5-.32,1.15-.38A8.54,8.54,0,0,1,13.18,1.78ZM12.8,3.89a.64.64,0,0,0-.3-.11c-.16,0-.23,0-.22.14A7.89,7.89,0,0,1,12.17,5a2.53,2.53,0,0,0-.08.81,1.23,1.23,0,0,0,.41-.46,6.13,6.13,0,0,0,.21-.77A1.77,1.77,0,0,0,12.8,3.89Z"/><path class="cls-1" d="M19.5,3.73a3.21,3.21,0,0,0,0,1.1,5.27,5.27,0,0,0,.11.59,2.28,2.28,0,0,1,0,.72,3.06,3.06,0,0,1-.11.63,2.85,2.85,0,0,0,0,.83c0,.46.07,1,.07,1.54a5.3,5.3,0,0,1-.07,1.07c-.06.16-.13.25-.2.27a.88.88,0,0,0-.29.3c-.14.19-.17.28-.11.26s0,0-.24.16l-.35.19a1.05,1.05,0,0,1-.23-.07c-.15,0-.24-.08-.26-.16s-.1-.12-.22-.12-.2-.09-.26-.26a.59.59,0,0,1,0-.47.75.75,0,0,0,0-.62c-.09-.14-.23-.12-.44,0a1.72,1.72,0,0,0-.45.45,2.22,2.22,0,0,0-.23.68.72.72,0,0,1-.39.59,1.07,1.07,0,0,1-.36.12.62.62,0,0,0-.29,0c-.16,0-.24.08-.21.14s0,.11-.1.12-.26-.17-.26-.61v-.65a1.23,1.23,0,0,1,.24-.77A2,2,0,0,0,15.28,9a7.23,7.23,0,0,0,.13-.77,1.19,1.19,0,0,1,.37-.82,1.32,1.32,0,0,0,.3-.64q.08-.39.12-.72c0-.23.09-.34.16-.36s.16-.1.24-.25.1-.23.06-.3,0-.14.15-.24a1.14,1.14,0,0,0,.24-.71,3.7,3.7,0,0,1,.3-1.06.92.92,0,0,1,.82-.55,6.93,6.93,0,0,1,1-.08c.24,0,.37.3.38.9A2.4,2.4,0,0,1,19.5,3.73ZM17.77,6.35l-.54,1.41a1.55,1.55,0,0,0,.4,0,.34.34,0,0,0,.25-.11Z"/><path class="cls-1" d="M25,3.29a1.25,1.25,0,0,1-.18.51,5.47,5.47,0,0,0-.31.47,6.39,6.39,0,0,1-.44.67c-.09,0-.21-.1-.38-.46-.06-.12-.14,0-.26.3a.65.65,0,0,0-.08.34.4.4,0,0,1-.15.29,1.6,1.6,0,0,0-.46.79c0,.13-.08.36-.15.68a3.61,3.61,0,0,1-.2.73,4.36,4.36,0,0,0-.19,1.12c0,.57,0,.89.08,1s.28,0,.52-.36c.1-.14.27-.17.54-.08.11.05.13.39.05,1s-.15,1-.18,1.19a.53.53,0,0,1-.26.39.82.82,0,0,0-.31.26.55.55,0,0,0-.11.25.33.33,0,0,1-.11.21c-.13.13-.24.09-.33-.1a3.33,3.33,0,0,0-.81-.39,1.08,1.08,0,0,1-.63-.89c-.06-.19-.1-.28-.14-.27s-.09,0-.17-.11a1,1,0,0,1,0-.6A6.15,6.15,0,0,0,20.4,9a7.09,7.09,0,0,1,.25-1.86,6,6,0,0,1,.45-1.42,12.83,12.83,0,0,0,.65-1.37c.35-.79.57-1.31.68-1.57s.22-.38.34-.35a2,2,0,0,0,.61,0A1.13,1.13,0,0,0,24,2.21a1.18,1.18,0,0,1,.6-.25c.26,0,.41.26.45.88A1.47,1.47,0,0,1,25,3.29Z"/><path class="cls-1" d="M29.52,2.91a.8.8,0,0,1,.09.62,1.65,1.65,0,0,1-.17.52.44.44,0,0,0-.08.33,1.43,1.43,0,0,1,0,.4c0,.16-.09.2-.19.14a.68.68,0,0,0-.31-.11,1,1,0,0,0-.69.3.54.54,0,0,0-.11.48c0,.22,0,.37,0,.46s-.07.06-.21.28a2.4,2.4,0,0,0-.12.79c0,.42,0,.7,0,.86s0,.24-.06.22-.08,0-.13.14a3.51,3.51,0,0,0-.11,1.11,5,5,0,0,0,0,1.06c0,.06-.07.19-.22.42s-.12.2-.09.23,0,.07-.11.12a1.35,1.35,0,0,0-.34.42,1,1,0,0,1-.43.34.92.92,0,0,1-.38.07.35.35,0,0,0-.27.07.52.52,0,0,0-.17.17s-.07.08-.18.1-.28-.06-.32-.3a.94.94,0,0,1,0-.37,3.72,3.72,0,0,0,.09-.68c0-.37.06-.64.07-.81a1.55,1.55,0,0,1,.24-.67,2.5,2.5,0,0,0,.31-.74,1,1,0,0,0,0-.39,1.06,1.06,0,0,1,0-.38,6.55,6.55,0,0,1,.27-1.37c.19-.74.3-1.14.33-1.22.14-.35.14-.57,0-.68s-.32-.06-.61.1a.57.57,0,0,1-.44,0q-.19,0-.15-.36c0-.22,0-.4,0-.52a3.15,3.15,0,0,1,.12-.87A.79.79,0,0,1,26,2.62a7.4,7.4,0,0,1,1.3,0,9.68,9.68,0,0,0,1.54-.06A1.14,1.14,0,0,1,29.52,2.91Z"/><path class="cls-1" d="M35.6,3.62c.15.55.06.77-.28.65-.16-.06-.3,0-.41.22s-.26.12-.54,0c0,0-.11.11-.43.28a.23.23,0,0,1-.34-.09.64.64,0,0,0-.45-.26c-.22,0-.32.29-.28.92a3.31,3.31,0,0,0,.18,1.14c.21.42.47.54.78.38a1,1,0,0,0,.36-.23.47.47,0,0,1,.24-.18c.1,0,.16.15.2.54a6,6,0,0,1,0,.87c0,.19-.13.25-.33.17a.69.69,0,0,0-.5,0,.54.54,0,0,1-.58-.11A.32.32,0,0,0,32.8,8a2.29,2.29,0,0,0-.22,1.19c0,.64.06,1,.25,1a2.85,2.85,0,0,0,.51.1c.15,0,.3-.11.46-.38s.62-.46,1.15-.21c.25.12.28.38.1.79s-.31.73-.38.94-.34.37-.71.3-.6-.06-.61.08-.12.11-.36.09-.4-.1-.46-.25-.23-.15-.4.15-.33.25-.46-.15c-.06-.21-.16-.26-.29-.14a1.07,1.07,0,0,1-.34.25.78.78,0,0,1-.43.05c-.19,0-.25-.21-.19-.56s.15-.9.26-1.65a5.57,5.57,0,0,1,.44-1.66,6.25,6.25,0,0,0,.13-2.36,14.53,14.53,0,0,1,0-2.22c.07-.39.45-.51,1.13-.35a7.11,7.11,0,0,0,1.34.23.86.86,0,0,0,.49,0l.43-.37c.22-.19.46-.08.71.34A1.14,1.14,0,0,1,35.6,3.62Z"/><path class="cls-1" d="M39.7,1.78a1.27,1.27,0,0,1,1.1.89l.09.34s.07.19.16.45a2.7,2.7,0,0,1,.07,1.14,6.85,6.85,0,0,1-.16,1A1.32,1.32,0,0,1,40.8,6a.65.65,0,0,0-.13.29,1.69,1.69,0,0,1-.16.41,1.07,1.07,0,0,0-.22.56c0,.08-.23.16-.65.23-.16,0-.22.19-.19.48a6.48,6.48,0,0,0,.33,1.28,4.16,4.16,0,0,1,.27,1.27.47.47,0,0,1-.27.33c-.09.07-.12.13-.08.19a.28.28,0,0,1,0,.26.43.43,0,0,1-.35.33.86.86,0,0,0-.38.24c-.07.08-.2.09-.39,0s-.16-.13-.11-.31a1.61,1.61,0,0,0,.09-.51,7.36,7.36,0,0,0-.27-1.32c-.08-.33-.17-.48-.25-.42s-.18.31-.25.76a5.93,5.93,0,0,1-.16.82.43.43,0,0,1-.29.21,1.11,1.11,0,0,0-.35.14c-.09.07-.14.13-.13.16s-.07.06-.22.08-.28.09-.28.17-.13.25-.38.25-.16-.25-.16-.77a12.75,12.75,0,0,1,.11-1.38,7.39,7.39,0,0,1,.28-1.09c.16-.55.26-.91.29-1.08a.53.53,0,0,0-.08-.4c-.07-.1,0-.28.13-.54.35-.6.43-1,.25-1.33-.1-.14,0-.43.32-.85a1,1,0,0,0,.15-.57c0-.24,0-.45,0-.65a1.93,1.93,0,0,1,.4-1.07c.11-.2.49-.32,1.14-.38A8.54,8.54,0,0,1,39.7,1.78Zm-.38,2.11a.64.64,0,0,0-.3-.11c-.16,0-.23,0-.22.14A7.89,7.89,0,0,1,38.69,5a3,3,0,0,0-.08.81A1.23,1.23,0,0,0,39,5.33a5.61,5.61,0,0,0,.22-.77C39.33,4.17,39.36,3.94,39.32,3.89Z"/><path class="cls-1" d="M43.85,2.34c.48.12.73.29.77.5a17,17,0,0,1,.06,2c0,.15,0,.32,0,.52a2.82,2.82,0,0,0,0,.42c0,.09,0,.14-.06.14s-.08,0-.13.16a2.11,2.11,0,0,0-.13.8c0,.42,0,.71,0,.86s0,.23-.06.22-.08,0-.13.16A3.51,3.51,0,0,0,44,9.18a7,7,0,0,0,0,1.07,2.45,2.45,0,0,1-.23.42c-.08.13-.1.21-.08.23s0,.07-.11.14a1.25,1.25,0,0,0-.34.44,1,1,0,0,1-.44.37.74.74,0,0,1-.37.11.39.39,0,0,0-.28.09.52.52,0,0,0-.17.18s-.07.08-.18.11-.24,0-.28-.27a1.54,1.54,0,0,1,0-.37A3.48,3.48,0,0,0,41.6,11q0-.55.06-.81a1.65,1.65,0,0,1,.24-.69,2.89,2.89,0,0,0,.3-.75,1,1,0,0,0,0-.39,1.17,1.17,0,0,1,0-.39,6.88,6.88,0,0,1,.27-1.39c.19-.74.3-1.16.33-1.24.16-.33.17-.56,0-.68s-.09-.37-.07-1a4.42,4.42,0,0,1,.17-1.33q.11-.33.15-.24A2.49,2.49,0,0,0,43.85,2.34Z"/><path class="cls-1" d="M50.57,3.23a.35.35,0,0,1-.15.39q-.26.21-.27.3a2.76,2.76,0,0,1-.15.49,1.08,1.08,0,0,1-.27.42c-.12.06-.21,0-.27,0a.28.28,0,0,0-.23-.15A.25.25,0,0,0,49,4.7a.25.25,0,0,1-.2.06,1.1,1.1,0,0,0-.57.22.49.49,0,0,0-.13.52c0,.23.11.42.16.59A6,6,0,0,0,49,7.46a3.06,3.06,0,0,1,.35,1.22c0,.52.08.88.08,1.06a2.49,2.49,0,0,1-.31.93,3.87,3.87,0,0,1-.53.91c-.15.18-.23.25-.23.21s-.13,0-.34.09-.3.16-.28.19,0,.08-.15.14a1.07,1.07,0,0,1-.54.1l-.53,0a.5.5,0,0,1-.31-.09.49.49,0,0,0-.3-.1c-.12,0-.18.06-.16.18a.35.35,0,0,1-.07.27c-.08.06-.15.05-.23,0a.45.45,0,0,1-.06-.37,1.49,1.49,0,0,1,.06-.31s0-.15-.11-.34a1.08,1.08,0,0,1-.07-.65l.12-.61c0-.13,0-.19-.07-.16s-.11,0-.13-.2q-.12-.58,1-1,.42-.13.45,0l.09.32a.78.78,0,0,1,0,.39.43.43,0,0,0,0,.42c.06.16.19.16.4,0a1.5,1.5,0,0,0,.42-.42c.1-.2,0-.45-.22-.75,0,0-.06-.2,0-.52a.76.76,0,0,0-.21-.44.43.43,0,0,0-.25-.16c-.09,0-.15-.11-.18-.25a4.32,4.32,0,0,1-.08-.63,1.63,1.63,0,0,0-.14-.63,2.13,2.13,0,0,1,0-1,5.31,5.31,0,0,1,.34-1.19,11.34,11.34,0,0,1,.44-1.17c.06-.16.24-.25.54-.28a1.4,1.4,0,0,0,.73-.27.93.93,0,0,1,.66-.14,6.62,6.62,0,0,0,.7.07c.21,0,.43.26.65.73Z"/><path class="cls-1" d="M55.16,2.91a.85.85,0,0,1,.08.62,1.69,1.69,0,0,1-.16.52.45.45,0,0,0-.09.33,1.11,1.11,0,0,1,0,.4c0,.16-.1.2-.19.14a.72.72,0,0,0-.32-.11,1,1,0,0,0-.68.3.51.51,0,0,0-.12.48,3.64,3.64,0,0,1,0,.46s-.07.06-.21.28a2.4,2.4,0,0,0-.12.79c0,.42,0,.7,0,.86s0,.24-.06.22-.08,0-.13.14a3.86,3.86,0,0,0-.11,1.11,5.88,5.88,0,0,0,0,1.06c0,.06-.06.19-.22.42s-.11.2-.09.23,0,.07-.1.12a1.35,1.35,0,0,0-.35.42,1,1,0,0,1-.81.41.37.37,0,0,0-.27.07.46.46,0,0,0-.16.17.25.25,0,0,1-.19.1c-.18,0-.28-.06-.31-.3a.93.93,0,0,1,0-.37,3.38,3.38,0,0,0,.1-.68q0-.55.06-.81A1.47,1.47,0,0,1,51,9.62a3.19,3.19,0,0,0,.31-.74.77.77,0,0,0,0-.39,1.06,1.06,0,0,1,0-.38,6.55,6.55,0,0,1,.27-1.37c.19-.74.3-1.14.33-1.22.14-.35.14-.57,0-.68s-.32-.06-.6.1a.59.59,0,0,1-.45,0q-.18,0-.15-.36a4,4,0,0,0,0-.52,2.82,2.82,0,0,1,.13-.87.77.77,0,0,1,.77-.61,7.42,7.42,0,0,1,1.3,0,9.68,9.68,0,0,0,1.54-.06A1.21,1.21,0,0,1,55.16,2.91Z"/><path class="cls-1" d="M58,2.34c.48.12.73.29.77.5a17,17,0,0,1,.06,2c0,.15,0,.32,0,.52a2.82,2.82,0,0,0,0,.42c0,.09,0,.14-.06.14s-.08,0-.13.16a2.11,2.11,0,0,0-.13.8c0,.42,0,.71,0,.86s0,.23-.06.22-.08,0-.13.16a3.64,3.64,0,0,0-.1,1.11,5,5,0,0,0,0,1.07,2.17,2.17,0,0,1-.24.42c-.08.13-.1.21-.08.23s0,.07-.11.14a1.14,1.14,0,0,0-.33.44,1.12,1.12,0,0,1-.45.37.74.74,0,0,1-.37.11.41.41,0,0,0-.28.09c-.09.08-.15.13-.16.18s-.08.08-.19.11-.24,0-.28-.27a1.54,1.54,0,0,1,0-.37,2.82,2.82,0,0,0,.08-.69c0-.37.05-.64.07-.81A1.76,1.76,0,0,1,56,9.51a2.89,2.89,0,0,0,.3-.75.81.81,0,0,0,0-.39,1.17,1.17,0,0,1,0-.39,6.88,6.88,0,0,1,.27-1.39c.19-.74.3-1.16.33-1.24.16-.33.17-.56,0-.68s-.08-.37-.07-1A4.42,4.42,0,0,1,57,2.32c.07-.22.12-.3.16-.24A2.37,2.37,0,0,0,58,2.34Z"/><path class="cls-1" d="M64.2,3.29A1.4,1.4,0,0,1,64,3.8c-.07.1-.18.26-.3.47a7.42,7.42,0,0,1-.45.67c-.08,0-.21-.1-.38-.46-.05-.12-.14,0-.25.3a.58.58,0,0,0-.09.34.34.34,0,0,1-.15.29,1.68,1.68,0,0,0-.46.79c0,.13-.08.36-.14.68a3.5,3.5,0,0,1-.21.73,4.87,4.87,0,0,0-.19,1.12c0,.57,0,.89.08,1s.28,0,.52-.36c.1-.14.28-.17.54-.08s.13.39,0,1-.14,1-.17,1.19a.54.54,0,0,1-.27.39.78.78,0,0,0-.3.26.49.49,0,0,0-.12.25.29.29,0,0,1-.11.21c-.12.13-.23.09-.33-.1a3.11,3.11,0,0,0-.81-.39,1.08,1.08,0,0,1-.63-.89c-.05-.19-.1-.28-.14-.27s-.09,0-.16-.11-.07-.29,0-.6a6.15,6.15,0,0,0,0-1.18,7.18,7.18,0,0,1,.26-1.86,6.84,6.84,0,0,1,.44-1.42,10.36,10.36,0,0,0,.66-1.37c.34-.79.57-1.31.67-1.57s.22-.38.34-.35a2,2,0,0,0,.61,0,1.13,1.13,0,0,0,.64-.24,1.14,1.14,0,0,1,.6-.25c.25,0,.4.26.44.88A1.37,1.37,0,0,1,64.2,3.29Z"/><path class="cls-1" d="M68.25,3.73a3,3,0,0,0,0,1.1,5.27,5.27,0,0,0,.11.59,2.06,2.06,0,0,1,0,.72,2.65,2.65,0,0,1-.1.63,2.5,2.5,0,0,0,0,.83c0,.46.06,1,.06,1.54a5.61,5.61,0,0,1-.06,1.07c-.06.16-.13.25-.2.27s-.16.12-.29.3-.18.28-.11.26,0,0-.24.16a3.53,3.53,0,0,1-.36.19l-.22-.07c-.15,0-.24-.08-.27-.16S66.5,11,66.38,11s-.2-.09-.26-.26a.59.59,0,0,1,0-.47.75.75,0,0,0,0-.62c-.09-.14-.24-.12-.45,0a1.66,1.66,0,0,0-.44.45,2,2,0,0,0-.23.68.72.72,0,0,1-.39.59,1.07,1.07,0,0,1-.36.12.62.62,0,0,0-.29,0c-.17,0-.24.08-.21.14s0,.11-.1.12-.26-.17-.26-.61c0-.16,0-.37,0-.65a1.31,1.31,0,0,1,.25-.77A2,2,0,0,0,64,9c.06-.32.11-.58.13-.77a1.19,1.19,0,0,1,.37-.82,1.41,1.41,0,0,0,.3-.64q.08-.39.12-.72c0-.23.09-.34.16-.36s.15-.1.24-.25a.37.37,0,0,0,.06-.3q0-.09.15-.24a1.2,1.2,0,0,0,.24-.71,4,4,0,0,1,.29-1.06,1,1,0,0,1,.83-.55,6.93,6.93,0,0,1,1-.08c.24,0,.37.3.38.9A2.4,2.4,0,0,1,68.25,3.73ZM66.52,6.35,66,7.76a1.53,1.53,0,0,0,.4,0,.36.36,0,0,0,.25-.11Z"/><path class="cls-1" d="M74.28,3.23a.34.34,0,0,1-.14.39q-.26.21-.27.3a2.25,2.25,0,0,1-.16.49.89.89,0,0,1-.27.42c-.11.06-.2,0-.26,0A.3.3,0,0,0,73,4.64a.24.24,0,0,0-.19.06s-.1.06-.21.06A1.1,1.1,0,0,0,72,5a.49.49,0,0,0-.12.52,4.9,4.9,0,0,0,.16.59,6,6,0,0,0,.74,1.37,3.07,3.07,0,0,1,.34,1.22c.06.52.09.88.09,1.06a2.49,2.49,0,0,1-.31.93,4.26,4.26,0,0,1-.53.91q-.22.27-.24.21s-.12,0-.33.09-.31.16-.28.19,0,.08-.15.14a1.11,1.11,0,0,1-.55.1l-.53,0a.52.52,0,0,1-.31-.09.46.46,0,0,0-.29-.1c-.13,0-.18.06-.17.18a.28.28,0,0,1-.07.27c-.07.06-.15.05-.22,0a.45.45,0,0,1-.06-.37,1.49,1.49,0,0,1,.06-.31s0-.15-.11-.34a1,1,0,0,1-.07-.65l.12-.61c0-.13,0-.19-.07-.16s-.12,0-.14-.2c-.07-.39.25-.73,1-1q.41-.13.45,0l.09.32a.69.69,0,0,1-.06.39.45.45,0,0,0,0,.42c.06.16.2.16.41,0a1.65,1.65,0,0,0,.42-.42c.1-.2,0-.45-.23-.75,0,0,0-.2,0-.52a.8.8,0,0,0-.2-.44.47.47,0,0,0-.25-.16c-.09,0-.15-.11-.18-.25a4.32,4.32,0,0,1-.08-.63,1.63,1.63,0,0,0-.14-.63,2,2,0,0,1-.05-1,5.68,5.68,0,0,1,.33-1.19c.21-.61.36-1,.44-1.17s.25-.25.54-.28a1.36,1.36,0,0,0,.73-.27.94.94,0,0,1,.67-.14,6.14,6.14,0,0,0,.7.07c.21,0,.42.26.64.73A1.42,1.42,0,0,1,74.28,3.23Z"/><path class="cls-1" d="M45.79.3q.24.25.21.33a2.51,2.51,0,0,1-.29.41.45.45,0,0,1-.1.09.3.3,0,0,0-.08.07,0,0,0,0,1,0,0h-.08s-.1.05-.17.12l-.15.16s-.05,0-.06,0,0,0-.07,0-.12.07-.22.19-.15.19-.15.22l-.16,0s-.07,0-.07,0,0,0-.06,0a.56.56,0,0,0-.19,0,.6.6,0,0,1-.23-.06.57.57,0,0,1-.16-.09.35.35,0,0,0-.12-.07c-.05,0-.07,0-.09,0a.18.18,0,0,1-.08,0c-.07,0-.09-.07-.07-.13a.23.23,0,0,1,.07-.07.79.79,0,0,0,.14-.12l.15-.14s.09-.05.2-.06a.83.83,0,0,0,.23-.06s.07-.05.07-.07a.21.21,0,0,1,.05-.09.94.94,0,0,1,.32-.19l.32-.15c.11,0,.15-.06.12-.13s0-.1.13-.22A.65.65,0,0,1,45.44,0c.06,0,.09,0,.1,0A1.4,1.4,0,0,0,45.79.3Z"/></g></g></svg>