<svg xmlns="http://www.w3.org/2000/svg" viewBox="0 0 111.05 25.5"><defs><style>.cls-1{fill:#ff00e7;}</style></defs><g id="Layer_2" data-name="Layer 2"><g id="Layer_1-2" data-name="Layer 1"><path class="cls-1" d="M.43,23a1.16,1.16,0,0,1-.32-1.43A8.8,8.8,0,0,0,.3,18.38a13.65,13.65,0,0,1,.32-4.14A1.81,1.81,0,0,1,1,13.38c.15-.14.22-.56.22-1.25s0-1.15,0-1.69a5.28,5.28,0,0,1,.33-1.81A6.57,6.57,0,0,0,1.64,6.2a11.78,11.78,0,0,0-.42-2.31,2.88,2.88,0,0,1,.22-2.17A1.87,1.87,0,0,1,3.05.43,5.67,5.67,0,0,1,4.47.49l1.39.3A3.53,3.53,0,0,0,7.63.73C8.19.55,8.84.39,9.55.23a3.78,3.78,0,0,1,2.54.36,2.15,2.15,0,0,1,1.54,1.47q.57.84-.63,2.43a1.56,1.56,0,0,0-1.31,0c-.58.34-1,.41-1.27.2-.53-.16-.85-.19-.95-.08-.42.42-.69.62-.8.6a.62.62,0,0,1-.29-.11A1.32,1.32,0,0,0,8,5c-.79-.08-1-.06-.71.08q-.17,0-.36-.36l0,0c-.42,0-.68.56-.77,1.67a14.1,14.1,0,0,0,0,2.75c.79-.29,1.18-.44,1.15-.44.76-.24,1.4.08,1.9,1a4.34,4.34,0,0,1,.72,2.17c-.11.67-.36,1-.76.92-.1,0-.21-.08-.31-.24H8.56a2.37,2.37,0,0,0-.79.22,1.43,1.43,0,0,1-.8.14,2.17,2.17,0,0,1-.32-.28c-.16.11-.41,0-.75-.4-.21,0-.33.16-.35.48-.06.58-.14,1.42-.24,2.51a12,12,0,0,0,0,2.82,18.64,18.64,0,0,1,0,3.31,8.21,8.21,0,0,1-.46,2.66c-.11.22-.18.3-.22.26s-.12,0-.26.18c-.29.45-.55.49-.79.12a.22.22,0,0,1-.32,0,2,2,0,0,0-.16.24c-.26.32-.49.29-.67-.08-.32.16-.51,0-.56-.32,0,0-.37-.26-1-.79A1,1,0,0,1,.43,23Z"/><path class="cls-1" d="M27.2,2.44c.37,1.5.13,2.09-.71,1.77-.4-.17-.75,0-1,.6-.19.35-.63.34-1.35,0,.08.06-.28.32-1.07.78a.56.56,0,0,1-.85-.26A1.57,1.57,0,0,0,21,4.6c-.55-.06-.78.77-.69,2.5a9.21,9.21,0,0,0,.46,3.1c.53,1.13,1.18,1.47,1.94,1a2.28,2.28,0,0,0,.89-.65,1.37,1.37,0,0,1,.62-.47c.24-.09.4.4.5,1.47a20.91,20.91,0,0,1,.1,2.37c-.06.51-.34.66-.83.45a1.55,1.55,0,0,0-1.24-.11,1.3,1.3,0,0,1-1.47-.3.77.77,0,0,0-1.15.21,7,7,0,0,0-.55,3.24c-.06,1.75.16,2.7.63,2.84a6.71,6.71,0,0,0,1.27.28c.37.05.76-.3,1.15-1.05.59-1.07,1.55-1.25,2.9-.56.61.31.69,1,.24,2.15s-.77,2-.95,2.55c-.27.74-.87,1-1.79.81s-1.48-.15-1.51.22-.3.32-.91.26a1.23,1.23,0,0,1-1.15-.69c-.24-.55-.58-.41-1,.41s-.82.68-1.14-.41c-.15-.57-.4-.7-.73-.37a3.29,3.29,0,0,1-.85.67,1.65,1.65,0,0,1-1.07.13c-.48-.06-.64-.56-.48-1.51s.38-2.45.66-4.5A16.52,16.52,0,0,1,16,14.17q.6-1.42.35-6.42a38.89,38.89,0,0,1-.07-6C16.43.65,17.37.33,19.06.76a15.55,15.55,0,0,0,3.37.61,1.89,1.89,0,0,0,1.21-.13c.18-.15.54-.48,1.1-1s1.15-.21,1.79.91A3.84,3.84,0,0,1,27.2,2.44Z"/><path class="cls-1" d="M38.85,3.66a8.92,8.92,0,0,0-.08,3,13.81,13.81,0,0,0,.28,1.59,6.6,6.6,0,0,1,0,2,8.27,8.27,0,0,1-.26,1.68,7.28,7.28,0,0,0,.1,2.24c.1,1.25.16,2.63.16,4.14a16.19,16.19,0,0,1-.16,2.89c-.16.43-.33.67-.5.73s-.41.33-.73.81-.44.74-.28.68,0,.09-.59.43a6.47,6.47,0,0,1-.9.51l-.57-.17c-.37-.09-.59-.23-.66-.45s-.24-.32-.53-.32-.51-.23-.66-.7a1.86,1.86,0,0,1,0-1.26,2,2,0,0,0,.08-1.66c-.21-.37-.58-.34-1.11.1A4.75,4.75,0,0,0,31.39,21a5.48,5.48,0,0,0-.57,1.83,2,2,0,0,1-1,1.58c-.53.26-.83.36-.91.32a1.63,1.63,0,0,0-.71.06q-.64.14-.54.39c.07.17,0,.27-.26.29-.42.09-.63-.45-.63-1.61,0-.43,0-1,0-1.75A3.69,3.69,0,0,1,27.38,20a5.85,5.85,0,0,0,.9-2.2q.25-1.31.33-2.07a3.39,3.39,0,0,1,.92-2.21,3.64,3.64,0,0,0,.75-1.71c.13-.71.24-1.36.32-2s.21-.92.39-1,.39-.26.6-.66.24-.64.16-.81,0-.38.35-.64a3.23,3.23,0,0,0,.62-1.92A10.63,10.63,0,0,1,33.45,2,2.41,2.41,0,0,1,35.52.55,19.37,19.37,0,0,1,38,.34c.6,0,.92.81.95,2.43A5.6,5.6,0,0,1,38.85,3.66Zm-3.7,4.63L33,15.39a4.6,4.6,0,0,0,1.62.16,1.29,1.29,0,0,0,1-.56Z"/><path class="cls-1" d="M53.25,1.21a2.05,2.05,0,0,1,.22,1.53A4.53,4.53,0,0,1,53.06,4a1.18,1.18,0,0,0-.23.83,2.78,2.78,0,0,1,0,1c-.09.39-.24.51-.48.35a1.59,1.59,0,0,0-.8-.27,2.5,2.5,0,0,0-1.7.74,1.3,1.3,0,0,0-.3,1.18A10.36,10.36,0,0,1,49.6,9c0-.08-.17.15-.51.7a5.19,5.19,0,0,0-.3,2c0,1-.06,1.73-.06,2.12s0,.6-.14.55-.2.07-.34.36A9.08,9.08,0,0,0,48,17.41,14.45,14.45,0,0,0,48.05,20c0,.13-.16.47-.55,1-.22.31-.29.51-.22.59s0,.17-.26.27A3.57,3.57,0,0,0,46.15,23a2.27,2.27,0,0,1-1.07.83,2,2,0,0,1-1,.17.89.89,0,0,0-.67.18,1.32,1.32,0,0,0-.42.43c0,.11-.19.18-.45.24-.46.1-.72-.15-.79-.75a2,2,0,0,1,0-.9,8.82,8.82,0,0,0,.24-1.69c.08-.91.13-1.58.16-2a3.79,3.79,0,0,1,.61-1.67A6.66,6.66,0,0,0,43.61,16a2,2,0,0,0,.06-1,3,3,0,0,1-.1-1,16.06,16.06,0,0,1,.67-3.4c.48-1.81.75-2.81.84-3,.34-.86.35-1.42,0-1.69s-.8-.15-1.51.24a1.54,1.54,0,0,1-1.11.12c-.32,0-.45-.36-.38-.9a10.68,10.68,0,0,0,.1-1.3A7.58,7.58,0,0,1,42.54,2,2,2,0,0,1,44.48.5,18.71,18.71,0,0,1,47.74.42,22.94,22.94,0,0,0,51.59.27,3.08,3.08,0,0,1,53.25,1.21Z"/><path class="cls-1" d="M59.1.74a.62.62,0,0,0,.32.05,2.58,2.58,0,0,1,.8.17c.36.14.43.35.21.61a3.27,3.27,0,0,0-.57,1.2,16.55,16.55,0,0,0-.4,2.77c-.1,1.28-.16,2.22-.16,2.81,0,1.68-.25,2.72-.75,3.11-.32.27-.67,1.42-1,3.44a18.83,18.83,0,0,0-.5,3.92c0,1.23.82,1.57,2.3,1A3.7,3.7,0,0,0,61,18.08c.49-.89.85-1.62,1.09-2.18A17,17,0,0,0,62.89,13a7.5,7.5,0,0,0,.26-2.85c-.16-.49,0-1.92.5-4.27S64.58,2.1,65,1.66A3.27,3.27,0,0,1,67.67.74c.66,0,1,.7,1,2a26.3,26.3,0,0,1-.31,3.51,15.16,15.16,0,0,1-.6,2.92,33.63,33.63,0,0,0-1.11,4.77,31.9,31.9,0,0,1-1.35,5.44c-.39,1-.71,1.53-.93,1.62a9.47,9.47,0,0,0-1.37,1,5.2,5.2,0,0,0-.93,1,1.41,1.41,0,0,1-.69.59.89.89,0,0,1-.64,0,1.14,1.14,0,0,0-.79,0,1.75,1.75,0,0,0-.72.72c-.23.38-.46.54-.67.46a1,1,0,0,1-.52-.31.74.74,0,0,0-.43-.28,1.51,1.51,0,0,0-.72.11,1,1,0,0,1-.63.08,1.35,1.35,0,0,1-1-.65c-.22-.36-.51-.38-.88-.06-.63.54-1.18.14-1.63-1.22a6.17,6.17,0,0,1-.15-2.09,4.8,4.8,0,0,1,.31-1.75,26.1,26.1,0,0,0,.8-3.13,10.43,10.43,0,0,1,1.15-3.42,7.83,7.83,0,0,0,.81-2.64A14.33,14.33,0,0,0,56,6.54a13.81,13.81,0,0,1,.2-2.81,4.58,4.58,0,0,1,.91-2.59A1.53,1.53,0,0,1,58.31.66C58.73.71,59,.74,59.1.74Z"/><path class="cls-1" d="M96.7,2.41c.37,1.48.13,2.06-.72,1.75-.4-.17-.74,0-1,.6-.18.34-.63.33-1.35,0,.08,0-.27.31-1.07.76a.57.57,0,0,1-.86-.25,1.49,1.49,0,0,0-1.13-.68c-.55-.06-.78.76-.69,2.47a9.07,9.07,0,0,0,.46,3.07c.53,1.1,1.18,1.45,1.94,1a2.4,2.4,0,0,0,.9-.64,1.31,1.31,0,0,1,.61-.47c.24-.09.4.4.49,1.45a18.78,18.78,0,0,1,.11,2.34c-.06.52-.33.67-.84.45a1.57,1.57,0,0,0-1.23-.11,1.29,1.29,0,0,1-1.46-.29.78.78,0,0,0-1.16.21,6.62,6.62,0,0,0-.55,3.2c-.05,1.73.16,2.66.63,2.81a6.61,6.61,0,0,0,1.27.27c.37.05.76-.3,1.15-1,.58-1.05,1.55-1.23,2.9-.55q.92.47.24,2.13c-.45,1.11-.77,1.94-1,2.51-.27.74-.86,1-1.79.81s-1.48-.15-1.5.22c0,.22-.31.31-.92.25A1.22,1.22,0,0,1,89,24c-.24-.54-.58-.41-1,.4s-.82.68-1.13-.4c-.16-.57-.41-.69-.74-.36a3.44,3.44,0,0,1-.85.66,1.8,1.8,0,0,1-1.07.13c-.48-.06-.63-.56-.48-1.5s.38-2.42.66-4.45A15.66,15.66,0,0,1,85.47,14c.39-.94.51-3.06.33-6.35a38.77,38.77,0,0,1-.06-6c.19-1,1.13-1.36,2.82-.94a16.12,16.12,0,0,0,3.37.6,1.94,1.94,0,0,0,1.22-.13c.17-.14.53-.47,1.09-1S95.39,0,96,1.14A3.51,3.51,0,0,1,96.7,2.41Z"/><path class="cls-1" d="M111,3a.81.81,0,0,1-.36.95c-.42.33-.65.57-.67.73a6.46,6.46,0,0,1-.4,1.17,2.08,2.08,0,0,1-.67,1c-.29.15-.51.13-.66-.09a.74.74,0,0,0-.57-.36.6.6,0,0,0-.48.15.66.66,0,0,1-.52.15,2.69,2.69,0,0,0-1.42.53,1.12,1.12,0,0,0-.32,1.24c.13.54.26,1,.4,1.42a14.22,14.22,0,0,0,1.86,3.27,7.08,7.08,0,0,1,.85,2.93c.15,1.27.22,2.12.22,2.55a6,6,0,0,1-.77,2.24A10,10,0,0,1,106.17,23q-.56.65-.6.51c0-.09-.3,0-.83.21s-.76.38-.69.46-.06.19-.38.34a2.77,2.77,0,0,1-1.37.23c-.57,0-1,0-1.33-.08a1.16,1.16,0,0,1-.77-.23,1.19,1.19,0,0,0-.73-.22c-.32,0-.46.13-.42.41a.71.71,0,0,1-.18.65c-.19.15-.37.12-.56-.09a1,1,0,0,1-.16-.9,3.29,3.29,0,0,1,.16-.72c.06-.1,0-.38-.28-.84a2.32,2.32,0,0,1-.17-1.56c.12-.58.21-1.06.29-1.44s0-.46-.17-.4-.29-.09-.34-.48c-.18-.93.62-1.74,2.42-2.43.69-.23,1.06-.21,1.13.06s.14.53.22.78a1.67,1.67,0,0,1-.14.93,1,1,0,0,0,.1,1c.16.38.49.38,1,0a3.76,3.76,0,0,0,1.05-1c.27-.48.08-1.08-.55-1.79-.11-.07-.14-.49-.08-1.25a1.81,1.81,0,0,0-.52-1.07,1.21,1.21,0,0,0-.62-.38c-.22-.05-.37-.25-.45-.61a8.91,8.91,0,0,1-.2-1.5,3.59,3.59,0,0,0-.36-1.5,4.81,4.81,0,0,1-.11-2.28A12.43,12.43,0,0,1,101.37,5c.53-1.46.9-2.39,1.11-2.8s.61-.6,1.35-.68a3.57,3.57,0,0,0,1.82-.65A2.41,2.41,0,0,1,107.32.5a17,17,0,0,0,1.74.17c.54,0,1.08.61,1.63,1.75C110.82,2.63,110.93,2.8,111,3Z"/><path class="cls-1" d="M78.62.12A3.07,3.07,0,0,1,81.5,2.26c.14.47.22.75.25.84s.16.48.41,1.14A6.07,6.07,0,0,1,82.33,7a19.63,19.63,0,0,1-.41,2.5,3.08,3.08,0,0,1-.39,1,1.84,1.84,0,0,0-.33.73,3,3,0,0,0-.18.56s-.06.14-.27.43a2.4,2.4,0,0,0-.55,1.38.55.55,0,0,1-.64.52,8.17,8.17,0,0,0-1.11.05c-.42.09-.59.48-.52,1.18a18.06,18.06,0,0,0,.88,3.13,10,10,0,0,1,.74,3.13c-.07.38-.15.58-.24.59a1.5,1.5,0,0,0-.48.21c-.28.15-.36.3-.24.46a.62.62,0,0,1,0,.65,1.13,1.13,0,0,1-.93.8,2.46,2.46,0,0,0-1,.58c-.2.21-.55.23-1.06.06-.32-.06-.4-.32-.26-.76a3.4,3.4,0,0,0,.19-1.25c0-.38-.15-.94-.31-1.68S74.9,20,74.8,19.65c-.23-.83-.35-3.23-.59-3.1a14.81,14.81,0,0,0-1.35,4,11.93,11.93,0,0,1-.32,1.94c-.14.26.12.4-.25.48a2.2,2.2,0,0,0-.89.37c-.27.19-.4.32-.37.39s-.18.14-.59.18-.76.23-.76.42c0,.42-.33.64-1,.64-.27,0-.4-.64-.4-1.92a15.08,15.08,0,0,1,.1-1.76c.07-.59.14-1.12.2-1.59a17.2,17.2,0,0,1,.73-2.7,26.88,26.88,0,0,0,.75-2.63,1.27,1.27,0,0,0-.18-1c-.2-.26-.09-.7.32-1.34.94-1.47,1.17-2.56.69-3.26-.3-.38,0-1.07.82-2.07a2.07,2.07,0,0,0,.41-1.42c0-.57-.05-1.09-.1-1.58a1.92,1.92,0,0,1,.23-1.29c.21-.38.48-.82.8-1.33s1.33-.8,3-.93A14.07,14.07,0,0,1,78.62.12ZM78.17,5.2a3.49,3.49,0,0,0-1.43-.41c-.76-.11-1.09,0-1,.5a23.6,23.6,0,0,1-.56,4c-.4,2.15-.53,3.17-.36,3s.39-.29.82-.58a4.17,4.17,0,0,0,1.13-1.16,20.49,20.49,0,0,0,1-2.89C78.2,6.21,78.33,5.39,78.17,5.2Z"/></g></g></svg>