<svg xmlns="http://www.w3.org/2000/svg" viewBox="0 0 96.08 27.32"><defs><style>.cls-1{fill:#ff00e7;}</style></defs><g id="Layer_2" data-name="Layer 2"><g id="Layer_1-2" data-name="Layer 1"><path class="cls-1" d="M12.55,2.65a2.12,2.12,0,0,1-.11,1.43c-.2.4-.39.54-.58.44-.38-.18-.7,0-1,.65q-.25.5-1.29,0a.32.32,0,0,0-.45.19A1.53,1.53,0,0,1,8.54,6c-.31.23-.58.14-.8-.27A1.41,1.41,0,0,0,6.66,5c-.52-.08-.75.81-.68,2.67A12.1,12.1,0,0,0,6.38,11C7,12.16,7.6,12.54,8.29,12.16a2.48,2.48,0,0,0,.86-.71,1.43,1.43,0,0,1,.58-.52c.21-.07.36.45.47,1.57A22.13,22.13,0,0,1,10.32,15c-.06.58-.33.76-.81.53a1.33,1.33,0,0,0-1.19-.11,1.21,1.21,0,0,1-1.41-.31c-.4-.33-.77-.25-1.13.23s-.49,1.56-.53,3.45.17,2.92.62,3.08a5.09,5.09,0,0,0,1.21.28c.37,0,.75-.33,1.15-1.12.56-1.12,1.48-1.33,2.75-.61.59.33.66,1.1.24,2.32s-.74,2.14-.93,2.75a1.28,1.28,0,0,1-1.72.88c-.94-.2-1.42-.13-1.44.23s-.3.32-.88.29a1.11,1.11,0,0,1-1.1-.75c-.25-.58-.58-.44-1,.42s-.76.73-1-.42c-.19-.61-.44-.74-.75-.38a3.6,3.6,0,0,1-.79.72,1.58,1.58,0,0,1-1.06.16C0,26.61-.11,26.06.08,25s.35-2.64.63-4.85a21.06,21.06,0,0,1,1-4.89q.63-1.49.36-6.92A47.49,47.49,0,0,1,2,1.85c.11-.69.43-1.07,1-1.16A3.83,3.83,0,0,1,4.72.82,12.64,12.64,0,0,0,8,1.47c.61.08,1,0,1.16-.13L10.2.25c.52-.54,1.1-.21,1.72,1A4.37,4.37,0,0,1,12.55,2.65Z"/><path class="cls-1" d="M21.57.68l1-.06c.5,0,.86.53,1.07,1.66A2.92,2.92,0,0,0,24,3.39a5.81,5.81,0,0,1,.42,1.08,4.76,4.76,0,0,1-.31,2.33,10.45,10.45,0,0,0-.54,2.46,15.43,15.43,0,0,0,.58,3.59q.64,2.73.93,1.53c.19-.78.38-1.9.59-3.37A16,16,0,0,1,26.3,7.9a5.37,5.37,0,0,0,.23-2.36,9.72,9.72,0,0,1,.3-3.09A11.81,11.81,0,0,1,27.26.87L28,.68c.44-.06,1.26-.11,2.45-.14s1.79.18,1.81.64a1.62,1.62,0,0,1-.14.88c-.09.13,0,.38.14.75s0,1.18-.56,2.33a24.47,24.47,0,0,0-1.07,2.52c-.18.54-.23.8-.14.8s.14.39.14,1.17a4.32,4.32,0,0,1-.28,1.77,8,8,0,0,0-.47,1.45,4.9,4.9,0,0,0-.19,1.33,6.72,6.72,0,0,1-.15,1.46c-.15.69-.25,1.13-.32,1.32s-.22.9-.47,2.14A30.67,30.67,0,0,0,28.17,23c-.12,1.34-.18,2.14-.18,2.41,0,.62-.22.69-.66.23a2.87,2.87,0,0,0-.31-.2c-.14-.09-.47,0-1,.26s-.61.15-.69-.14-.2-.45-.34-.45c-.34,0-.68.33-1,.86-.21.24-.44,0-.7-.85a8.49,8.49,0,0,1-.39-2.61,3.59,3.59,0,0,0-.13-1.43A1.59,1.59,0,0,0,22.2,21c-.3,0-.38-.54-.24-1.75a17.83,17.83,0,0,0,.17-2.44c0-.4-.12-.54-.31-.43s-.29,0-.31-.43-.12-1.51-.28-3.31S21,9.73,21,9.26c.06-1-.19-1.16-.76-.36a5.16,5.16,0,0,0-.62,2.64,25.11,25.11,0,0,1-.25,3,33.87,33.87,0,0,1-1.26,4.59,8.09,8.09,0,0,0-.37,2.11c0,.65-.11,1.58-.25,2.78a4.88,4.88,0,0,1-.6,2.09.8.8,0,0,1-.81.17c-.34-.14-.48-.19-.44-.15s0,.22-.25.58-.38.45-.46.3a1,1,0,0,0-.51-.43,1.41,1.41,0,0,0-1.38.2c-.4.26-.43-.33-.11-1.77a11.73,11.73,0,0,1,.74-2.56,8.34,8.34,0,0,0,.48-2.36q.24-1.95.33-3.12a17.36,17.36,0,0,1,.25-2.48,3.37,3.37,0,0,1,.85-1.91,2.7,2.7,0,0,0,.53-2,6,6,0,0,0-.31-2q-.35-.7.78-1.89a3.75,3.75,0,0,0,.81-2.13,8.4,8.4,0,0,0,.1-2.06c-.25-1.2.37-1.86,1.88-2a5.34,5.34,0,0,1,1.78.07C21.5.63,21.63.68,21.57.68Z"/><path class="cls-1" d="M43.94,2.34a5.36,5.36,0,0,0,0,1.69,2.07,2.07,0,0,1-.33,1.46,1.49,1.49,0,0,1-.87.38c-.19,0-.4,0-.63-.29a.76.76,0,0,0-.66-.29c-.19,0-.35.22-.5.52s-.31.47-.5.52-.46-.07-.63-.39-.36-.42-.59-.29a1.19,1.19,0,0,0-.49.84,8.06,8.06,0,0,1-.3,1.1,2.59,2.59,0,0,0-.19.86,1.19,1.19,0,0,1-.34.77,4,4,0,0,0-1,2c-.09.33-.21.88-.36,1.67A11.44,11.44,0,0,1,36,14.69a12.57,12.57,0,0,0-.52,2.79c-.15,1.41-.12,2.21.11,2.4s.64,0,1.6-.19a.88.88,0,0,1,.41.06.58.58,0,0,0,.56-.1,1.29,1.29,0,0,0,.38-.55,1.48,1.48,0,0,1,.44-.61.87.87,0,0,0,.19-.26,1,1,0,0,1,.18-.29.51.51,0,0,1,.33-.13.53.53,0,0,0,.33-.13,3.49,3.49,0,0,0,.94-1.45c.33-.76.22-1.23-.34-1.41-.38-.08-.56,0-.54.3a.43.43,0,0,1-.34.51c-.25.07-.38,0-.38-.08s-.08-.18-.25-.18-.24.08-.22.22,0,.22-.19.24a1.52,1.52,0,0,0-.54.24q-.27.18-.33-.24a9.27,9.27,0,0,1-.19-1,2,2,0,0,1,.28-1.28,6.11,6.11,0,0,0,.61-1.49,1.38,1.38,0,0,1,.86-1,.72.72,0,0,1,.88.47.92.92,0,0,0,1.07.5,13.28,13.28,0,0,1,1.81.07c.71.06,1.1.66,1.16,1.78a13.69,13.69,0,0,1-1.36,4.86,16.55,16.55,0,0,1-2.4,4.48,8.18,8.18,0,0,1-2.46,1.49q-1.77.78-2,1.17a1.13,1.13,0,0,0-.24.57,1.06,1.06,0,0,1-.27.56c-.27.3-.5.23-.68-.22a5.16,5.16,0,0,0-1.63-1A2.75,2.75,0,0,1,32,23.58c-.08-.48-.16-.7-.23-.68s-.19-.08-.33-.29-.18-.69,0-1.48a16.88,16.88,0,0,0,.22-2.9,22.18,22.18,0,0,1,.67-4.67A15.91,15.91,0,0,1,33.35,10a30.54,30.54,0,0,0,1.52-3.43c.78-1.95,1.3-3.26,1.55-3.93s.46-.92.7-.84a2.72,2.72,0,0,0,1.27,0,2.41,2.41,0,0,0,1.35-.58A2.45,2.45,0,0,1,41,.59a8.24,8.24,0,0,1,3,.65A3.85,3.85,0,0,1,43.94,2.34Z"/><path class="cls-1" d="M53.7,1.27c0,.07.08.09.23.07s.22.24.18.79a2.72,2.72,0,0,1-.5,1.41,6.09,6.09,0,0,0-.79,2.14c-.29,1.07-.76,3.19-1.42,6.38S50.34,17.21,50.19,18a7.91,7.91,0,0,0-.11,2.28c.07.78.56,1.06,1.46.86a2.31,2.31,0,0,1,2.11.42c.53.47,1,.33,1.52-.42A2,2,0,0,1,57,20a1.18,1.18,0,0,1,1.27,1,3.21,3.21,0,0,1-.42,2.12,6.51,6.51,0,0,1-1.55,2c-.36.32-.69.38-1,.17s-.48-.15-.55.14c-.68,2.41-1.18,2.44-1.47.07-.06-.48-.29-.55-.69-.22s-.67.36-.81.08c-.09-.11-.38.1-.88.65s-1.07.5-1.38-.14-.66-.85-.91-.58c-.52.53-.93.72-1.22.58a1.49,1.49,0,0,0-1.41.41,6.84,6.84,0,0,1-1.35.93c-.41.18-.43-.45-.06-1.88s.66-2.45.85-3a30,30,0,0,0,.73-4.18c.31-2.24.52-3.65.65-4.22s.2-1,.25-1.28a2.91,2.91,0,0,1,.69-1.24,5.42,5.42,0,0,0,.75-3,16.52,16.52,0,0,0-.06-3.31,4.35,4.35,0,0,1,1.5-4A2.07,2.07,0,0,1,52.26.66,5.06,5.06,0,0,1,53.7,1.27Z"/><path class="cls-1" d="M65.11,1.22c1.17.33,1.8.76,1.88,1.29a49.57,49.57,0,0,1,.13,5A10,10,0,0,1,67,8.8a9.57,9.57,0,0,0-.11,1.06c0,.22,0,.34-.13.36s-.18.17-.31.44a6.4,6.4,0,0,0-.3,2c0,1.07-.08,1.8-.08,2.2s0,.61-.12.58-.2.09-.35.38a10.68,10.68,0,0,0-.23,2.83,20,20,0,0,0,.08,2.72,2.89,2.89,0,0,1-.53,1.1c-.19.33-.26.54-.21.61s0,.19-.26.32a3,3,0,0,0-.82,1.16,2.28,2.28,0,0,1-1,.93,2,2,0,0,1-.94.27.89.89,0,0,0-.66.27,1.06,1.06,0,0,0-.39.41c0,.1-.17.2-.42.29-.46.11-.71-.12-.72-.67a2.43,2.43,0,0,1,0-.93c0-.24.1-.84.18-1.78s.14-1.62.16-2a4.31,4.31,0,0,1,.58-1.78,8,8,0,0,0,.74-1.95,2.22,2.22,0,0,0,.06-1,3.5,3.5,0,0,1-.09-1,18.44,18.44,0,0,1,.64-3.57,27.47,27.47,0,0,1,.83-3.17A5.28,5.28,0,0,0,62.76,8a1.05,1.05,0,0,0-.12-.81c-.15-.09-.2-1-.14-2.61a13.6,13.6,0,0,1,.39-3.41c.19-.58.31-.79.38-.63S63.94.91,65.11,1.22Z"/><path class="cls-1" d="M80.44,3.48a.93.93,0,0,1-.34,1c-.4.35-.61.61-.63.76a10.29,10.29,0,0,1-.37,1.25,2,2,0,0,1-.66,1.05c-.27.17-.48.15-.63-.09a.71.71,0,0,0-.53-.38.51.51,0,0,0-.47.13.6.6,0,0,1-.5.17A3,3,0,0,0,74.93,8a1.24,1.24,0,0,0-.3,1.3q.21.87.39,1.53a15.38,15.38,0,0,0,1.79,3.52,8.34,8.34,0,0,1,.82,3.1c.14,1.35.21,2.25.21,2.72a6.91,6.91,0,0,1-.75,2.36,12.26,12.26,0,0,1-1.28,2.33c-.36.46-.55.65-.57.56s-.28,0-.78.2-.75.42-.69.52-.06.21-.37.35a3.19,3.19,0,0,1-1.29.16l-1.28,0a2,2,0,0,1-.76-.25,1.21,1.21,0,0,0-.68-.18c-.32,0-.45.13-.41.41a.76.76,0,0,1-.19.68c-.19.14-.37.09-.55-.13a1.12,1.12,0,0,1-.14-.93,4.18,4.18,0,0,1,.16-.75,1.84,1.84,0,0,0-.25-.88,2.83,2.83,0,0,1-.19-1.68c.1-.63.2-1.13.28-1.51s0-.53-.16-.47-.28-.09-.34-.49A1.78,1.78,0,0,1,68.23,19,4.57,4.57,0,0,1,70,17.84c.65-.27,1-.25,1.07.05a8.58,8.58,0,0,0,.21.84,1.55,1.55,0,0,1-.12,1,1.26,1.26,0,0,0,.06,1.1c.19.37.52.37,1,0a4.35,4.35,0,0,0,1-1.08c.27-.56.09-1.18-.53-1.86-.11-.09-.14-.55-.1-1.37a2,2,0,0,0-.47-1.13,1.44,1.44,0,0,0-.61-.4q-.33-.09-.42-.63a14.59,14.59,0,0,1-.19-1.61,4.55,4.55,0,0,0-.35-1.61,4.8,4.8,0,0,1-.12-2.39,17.75,17.75,0,0,1,.81-3.1c.51-1.55.85-2.54,1-3s.6-.64,1.31-.73a3.8,3.8,0,0,0,1.79-.66,2,2,0,0,1,1.6-.35A10.21,10.21,0,0,0,78.6,1q.75.06,1.53,1.89A2,2,0,0,1,80.44,3.48Z"/><path class="cls-1" d="M83.41,2.35a1.2,1.2,0,0,1,.66-.52,4.28,4.28,0,0,0,.84-.32,2,2,0,0,0,.72-.7c.27-.38.54-.57.79-.57a4.77,4.77,0,0,1,1.69.94,3.09,3.09,0,0,0,.62.36,1.93,1.93,0,0,1,.6.42c.38.11.36.48,0,1.11a8.22,8.22,0,0,0-1,2.49c-.27,1.06-.52,2.17-.72,3.33a9.44,9.44,0,0,0-.16,2.91c0,.54.48.84,1.31.9a3.05,3.05,0,0,0,1.63-.58c.94-.71,1.42-2.21,1.43-4.49a23.16,23.16,0,0,1,.42-5c.21-.82.62-1.19,1.23-1.1a4.9,4.9,0,0,1,2.06.68c.65.32.75.75.32,1.28a3.79,3.79,0,0,0-.66,2.45,20.42,20.42,0,0,1-.36,3.63c-.24,1.32-.53,2.86-.86,4.61A40.47,40.47,0,0,0,93.22,19c-.13,1.49-.21,2.75-.26,3.78s-.07,1.68-.09,1.84a1.68,1.68,0,0,1-.31.66.6.6,0,0,1-.63.13.84.84,0,0,0-.81.29,3.3,3.3,0,0,1-1.73.93c-.56.07-.81-.1-.75-.54a10,10,0,0,0,.09-1.31V23.25A6.1,6.1,0,0,1,89,21.56c.16-.58.31-1.15.43-1.72a14.31,14.31,0,0,0,.3-2.12,8.89,8.89,0,0,0,0-1.71.31.31,0,0,0-.09-.22,1.07,1.07,0,0,0-.19.32c-.07.22-.27.32-.61.29a2.18,2.18,0,0,1-.74-.13,1.3,1.3,0,0,0-.22.75q0,.59-.75.54c-.5,0-.68-.35-.53-.93a1,1,0,0,0-.5-1.33l0,0c-.23.15-.35.85-.36,2.08a12.72,12.72,0,0,1-.33,3.05A11.71,11.71,0,0,0,85,23.33,16.75,16.75,0,0,1,84.82,26c-.19.78-.47,1-.83.71s-.64-.28-.83.07a.66.66,0,0,1-.85.27,2.2,2.2,0,0,1-.84-.44,3.2,3.2,0,0,1-.66.55c-.12.05-.21.05-.25,0s-.13,0-.25,0c-.54.18-.46-.51.25-2.07a8.48,8.48,0,0,0,.59-2.65c.11-1.11.22-2.07.35-2.87s.24-1.83.34-3.08.26-2.4.44-3.44.41-2.27.68-3.68a26.68,26.68,0,0,0,.45-3.56,5.58,5.58,0,0,0-.2-2.09A1.38,1.38,0,0,1,83.41,2.35Z"/></g></g></svg>