<svg xmlns="http://www.w3.org/2000/svg" viewBox="0 0 107.67 32.55"><defs><style>.cls-1{fill:#ff00e7;}</style></defs><g id="Layer_2" data-name="Layer 2"><g id="Layer_1-2" data-name="Layer 1"><path class="cls-1" d="M13.62,8.21c.39,1.57.13,2.19-.75,1.85-.41-.18-.77,0-1.08.64-.19.36-.66.35-1.41,0,.09.06-.28.34-1.12.82-.35.21-.65.12-.89-.27a1.59,1.59,0,0,0-1.18-.73c-.58-.06-.82.82-.73,2.63a9.9,9.9,0,0,0,.48,3.26c.56,1.18,1.23,1.54,2,1.09a2.58,2.58,0,0,0,.93-.69,1.37,1.37,0,0,1,.64-.49c.25-.09.42.42.52,1.54a20.65,20.65,0,0,1,.1,2.49c-.05.54-.34.7-.87.47A1.56,1.56,0,0,0,9,20.66a1.35,1.35,0,0,1-1.54-.32.8.8,0,0,0-1.2.23C6,21,5.76,22.12,5.7,24s.17,2.84.66,3a7.43,7.43,0,0,0,1.33.3q.59.06,1.2-1.11c.61-1.12,1.62-1.32,3-.59.63.33.72,1.08.25,2.26s-.81,2.07-1,2.67c-.27.79-.9,1.08-1.86.86s-1.55-.16-1.58.23c0,.24-.32.33-1,.27a1.29,1.29,0,0,1-1.21-.72c-.24-.58-.6-.43-1.05.43s-.85.72-1.18-.43c-.17-.6-.43-.73-.77-.39a3.54,3.54,0,0,1-.89.7,1.73,1.73,0,0,1-1.12.14C.06,31.51-.1,31,.06,30s.4-2.58.68-4.74a17.29,17.29,0,0,1,1.15-4.73q.62-1.48.35-6.74a40.75,40.75,0,0,1-.06-6.34q.28-1.68,2.94-1a17,17,0,0,0,3.53.63,2,2,0,0,0,1.26-.14c.18-.15.56-.49,1.14-1s1.2-.23,1.87.95A4,4,0,0,1,13.62,8.21Z"/><path class="cls-1" d="M28.57,8.75a.88.88,0,0,1-.37,1c-.44.35-.68.61-.71.77a6.73,6.73,0,0,1-.41,1.25,2.36,2.36,0,0,1-.71,1.05c-.3.16-.53.13-.68-.1a.81.81,0,0,0-.6-.39.6.6,0,0,0-.5.17q-.12.15-.54.15a2.88,2.88,0,0,0-1.49.57,1.21,1.21,0,0,0-.33,1.32c.13.58.27,1.08.41,1.51a15.58,15.58,0,0,0,1.95,3.47,7.74,7.74,0,0,1,.89,3.11c.15,1.34.23,2.25.23,2.7a6.42,6.42,0,0,1-.81,2.38A10.59,10.59,0,0,1,23.51,30c-.39.45-.59.64-.62.54s-.32,0-.87.22-.79.41-.73.49-.06.2-.39.36a2.77,2.77,0,0,1-1.43.24c-.59,0-1.06-.05-1.39-.08a1.25,1.25,0,0,1-.8-.24,1.26,1.26,0,0,0-.77-.24c-.33,0-.48.15-.44.44a.78.78,0,0,1-.18.69c-.2.16-.39.13-.58-.1a1.07,1.07,0,0,1-.17-1,3.09,3.09,0,0,1,.17-.77c0-.11-.05-.4-.3-.89a2.46,2.46,0,0,1-.18-1.65c.12-.62.23-1.13.31-1.54s0-.49-.19-.42-.3-.1-.35-.5c-.19-1,.65-1.86,2.53-2.59.72-.24,1.11-.22,1.18.06s.14.56.23.83a1.73,1.73,0,0,1-.15,1A1.09,1.09,0,0,0,18.5,26c.16.4.52.41,1.05,0a4,4,0,0,0,1.1-1.07c.28-.51.09-1.14-.58-1.9-.11-.08-.14-.52-.08-1.33a1.9,1.9,0,0,0-.54-1.13,1.18,1.18,0,0,0-.64-.4c-.24-.06-.4-.27-.48-.65a10,10,0,0,1-.2-1.6,3.9,3.9,0,0,0-.38-1.59,5.07,5.07,0,0,1-.12-2.42,14.36,14.36,0,0,1,.87-3.05,31.35,31.35,0,0,1,1.16-3q.24-.6,1.41-.72A3.83,3.83,0,0,0,23,6.49a2.43,2.43,0,0,1,1.74-.34c.66.09,1.27.15,1.82.18s1.12.64,1.7,1.86A5.32,5.32,0,0,1,28.57,8.75Z"/><path class="cls-1" d="M38,6.2a3.18,3.18,0,0,1,2.86,2.27l.25.91c0,.11.17.51.41,1.2a7.15,7.15,0,0,1,.19,2.94,17.26,17.26,0,0,1-.43,2.69,2.72,2.72,0,0,1-.42,1,1.75,1.75,0,0,0-.33.77,4.85,4.85,0,0,1-.42,1,2.85,2.85,0,0,0-.54,1.49c0,.25-.6.46-1.74.62-.14,0-.31.2-.52.5a1.18,1.18,0,0,1-.64.54c-.24.08-.44,0-.58-.35s-.32-.44-.54-.36a1.09,1.09,0,0,0-.35.46,1.31,1.31,0,0,1-.35.49.53.53,0,0,1-.48.15.41.41,0,0,0-.35,0c-.25.17-.54,1.38-.85,3.64A35.06,35.06,0,0,1,32.5,30a5.74,5.74,0,0,1-1.58,2.15c-.25.19-.38.12-.41-.21s-.24-.47-.62-.41-.75.22-.75.41a4.43,4.43,0,0,1-1,0c-.27,0-.41-.46-.41-1.4A31.56,31.56,0,0,1,28,27.05a5.65,5.65,0,0,1,.43-1.55A6.57,6.57,0,0,0,28.93,24a1.42,1.42,0,0,0-.21-1c-.19-.27-.08-.76.33-1.44a10,10,0,0,0,1-2.32,2.55,2.55,0,0,0,.08-1.82c-.24-.39,0-1.13.79-2.23a4.86,4.86,0,0,0,.54-2.46,23,23,0,0,0,0-2.68A5.27,5.27,0,0,1,32.5,7.23c.3-.5,1.28-.81,2.94-1A13.34,13.34,0,0,1,38,6.2Zm-.33,4.55a5.37,5.37,0,0,0-1.24-.55c-.71-.26-1-.2-.95.18A30.22,30.22,0,0,1,34.86,14a22,22,0,0,0-.53,3.31c0,.21.32.07,1-.44a4.68,4.68,0,0,0,1.29-1.38,17,17,0,0,0,.73-2.6A7.36,7.36,0,0,0,37.64,10.75Z"/><path class="cls-1" d="M53.37,9.69a9.7,9.7,0,0,0-.08,3q.12,1,.27,1.65a7,7,0,0,1,0,2,8.65,8.65,0,0,1-.24,1.74,8,8,0,0,0,.09,2.31c.1,1.29.15,2.71.15,4.27a17.78,17.78,0,0,1-.15,3c-.15.44-.31.69-.47.74a2.13,2.13,0,0,0-.7.84c-.32.53-.41.76-.26.7s0,.09-.57.44a5.76,5.76,0,0,1-.85.53,4.32,4.32,0,0,1-.54-.17c-.36-.09-.56-.24-.63-.46a.45.45,0,0,0-.5-.34q-.42,0-.63-.72a2,2,0,0,1,0-1.3,2.28,2.28,0,0,0,.08-1.71c-.21-.38-.56-.35-1.06.1a5,5,0,0,0-1.06,1.26,6.67,6.67,0,0,0-.55,1.89,2,2,0,0,1-.92,1.63q-.75.39-.87.33c-.07-.05-.3,0-.68.06s-.57.22-.5.4,0,.28-.25.31c-.4.08-.61-.47-.61-1.67,0-.45,0-1,0-1.81a3.93,3.93,0,0,1,.58-2.15,6.11,6.11,0,0,0,.85-2.27c.16-.89.27-1.6.32-2.13a3.7,3.7,0,0,1,.87-2.29,3.84,3.84,0,0,0,.72-1.76c.12-.73.22-1.41.3-2s.2-.95.38-1,.36-.27.56-.68a1.14,1.14,0,0,0,.15-.84c-.07-.17,0-.39.34-.66a3.48,3.48,0,0,0,.58-2,11.48,11.48,0,0,1,.71-3,2.29,2.29,0,0,1,2-1.54,16.3,16.3,0,0,1,2.37-.22c.58,0,.89.83.91,2.51A7.27,7.27,0,0,1,53.37,9.69Zm-3.54,4.56-2.07,6.94a4.23,4.23,0,0,0,1.52.15,1.22,1.22,0,0,0,1-.54Z"/><path class="cls-1" d="M64.35,6.55a3.92,3.92,0,0,0,1,0c.55,0,.94.48,1.16,1.58a2.94,2.94,0,0,0,.37,1.11,4.38,4.38,0,0,1,.46,1.07A4.6,4.6,0,0,1,67,12.51a8.27,8.27,0,0,0-.54,2.41,12.84,12.84,0,0,0,.63,3.5c.47,1.77.81,2.27,1,1.48s.41-1.86.64-3.3a14.8,14.8,0,0,1,.73-3,4.79,4.79,0,0,0,.25-2.31,8.72,8.72,0,0,1,.29-3,11.69,11.69,0,0,1,.43-1.52l.82-.14a20.67,20.67,0,0,1,2.65-.15c1.3,0,2,.17,2,.59a1.53,1.53,0,0,1-.15.87q-.15.15.15.75c.16.39,0,1.15-.63,2.27a17.78,17.78,0,0,0-1.11,2.42c-.23.53-.29.8-.19.81s.14.39.14,1.13A3.72,3.72,0,0,1,73.82,17a6.45,6.45,0,0,0-.51,1.4,4.88,4.88,0,0,0-.19,1.32,6.19,6.19,0,0,1-.19,1.4c-.16.69-.27,1.12-.33,1.3s-.22.87-.49,2.06a23.73,23.73,0,0,0-.63,3.83c-.11,1.31-.17,2.09-.17,2.32,0,.61-.3.69-.74.24-.3-.26-.78-.24-1.41.08-.39.21-.62.17-.71-.14s-.2-.45-.37-.45a2.83,2.83,0,0,0-1.16.83c-.25.26-.51,0-.77-.81a8.2,8.2,0,0,1-.39-2.55c0-.87-.05-1.33-.14-1.38a1.38,1.38,0,0,0-.6,0c-.33,0-.43-.55-.28-1.74a13.9,13.9,0,0,0,.19-2.36c0-.4-.14-.54-.35-.44s-.31,0-.31-.43-.18-1.47-.35-3.22a21.47,21.47,0,0,1-.19-3.3c0-1-.25-1.14-.83-.35a4.6,4.6,0,0,0-.68,2.57A17,17,0,0,1,61.9,20a32.38,32.38,0,0,1-1.32,4.51,6.79,6.79,0,0,0-.41,2c0,.65-.13,1.55-.3,2.71a4.08,4.08,0,0,1-.62,2.08.77.77,0,0,1-.87.12c-.28-.08-.54.07-.78.44s-.41.51-.48.35a1.25,1.25,0,0,0-.56-.47,1.55,1.55,0,0,0-1.46.2c-.41.31-.44-.25-.1-1.68a12.55,12.55,0,0,1,.77-2.54,7.45,7.45,0,0,0,.5-2.3c.16-1.29.27-2.31.33-3.08A22.93,22.93,0,0,1,56.91,20a3,3,0,0,1,.93-1.88,2.39,2.39,0,0,0,.56-2,4.91,4.91,0,0,0-.35-1.94c-.25-.44,0-1.06.87-1.85a3.56,3.56,0,0,0,.89-2.06,6.12,6.12,0,0,0,.1-2c-.27-1.18.39-1.84,2-2a6.28,6.28,0,0,1,2,.08Z"/><path class="cls-1" d="M90.33,6.47a3.08,3.08,0,0,1,1.45,2.1c.31,1.08.54,1.94.71,2.58a3.06,3.06,0,0,1-.35,2A9.56,9.56,0,0,0,91.28,16,19.15,19.15,0,0,0,91,19.63a14.29,14.29,0,0,1-.25,3.08,14.06,14.06,0,0,0-.47,2,5.89,5.89,0,0,1-1.06,2.2c-.64.88-.93,1.41-.89,1.58s-.2.62-.73,1.34-1,1-1.32.86a4.15,4.15,0,0,0-1.54-.22A2.82,2.82,0,0,0,82.33,32c-.28.4-.62.39-1,0a6.27,6.27,0,0,0-1.47-1.1c-.58-.32-.8-.22-.66.28a.73.73,0,0,1-.54,1c-.49.16-.84-.14-1-.9a20.23,20.23,0,0,0-.83-2.5c-.71-1.81-.68-4.21.13-7.2a14.52,14.52,0,0,0,.31-5.16,22.77,22.77,0,0,1-.1-4.32,3.32,3.32,0,0,1,1.12-2.06c.63-.57,1.25-1.18,1.86-1.82a4.58,4.58,0,0,1,1.27-1.08,16.23,16.23,0,0,1,2-.36c1.07-.16,2.47-.32,4.18-.48A4.76,4.76,0,0,1,90.33,6.47Zm-5.59,5c-1.3-.85-2-.74-2,.32A18.07,18.07,0,0,1,82,15a17.4,17.4,0,0,0-.78,5.4c.08,1.12.11,2.12.1,3s.26,1.3.84,1.3a7.3,7.3,0,0,1,2.14.42q1.3.42,1.56-.9a9.68,9.68,0,0,1,.83-2.52,19.81,19.81,0,0,0,1.07-2.88q.49-1.63.69-2.52a5.93,5.93,0,0,0-.06-2.2q-.37-1.8-1.62-1.86A3.54,3.54,0,0,1,84.74,11.51Z"/><path class="cls-1" d="M102.63,7.85c0,.08.08.1.25.08s.23.22.21.74a2.22,2.22,0,0,1-.54,1.32,5.25,5.25,0,0,0-.87,2c-.31,1-.82,3-1.53,6.06S99,23,98.82,23.67a6.23,6.23,0,0,0-.13,2.15c.09.72.63,1,1.62.8a2.89,2.89,0,0,1,2.3.42c.57.43,1.11.29,1.64-.42a2.18,2.18,0,0,1,1.93-1c.78,0,1.26.33,1.42.91q.47,2-2.15,3.93a.91.91,0,0,1-1.08.14c-.33-.19-.54-.15-.62.14-.58,1-1.1,1-1.58.08-.08-.47-.33-.55-.77-.24s-.72.36-.88.12-.39.09-.92.59-1.17.49-1.53-.12-.69-.81-1-.55c-.55.47-1,.65-1.32.55a1.79,1.79,0,0,0-1.51.46,5.5,5.5,0,0,1-1.43.84c-.47.18-.5-.41-.07-1.79s.73-2.34.89-2.89a27,27,0,0,0,.77-4,38.17,38.17,0,0,1,.73-4,11.91,11.91,0,0,0,.27-1.26,2.46,2.46,0,0,1,.76-1.14,5,5,0,0,0,.77-2.81,13,13,0,0,0-.06-3.13q-.47-1.89,1.66-3.78a2.45,2.45,0,0,1,2.55-.41A7.55,7.55,0,0,1,102.63,7.85Z"/><path class="cls-1" d="M74.08,2.57c-.06.82-.23,1.28-.49,1.38a19.07,19.07,0,0,1-2.53.38,3.72,3.72,0,0,1-.68,0h-.55c-.12,0-.19,0-.2-.08s-.09-.13-.24-.2A2.49,2.49,0,0,0,68.32,4L67.19,4c-.2,0-.3,0-.29-.06s-.07-.14-.24-.21a3.94,3.94,0,0,0-1.46,0A6.09,6.09,0,0,0,63.81,4a3.44,3.44,0,0,1-.6-.34c-.18-.1-.29-.14-.32-.1s-.1,0-.2-.17a2,2,0,0,0-.65-.5,1.74,1.74,0,0,1-.57-.7,1.62,1.62,0,0,1-.23-.61.72.72,0,0,0-.18-.46A.7.7,0,0,0,60.8.86q-.09,0-.18-.3c-.12-.24,0-.42.28-.52a1.27,1.27,0,0,1,.48,0,3.71,3.71,0,0,0,.93,0c.48,0,.84,0,1.06,0a1.75,1.75,0,0,1,.95.3,4.07,4.07,0,0,0,1.05.4.87.87,0,0,0,.51,0,1.19,1.19,0,0,1,.5-.13,7.35,7.35,0,0,1,1.86.25c1,.21,1.57.34,1.69.38.46.22.76.21.89-.05,0-.11.47-.2,1.31-.27A4.76,4.76,0,0,1,73.9,1q.45.14.36.24A4.19,4.19,0,0,0,74.08,2.57Z"/></g></g></svg>