<svg xmlns="http://www.w3.org/2000/svg" viewBox="0 0 40.62 12.49"><defs><style>.cls-1{fill:#ff00e7;}</style></defs><g id="Layer_2" data-name="Layer 2"><g id="Layer_1-2" data-name="Layer 1"><path class="cls-1" d="M5.14,4c.14.53.05.73-.28.62-.16-.06-.3,0-.41.21s-.25.12-.53,0t-.42.27A.24.24,0,0,1,3.16,5a.62.62,0,0,0-.45-.24c-.22,0-.31.27-.27.88a3.06,3.06,0,0,0,.18,1.08c.21.4.46.52.77.37a1,1,0,0,0,.35-.23A.56.56,0,0,1,4,6.65c.09,0,.16.14.2.52a6.74,6.74,0,0,1,0,.83c0,.18-.13.23-.32.16a.66.66,0,0,0-.49,0A.56.56,0,0,1,2.82,8a.32.32,0,0,0-.45.08,2.09,2.09,0,0,0-.22,1.13c0,.62.06.95.25,1a4,4,0,0,0,.5.1c.15,0,.3-.11.45-.37S4,9.51,4.5,9.75c.24.11.27.36.09.76s-.3.69-.38.89-.33.36-.7.28-.58,0-.59.08-.12.11-.36.09a.51.51,0,0,1-.46-.24c-.09-.19-.22-.14-.4.14s-.32.24-.44-.14c-.06-.2-.16-.24-.29-.13a1.13,1.13,0,0,1-.34.23.65.65,0,0,1-.42,0c-.19,0-.25-.2-.19-.53s.15-.86.26-1.58A5.24,5.24,0,0,1,.71,8.07,5.69,5.69,0,0,0,.84,5.82a13.09,13.09,0,0,1,0-2.11c.07-.38.44-.49,1.11-.34a6.24,6.24,0,0,0,1.33.22.84.84,0,0,0,.48,0l.43-.35c.22-.18.45-.07.7.32A1.26,1.26,0,0,1,5.14,4Z"/><path class="cls-1" d="M10.78,3.59a.33.33,0,0,1-.14.37c-.17.13-.26.23-.27.29a2.15,2.15,0,0,1-.16.47.84.84,0,0,1-.26.39c-.12.06-.2,0-.26,0a.31.31,0,0,0-.23-.14A.22.22,0,0,0,9.28,5a.28.28,0,0,1-.21.06,1.06,1.06,0,0,0-.56.21.43.43,0,0,0-.12.49q.07.33.15.57a5.55,5.55,0,0,0,.74,1.3,2.87,2.87,0,0,1,.33,1.16c.06.51.09.84.09,1a2.37,2.37,0,0,1-.31.89,3.78,3.78,0,0,1-.52.86c-.15.17-.22.24-.23.2s-.12,0-.33.09S8,12,8,12s0,.07-.15.13a1,1,0,0,1-.53.09l-.53,0a.47.47,0,0,1-.3-.09A.48.48,0,0,0,6.23,12c-.13,0-.18.06-.17.17a.26.26,0,0,1-.07.26c-.07.06-.14,0-.22,0a.43.43,0,0,1-.06-.36,1.1,1.1,0,0,1,.06-.28s0-.16-.11-.34a1,1,0,0,1-.07-.62l.12-.57c0-.13,0-.18-.07-.16s-.11,0-.13-.19c-.07-.37.24-.69,1-1q.41-.13.45,0c0,.1,0,.21.08.31a.63.63,0,0,1,0,.37A.39.39,0,0,0,7,10c.06.15.19.15.4,0a1.43,1.43,0,0,0,.41-.41c.1-.19,0-.42-.22-.71,0,0-.05-.19,0-.49A.75.75,0,0,0,7.34,8a.53.53,0,0,0-.24-.15q-.13,0-.18-.24A2.88,2.88,0,0,1,6.84,7a1.45,1.45,0,0,0-.14-.59,1.85,1.85,0,0,1,0-.91A5.37,5.37,0,0,1,7,4.38a10.19,10.19,0,0,1,.44-1.11C7.48,3.12,7.66,3,8,3a1.44,1.44,0,0,0,.72-.26.94.94,0,0,1,.65-.13,6.2,6.2,0,0,0,.69.07c.21,0,.42.24.64.69Z"/><path class="cls-1" d="M14.32,2.72a1.21,1.21,0,0,1,1.08.84c0,.18.09.29.1.33s.06.18.15.44a2.36,2.36,0,0,1,.07,1.07,5.3,5.3,0,0,1-.16,1,.93.93,0,0,1-.16.37.68.68,0,0,0-.12.28,2.35,2.35,0,0,1-.16.38,1,1,0,0,0-.2.54c0,.09-.23.17-.66.23,0,0-.12.07-.19.18a.46.46,0,0,1-.25.2c-.09,0-.16,0-.22-.13s-.12-.16-.2-.13a.35.35,0,0,0-.13.17.47.47,0,0,1-.14.18.18.18,0,0,1-.18,0,.18.18,0,0,0-.13,0A3.46,3.46,0,0,0,12.5,10a13,13,0,0,1-.24,1.39,2.11,2.11,0,0,1-.6.78c-.09.07-.14,0-.15-.07s-.09-.17-.24-.15-.28.08-.28.15h-.37c-.11,0-.16-.17-.16-.51a11.6,11.6,0,0,1,.11-1.3,2.24,2.24,0,0,1,.16-.57,2.21,2.21,0,0,0,.18-.53.53.53,0,0,0-.07-.38c-.08-.1,0-.28.12-.53a3.15,3.15,0,0,0,.36-.85.94.94,0,0,0,0-.66c-.09-.14,0-.41.3-.82a1.73,1.73,0,0,0,.2-.9,7.53,7.53,0,0,0,0-1,2,2,0,0,1,.41-1c.11-.18.48-.29,1.11-.34A5.48,5.48,0,0,1,14.32,2.72Zm-.37,2a1.42,1.42,0,0,0-.35-.15c-.19-.08-.28-.06-.26,0a9.57,9.57,0,0,1-.17,1,6.84,6.84,0,0,0-.15,1c0,.06.09,0,.27-.13a1.38,1.38,0,0,0,.36-.4,4.85,4.85,0,0,0,.2-.76A2,2,0,0,0,14,4.73Z"/><path class="cls-1" d="M20.56,4.07a2.48,2.48,0,0,0,0,1,3.61,3.61,0,0,0,.11.57,2.16,2.16,0,0,1,0,.69,2.29,2.29,0,0,1-.1.59,2.33,2.33,0,0,0,0,.8c0,.44.06.93.06,1.46a5.23,5.23,0,0,1-.06,1c-.06.15-.13.24-.2.26a.85.85,0,0,0-.29.28c-.13.18-.17.27-.11.25s0,0-.23.15l-.35.18-.23-.06a.35.35,0,0,1-.26-.16c0-.08-.09-.11-.21-.11s-.2-.09-.26-.25a.63.63,0,0,1,0-.45.62.62,0,0,0,0-.59c-.08-.13-.23-.12-.43,0a1.63,1.63,0,0,0-.44.43,1.79,1.79,0,0,0-.23.65.69.69,0,0,1-.38.56c-.21.09-.33.13-.36.11a.76.76,0,0,0-.28,0c-.17,0-.24.08-.21.14s0,.1-.11.11-.25-.17-.25-.58v-.62A1.15,1.15,0,0,1,16,9.87a1.86,1.86,0,0,0,.35-.78,6.4,6.4,0,0,0,.13-.73,1.13,1.13,0,0,1,.36-.78,1.21,1.21,0,0,0,.3-.61c.05-.25.09-.48.13-.69s.08-.33.15-.34.15-.1.24-.24.09-.23.06-.29,0-.13.14-.22a1.08,1.08,0,0,0,.24-.68,3.37,3.37,0,0,1,.29-1A.93.93,0,0,1,19.24,3a8.77,8.77,0,0,1,1-.08c.24,0,.36.29.37.86A1.78,1.78,0,0,1,20.56,4.07ZM18.85,6.56l-.53,1.35a1.48,1.48,0,0,0,.39,0A.34.34,0,0,0,19,7.83Z"/><path class="cls-1" d="M24.27,2.54a1.52,1.52,0,0,0,.4,0c.2,0,.35.18.43.6a1.27,1.27,0,0,0,.14.43,1.68,1.68,0,0,1,.18.4,1.85,1.85,0,0,1-.14.86,3.19,3.19,0,0,0-.21.93,5,5,0,0,0,.24,1.33q.26,1,.39.57t.24-1.26a6.08,6.08,0,0,1,.27-1.16,1.76,1.76,0,0,0,.1-.88,3.32,3.32,0,0,1,.11-1.16,4.42,4.42,0,0,1,.16-.58l.31,0a8.07,8.07,0,0,1,1-.06c.49,0,.74.06.75.22s0,.3-.06.34,0,.13.06.28,0,.44-.24.87a7.07,7.07,0,0,0-.42.93c-.08.2-.11.31-.07.31s.05.15.05.43a1.43,1.43,0,0,1-.11.66,2.26,2.26,0,0,0-.2.54,2.41,2.41,0,0,0-.07.5,2.18,2.18,0,0,1-.07.54c-.06.26-.1.43-.12.5s-.09.33-.19.78A10.24,10.24,0,0,0,27,10.87c0,.5-.06.8-.06.89s-.11.26-.28.09-.29-.09-.53,0-.24.06-.27-.05-.08-.18-.14-.18a1.18,1.18,0,0,0-.44.32c-.09.1-.19,0-.28-.31a3.12,3.12,0,0,1-.15-1c0-.34,0-.51-.06-.53a.44.44,0,0,0-.23,0c-.12,0-.15-.21-.1-.66a5.57,5.57,0,0,0,.07-.91c0-.15,0-.2-.13-.16s-.12,0-.12-.17-.06-.56-.13-1.23A7.79,7.79,0,0,1,24,5.75c0-.4-.09-.44-.31-.14a1.77,1.77,0,0,0-.26,1,7.37,7.37,0,0,1-.12,1.11,12.41,12.41,0,0,1-.5,1.72,2.82,2.82,0,0,0-.15.78c0,.24-.05.59-.11,1s-.14.72-.24.8a.3.3,0,0,1-.33.05c-.1,0-.2,0-.29.16s-.16.2-.18.14a.49.49,0,0,0-.21-.18.58.58,0,0,0-.55.07c-.16.13-.17-.09,0-.64a4.92,4.92,0,0,1,.29-1,3.25,3.25,0,0,0,.19-.88c.06-.49.1-.89.12-1.18a8.47,8.47,0,0,1,.12-.91A1.17,1.17,0,0,1,21.82,7,.89.89,0,0,0,22,6.22a1.89,1.89,0,0,0-.13-.75c-.1-.17,0-.4.33-.71A1.35,1.35,0,0,0,22.56,4a2.42,2.42,0,0,0,0-.77c-.1-.45.15-.71.75-.76a2.54,2.54,0,0,1,.74,0Z"/><path class="cls-1" d="M34.07,2.48a1.16,1.16,0,0,1,.55.8c.12.4.21.73.27,1a1.15,1.15,0,0,1-.13.77,3.54,3.54,0,0,0-.33,1,7.58,7.58,0,0,0-.12,1.39,5.75,5.75,0,0,1-.09,1.17,4.15,4.15,0,0,0-.18.74,2.27,2.27,0,0,1-.4.83c-.24.33-.35.53-.34.6s-.07.23-.27.5-.37.38-.5.33a1.5,1.5,0,0,0-.58-.09,1.07,1.07,0,0,0-.89.61c-.11.15-.23.15-.39,0a2.42,2.42,0,0,0-.55-.42c-.22-.12-.3-.08-.25.11a.28.28,0,0,1-.2.38c-.19.06-.32,0-.4-.34a6.93,6.93,0,0,0-.31-.95A4.43,4.43,0,0,1,29,8.19a5.81,5.81,0,0,0,.12-1.94,7.9,7.9,0,0,1,0-1.64,1.21,1.21,0,0,1,.42-.77c.24-.22.47-.45.7-.69a1.79,1.79,0,0,1,.48-.41,6.08,6.08,0,0,1,.74-.14c.41-.06.93-.12,1.58-.18A1.78,1.78,0,0,1,34.07,2.48ZM32,4.39c-.49-.33-.74-.29-.76.12A7.63,7.63,0,0,1,31,5.7a6.87,6.87,0,0,0-.3,2c0,.42,0,.8,0,1.13s.1.49.32.49a2.66,2.66,0,0,1,.81.16c.32.1.52,0,.58-.34a4,4,0,0,1,.31-1,6.28,6.28,0,0,0,.41-1.08c.13-.42.21-.73.26-1a2.14,2.14,0,0,0,0-.83c-.1-.45-.3-.68-.61-.7A1.33,1.33,0,0,1,32,4.39Z"/><path class="cls-1" d="M38.71,3s0,0,.1,0,.09.09.08.29a.85.85,0,0,1-.21.51,2.11,2.11,0,0,0-.33.77c-.11.4-.3,1.17-.57,2.33s-.44,1.87-.5,2.15a2.26,2.26,0,0,0-.05.82c0,.28.23.38.61.31a1.08,1.08,0,0,1,.87.16c.21.16.42.11.61-.16a.82.82,0,0,1,.73-.39c.3,0,.48.12.54.34.12.51-.16,1-.81,1.51a.34.34,0,0,1-.41.06c-.12-.08-.2-.06-.23,0q-.33.56-.6,0c0-.18-.12-.21-.29-.09s-.27.14-.33,0-.15,0-.35.22-.44.19-.58,0-.26-.32-.37-.21-.38.25-.5.21a.65.65,0,0,0-.57.17,1.78,1.78,0,0,1-.54.33c-.18.07-.19-.16,0-.69l.33-1.11a11.19,11.19,0,0,0,.29-1.52q.18-1.22.27-1.53c.06-.22.09-.38.11-.49a.92.92,0,0,1,.29-.44,2,2,0,0,0,.28-1.08,4.94,4.94,0,0,0,0-1.2A1.49,1.49,0,0,1,37.17,3a.92.92,0,0,1,1-.16A2.77,2.77,0,0,1,38.71,3Z"/><path class="cls-1" d="M28,1c0,.32-.09.5-.19.53a5.8,5.8,0,0,1-1,.15h-.47c-.05,0-.07,0-.07,0s0,0-.09-.08a.83.83,0,0,0-.41,0l-.42,0c-.08,0-.12,0-.11,0s0-.05-.1-.08a1.19,1.19,0,0,0-.54,0,3.83,3.83,0,0,0-.53.09,1.3,1.3,0,0,1-.23-.13c-.06,0-.1,0-.12,0s0,0-.07-.06a.69.69,0,0,0-.25-.19.75.75,0,0,1-.21-.27A.66.66,0,0,1,23.1.6.23.23,0,0,0,23,.43c0-.06-.07-.09-.1-.1s0,0-.06-.11,0-.16.1-.21h.18a1.39,1.39,0,0,0,.35,0h.41a.67.67,0,0,1,.35.12,1.71,1.71,0,0,0,.4.15.34.34,0,0,0,.19,0A.5.5,0,0,1,25,.22a3.13,3.13,0,0,1,.7.1l.64.14c.17.09.29.08.34,0s.17-.08.49-.11a1.64,1.64,0,0,1,.67,0c.11,0,.16.07.13.09A1.45,1.45,0,0,0,28,1Z"/></g></g></svg>