<svg xmlns="http://www.w3.org/2000/svg" viewBox="0 0 32.81 10.8"><defs><style>.cls-1{fill:#ff00e7;}</style></defs><g id="Layer_2" data-name="Layer 2"><g id="Layer_1-2" data-name="Layer 1"><path class="cls-1" d="M5.35,1a.35.35,0,0,1-.14.4q-.25.21-.27.3a3,3,0,0,1-.16.49.89.89,0,0,1-.27.42c-.12.06-.2,0-.26,0A.36.36,0,0,0,4,2.44a.23.23,0,0,0-.19.07s-.1.06-.21.06a1.1,1.1,0,0,0-.57.22.49.49,0,0,0-.12.52c0,.23.1.42.15.59a6.62,6.62,0,0,0,.75,1.37,3.07,3.07,0,0,1,.34,1.22c.06.52.09.88.09,1.06A2.7,2.7,0,0,1,4,8.48a4.74,4.74,0,0,1-.53.91q-.22.27-.24.21s-.12,0-.33.09-.31.16-.28.19,0,.08-.15.14a1,1,0,0,1-.55.09l-.53,0A.5.5,0,0,1,1,10a.41.41,0,0,0-.29-.1c-.13,0-.18.06-.17.18a.31.31,0,0,1-.07.27c-.07.06-.15.05-.22,0a.43.43,0,0,1-.06-.38,1.5,1.5,0,0,1,.06-.3s0-.15-.11-.35A.92.92,0,0,1,.1,8.63c0-.25.08-.45.12-.61s0-.19-.07-.16S0,7.82,0,7.66c-.07-.39.25-.73,1-1q.41-.13.45,0A1.68,1.68,0,0,0,1.52,7a.69.69,0,0,1-.06.39.45.45,0,0,0,0,.42c.06.16.2.16.4,0a1.37,1.37,0,0,0,.42-.42c.11-.2,0-.45-.22-.75,0,0-.05-.2,0-.52a.73.73,0,0,0-.21-.44.41.41,0,0,0-.24-.16c-.09,0-.15-.11-.18-.25a3.25,3.25,0,0,1-.08-.63A1.44,1.44,0,0,0,1.21,4a2,2,0,0,1,0-.95A5.68,5.68,0,0,1,1.5,1.87c.21-.61.36-1,.44-1.17s.25-.25.54-.28A1.45,1.45,0,0,0,3.21.15.94.94,0,0,1,3.88,0a6.2,6.2,0,0,0,.69.07c.22,0,.43.26.65.73A2,2,0,0,1,5.35,1Z"/><path class="cls-1" d="M9.94.72a.8.8,0,0,1,.09.62,1.65,1.65,0,0,1-.17.52.44.44,0,0,0-.08.33,1.43,1.43,0,0,1,0,.4c0,.16-.09.2-.19.14a.68.68,0,0,0-.32-.11,1,1,0,0,0-.68.3.57.57,0,0,0-.12.48,3.64,3.64,0,0,1,0,.46s-.06.06-.2.28a2,2,0,0,0-.12.79c0,.41,0,.7,0,.86s0,.24-.06.22S8,6,8,6.15a3.39,3.39,0,0,0-.12,1.11,4.63,4.63,0,0,0,0,1.06c0,.06-.07.19-.23.42s-.11.2-.08.23,0,.07-.11.11a1.58,1.58,0,0,0-.34.43,1,1,0,0,1-.43.34.92.92,0,0,1-.38.07A.31.31,0,0,0,6,10a.52.52,0,0,0-.17.17s-.08.08-.18.1-.29-.06-.32-.3a.94.94,0,0,1,0-.37,3.72,3.72,0,0,0,.09-.68c0-.37.06-.64.07-.81a1.55,1.55,0,0,1,.24-.67,2.5,2.5,0,0,0,.31-.74.77.77,0,0,0,0-.39,1.51,1.51,0,0,1,0-.38,5.79,5.79,0,0,1,.26-1.38c.19-.73.31-1.13.34-1.21.13-.35.14-.57,0-.68s-.31-.06-.6.1a.57.57,0,0,1-.44,0q-.2,0-.15-.36c0-.22,0-.4,0-.52A3.28,3.28,0,0,1,5.66,1a.8.8,0,0,1,.78-.6,7.4,7.4,0,0,1,1.3,0A9.68,9.68,0,0,0,9.28.34,1.18,1.18,0,0,1,9.94.72Z"/><path class="cls-1" d="M14.93,1.54a3,3,0,0,0,0,1.1,5.27,5.27,0,0,0,.11.59A2.06,2.06,0,0,1,15,4a2.65,2.65,0,0,1-.1.63,2.5,2.5,0,0,0,0,.83c0,.46.06,1,.06,1.54A5.68,5.68,0,0,1,15,8c-.06.16-.13.25-.2.27s-.16.12-.29.3-.18.28-.11.26,0,0-.24.16a3.53,3.53,0,0,1-.36.19l-.23-.07c-.14,0-.23-.08-.26-.16s-.09-.12-.21-.12-.2-.09-.26-.26a.59.59,0,0,1,0-.47.75.75,0,0,0,0-.62c-.09-.14-.24-.12-.45,0A1.66,1.66,0,0,0,12,8a2,2,0,0,0-.23.68.74.74,0,0,1-.39.59,1.07,1.07,0,0,1-.36.12.62.62,0,0,0-.29,0c-.17,0-.24.08-.21.14s0,.1-.1.12-.26-.17-.26-.61c0-.16,0-.37,0-.65a1.31,1.31,0,0,1,.25-.77,2,2,0,0,0,.36-.82c.06-.32.11-.58.13-.77a1.19,1.19,0,0,1,.37-.82,1.41,1.41,0,0,0,.3-.64q.08-.39.12-.72c0-.23.09-.35.16-.36s.15-.1.24-.25a.37.37,0,0,0,.06-.3c0-.06,0-.14.14-.24A1.13,1.13,0,0,0,12.48,2,4,4,0,0,1,12.77.94,1,1,0,0,1,13.6.38a8.4,8.4,0,0,1,1-.07c.24,0,.37.3.38.9A2.4,2.4,0,0,1,14.93,1.54ZM13.2,4.16l-.54,1.41a1.53,1.53,0,0,0,.4,0,.36.36,0,0,0,.25-.11Z"/><path class="cls-1" d="M21,.81a2.3,2.3,0,0,0,0,.69.78.78,0,0,1-.14.58.61.61,0,0,1-.37.16.28.28,0,0,1-.25-.11A.35.35,0,0,0,19.93,2a.37.37,0,0,0-.2.22.42.42,0,0,1-.21.21c-.11,0-.19,0-.26-.15s-.15-.18-.25-.14a.59.59,0,0,0-.2.35,2.41,2.41,0,0,1-.13.45.93.93,0,0,0-.08.34.46.46,0,0,1-.14.31,1.57,1.57,0,0,0-.43.79c0,.12-.08.35-.15.67a4.91,4.91,0,0,1-.2.74,5.67,5.67,0,0,0-.21,1.11c-.07.56-.06.87,0,.95s.26,0,.66-.06c0,0,.1,0,.18,0a.25.25,0,0,0,.24-.05.47.47,0,0,0,.15-.21.77.77,0,0,1,.18-.25A.24.24,0,0,0,19,7.2a.29.29,0,0,1,.08-.13A.21.21,0,0,1,19.21,7a.25.25,0,0,0,.14,0,1.44,1.44,0,0,0,.39-.59c.14-.31.09-.49-.14-.55s-.24,0-.23.11a.16.16,0,0,1-.14.2c-.11,0-.17,0-.16,0s0-.07-.09-.07-.11,0-.1.08,0,.08-.09.09c-.23.07-.35.07-.35,0a1.32,1.32,0,0,1,0-.9,2.78,2.78,0,0,0,.25-.6.54.54,0,0,1,.37-.42.31.31,0,0,1,.36.19.42.42,0,0,0,.45.2,4,4,0,0,1,.76,0q.45,0,.48.72a5.73,5.73,0,0,1-.58,1.95,6.91,6.91,0,0,1-1,1.79,3.57,3.57,0,0,1-1,.62,2.84,2.84,0,0,0-.82.46.47.47,0,0,0-.1.24.41.41,0,0,1-.11.22c-.11.12-.21.1-.28-.08a2.78,2.78,0,0,0-.68-.41A1.08,1.08,0,0,1,16,9.34c0-.19-.06-.28-.09-.26s-.08,0-.14-.12-.06-.27,0-.59a7.67,7.67,0,0,0,.08-1.17,8.43,8.43,0,0,1,.28-1.87,6.46,6.46,0,0,1,.43-1.41,14.79,14.79,0,0,0,.62-1.39c.33-.77.54-1.3.65-1.57s.19-.38.29-.35a1.13,1.13,0,0,0,.53,0,1,1,0,0,0,.58-.23,1.05,1.05,0,0,1,.53-.25A3.39,3.39,0,0,1,21,.38,1.62,1.62,0,0,1,21,.81Z"/><path class="cls-1" d="M27.07,1.43c.15.55.06.77-.28.65-.16-.06-.3,0-.41.22s-.26.12-.54,0c0,0-.11.11-.43.28a.23.23,0,0,1-.34-.09.61.61,0,0,0-.45-.26c-.22,0-.32.29-.28.92a3.31,3.31,0,0,0,.18,1.14c.21.42.47.54.78.38a1,1,0,0,0,.36-.23.51.51,0,0,1,.24-.18c.1,0,.16.15.2.54a6,6,0,0,1,0,.87c0,.19-.13.25-.33.17a.67.67,0,0,0-.49,0,.56.56,0,0,1-.59-.11.32.32,0,0,0-.46.08A2.29,2.29,0,0,0,24.05,7c0,.64.06,1,.25,1a2.85,2.85,0,0,0,.51.1c.15,0,.3-.11.46-.38s.62-.46,1.15-.21c.25.12.28.38.1.79s-.31.73-.38.94-.34.37-.71.3-.59-.06-.61.08-.12.11-.36.09-.4-.1-.46-.25-.23-.15-.4.15-.33.25-.46-.15c-.06-.21-.16-.26-.29-.14a1.07,1.07,0,0,1-.34.25.77.77,0,0,1-.43,0c-.19,0-.25-.21-.19-.56s.15-.9.26-1.65a5.89,5.89,0,0,1,.44-1.66,6.25,6.25,0,0,0,.13-2.36,14.48,14.48,0,0,1,0-2.22c.07-.39.45-.51,1.13-.35A6.33,6.33,0,0,0,25.17,1a.8.8,0,0,0,.49,0l.43-.37c.22-.19.46-.08.72.34A1.25,1.25,0,0,1,27.07,1.43Z"/><path class="cls-1" d="M32.79,1a.35.35,0,0,1-.14.4q-.26.21-.27.3a2.25,2.25,0,0,1-.16.49.89.89,0,0,1-.27.42c-.11.06-.2,0-.26,0a.34.34,0,0,0-.23-.16.23.23,0,0,0-.19.07s-.1.06-.21.06a1.1,1.1,0,0,0-.57.22.49.49,0,0,0-.12.52c.05.23.1.42.15.59a6.62,6.62,0,0,0,.75,1.37,3.07,3.07,0,0,1,.34,1.22c.06.52.09.88.09,1.06a2.7,2.7,0,0,1-.31.93,4.26,4.26,0,0,1-.53.91q-.22.27-.24.21s-.12,0-.33.09-.31.16-.28.19,0,.08-.15.14a1,1,0,0,1-.55.09l-.53,0a.5.5,0,0,1-.31-.09.41.41,0,0,0-.29-.1c-.13,0-.18.06-.17.18a.28.28,0,0,1-.07.27c-.07.06-.15.05-.22,0a.47.47,0,0,1-.06-.38,1.5,1.5,0,0,1,.06-.3s0-.15-.11-.35a.92.92,0,0,1-.07-.64L27.66,8c0-.13,0-.19-.07-.16s-.12,0-.14-.2c-.07-.39.25-.73,1-1q.41-.13.45,0A3,3,0,0,0,29,7a.69.69,0,0,1-.06.39.45.45,0,0,0,0,.42c.06.16.2.16.4,0a1.37,1.37,0,0,0,.42-.42c.11-.2,0-.45-.22-.75,0,0-.05-.2,0-.52a.73.73,0,0,0-.21-.44.41.41,0,0,0-.24-.16c-.09,0-.15-.11-.18-.25a4.32,4.32,0,0,1-.08-.63A1.44,1.44,0,0,0,28.65,4a2,2,0,0,1,0-.95,5.68,5.68,0,0,1,.33-1.19c.21-.61.36-1,.44-1.17s.25-.25.54-.28a1.45,1.45,0,0,0,.73-.27A.94.94,0,0,1,31.32,0,6.2,6.2,0,0,0,32,.08c.22,0,.43.26.65.73A2,2,0,0,1,32.79,1Z"/></g></g></svg>