<svg xmlns="http://www.w3.org/2000/svg" viewBox="0 0 83.4 26.02"><defs><style>.cls-1{fill:#ff00e7;}</style></defs><g id="Layer_2" data-name="Layer 2"><g id="Layer_1-2" data-name="Layer 1"><path class="cls-1" d="M13.6,2.91a.84.84,0,0,1-.36,1c-.43.34-.66.59-.69.74a5.88,5.88,0,0,1-.4,1.2,2.21,2.21,0,0,1-.69,1c-.29.15-.51.12-.66-.1a.79.79,0,0,0-.58-.37.61.61,0,0,0-.49.15c-.08.11-.25.16-.52.16a2.72,2.72,0,0,0-1.45.54,1.15,1.15,0,0,0-.32,1.27c.13.55.26,1,.4,1.45a14.74,14.74,0,0,0,1.89,3.34,7.44,7.44,0,0,1,.87,3c.15,1.29.22,2.16.22,2.6A6.08,6.08,0,0,1,10,21.17a10.48,10.48,0,0,1-1.34,2.22c-.38.44-.58.61-.61.52s-.31,0-.85.22-.77.39-.7.46-.06.2-.38.35a2.74,2.74,0,0,1-1.39.23c-.58,0-1-.05-1.35-.08a1.24,1.24,0,0,1-.79-.23,1.21,1.21,0,0,0-.74-.23c-.33,0-.47.14-.42.43a.77.77,0,0,1-.19.66c-.19.15-.38.12-.56-.1a1,1,0,0,1-.16-.91A2.5,2.5,0,0,1,.71,24c.05-.1,0-.39-.28-.86a2.29,2.29,0,0,1-.19-1.59c.12-.59.23-1.09.31-1.48s0-.47-.19-.4-.29-.1-.33-.49c-.19-1,.62-1.79,2.45-2.48.7-.24,1.08-.22,1.15,0s.14.54.22.8a1.74,1.74,0,0,1-.14.95,1.06,1.06,0,0,0,.1,1c.16.39.5.4,1,0a3.92,3.92,0,0,0,1.07-1c.26-.49.07-1.1-.57-1.82-.11-.08-.14-.51-.08-1.29a1.82,1.82,0,0,0-.52-1.09,1.35,1.35,0,0,0-.62-.39c-.24-.05-.39-.25-.47-.62a10.34,10.34,0,0,1-.21-1.53,3.69,3.69,0,0,0-.35-1.53A4.85,4.85,0,0,1,3,7.88,14.16,14.16,0,0,1,3.81,5,30.57,30.57,0,0,1,4.94,2.09c.16-.38.62-.62,1.37-.69A3.6,3.6,0,0,0,8.16.73,2.42,2.42,0,0,1,9.85.4c.64.09,1.24.15,1.78.18s1.08.62,1.65,1.79C13.41,2.57,13.52,2.76,13.6,2.91Z"/><path class="cls-1" d="M26.17,1.35a2,2,0,0,1,.22,1.53A4.51,4.51,0,0,1,26,4.18a1.12,1.12,0,0,0-.23.83,2.79,2.79,0,0,1-.06,1q-.12.6-.48.36a1.78,1.78,0,0,0-.81-.28,2.61,2.61,0,0,0-1.73.75A1.29,1.29,0,0,0,22.37,8c.06.55.1.93.1,1.14,0-.08-.18.15-.53.71a5.39,5.39,0,0,0-.3,2c0,1-.06,1.73-.06,2.12s0,.61-.14.56-.21.06-.34.35a9.06,9.06,0,0,0-.29,2.76,14.59,14.59,0,0,0,.08,2.64c0,.13-.16.47-.56,1-.21.32-.28.51-.22.59s0,.17-.26.28A3.71,3.71,0,0,0,19,23.21a2.19,2.19,0,0,1-1.09.83,2,2,0,0,1-1,.18.93.93,0,0,0-.68.18,1.23,1.23,0,0,0-.42.43c0,.1-.19.18-.47.23-.45.11-.72-.14-.8-.74a2.17,2.17,0,0,1,0-.91,8.84,8.84,0,0,0,.24-1.7c.09-.91.14-1.58.16-2A3.74,3.74,0,0,1,15.6,18a6.57,6.57,0,0,0,.78-1.83,2,2,0,0,0,.07-1,2.87,2.87,0,0,1-.11-1A15.47,15.47,0,0,1,17,10.86c.48-1.82.77-2.83.84-3,.35-.87.37-1.43,0-1.7s-.8-.16-1.53.24a1.57,1.57,0,0,1-1.12.12c-.32,0-.46-.36-.39-.91A10.68,10.68,0,0,0,15,4.3a7.37,7.37,0,0,1,.33-2.17,2,2,0,0,1,2-1.49,17.33,17.33,0,0,1,3.3-.08A23,23,0,0,0,24.48.4,3.11,3.11,0,0,1,26.17,1.35Z"/><path class="cls-1" d="M38,3.82a8.66,8.66,0,0,0-.08,2.95c.08.63.18,1.16.28,1.6a5.92,5.92,0,0,1,0,1.94A7.71,7.71,0,0,1,37.93,12a7.28,7.28,0,0,0,.1,2.24c.11,1.25.16,2.63.16,4.14a15.3,15.3,0,0,1-.16,2.9c-.16.43-.33.67-.5.73s-.43.32-.75.81-.44.74-.28.68,0,.09-.61.43a7.23,7.23,0,0,1-.9.51,5.53,5.53,0,0,1-.58-.17c-.38-.09-.6-.24-.67-.45s-.25-.32-.55-.32-.51-.24-.66-.71a1.67,1.67,0,0,1,0-1.25,2,2,0,0,0,.07-1.67c-.21-.37-.59-.33-1.13.11a4.66,4.66,0,0,0-1.12,1.22A5.35,5.35,0,0,0,29.79,23a1.94,1.94,0,0,1-1,1.58c-.54.25-.85.36-.93.32a1.72,1.72,0,0,0-.73.06q-.64.14-.54.39c.07.17,0,.27-.26.3-.43.08-.65-.46-.65-1.63,0-.42,0-1,0-1.75a3.68,3.68,0,0,1,.63-2.09,5.5,5.5,0,0,0,.9-2.19c.18-.87.29-1.56.35-2.07a3.39,3.39,0,0,1,.92-2.22A3.56,3.56,0,0,0,29.25,12c.13-.71.24-1.37.32-2s.22-.92.4-1,.39-.27.61-.66a1,1,0,0,0,.16-.82c-.08-.17,0-.38.36-.64a3.16,3.16,0,0,0,.63-1.92,10.28,10.28,0,0,1,.74-2.86A2.42,2.42,0,0,1,34.56.71,20.52,20.52,0,0,1,37.1.49c.62,0,.95.82,1,2.44A5.6,5.6,0,0,1,38,3.82ZM34,8.33l-2,6.15a4.82,4.82,0,0,0,1.5.13,1.25,1.25,0,0,0,1-.48Z"/><path class="cls-1" d="M53.37,2.31a4.73,4.73,0,0,0,0,1.63A1.71,1.71,0,0,1,53,5.32a1.51,1.51,0,0,1-.93.37.71.71,0,0,1-.64-.26.91.91,0,0,0-.73-.3,1,1,0,0,0-.53.51,1,1,0,0,1-.51.51A.57.57,0,0,1,49,5.79c-.18-.32-.38-.42-.63-.32a1.23,1.23,0,0,0-.5.83,6.83,6.83,0,0,1-.34,1,2,2,0,0,0-.2.83,1,1,0,0,1-.37.71,3.77,3.77,0,0,0-1.08,1.89c-.08.3-.21.83-.38,1.6A13.32,13.32,0,0,1,45,14.13a11.7,11.7,0,0,0-.55,2.63c-.17,1.33-.13,2.09.1,2.26s.68.08,1.7-.15a.8.8,0,0,1,.44.08.65.65,0,0,0,.61-.12,1.14,1.14,0,0,0,.4-.5,1.68,1.68,0,0,1,.44-.59.55.55,0,0,0,.2-.26,1,1,0,0,1,.2-.31.64.64,0,0,1,.35-.1.54.54,0,0,0,.34-.12,3.35,3.35,0,0,0,1-1.39c.35-.73.23-1.17-.37-1.32-.4-.08-.59,0-.58.28a.4.4,0,0,1-.34.47c-.3.08-.44.06-.43-.05s-.06-.17-.22-.17S48,14.83,48,15s-.06.21-.22.23c-.59.15-.88.15-.88,0A2.79,2.79,0,0,1,47,13a6.18,6.18,0,0,0,.63-1.44,1.27,1.27,0,0,1,.94-1,.77.77,0,0,1,.91.43,1.08,1.08,0,0,0,1.15.47,13.23,13.23,0,0,1,1.93.06c.76.06,1.16.63,1.21,1.71a12.42,12.42,0,0,1-1.47,4.63,15.66,15.66,0,0,1-2.52,4.25,8.92,8.92,0,0,1-2.57,1.47,8.39,8.39,0,0,0-2.1,1.09,1.27,1.27,0,0,0-.26.59.91.91,0,0,1-.27.51c-.29.3-.53.24-.72-.19a8,8,0,0,0-1.73-1,2.5,2.5,0,0,1-1.33-2.11c-.08-.45-.16-.66-.24-.62s-.21-.06-.36-.28-.14-.64,0-1.39a17,17,0,0,0,.19-2.79A19.28,19.28,0,0,1,41.08,13a15.32,15.32,0,0,1,1.09-3.36,31.54,31.54,0,0,0,1.59-3.29c.82-1.84,1.37-3.09,1.63-3.75s.49-.89.75-.81a3.18,3.18,0,0,0,1.35,0A2.67,2.67,0,0,0,49,1.27,2.71,2.71,0,0,1,50.31.69a8.76,8.76,0,0,1,3.14.6A4,4,0,0,1,53.37,2.31Z"/><path class="cls-1" d="M68.82,2.45q.59,2.25-.75,1.77c-.42-.17-.77,0-1.08.61-.19.34-.66.33-1.42,0q.14.09-1.11.78a.6.6,0,0,1-.9-.26,1.61,1.61,0,0,0-1.19-.69c-.58-.06-.82.78-.72,2.51a8.91,8.91,0,0,0,.47,3.11c.56,1.13,1.24,1.47,2,1a2.43,2.43,0,0,0,.94-.65,1.39,1.39,0,0,1,.65-.48c.24-.08.42.41.52,1.47a21.14,21.14,0,0,1,.1,2.38c-.06.52-.35.67-.88.45a1.66,1.66,0,0,0-1.29-.1A1.38,1.38,0,0,1,62.67,14a.84.84,0,0,0-1.21.22c-.33.41-.53,1.48-.58,3.24s.16,2.71.66,2.85a7.22,7.22,0,0,0,1.33.28c.39.05.79-.3,1.21-1.05.61-1.07,1.62-1.26,3-.57.64.32.72,1,.25,2.17s-.81,2-1,2.55c-.28.75-.91,1-1.87.82s-1.56-.16-1.59.21-.32.32-.95.26a1.29,1.29,0,0,1-1.21-.69c-.24-.55-.6-.41-1.06.41s-.85.69-1.19-.41c-.16-.58-.41-.7-.77-.37a3.15,3.15,0,0,1-.89.67,1.79,1.79,0,0,1-1.12.13c-.5-.05-.66-.56-.5-1.51s.39-2.46.68-4.52a15.74,15.74,0,0,1,1.15-4.51q.62-1.43.35-6.44a38.4,38.4,0,0,1-.06-6c.19-1.07,1.18-1.39,2.95-1a17.08,17.08,0,0,0,3.54.61,2.07,2.07,0,0,0,1.27-.13c.18-.14.56-.48,1.14-1s1.21-.21,1.87.91A3.61,3.61,0,0,1,68.82,2.45Z"/><path class="cls-1" d="M83.36,2.83a.8.8,0,0,1-.37.94c-.42.33-.65.57-.68.72a6.42,6.42,0,0,1-.4,1.16,2,2,0,0,1-.68,1c-.3.16-.52.12-.67-.09A.81.81,0,0,0,80,6.18a.61.61,0,0,0-.49.15.66.66,0,0,1-.52.15A2.76,2.76,0,0,0,77.52,7a1.08,1.08,0,0,0-.32,1.22c.13.54.26,1,.4,1.42a14.09,14.09,0,0,0,1.89,3.23,7.06,7.06,0,0,1,.87,2.9c.15,1.26.22,2.1.22,2.53a5.92,5.92,0,0,1-.78,2.22,9.48,9.48,0,0,1-1.36,2.14q-.56.64-.6.51c0-.08-.31,0-.85.21s-.76.38-.7.45-.06.19-.38.34a2.85,2.85,0,0,1-1.39.23c-.58,0-1-.05-1.35-.08a1.37,1.37,0,0,1-.79-.22,1.13,1.13,0,0,0-.74-.23c-.33,0-.47.14-.43.41a.69.69,0,0,1-.18.64c-.18.15-.37.12-.56-.09a.94.94,0,0,1-.16-.89,2.38,2.38,0,0,1,.16-.71c0-.1,0-.38-.28-.83A2.27,2.27,0,0,1,70,20.87c.13-.58.22-1.06.31-1.44s0-.45-.18-.39-.3-.09-.35-.47c-.18-.93.63-1.73,2.46-2.41.7-.23,1.08-.21,1.15.06s.14.52.22.77a1.57,1.57,0,0,1-.14.92,1,1,0,0,0,.1,1c.16.37.51.38,1,0a3.83,3.83,0,0,0,1.06-1c.27-.48.09-1.07-.56-1.77-.11-.08-.13-.49-.08-1.24a1.73,1.73,0,0,0-.52-1.06,1.22,1.22,0,0,0-.63-.37c-.23-.05-.38-.25-.46-.61a8.75,8.75,0,0,1-.2-1.48,3.53,3.53,0,0,0-.36-1.49,4.51,4.51,0,0,1-.13-2.26,13.26,13.26,0,0,1,.85-2.84A27.53,27.53,0,0,1,74.7,2c.16-.38.61-.6,1.37-.68A3.58,3.58,0,0,0,77.92.72,2.46,2.46,0,0,1,79.61.4c.65.09,1.24.15,1.78.17s1.09.6,1.65,1.74A5.72,5.72,0,0,1,83.36,2.83Z"/></g></g></svg>