<svg xmlns="http://www.w3.org/2000/svg" viewBox="0 0 58.53 58.1"><defs><style>.cls-1{fill:#ff00e7;fill-rule:evenodd;}</style></defs><g id="Layer_2" data-name="Layer 2"><g id="Layer_1-2" data-name="Layer 1"><path class="cls-1" d="M9.16,46.28C8,44.45,6.8,42.75,5.81,40.93a26.27,26.27,0,0,1-3.21-13A27.24,27.24,0,0,1,11.7,7.3,27.05,27.05,0,0,1,32.2.05a27.27,27.27,0,0,1,18.59,8.6,27,27,0,0,1,7.14,13.64A27.3,27.3,0,0,1,54.5,42.37,27.32,27.32,0,0,1,37,55.15a27.33,27.33,0,0,1-15.71-.79,2.2,2.2,0,0,0-1.11-.06c-4.13.92-8.25,1.9-12.39,2.79-1.87.41-3.77.68-5.66,1a3.62,3.62,0,0,1-.87,0,1.25,1.25,0,0,1-1-2A18.26,18.26,0,0,1,2.2,53.66C4.54,51.14,6.91,48.66,9.16,46.28Zm20.22-30-.24,0H18.82c-.37,0-.43.19-.51.48a43.5,43.5,0,0,0-1.29,8c-.05.66,0,1.33,0,2H29.38ZM42.66,39.64a42.73,42.73,0,0,0,1.49-10.51H31.76V39.64Zm1.49-12.86a42.39,42.39,0,0,0-1.47-10.52H31.75V26.78ZM17,29.17c0,.19,0,.32,0,.44a41.42,41.42,0,0,0,1.33,9.66c.08.33.28.35.56.35H29.35V29.17ZM3.42,55.66c.31,0,.51,0,.69-.08,1.31-.26,2.62-.51,3.91-.81q5.42-1.23,10.82-2.5a5,5,0,0,1,3.67.14.72.72,0,0,0,.21,0c-.55-.64-1.08-1.22-1.56-1.84A27.3,27.3,0,0,1,17,42.45a.6.6,0,0,0-.7-.48H9.56c-.16,0-.32,0-.54,0a3,3,0,0,0,.22.36c.72.92,1.43,1.85,2.17,2.76a1.25,1.25,0,0,1,.18,1.6,6.84,6.84,0,0,1-.76,1L3.88,55.12ZM4.86,29.13A25.52,25.52,0,0,0,7.42,39.24a.69.69,0,0,0,.76.44H16.1a48.1,48.1,0,0,1-1.44-10.55Zm41.57,0A48.38,48.38,0,0,1,45,39.68c2.69,0,5.31,0,7.93,0a.74.74,0,0,0,.77-.52,25.06,25.06,0,0,0,2.12-6.49c.2-1.16.31-2.33.46-3.55Zm0-2.38H56.2c0-.13,0-.22,0-.3a24.89,24.89,0,0,0-2.63-9.93.73.73,0,0,0-.55-.28c-1.88,0-3.77,0-5.65,0H45A47.51,47.51,0,0,1,46.43,26.75Zm-41.57,0h9.82a47.55,47.55,0,0,1,1.41-10.53c-2.78,0-5.47,0-8.16,0a.57.57,0,0,0-.43.29c-.45,1-.92,2.06-1.3,3.12A24.26,24.26,0,0,0,4.86,26.75ZM29.38,2.35l-.29,0-.32.07a9.12,9.12,0,0,0-3.93,2.2,20.4,20.4,0,0,0-5,7.39c-.26.6-.48,1.21-.72,1.84H29.38ZM19.16,42a26.42,26.42,0,0,0,2.33,5.08,15.21,15.21,0,0,0,5,5.38,7.05,7.05,0,0,0,2.89,1.09V42Zm22.76-28.1a1.26,1.26,0,0,0,0-.22,26.7,26.7,0,0,0-2.73-5.64,14.47,14.47,0,0,0-4.42-4.56,7.39,7.39,0,0,0-3-1.16V13.91ZM31.73,53.58l.56-.11a8.49,8.49,0,0,0,3.21-1.59A16,16,0,0,0,40,46.43c.74-1.41,1.37-2.88,2.09-4.43H31.73ZM9,13.93h.66c2.16,0,4.32,0,6.47,0A.79.79,0,0,0,17,13.3a26.73,26.73,0,0,1,3.87-7.62c.56-.75,1.19-1.44,1.9-2.29A26.16,26.16,0,0,0,9,13.93ZM38.33,3.45c.57.66,1.14,1.26,1.64,1.91a27.25,27.25,0,0,1,4.16,8.07.63.63,0,0,0,.74.51c2.23,0,4.46,0,6.69,0l.49,0C50.24,10,42.72,4.3,38.33,3.45Zm.08,49A25.72,25.72,0,0,0,52.12,42c-.27,0-.43,0-.59,0-2.23,0-4.46,0-6.69,0-.43,0-.57.17-.72.53-.61,1.52-1.21,3-1.93,4.51A21.33,21.33,0,0,1,38.41,52.41Z"/></g></g></svg>