<svg xmlns="http://www.w3.org/2000/svg" viewBox="0 0 64.23 25.15"><defs><style>.cls-1{fill:#ff00e7;}</style></defs><g id="Layer_2" data-name="Layer 2"><g id="Layer_1-2" data-name="Layer 1"><path class="cls-1" d="M11,1.49a6.64,6.64,0,0,1,.66,2.38,11.55,11.55,0,0,1,.18,3.81A8.21,8.21,0,0,0,12.07,11c.32,1.16.56,1.44.72.83S13.35,9.78,14,7.45s1-3.77,1.16-4.33a2.86,2.86,0,0,1,1-1.51,1.33,1.33,0,0,1,1.54-.38A1.39,1.39,0,0,0,19,1.17,1.91,1.91,0,0,1,20.36.88C20.62,1,20.9,2,21.19,4a2,2,0,0,0,.4,1A2.38,2.38,0,0,1,22,6a6.59,6.59,0,0,1-.18,1.18,3.76,3.76,0,0,0-.05,1.44,1.65,1.65,0,0,0,.43,1,1,1,0,0,1,.36.66,1.84,1.84,0,0,1-.32,1.48,1.39,1.39,0,0,0-.44.84,19.94,19.94,0,0,0,.5,5c.44,2.29.69,3.82.77,4.61s-.06,1.22-.42,1.31a1.14,1.14,0,0,0-.77.81c-.15.51-.4.68-.75.5-1.17-.51-1.88-.53-2.14-.08s-.66.37-1.11-.28a3.7,3.7,0,0,1-.44-2.68q.24-1.71.3-2.37c0-.45.09-1.21.14-2.3S18,13.34,18,8.86c-.61,1.22-1,1.73-1.27,1.56a.85.85,0,0,1-.36-.69q0-.4-.27.27a4.46,4.46,0,0,0-.36,1.58c0,.57-.05,1.17-.08,1.8a6.12,6.12,0,0,1-.71,2.55,6.81,6.81,0,0,0-.59,2.33,13.61,13.61,0,0,1-.6,2.68c-.26.66-.56,1-.89,1.06a1.49,1.49,0,0,0-.85.46c-.87.91-1.39.72-1.55-.57a5.93,5.93,0,0,1,0-1.69c.08-.67.14-1.34.2-2a6.32,6.32,0,0,0-.2-1.82,5.53,5.53,0,0,1-.2-1.71c.05-1.49-.21-2.31-.79-2.47q-.53-.12-.3-1a3.46,3.46,0,0,0,.1-1.45c-.21-.68-.67-.05-1.39,1.91a55.91,55.91,0,0,0-1.64,6.11,39.75,39.75,0,0,1-1.37,5.16c-.4.87-.9,1.11-1.51.73A1.62,1.62,0,0,0,2,23.73c-.61.24-1.15.48-1.63.7s-.45-.17-.1-1.19.68-1.89,1-2.6a21.35,21.35,0,0,0,.55-3.31,9.5,9.5,0,0,1,1.62-4.48,6.83,6.83,0,0,0,1.2-5A8.63,8.63,0,0,1,4.9,4.51a31.4,31.4,0,0,0,.71-3.32c.08-.86,1-1,2.64-.55S10.85,1.41,11,1.49Z"/><path class="cls-1" d="M29.86,1.24c1.19.29,1.83.69,1.92,1.18A39.82,39.82,0,0,1,31.92,7a8,8,0,0,1-.1,1.2,7,7,0,0,0-.1,1c0,.21,0,.33-.13.33s-.21.12-.34.37a4.91,4.91,0,0,0-.32,1.86c-.05,1-.08,1.64-.08,2s-.05.54-.14.5-.21.09-.34.39a7.9,7.9,0,0,0-.26,2.56,14.34,14.34,0,0,0,.1,2.49,4.63,4.63,0,0,1-.59,1c-.18.29-.25.47-.2.53s0,.17-.28.32a3.12,3.12,0,0,0-.83,1,2.49,2.49,0,0,1-1.11.85,1.7,1.7,0,0,1-.93.25,1,1,0,0,0-.69.23,1.33,1.33,0,0,0-.42.4c0,.1-.19.19-.45.26s-.61-.06-.72-.63a3,3,0,0,1,0-.84,7.67,7.67,0,0,0,.2-1.63c.05-.86.11-1.49.16-1.88A3.83,3.83,0,0,1,25,17.93a6.88,6.88,0,0,0,.76-1.75,1.84,1.84,0,0,0,.06-.9,2.63,2.63,0,0,1-.1-.91,14.26,14.26,0,0,1,.67-3.23c.48-1.73.75-2.69.83-2.89.4-.77.43-1.29.08-1.59-.16-.07-.22-.86-.18-2.36a9.7,9.7,0,0,1,.42-3.1c.19-.52.32-.71.4-.57A5.52,5.52,0,0,0,29.86,1.24Z"/><path class="cls-1" d="M41,.76a4.19,4.19,0,0,0,1,0q.8-.07,1.11,1.5a2.79,2.79,0,0,0,.36,1,4.22,4.22,0,0,1,.44,1,4.42,4.42,0,0,1-.36,2.13A7.82,7.82,0,0,0,43,8.68,11.73,11.73,0,0,0,43.6,12c.45,1.68.78,2.15,1,1.4s.39-1.76.61-3.12a13.76,13.76,0,0,1,.7-2.86,4.54,4.54,0,0,0,.24-2.18,8.26,8.26,0,0,1,.27-2.86A8.14,8.14,0,0,1,46.83.93L47.61.8A18.88,18.88,0,0,1,50.14.65c1.24,0,1.87.16,1.9.56A1.46,1.46,0,0,1,51.9,2c-.09.1,0,.34.14.71s0,1.09-.59,2.15a20.17,20.17,0,0,0-1.08,2.3c-.2.5-.26.75-.17.76s.14.37.14,1.07a3.56,3.56,0,0,1-.3,1.62,6.17,6.17,0,0,0-.5,1.33,5.74,5.74,0,0,0-.18,1.25,5.31,5.31,0,0,1-.17,1.33c-.16.65-.26,1.06-.32,1.23s-.21.83-.47,2a23.78,23.78,0,0,0-.6,3.62c-.1,1.25-.16,2-.16,2.21,0,.57-.29.65-.71.22-.29-.25-.74-.22-1.35.07-.37.21-.59.16-.67-.13s-.2-.42-.36-.42a2.73,2.73,0,0,0-1.11.78c-.24.25-.48,0-.73-.77a7.65,7.65,0,0,1-.38-2.41c0-.82,0-1.26-.13-1.3a1.16,1.16,0,0,0-.58,0c-.32,0-.41-.52-.26-1.65a14.34,14.34,0,0,0,.18-2.24c0-.37-.14-.51-.34-.41s-.3,0-.3-.41-.16-1.39-.33-3a20.08,20.08,0,0,1-.18-3.13c0-1-.24-1.08-.79-.33a4.25,4.25,0,0,0-.66,2.43,14.6,14.6,0,0,1-.3,2.72,28.6,28.6,0,0,1-1.26,4.26,6.79,6.79,0,0,0-.4,1.93c0,.61-.12,1.46-.27,2.56a3.83,3.83,0,0,1-.6,2,.75.75,0,0,1-.83.11c-.27-.08-.52.07-.76.41s-.39.49-.45.34a1.16,1.16,0,0,0-.54-.45,1.49,1.49,0,0,0-1.39.19q-.59.45-.09-1.59a11.87,11.87,0,0,1,.73-2.41,6.93,6.93,0,0,0,.48-2.17c.16-1.22.26-2.19.31-2.91s.15-1.46.3-2.27a2.87,2.87,0,0,1,.89-1.77,2.25,2.25,0,0,0,.54-1.87A4.79,4.79,0,0,0,35,8c-.24-.42,0-1,.83-1.76a3.28,3.28,0,0,0,.85-1.94,5.8,5.8,0,0,0,.1-1.91c-.26-1.12.37-1.74,1.9-1.86a6.56,6.56,0,0,1,1.87.07Z"/><path class="cls-1" d="M64,1a2.08,2.08,0,0,1,.22,1.54,4.25,4.25,0,0,1-.42,1.31,1.21,1.21,0,0,0-.22.83,2.64,2.64,0,0,1-.06,1c-.07.4-.23.51-.47.36a1.71,1.71,0,0,0-.79-.28,2.52,2.52,0,0,0-1.71.75,1.32,1.32,0,0,0-.29,1.19c.06.55.1.94.1,1.15,0-.08-.18.16-.52.71a5.46,5.46,0,0,0-.3,2c0,1-.06,1.74-.06,2.14s0,.6-.14.55-.2.07-.34.36a9.44,9.44,0,0,0-.27,2.77A13.69,13.69,0,0,0,58.77,20c0,.13-.16.47-.56,1-.21.32-.28.51-.21.59s0,.18-.26.28a3.66,3.66,0,0,0-.88,1.07,2.17,2.17,0,0,1-1.07.83,1.92,1.92,0,0,1-.95.18.89.89,0,0,0-.67.18,1.33,1.33,0,0,0-.42.43c0,.11-.18.19-.45.24-.45.1-.72-.14-.79-.75a2.06,2.06,0,0,1,0-.92,9.2,9.2,0,0,0,.23-1.7c.08-.92.14-1.59.16-2a3.77,3.77,0,0,1,.62-1.69,6.85,6.85,0,0,0,.77-1.84,2,2,0,0,0,.06-1,3.3,3.3,0,0,1-.1-1A16.38,16.38,0,0,1,55,10.51c.48-1.84.76-2.84.83-3,.35-.87.36-1.44.05-1.7S55,5.62,54.33,6a1.49,1.49,0,0,1-1.11.11c-.32,0-.44-.35-.37-.9a13,13,0,0,0,.09-1.31,7.67,7.67,0,0,1,.32-2.18A1.93,1.93,0,0,1,55.2.24,17.66,17.66,0,0,1,58.45.16,23.52,23.52,0,0,0,62.3,0,3,3,0,0,1,64,1Z"/></g></g></svg>