<svg xmlns="http://www.w3.org/2000/svg" viewBox="0 0 25.68 10.51"><defs><style>.cls-1{fill:#ff00e7;}</style></defs><g id="Layer_2" data-name="Layer 2"><g id="Layer_1-2" data-name="Layer 1"><path class="cls-1" d="M4.4.47a2.93,2.93,0,0,1,.26,1,4.91,4.91,0,0,1,.07,1.59,3.55,3.55,0,0,0,.1,1.4c.12.48.22.6.28.35L5.6,3c.26-1,.41-1.58.46-1.81A1.25,1.25,0,0,1,6.44.52c.22-.2.42-.26.62-.16a.52.52,0,0,0,.55,0A.68.68,0,0,1,8.14.22c.11,0,.22.47.33,1.31a.84.84,0,0,0,.16.41,1.12,1.12,0,0,1,.18.41,3,3,0,0,1-.08.5,1.77,1.77,0,0,0,0,.6.73.73,0,0,0,.17.42A.41.41,0,0,1,9,4.15a.77.77,0,0,1-.13.61.61.61,0,0,0-.17.35,8.26,8.26,0,0,0,.19,2.1c.18,1,.28,1.6.31,1.93s0,.51-.16.54a.45.45,0,0,0-.31.34c-.06.22-.17.29-.3.21C8,10,7.71,10,7.6,10.2s-.26.15-.44-.12A1.62,1.62,0,0,1,7,9q.1-.71.12-1t.06-1c0-.44,0-1.6,0-3.47-.24.51-.41.73-.51.65a.35.35,0,0,1-.14-.28c0-.12,0-.08-.11.11a1.77,1.77,0,0,0-.14.66c0,.23,0,.49,0,.75A2.5,2.5,0,0,1,6,6.49a2.9,2.9,0,0,0-.24,1,5,5,0,0,1-.24,1.11c-.1.28-.22.43-.35.45a.53.53,0,0,0-.34.19c-.35.38-.56.3-.62-.24a2.79,2.79,0,0,1,0-.71c0-.28.06-.55.08-.83a2.81,2.81,0,0,0-.08-.76A2.25,2.25,0,0,1,4.1,6c0-.63-.09-1-.32-1s-.17-.18-.12-.43a1.44,1.44,0,0,0,0-.6c-.08-.29-.27,0-.55.79a25,25,0,0,0-.66,2.55,16.78,16.78,0,0,1-.55,2.16c-.15.36-.36.46-.6.3a.61.61,0,0,0-.55,0c-.25.1-.46.2-.65.29S0,10,.1,9.54s.27-.79.39-1.08A10.14,10.14,0,0,0,.71,7.08a4,4,0,0,1,.65-1.87,2.92,2.92,0,0,0,.47-2.08A3.79,3.79,0,0,1,2,1.73c.14-.56.23-1,.29-1.39s.38-.43,1-.23S4.34.44,4.4.47Z"/><path class="cls-1" d="M11.94.37c.47.13.73.3.77.51s0,.86,0,2a3.46,3.46,0,0,1,0,.52c0,.19,0,.33,0,.42s0,.14,0,.14-.08,0-.14.16a2.37,2.37,0,0,0-.12.8c0,.41,0,.7,0,.86s0,.23-.06.21-.08,0-.13.17A3.43,3.43,0,0,0,12,7.21a6.82,6.82,0,0,0,0,1.07,2.08,2.08,0,0,1-.24.43c-.07.13-.1.2-.08.23s0,.07-.11.13a1.61,1.61,0,0,0-.33.45,1,1,0,0,1-.44.36.67.67,0,0,1-.38.11.34.34,0,0,0-.27.1.52.52,0,0,0-.17.17c0,.05-.08.08-.18.11s-.24,0-.29-.27a1.5,1.5,0,0,1,0-.36A3.76,3.76,0,0,0,9.69,9q0-.55.06-.81A1.75,1.75,0,0,1,10,7.54a2.89,2.89,0,0,0,.3-.75.77.77,0,0,0,0-.39,1.51,1.51,0,0,1,0-.38,5.84,5.84,0,0,1,.26-1.39c.19-.75.31-1.16.34-1.24q.24-.5,0-.69c-.06,0-.09-.37-.07-1A4.51,4.51,0,0,1,11,.36c.08-.22.13-.31.16-.25A1.93,1.93,0,0,0,11.94.37Z"/><path class="cls-1" d="M16.39.17l.39,0c.21,0,.36.19.45.64a1.34,1.34,0,0,0,.14.44,2,2,0,0,1,.17.43,1.78,1.78,0,0,1-.14.9,3.3,3.3,0,0,0-.2,1,4.89,4.89,0,0,0,.23,1.4c.18.71.31.91.4.59s.16-.74.24-1.32A6.45,6.45,0,0,1,18.35,3a2,2,0,0,0,.1-.93A3.6,3.6,0,0,1,18.56.85a2.59,2.59,0,0,1,.17-.61L19,.18a8.5,8.5,0,0,1,1-.06c.49,0,.75.07.76.24a.63.63,0,0,1-.06.35s0,.14.06.3,0,.46-.24.91a10,10,0,0,0-.43,1c-.08.22-.11.32-.07.33s.06.15.06.45a1.52,1.52,0,0,1-.12.69,2.27,2.27,0,0,0-.2.56,2.07,2.07,0,0,0-.07.53,3.26,3.26,0,0,1-.07.57l-.13.52c0,.07-.08.35-.19.82a11,11,0,0,0-.24,1.54q-.06.8-.06.93c0,.25-.12.28-.29.1s-.29-.1-.53,0S18,10,18,9.91s-.08-.19-.15-.19a1.21,1.21,0,0,0-.44.34c-.09.1-.19,0-.29-.33a3.4,3.4,0,0,1-.15-1c0-.35,0-.53-.06-.55s-.11,0-.23,0-.16-.22-.1-.7a6,6,0,0,0,.07-1c0-.16-.06-.22-.14-.17s-.11,0-.11-.18-.07-.59-.14-1.29a8.53,8.53,0,0,1-.07-1.32c0-.41-.1-.46-.32-.14a1.89,1.89,0,0,0-.26,1,5.82,5.82,0,0,1-.12,1.16A13.15,13.15,0,0,1,15,7.38a2.77,2.77,0,0,0-.16.81c0,.26,0,.63-.11,1.09a1.79,1.79,0,0,1-.24.84.31.31,0,0,1-.33.05c-.11,0-.21,0-.31.17s-.15.21-.18.14-.1-.12-.21-.19a.6.6,0,0,0-.56.08c-.15.13-.17-.09,0-.67a4.9,4.9,0,0,1,.3-1,3.51,3.51,0,0,0,.19-.92c.06-.52.1-.93.12-1.24s.07-.61.12-1a1.26,1.26,0,0,1,.36-.75A1,1,0,0,0,14.11,4,2,2,0,0,0,14,3.24c-.1-.18,0-.43.33-.74a1.49,1.49,0,0,0,.34-.83,2.61,2.61,0,0,0,0-.8c-.1-.48.15-.74.76-.8a2.62,2.62,0,0,1,.75,0Z"/><path class="cls-1" d="M25.57.94a.81.81,0,0,1,.09.62,2,2,0,0,1-.16.53.4.4,0,0,0-.09.33,1.08,1.08,0,0,1,0,.39c0,.16-.09.21-.19.15a.58.58,0,0,0-.31-.11,1,1,0,0,0-.68.3.49.49,0,0,0-.12.47c0,.22,0,.38,0,.46s-.07.07-.21.29a2.35,2.35,0,0,0-.12.79c0,.41,0,.7,0,.86s0,.24-.06.22-.08,0-.13.14a3.51,3.51,0,0,0-.11,1.11,5.94,5.94,0,0,0,0,1.06s-.06.19-.22.41-.12.21-.09.24,0,.07-.1.11a1.4,1.4,0,0,0-.35.43.87.87,0,0,1-.43.33.68.68,0,0,1-.38.07.38.38,0,0,0-.27.08.65.65,0,0,0-.17.17s-.07.07-.18.09-.28-.05-.32-.3a.89.89,0,0,1,0-.36,4.64,4.64,0,0,0,.1-.68q0-.56.06-.81a1.55,1.55,0,0,1,.24-.67,2.5,2.5,0,0,0,.31-.74.81.81,0,0,0,0-.39,1.17,1.17,0,0,1,0-.39A6.67,6.67,0,0,1,22,4.77c.19-.73.3-1.14.33-1.21.14-.35.14-.58,0-.68S22,2.81,21.72,3a.57.57,0,0,1-.44,0q-.2,0-.15-.36a4.12,4.12,0,0,0,0-.53,2.91,2.91,0,0,1,.13-.87.77.77,0,0,1,.77-.6,7.4,7.4,0,0,1,1.3,0A9,9,0,0,0,24.91.56,1.26,1.26,0,0,1,25.57.94Z"/></g></g></svg>