<svg xmlns="http://www.w3.org/2000/svg" viewBox="0 0 157.64 23.91"><defs><style>.cls-1{fill:#ff00e7;}</style></defs><g id="Layer_2" data-name="Layer 2"><g id="Layer_1-2" data-name="Layer 1"><path class="cls-1" d="M26.61,2.26c.35,1.39.13,1.93-.67,1.64-.38-.16-.7,0-1,.56-.18.32-.6.31-1.28,0,.08,0-.26.29-1,.72a.53.53,0,0,1-.8-.24,1.45,1.45,0,0,0-1.07-.64c-.52,0-.75.72-.66,2.32a8.78,8.78,0,0,0,.43,2.87c.5,1,1.12,1.36,1.84,1a2.41,2.41,0,0,0,.85-.6,1.19,1.19,0,0,1,.58-.44c.22-.08.38.37.47,1.36a19.75,19.75,0,0,1,.09,2.2c0,.47-.31.61-.79.41a1.48,1.48,0,0,0-1.16-.1A1.23,1.23,0,0,1,21.06,13a.74.74,0,0,0-1.09.2,6.25,6.25,0,0,0-.52,3c-.05,1.62.15,2.5.6,2.63a6.37,6.37,0,0,0,1.2.26c.35,0,.71-.28,1.08-1,.55-1,1.47-1.16,2.74-.53.58.3.66,1,.23,2s-.72,1.83-.9,2.36c-.25.69-.82.94-1.69.76s-1.4-.15-1.42.2-.29.29-.87.23a1.14,1.14,0,0,1-1.08-.63c-.23-.51-.55-.38-1,.38s-.77.63-1.07-.38c-.15-.53-.38-.65-.69-.34a3.79,3.79,0,0,1-.81.62,1.72,1.72,0,0,1-1,.12c-.45-.06-.6-.52-.45-1.4s.36-2.27.62-4.17a15.39,15.39,0,0,1,1-4.18q.57-1.32.33-5.94a34,34,0,0,1-.06-5.59c.18-1,1.06-1.28,2.66-.88a15.43,15.43,0,0,0,3.19.56,1.9,1.9,0,0,0,1.15-.12l1-.92c.52-.48,1.09-.2,1.69.84A3.28,3.28,0,0,1,26.61,2.26Z"/><path class="cls-1" d="M39,3.39a2.54,2.54,0,0,1-.43,1.11c-.19.24-.43.58-.73,1a11.68,11.68,0,0,1-1,1.46c-.2.11-.5-.22-.9-1-.12-.26-.33,0-.6.66a1.48,1.48,0,0,0-.21.75.77.77,0,0,1-.35.64,3.62,3.62,0,0,0-1.09,1.74c-.08.28-.19.77-.34,1.48a7.57,7.57,0,0,1-.49,1.62,10.1,10.1,0,0,0-.45,2.45c-.12,1.24-.06,1.94.19,2.1s.67-.06,1.24-.8c.22-.3.65-.36,1.27-.17.28.12.32.86.12,2.23s-.34,2.23-.41,2.6a1.18,1.18,0,0,1-.63.86,2,2,0,0,0-.73.57,1.08,1.08,0,0,0-.26.56.67.67,0,0,1-.26.45c-.3.28-.57.21-.79-.21a7.33,7.33,0,0,0-1.91-.87,2.4,2.4,0,0,1-1.5-1.95c-.13-.41-.23-.61-.32-.59s-.22-.06-.39-.24-.17-.63-.06-1.32A12.91,12.91,0,0,0,28,16a14.36,14.36,0,0,1,.6-4.08,13.06,13.06,0,0,1,1.05-3.12,27.82,27.82,0,0,0,1.56-3C32,4,32.54,2.89,32.79,2.32s.52-.84.81-.77a4.77,4.77,0,0,0,1.44,0A3,3,0,0,0,36.54,1,3,3,0,0,1,38,.47q.9-.1,1.05,2A2.55,2.55,0,0,1,39,3.39Z"/><path class="cls-1" d="M51.36.72A2.77,2.77,0,0,1,52.67,2.6c.27,1,.49,1.74.63,2.31A2.63,2.63,0,0,1,53,6.74a8.27,8.27,0,0,0-.77,2.47,16.82,16.82,0,0,0-.3,3.29,12.8,12.8,0,0,1-.23,2.76A13.93,13.93,0,0,0,51.26,17a5.15,5.15,0,0,1-.95,2c-.58.78-.85,1.26-.81,1.41s-.19.56-.66,1.2-.87.9-1.2.77a3.86,3.86,0,0,0-1.39-.2,2.56,2.56,0,0,0-2.14,1.44c-.25.35-.55.35-.91,0a5.62,5.62,0,0,0-1.34-1c-.52-.28-.72-.2-.6.26a.65.65,0,0,1-.48.89c-.45.14-.77-.13-.94-.8a19.62,19.62,0,0,0-.75-2.24c-.65-1.63-.62-3.78.11-6.45a13,13,0,0,0,.28-4.62,19.56,19.56,0,0,1-.09-3.87,2.94,2.94,0,0,1,1-1.84c.58-.52,1.14-1.06,1.69-1.63a4.09,4.09,0,0,1,1.14-1A15.34,15.34,0,0,1,45,1C46,.86,47.25.72,48.8.58A4.34,4.34,0,0,1,51.36.72ZM46.29,5.23c-1.17-.76-1.79-.67-1.84.29a15.68,15.68,0,0,1-.6,2.83,15.67,15.67,0,0,0-.71,4.83c.07,1,.11,1.9.09,2.67S43.48,17,44,17a6.73,6.73,0,0,1,1.94.37c.78.25,1.25,0,1.4-.8a9,9,0,0,1,.75-2.26,16,16,0,0,0,1-2.58c.31-1,.51-1.73.62-2.26a4.87,4.87,0,0,0,0-2c-.22-1.08-.71-1.64-1.46-1.67A3.23,3.23,0,0,1,46.29,5.23Z"/><path class="cls-1" d="M62.86,1.55a6.18,6.18,0,0,1,.62,2.24,10.79,10.79,0,0,1,.17,3.6,7.76,7.76,0,0,0,.22,3.15c.3,1.11.54,1.37.68.79s.53-2,1.14-4.15,1-3.57,1.11-4.09a2.72,2.72,0,0,1,.9-1.44,1.31,1.31,0,0,1,1.47-.36,1.27,1.27,0,0,0,1.29-.05A1.81,1.81,0,0,1,71.72,1c.25.07.51,1.06.79,3a1.83,1.83,0,0,0,.37.93,2.24,2.24,0,0,1,.41.93,5.5,5.5,0,0,1-.17,1.11,3.41,3.41,0,0,0-.05,1.37,1.63,1.63,0,0,0,.41,1,1,1,0,0,1,.34.63,1.75,1.75,0,0,1-.3,1.39,1.26,1.26,0,0,0-.42.79,19.18,19.18,0,0,0,.47,4.75c.42,2.17.66,3.62.73,4.36s0,1.15-.39,1.23a1.09,1.09,0,0,0-.73.78c-.15.47-.39.63-.71.46-1.1-.47-1.78-.5-2-.07s-.62.34-1-.27A3.46,3.46,0,0,1,69,20.76c.15-1.07.24-1.82.28-2.24s.08-1.14.13-2.16.08-3.63.08-7.86q-.87,1.73-1.2,1.47a.76.76,0,0,1-.34-.64c0-.27-.09-.18-.26.25a4,4,0,0,0-.34,1.49c0,.53,0,1.1-.08,1.7a5.61,5.61,0,0,1-.67,2.4A6.36,6.36,0,0,0,66,17.38a11.63,11.63,0,0,1-.57,2.52c-.25.63-.53,1-.84,1a1.37,1.37,0,0,0-.81.43c-.82.86-1.31.68-1.46-.54a5.31,5.31,0,0,1,0-1.6c.07-.63.14-1.26.19-1.88a6,6,0,0,0-.19-1.72A5.16,5.16,0,0,1,62.15,14c.05-1.41-.2-2.19-.75-2.33-.33-.07-.42-.4-.28-1a3.17,3.17,0,0,0,.09-1.36c-.2-.65-.63-.05-1.31,1.79a53.65,53.65,0,0,0-1.56,5.77A38.26,38.26,0,0,1,57,21.77c-.37.81-.84,1-1.42.68a1.54,1.54,0,0,0-1.31.09c-.57.23-1.09.45-1.54.66s-.43-.16-.09-1.13.64-1.78.92-2.45a20.58,20.58,0,0,0,.52-3.12,8.86,8.86,0,0,1,1.54-4.23,6.4,6.4,0,0,0,1.13-4.7,8.24,8.24,0,0,1,.29-3.18,28.65,28.65,0,0,0,.68-3.13c.08-.81.91-1,2.5-.52S62.72,1.47,62.86,1.55Z"/><path class="cls-1" d="M85.42.37a2.86,2.86,0,0,1,2.59,2c.13.44.2.71.22.81s.16.45.38,1.06a6.15,6.15,0,0,1,.17,2.61,13.58,13.58,0,0,1-.39,2.38,2.57,2.57,0,0,1-.38.9,1.54,1.54,0,0,0-.3.68,4.1,4.1,0,0,1-.37.91,2.44,2.44,0,0,0-.49,1.32c0,.22-.56.41-1.57.55-.13,0-.29.18-.48.44a1,1,0,0,1-.58.48c-.22.07-.4,0-.53-.31s-.28-.38-.48-.31a.87.87,0,0,0-.32.4,1.21,1.21,0,0,1-.32.44.45.45,0,0,1-.43.13.37.37,0,0,0-.32,0c-.23.15-.48,1.22-.77,3.23a29.8,29.8,0,0,1-.58,3.37A5,5,0,0,1,79,23.4c-.22.17-.35.11-.37-.19s-.21-.41-.57-.36-.67.19-.67.36a3.61,3.61,0,0,1-.9,0c-.25,0-.37-.41-.37-1.25a25.67,25.67,0,0,1,.26-3.15,4.81,4.81,0,0,1,.39-1.38,5.79,5.79,0,0,0,.43-1.3,1.23,1.23,0,0,0-.19-.92c-.17-.24-.07-.67.31-1.28a9.43,9.43,0,0,0,.86-2.05,2.35,2.35,0,0,0,.08-1.62c-.23-.34,0-1,.71-2a4.25,4.25,0,0,0,.49-2.18,22.23,22.23,0,0,0,0-2.36,4.63,4.63,0,0,1,1-2.5c.28-.44,1.16-.72,2.66-.84A12.39,12.39,0,0,1,85.42.37Zm-.49,4.25a3.84,3.84,0,0,0-1-.53q-.84-.39-.75.18c0,.41-.16,1.6-.47,3.56a26.78,26.78,0,0,0-.42,3.27c0,.2.25.06.76-.44a4.5,4.5,0,0,0,1-1.36,20.05,20.05,0,0,0,.58-2.57A8.43,8.43,0,0,0,84.93,4.62Z"/><path class="cls-1" d="M102.05,2.34c.35,1.39.12,1.94-.67,1.64-.38-.16-.71,0-1,.57-.18.32-.61.3-1.28,0,.08,0-.26.29-1,.72A.54.54,0,0,1,97.3,5a1.43,1.43,0,0,0-1.07-.64c-.52-.06-.74.72-.66,2.33A8.55,8.55,0,0,0,96,9.57c.49,1,1.11,1.36,1.84,1a2.16,2.16,0,0,0,.84-.6,1.29,1.29,0,0,1,.58-.44c.22-.08.39.37.47,1.36a18.23,18.23,0,0,1,.1,2.21c0,.48-.32.63-.79.42a1.5,1.5,0,0,0-1.17-.1,1.22,1.22,0,0,1-1.38-.28.74.74,0,0,0-1.09.2,6.28,6.28,0,0,0-.53,3c0,1.63.15,2.51.6,2.65a7.5,7.5,0,0,0,1.2.26c.35,0,.72-.29,1.09-1,.55-1,1.47-1.16,2.74-.52.58.3.65,1,.23,2s-.73,1.83-.9,2.37c-.26.7-.81.95-1.69.76s-1.41-.14-1.43.2-.29.3-.86.24a1.14,1.14,0,0,1-1.09-.64c-.23-.51-.54-.38-1,.39s-.77.63-1.07-.39c-.14-.53-.38-.65-.69-.34a2.9,2.9,0,0,1-.81.62,1.54,1.54,0,0,1-1,.12c-.45,0-.6-.52-.45-1.4s.35-2.28.62-4.2a14.94,14.94,0,0,1,1-4.2c.38-.88.48-2.87.32-6a37.06,37.06,0,0,1-.06-5.62c.18-1,1.07-1.29,2.67-.89a15.52,15.52,0,0,0,3.18.57,1.87,1.87,0,0,0,1.15-.12l1-.93q.78-.72,1.68.84A3.39,3.39,0,0,1,102.05,2.34Z"/><path class="cls-1" d="M110.22.86a4.8,4.8,0,0,0,.93,0q.76-.07,1,1.41a2.92,2.92,0,0,0,.34,1,3.41,3.41,0,0,1,.41.95,4.09,4.09,0,0,1-.33,2,7.07,7.07,0,0,0-.49,2.15,11.24,11.24,0,0,0,.57,3.11c.42,1.59.73,2,.93,1.33s.37-1.67.58-2.95a12.91,12.91,0,0,1,.66-2.69,4.22,4.22,0,0,0,.22-2.06,7.84,7.84,0,0,1,.27-2.7A7.81,7.81,0,0,1,115.75,1l.73-.12a19.7,19.7,0,0,1,2.41-.14c1.17,0,1.77.15,1.8.53a1.3,1.3,0,0,1-.14.77c-.08.1,0,.32.14.67s0,1-.57,2a17.72,17.72,0,0,0-1,2.17c-.2.47-.26.71-.17.72s.13.34.13,1a3.3,3.3,0,0,1-.28,1.54,5.75,5.75,0,0,0-.47,1.25,4.9,4.9,0,0,0-.17,1.18,5.64,5.64,0,0,1-.16,1.25l-.3,1.16c0,.16-.21.78-.46,1.83a22.59,22.59,0,0,0-.56,3.42c-.1,1.18-.15,1.87-.15,2.08,0,.54-.27.61-.67.21-.28-.23-.7-.21-1.28.07-.35.19-.56.15-.64-.12s-.19-.41-.34-.41a2.81,2.81,0,0,0-1,.74q-.33.36-.69-.72a7.06,7.06,0,0,1-.36-2.27c0-.78,0-1.19-.13-1.23a1.12,1.12,0,0,0-.54,0c-.3,0-.38-.49-.24-1.55a13.24,13.24,0,0,0,.16-2.12c0-.35-.13-.48-.32-.38s-.28,0-.28-.39-.15-1.31-.31-2.87a16.23,16.23,0,0,1-.17-2.94c0-.92-.23-1-.75-.32a4,4,0,0,0-.63,2.29,13.24,13.24,0,0,1-.28,2.57,27.64,27.64,0,0,1-1.2,4,6.21,6.21,0,0,0-.37,1.81c0,.58-.11,1.38-.27,2.42A3.54,3.54,0,0,1,105.6,23a.72.72,0,0,1-.79.11c-.25-.07-.48.06-.71.39s-.37.45-.43.31a1.08,1.08,0,0,0-.51-.42,1.41,1.41,0,0,0-1.31.18c-.37.28-.41-.22-.09-1.5a10.13,10.13,0,0,1,.7-2.27,7,7,0,0,0,.44-2.05c.15-1.15.25-2.06.3-2.74a20.69,20.69,0,0,1,.28-2.14,2.7,2.7,0,0,1,.85-1.67,2.15,2.15,0,0,0,.5-1.76,4.26,4.26,0,0,0-.31-1.73c-.23-.4,0-1,.78-1.66a3.13,3.13,0,0,0,.81-1.83,5.29,5.29,0,0,0,.09-1.79Q105.83.82,108,.64a6.65,6.65,0,0,1,1.77.07Z"/><path class="cls-1" d="M133.47,2.76a.76.76,0,0,1-.34.89c-.4.31-.61.54-.64.68a5.18,5.18,0,0,1-.37,1.1,1.94,1.94,0,0,1-.64.93c-.28.14-.48.11-.62-.09a.73.73,0,0,0-.54-.34.56.56,0,0,0-.46.15c-.06.09-.23.14-.48.14a2.51,2.51,0,0,0-1.35.5,1,1,0,0,0-.3,1.15c.12.52.25,1,.37,1.34a14.18,14.18,0,0,0,1.76,3.06,6.45,6.45,0,0,1,.81,2.74,22.42,22.42,0,0,1,.21,2.39,5.72,5.72,0,0,1-.73,2.1,10.12,10.12,0,0,1-1.25,2c-.36.4-.55.57-.57.48s-.29,0-.79.2-.72.35-.66.42,0,.18-.35.32a2.6,2.6,0,0,1-1.29.22L124,23.1a1.16,1.16,0,0,1-.74-.22,1.13,1.13,0,0,0-.69-.21q-.45,0-.39.39a.69.69,0,0,1-.17.61c-.18.14-.35.11-.52-.09a.93.93,0,0,1-.16-.84,2.54,2.54,0,0,1,.16-.68q.06-.14-.27-.78a2.17,2.17,0,0,1-.17-1.46c.11-.55.21-1,.28-1.35s0-.44-.17-.38-.27-.08-.31-.44c-.18-.88.58-1.64,2.29-2.28.65-.21,1-.2,1.06.05s.13.49.21.73a1.5,1.5,0,0,1-.13.88.94.94,0,0,0,.09.94c.15.36.47.36,1,0a3.62,3.62,0,0,0,1-.95c.25-.45.08-1-.52-1.67-.1-.07-.13-.46-.08-1.17a1.66,1.66,0,0,0-.48-1,1.16,1.16,0,0,0-.59-.36c-.21-.05-.35-.24-.43-.57a8.33,8.33,0,0,1-.18-1.41,3.49,3.49,0,0,0-.34-1.4,4.36,4.36,0,0,1-.12-2.14,13.22,13.22,0,0,1,.79-2.69A28,28,0,0,1,125.4,2c.15-.36.58-.57,1.28-.65a3.42,3.42,0,0,0,1.72-.6A2.33,2.33,0,0,1,130,.47c.6.08,1.15.13,1.65.16s1,.57,1.54,1.64C133.29,2.46,133.4,2.62,133.47,2.76Z"/><path class="cls-1" d="M143.33,3.4a7.56,7.56,0,0,0-.08,2.71c.08.58.16,1.07.26,1.48a5.81,5.81,0,0,1,0,1.78,7.58,7.58,0,0,1-.24,1.55A6.34,6.34,0,0,0,143.4,13q.15,1.74.15,3.81a14.14,14.14,0,0,1-.15,2.67c-.15.4-.31.62-.47.67s-.39.3-.69.75-.41.68-.26.62,0,.08-.57.4a6.87,6.87,0,0,1-.84.47,3.72,3.72,0,0,1-.55-.16c-.35-.08-.55-.21-.62-.41s-.23-.3-.51-.3-.47-.21-.61-.64a1.59,1.59,0,0,1,0-1.16,1.84,1.84,0,0,0,.07-1.53c-.2-.34-.55-.31-1.05.1a4.37,4.37,0,0,0-1,1.11,5.31,5.31,0,0,0-.54,1.69,1.82,1.82,0,0,1-.92,1.46c-.5.23-.79.33-.87.29a1.45,1.45,0,0,0-.67.06c-.4.08-.57.2-.51.35s0,.25-.24.28q-.6.12-.6-1.5c0-.39,0-.92,0-1.61a3.33,3.33,0,0,1,.58-1.92,5.07,5.07,0,0,0,.84-2,16.33,16.33,0,0,0,.32-1.91,3.15,3.15,0,0,1,.87-2,3.13,3.13,0,0,0,.71-1.57c.13-.65.22-1.25.3-1.8s.2-.85.38-.89.36-.24.56-.6.23-.6.15-.75,0-.35.34-.59a3,3,0,0,0,.58-1.77,9.34,9.34,0,0,1,.69-2.63,2.27,2.27,0,0,1,2-1.37,18.77,18.77,0,0,1,2.36-.2c.57,0,.87.75.9,2.24A5.62,5.62,0,0,1,143.33,3.4Zm-3.21,3.4L138,13.3a4.65,4.65,0,0,0,1.55.15,1.29,1.29,0,0,0,1-.51Z"/><path class="cls-1" d="M157.61,2.84a.75.75,0,0,1-.34.88c-.4.31-.61.54-.64.68a5.83,5.83,0,0,1-.37,1.1,2,2,0,0,1-.64.92c-.27.14-.48.11-.62-.09a.74.74,0,0,0-.54-.34.53.53,0,0,0-.45.15.65.65,0,0,1-.49.14,2.54,2.54,0,0,0-1.35.5,1,1,0,0,0-.3,1.15c.13.51.25,1,.38,1.33A12.76,12.76,0,0,0,154,12.31a6.85,6.85,0,0,1,.81,2.73c.13,1.19.2,2,.2,2.38a5.53,5.53,0,0,1-.73,2.1,9.48,9.48,0,0,1-1.26,2c-.35.4-.53.56-.56.48s-.28,0-.79.19-.72.36-.66.43-.05.18-.35.32a2.73,2.73,0,0,1-1.29.21l-1.26-.07a1.24,1.24,0,0,1-.74-.21,1,1,0,0,0-.69-.22q-.45,0-.39.39a.69.69,0,0,1-.17.61c-.18.14-.35.11-.52-.09a.93.93,0,0,1-.16-.84,2.43,2.43,0,0,1,.16-.67q.07-.13-.27-.78a2.15,2.15,0,0,1-.17-1.45c.12-.55.21-1,.28-1.35s0-.43-.16-.38S145,18,145,17.67c-.17-.87.6-1.63,2.3-2.27.64-.22,1-.2,1.06,0l.21.73a1.55,1.55,0,0,1-.13.87.94.94,0,0,0,.09.94c.16.36.47.36,1,0a3.68,3.68,0,0,0,1-.94c.25-.45.07-1-.53-1.67-.11-.07-.13-.46-.08-1.17a1.65,1.65,0,0,0-.49-1,1.16,1.16,0,0,0-.57-.35c-.22-.05-.36-.24-.44-.57a9.55,9.55,0,0,1-.18-1.4,3.49,3.49,0,0,0-.34-1.4,4.42,4.42,0,0,1-.12-2.13,12.84,12.84,0,0,1,.79-2.68c.5-1.36.86-2.23,1-2.61s.58-.56,1.28-.64a3.46,3.46,0,0,0,1.73-.6,2.29,2.29,0,0,1,1.57-.3c.6.08,1.15.13,1.65.16s1,.57,1.54,1.63C157.43,2.53,157.54,2.7,157.61,2.84Z"/><path class="cls-1" d="M9.69.27a2.9,2.9,0,0,1,2.71,2c.13.44.2.7.22.79s.15.44.39,1.06a5.64,5.64,0,0,1,.16,2.59,19.05,19.05,0,0,1-.38,2.35,2.88,2.88,0,0,1-.37.89,1.87,1.87,0,0,0-.31.69,2,2,0,0,0-.16.52s-.06.13-.26.41a2.38,2.38,0,0,0-.52,1.28.51.51,0,0,1-.59.5,7.38,7.38,0,0,0-1.05,0q-.57.12-.48,1.11a16.77,16.77,0,0,0,.83,2.93,9.64,9.64,0,0,1,.69,2.93c-.07.36-.15.55-.23.56a1.39,1.39,0,0,0-.45.19c-.26.14-.34.29-.23.43a.58.58,0,0,1,0,.62,1,1,0,0,1-.87.74,2.18,2.18,0,0,0-.93.54c-.2.2-.53.22-1,.06q-.45-.09-.24-.72a3.07,3.07,0,0,0,.18-1.16c0-.36-.15-.88-.3-1.57s-.27-1.18-.35-1.48c-.21-.78-.34-3-.55-2.91a13.88,13.88,0,0,0-1.28,3.76A9.57,9.57,0,0,1,4,21.26c-.13.24.12.37-.22.44a2,2,0,0,0-.84.35c-.26.18-.38.3-.35.37s-.16.13-.55.17-.71.2-.71.38q0,.6-.93.6C.13,23.57,0,23,0,21.78a13.28,13.28,0,0,1,.1-1.65c.06-.55.12-1.05.19-1.49A16.8,16.8,0,0,1,1,16.11a21.57,21.57,0,0,0,.7-2.47,1.14,1.14,0,0,0-.17-.93c-.18-.24-.08-.65.3-1.25.89-1.38,1.1-2.39.65-3.05-.28-.36,0-1,.77-1.95a2,2,0,0,0,.39-1.33c0-.53-.06-1-.1-1.48a1.88,1.88,0,0,1,.21-1.21L4.48,1.2C4.78.74,5.72.45,7.31.33A12.38,12.38,0,0,1,9.69.27ZM9.27,5a3.21,3.21,0,0,0-1.34-.38c-.7-.11-1,0-.94.47a21.82,21.82,0,0,1-.51,3.71c-.39,2-.5,3-.35,2.84s.37-.27.77-.54A3.9,3.9,0,0,0,8,10.05,19.58,19.58,0,0,0,8.9,7.33C9.3,6,9.43,5.21,9.27,5Z"/></g></g></svg>