<svg xmlns="http://www.w3.org/2000/svg" viewBox="0 0 33.87 12.54"><defs><style>.cls-1{fill:#ff00e7;}</style></defs><g id="Layer_2" data-name="Layer 2"><g id="Layer_1-2" data-name="Layer 1"><path class="cls-1" d="M5.21,1.67c.14.55,0,.76-.29.65-.16-.07-.3,0-.41.22s-.25.12-.54,0c0,0-.11.12-.43.29a.23.23,0,0,1-.34-.1.63.63,0,0,0-.45-.25c-.22,0-.32.28-.28.92a3.43,3.43,0,0,0,.18,1.14c.22.41.47.54.78.38a.87.87,0,0,0,.36-.24A.56.56,0,0,1,4,4.49c.1,0,.16.15.2.54a6,6,0,0,1,0,.87c0,.19-.13.24-.33.16a.72.72,0,0,0-.49,0,.54.54,0,0,1-.59-.11A.33.33,0,0,0,2.4,6a2.32,2.32,0,0,0-.22,1.19c0,.65.06,1,.25,1.05a4.13,4.13,0,0,0,.51.1c.15,0,.3-.11.46-.39s.62-.46,1.16-.2c.24.11.27.38.09.79s-.31.72-.38.93-.34.38-.71.3-.59,0-.6.08-.13.12-.37.1a.5.5,0,0,1-.46-.25c-.09-.21-.23-.15-.4.15s-.33.25-.45-.15c-.07-.22-.17-.26-.3-.14a1.52,1.52,0,0,1-.34.25.7.7,0,0,1-.43,0C0,9.82,0,9.64,0,9.29s.15-.9.27-1.66A5.63,5.63,0,0,1,.72,6,6.42,6.42,0,0,0,.86,3.62a13.73,13.73,0,0,1,0-2.22C.91,1,1.28.89,2,1.05a6.33,6.33,0,0,0,1.34.22c.26,0,.42,0,.49-.05L4.22.86q.33-.28.72.33A1.58,1.58,0,0,1,5.21,1.67Z"/><path class="cls-1" d="M11.14.65a1.21,1.21,0,0,1,.56.83c.11.42.2.76.27,1a2.06,2.06,0,0,1,0,.82c-.06.29-.12.65-.2,1.1s-.17.93-.25,1.45-.16.93-.22,1.21a6,6,0,0,0-.19.79,2.23,2.23,0,0,1-.4.87l0,.08a1.61,1.61,0,0,1,.22.6,2,2,0,0,0,.24.62,5.16,5.16,0,0,0,1.48.91c.61.29.74.44.39.44q-.23,0,0,.24a1.28,1.28,0,0,0,.43.35c.16.06.15.12,0,.18a.54.54,0,0,1-.45,0c-.4-.2-.49-.15-.25.14s0,.24-.23.26c-.48-.3-.73-.49-.74-.57a4.76,4.76,0,0,0-.4-.51.52.52,0,0,0-.62-.17c-.24.06-.5-.12-.79-.54-.09-.13-.13-.13-.1,0s0,.16-.15.12-.21-.2-.29-.54c-.14.21-.27.32-.38.32a.57.57,0,0,1-.54-.3c-.1-.21-.22-.23-.34-.07-.29.33-.56.41-.81.26s-.35-.23-.37-.31-.12-.08-.31,0S6.19,10,6,9.5a6.36,6.36,0,0,1-.24-1.6A6.1,6.1,0,0,1,5.9,6a6.41,6.41,0,0,0,.16-1.73,10,10,0,0,1,0-1.42,1.27,1.27,0,0,1,.43-.81c.24-.22.48-.46.71-.71L7.74.79A1.33,1.33,0,0,1,8.51.51a4.79,4.79,0,0,1,1.56.08A1.74,1.74,0,0,1,11.14.65ZM9,2.65c-.5-.37-.75-.33-.76.13A7.6,7.6,0,0,1,8,4a7.39,7.39,0,0,0-.3,2.14,11.71,11.71,0,0,1,0,1.67c0,.67,0,1,.27,1a1.87,1.87,0,0,0,.87-.34,1.32,1.32,0,0,0,.65-.85,4,4,0,0,1,.32-1,8.57,8.57,0,0,0,.41-1.14c.12-.43.21-.76.26-1a2.23,2.23,0,0,0,0-.88,3.2,3.2,0,0,1,0-.41c0-.22,0-.35,0-.38s-.19,0-.33.1-.22.15-.26.08a.93.93,0,0,1-.17-.4.27.27,0,0,0-.19-.25c-.1,0-.18,0-.26.15S9.05,2.71,9,2.65Z"/><path class="cls-1" d="M14.47.48a.16.16,0,0,0,.12,0,1.23,1.23,0,0,1,.32.07c.15.07.18.15.09.26a1.49,1.49,0,0,0-.23.52,6.54,6.54,0,0,0-.16,1.19q-.06.82-.06,1.2c0,.72-.1,1.17-.3,1.33a3.76,3.76,0,0,0-.42,1.48,8.21,8.21,0,0,0-.2,1.68c0,.53.32.67.92.43a1.62,1.62,0,0,0,.67-.75c.2-.38.34-.69.44-.93A8.69,8.69,0,0,0,16,5.72a3.2,3.2,0,0,0,.1-1.22,6.24,6.24,0,0,1,.2-1.83,5.5,5.5,0,0,1,.53-1.8A1.28,1.28,0,0,1,17.89.48c.26,0,.4.3.4.84a13,13,0,0,1-.13,1.5,7.09,7.09,0,0,1-.24,1.26,15,15,0,0,0-.44,2,14.41,14.41,0,0,1-.54,2.33,1.69,1.69,0,0,1-.37.7,3.71,3.71,0,0,0-.55.41,2,2,0,0,0-.37.41.54.54,0,0,1-.28.25.31.31,0,0,1-.25,0,.44.44,0,0,0-.32,0,.72.72,0,0,0-.28.31c-.1.17-.19.23-.27.2A.35.35,0,0,1,14,10.6q-.1-.12-.18-.12a.48.48,0,0,0-.28,0,.38.38,0,0,1-.25,0,.54.54,0,0,1-.4-.28c-.08-.15-.2-.16-.35,0s-.47.05-.65-.53a2.92,2.92,0,0,1-.06-.89A2.07,2.07,0,0,1,12,8.08c.05-.12.15-.57.31-1.33a4.71,4.71,0,0,1,.46-1.47,3.42,3.42,0,0,0,.33-1.13A6.62,6.62,0,0,0,13.22,3a5.82,5.82,0,0,1,.07-1.21A2.09,2.09,0,0,1,13.66.65a.58.58,0,0,1,.49-.2Z"/><path class="cls-1" d="M20.45.38c.48.13.73.3.77.51a16.78,16.78,0,0,1,.06,1.95c0,.15,0,.32,0,.51a3.06,3.06,0,0,0,0,.42q0,.15-.06.15s-.08.05-.13.16a2.06,2.06,0,0,0-.13.8c0,.41,0,.7,0,.86s0,.23-.06.21-.08,0-.13.17a3.56,3.56,0,0,0-.1,1.1,4.85,4.85,0,0,0,0,1.07,2.08,2.08,0,0,1-.24.43c-.08.13-.1.2-.08.23s0,.07-.11.13a1.2,1.2,0,0,0-.33.45,1,1,0,0,1-.45.36A.65.65,0,0,1,19,10a.37.37,0,0,0-.28.1.65.65,0,0,0-.17.17s-.07.08-.18.11-.24,0-.28-.27a1.47,1.47,0,0,1,0-.36,3.76,3.76,0,0,0,.08-.7,7.84,7.84,0,0,1,.07-.81,1.81,1.81,0,0,1,.23-.69,3.42,3.42,0,0,0,.31-.75.9.9,0,0,0,0-.39,1.13,1.13,0,0,1,0-.39,6.84,6.84,0,0,1,.27-1.38c.19-.75.3-1.16.33-1.25.16-.32.17-.55,0-.68s-.08-.37-.07-1A4.37,4.37,0,0,1,19.52.37c.07-.22.12-.31.16-.25A1.92,1.92,0,0,0,20.45.38Z"/><path class="cls-1" d="M25.54.37a1.21,1.21,0,0,1,1.09.87l.09.35s.07.19.16.46A2.58,2.58,0,0,1,27,3.17a5.72,5.72,0,0,1-.16,1,1.32,1.32,0,0,1-.16.39.72.72,0,0,0-.13.29,1.38,1.38,0,0,1-.16.4,1.12,1.12,0,0,0-.2.57c0,.1-.24.17-.67.24,0,0-.12.07-.2.19a.47.47,0,0,1-.24.2c-.1,0-.17,0-.22-.13s-.13-.17-.21-.13a.31.31,0,0,0-.13.17.66.66,0,0,1-.14.19.22.22,0,0,1-.18.06.17.17,0,0,0-.14,0A3.87,3.87,0,0,0,23.69,8a10.88,10.88,0,0,1-.25,1.46,2.21,2.21,0,0,1-.6.82c-.09.07-.15,0-.16-.08s-.09-.18-.23-.16-.29.09-.29.16a1.59,1.59,0,0,1-.38,0c-.11,0-.16-.18-.16-.54a13,13,0,0,1,.11-1.37,2,2,0,0,1,.17-.59,2.56,2.56,0,0,0,.18-.56A.53.53,0,0,0,22,6.8c-.07-.1,0-.29.13-.55a3.6,3.6,0,0,0,.36-.89.94.94,0,0,0,0-.7c-.09-.15,0-.43.31-.85a1.93,1.93,0,0,0,.2-1,8.31,8.31,0,0,0,0-1A2.16,2.16,0,0,1,23.44.76c.12-.19.49-.31,1.13-.36A5.56,5.56,0,0,1,25.54.37Zm-.39,2.11a1.07,1.07,0,0,0-.34-.17c-.2-.08-.29-.06-.27,0a10.41,10.41,0,0,1-.17,1.11,7.37,7.37,0,0,0-.15,1c0,.07.09,0,.27-.13a1.55,1.55,0,0,0,.36-.42,5.08,5.08,0,0,0,.21-.8A2,2,0,0,0,25.15,2.48Z"/><path class="cls-1" d="M33,.11a1.23,1.23,0,0,1,.55.84q.18.63.27,1a1.27,1.27,0,0,1-.13.81,3.81,3.81,0,0,0-.33,1.09,8.17,8.17,0,0,0-.13,1.46,6.32,6.32,0,0,1-.09,1.22,4.42,4.42,0,0,0-.18.77,2.47,2.47,0,0,1-.41.88,1.62,1.62,0,0,0-.34.62c0,.07-.07.25-.27.53s-.37.4-.51.34a1.78,1.78,0,0,0-.59-.08,1.07,1.07,0,0,0-.9.63c-.11.16-.24.16-.39,0A2.25,2.25,0,0,0,29,9.8c-.22-.13-.31-.09-.26.11a.28.28,0,0,1-.2.39c-.19.07-.32-.05-.4-.35a9.1,9.1,0,0,0-.31-1,4.79,4.79,0,0,1,0-2.86,5.87,5.87,0,0,0,.12-2,9.46,9.46,0,0,1,0-1.71,1.35,1.35,0,0,1,.43-.82c.24-.22.48-.47.71-.72A2,2,0,0,1,29.6.38a5.6,5.6,0,0,1,.75-.14c.41-.06.94-.13,1.6-.19A1.86,1.86,0,0,1,33,.11Zm-2.14,2c-.5-.34-.76-.3-.78.13a7.24,7.24,0,0,1-.25,1.25,6.84,6.84,0,0,0-.3,2.14c0,.44,0,.84,0,1.18s.1.51.32.51a2.84,2.84,0,0,1,.82.17c.33.11.53,0,.59-.36a3.82,3.82,0,0,1,.32-1A8.21,8.21,0,0,0,32.06,5c.13-.44.21-.77.26-1a2.4,2.4,0,0,0,0-.88c-.1-.47-.3-.72-.62-.73A1.35,1.35,0,0,1,30.89,2.11Z"/></g></g></svg>