<svg xmlns="http://www.w3.org/2000/svg" viewBox="0 0 63.46 25.77"><defs><style>.cls-1{fill:#ff00e7;}</style></defs><g id="Layer_2" data-name="Layer 2"><g id="Layer_1-2" data-name="Layer 1"><path class="cls-1" d="M11.74,1.32A2.07,2.07,0,0,1,12,2.88a4.25,4.25,0,0,1-.42,1.31,1.15,1.15,0,0,0-.23.84,2.69,2.69,0,0,1-.06,1c-.08.4-.24.52-.49.36a1.75,1.75,0,0,0-.8-.28,2.59,2.59,0,0,0-1.75.76,1.31,1.31,0,0,0-.3,1.2A10.68,10.68,0,0,1,8,9.22c0-.08-.17.16-.53.72a5.55,5.55,0,0,0-.3,2c0,1-.06,1.75-.06,2.15s0,.61-.14.56-.21.07-.34.36a9.27,9.27,0,0,0-.29,2.79,15,15,0,0,0,.08,2.68c0,.13-.16.47-.57,1-.21.31-.28.51-.22.59s0,.18-.26.28a3.73,3.73,0,0,0-.89,1.08,2.22,2.22,0,0,1-1.1.84,2,2,0,0,1-1,.18.91.91,0,0,0-.68.18,1.2,1.2,0,0,0-.43.44c-.05.1-.2.18-.47.24-.46.1-.73-.15-.81-.76a2.07,2.07,0,0,1,.05-.92A9.38,9.38,0,0,0,.31,22c.09-.93.14-1.61.17-2a3.88,3.88,0,0,1,.63-1.7,7.1,7.1,0,0,0,.79-1.86,2,2,0,0,0,.05-1,3.38,3.38,0,0,1-.1-1A17.3,17.3,0,0,1,2.54,11c.49-1.85.77-2.87.85-3.05.36-.88.37-1.45,0-1.72S2.63,6,1.9,6.43a1.52,1.52,0,0,1-1.14.12C.44,6.49.31,6.19.38,5.63s.1-1,.1-1.32A7.79,7.79,0,0,1,.8,2.12,2,2,0,0,1,2.79.6,18.42,18.42,0,0,1,6.11.52,23.24,23.24,0,0,0,10,.36,3.15,3.15,0,0,1,11.74,1.32Z"/><path class="cls-1" d="M26,2.43c.38,1.49.14,2.07-.73,1.76-.4-.18-.75,0-1,.6-.19.34-.65.32-1.38,0,.08,0-.28.31-1.09.77a.58.58,0,0,1-.87-.26,1.57,1.57,0,0,0-1.16-.69c-.57-.05-.8.78-.71,2.49a8.87,8.87,0,0,0,.47,3.09q.81,1.66,2,1a2.36,2.36,0,0,0,.91-.64,1.42,1.42,0,0,1,.63-.47c.24-.09.41.4.51,1.46a18.47,18.47,0,0,1,.1,2.35c0,.52-.34.67-.85.45a1.57,1.57,0,0,0-1.25-.1,1.34,1.34,0,0,1-1.5-.31.81.81,0,0,0-1.18.22,6.71,6.71,0,0,0-.57,3.21c-.05,1.75.17,2.69.65,2.83a7.14,7.14,0,0,0,1.3.28c.38.05.77-.31,1.18-1.05.59-1,1.58-1.24,2.95-.55.62.31.7,1,.25,2.14s-.79,2-1,2.53c-.27.74-.87,1-1.82.81s-1.51-.15-1.54.22-.31.31-.94.25a1.21,1.21,0,0,1-1.16-.68c-.25-.54-.59-.41-1,.4s-.83.69-1.16-.4c-.16-.57-.41-.7-.75-.37a3.54,3.54,0,0,1-.86.67,1.89,1.89,0,0,1-1.1.13c-.49-.06-.65-.56-.49-1.5s.39-2.44.67-4.48a15.65,15.65,0,0,1,1.12-4.48c.41-.94.51-3.07.34-6.39a37.81,37.81,0,0,1-.06-6C15,.64,15.94.33,17.67.76a16.72,16.72,0,0,0,3.44.6,1.94,1.94,0,0,0,1.23-.13c.18-.14.55-.47,1.12-1s1.18-.21,1.82.9A3.54,3.54,0,0,1,26,2.43Z"/><path class="cls-1" d="M39.18,3.43a8.28,8.28,0,0,0-.08,2.93c.08.62.18,1.15.28,1.59a5.85,5.85,0,0,1,0,1.93,7.45,7.45,0,0,1-.26,1.67,7.22,7.22,0,0,0,.1,2.23c.11,1.25.16,2.62.16,4.11a15.16,15.16,0,0,1-.16,2.89c-.16.42-.33.67-.5.72s-.43.33-.75.81-.45.74-.29.68,0,.08-.6.42a6.57,6.57,0,0,1-.92.51,3.63,3.63,0,0,1-.58-.17c-.38-.09-.6-.23-.67-.44S34.69,23,34.4,23s-.52-.24-.67-.7a1.81,1.81,0,0,1,0-1.26,2,2,0,0,0,.08-1.65c-.21-.37-.59-.33-1.13.11a4.94,4.94,0,0,0-1.14,1.21A5.54,5.54,0,0,0,31,22.52a1.92,1.92,0,0,1-1,1.57c-.54.26-.85.36-.93.32a1.72,1.72,0,0,0-.73.06c-.43.09-.61.21-.54.38s0,.27-.26.3c-.44.09-.65-.45-.65-1.61,0-.43,0-1,0-1.74a3.52,3.52,0,0,1,.62-2.08,5.32,5.32,0,0,0,.91-2.18c.18-.87.3-1.55.35-2.06a3.36,3.36,0,0,1,.94-2.21,3.48,3.48,0,0,0,.76-1.69c.14-.71.24-1.36.33-2s.21-.91.4-.95.39-.26.61-.66.24-.63.16-.81,0-.38.36-.63a3.18,3.18,0,0,0,.63-1.91,10.68,10.68,0,0,1,.75-2.84A2.43,2.43,0,0,1,35.78.33,20.18,20.18,0,0,1,38.33.12c.62,0,1,.81,1,2.42A5.74,5.74,0,0,1,39.18,3.43ZM35.43,7.66l-2.27,6.91a5.09,5.09,0,0,0,1.67.15,1.39,1.39,0,0,0,1.07-.54Z"/><path class="cls-1" d="M51.08,1.69a7.1,7.1,0,0,1,.67,2.43A12,12,0,0,1,51.93,8a8.34,8.34,0,0,0,.24,3.41c.33,1.19.57,1.47.74.85s.56-2.11,1.23-4.49,1-3.85,1.2-4.42a2.79,2.79,0,0,1,1-1.55,1.39,1.39,0,0,1,1.58-.39,1.34,1.34,0,0,0,1.39-.06,1.93,1.93,0,0,1,1.36-.28c.27.07.55,1.15.85,3.21a2,2,0,0,0,.4,1,2.32,2.32,0,0,1,.45,1,6.86,6.86,0,0,1-.18,1.2A4,4,0,0,0,62.09,9a1.78,1.78,0,0,0,.45,1,1,1,0,0,1,.37.68,1.89,1.89,0,0,1-.33,1.5,1.36,1.36,0,0,0-.44.86,20.16,20.16,0,0,0,.5,5.13c.45,2.34.71,3.91.79,4.71s-.06,1.25-.42,1.34a1.13,1.13,0,0,0-.79.83c-.16.52-.42.68-.77.5-1.19-.51-1.92-.54-2.19-.07s-.67.36-1.13-.29a3.79,3.79,0,0,1-.45-2.74c.16-1.16.27-2,.31-2.42s.08-1.23.14-2.34.08-3.91.08-8.49c-.62,1.24-1.05,1.77-1.3,1.59a.83.83,0,0,1-.36-.7c0-.28-.1-.19-.28.27A4.27,4.27,0,0,0,55.9,12c0,.58,0,1.2-.08,1.84a6.13,6.13,0,0,1-.73,2.6,7.25,7.25,0,0,0-.61,2.38,13.21,13.21,0,0,1-.6,2.73c-.27.68-.58,1-.92,1.09a1.55,1.55,0,0,0-.87.46c-.89.93-1.42.74-1.58-.58a6.14,6.14,0,0,1,0-1.72c.08-.69.15-1.37.2-2a6.24,6.24,0,0,0-.2-1.86,5.72,5.72,0,0,1-.2-1.74c0-1.52-.22-2.36-.8-2.52-.36-.08-.46-.43-.31-1a3.6,3.6,0,0,0,.1-1.48c-.22-.69-.69,0-1.42,1.94a56.11,56.11,0,0,0-1.68,6.24,43.29,43.29,0,0,1-1.4,5.27c-.41.87-.92,1.12-1.54.73a1.73,1.73,0,0,0-1.42.1c-.62.25-1.17.49-1.66.72s-.46-.18-.1-1.22.7-1.93,1-2.66a19.63,19.63,0,0,0,.57-3.37,9.73,9.73,0,0,1,1.66-4.57,6.89,6.89,0,0,0,1.22-5.07,8.86,8.86,0,0,1,.32-3.44,32.86,32.86,0,0,0,.73-3.38q.12-1.32,2.7-.57C50,1.33,50.92,1.62,51.08,1.69Z"/></g></g></svg>