<svg xmlns="http://www.w3.org/2000/svg" viewBox="0 0 28.44 28.38"><defs><style>.cls-1{fill:#ff01e6;fill-rule:evenodd;}</style></defs><g id="Layer_2" data-name="Layer 2"><g id="Layer_1-2" data-name="Layer 1"><path class="cls-1" d="M20.24.07c-4-.1-8-.09-12,0A8.49,8.49,0,0,0,.08,8.13C0,12.2,0,16.29.08,20.36a8.51,8.51,0,0,0,8.34,8H20.06A8.57,8.57,0,0,0,28.43,20q0-5.75,0-11.51A8.56,8.56,0,0,0,20.24.07Zm6.08,19.56a6.45,6.45,0,0,1-6.69,6.63c-1.8,0-3.6,0-5.4,0s-3.6,0-5.4,0a6.52,6.52,0,0,1-6.69-6.55q-.12-5.51,0-11A6.52,6.52,0,0,1,8.75,2.16q5.46-.08,10.92,0a6.47,6.47,0,0,1,6.66,6.68C26.36,12.43,26.35,16,26.32,19.63Z"/><path class="cls-1" d="M22.23,8.12A1.94,1.94,0,0,1,20.35,6.2a1.88,1.88,0,0,1,3.75,0A1.94,1.94,0,0,1,22.23,8.12Z"/><path class="cls-1" d="M14.24,7a7.19,7.19,0,1,0,7.21,7.15A7.2,7.2,0,0,0,14.24,7Zm0,12.21a5,5,0,1,1,5-5A5.07,5.07,0,0,1,14.23,19.24Z"/></g></g></svg>